<svg width="32" height="26" viewBox="0 0 32 26" fill="none" xmlns="http://www.w3.org/2000/svg">
<path d="M16 6.85349V1.92482C15.9994 1.54419 15.8817 1.17227 15.662 0.855912C15.4422 0.539556 15.1301 0.292927 14.765 0.147103C14.3999 0.00127945 13.9982 -0.0372126 13.6104 0.0364786C13.2226 0.11017 12.8662 0.292746 12.586 0.561199L0 12.5179L12.586 24.4727C12.7713 24.6521 12.9916 24.7946 13.2343 24.8918C13.477 24.989 13.7372 25.039 14 25.039C14.2628 25.039 14.523 24.989 14.7657 24.8918C15.0084 24.7946 15.2287 24.6521 15.414 24.4727C15.5998 24.2939 15.7472 24.0817 15.8478 23.848C15.9483 23.6144 16.0001 23.3639 16 23.111V18.3171C21.5 18.4481 27.51 19.4073 32 26V24.074C32 15.1508 25 7.81264 16 6.85349Z" fill="#FF0000"/>
</svg>
