<svg width="1423" height="527" viewBox="0 0 1423 527" fill="none" xmlns="http://www.w3.org/2000/svg">
<path d="M119.171 428.563L91.1714 433.563L102.671 436.563V445.063H115.171L119.171 453.063H130.671L137.671 456.563V464.563H144.671L148.671 456.563H155.671L163.171 461.063L169.171 454.563L175.171 453.063L181.171 458.063L183.671 453.063H196.671L173.171 435.063L155.671 450.063H148.671L146.671 445.063H142.171L140.671 450.063C137.871 454.063 135.505 450.729 134.671 448.563L119.171 428.563Z" fill="black"/>
<path d="M40.5681 11.8055L13.0705 4.53385L22.2334 12.1029L18.6496 19.8104L29.9842 25.0807L30.2383 34.0214L40.6661 38.8701L45.5378 44.9952L42.1648 52.2493L48.5122 55.2007L55.5123 49.6331L61.8597 52.5844L66.7632 59.8271L74.9443 56.4629L81.0174 57.6325L84.3499 64.6961L88.7249 61.2163L100.513 66.6974L86.7931 40.4674L64.6003 46.6904L58.2529 43.7391L58.5475 38.362L54.467 36.4646L50.9987 40.366C46.7733 42.8126 46.0327 38.7922 46.1905 36.4761L40.5681 11.8055Z" fill="black"/>
<path d="M1123.97 459.265L1110.66 473.298L1118.27 470.507L1121.86 475.507L1128.75 470.556L1134.34 473.677L1140.67 469.121L1146.01 468.407L1149.39 473.113L1153.25 470.34L1152.07 464.049L1155.93 461.276L1161.96 460.952L1162.52 454.752L1165.19 451.492L1170.61 452.057L1169.87 448.125L1177.03 442.975L1156.47 441.696L1153.18 457.453L1149.32 460.226L1146.1 458.077L1143.62 459.859L1144.91 463.395C1145.06 466.857 1142.35 465.834 1140.97 464.889L1123.97 459.265Z" fill="black"/>
<path d="M1292.1 197.265L1278.79 211.298L1286.39 208.507L1289.99 213.507L1296.87 208.556L1302.46 211.677L1308.8 207.121L1314.13 206.407L1317.52 211.113L1321.37 208.34L1320.19 202.049L1324.05 199.276L1330.09 198.952L1330.64 192.752L1333.31 189.492L1338.74 190.057L1338 186.125L1345.16 180.975L1324.6 179.696L1321.3 195.453L1317.45 198.226L1314.23 196.077L1311.75 197.859L1313.04 201.395C1313.19 204.857 1310.47 203.834 1309.1 202.889L1292.1 197.265Z" fill="black"/>
<path d="M1388.41 488.549L1374.81 486.119L1378.96 490.27L1376.54 495.573L1381.98 498.05L1381.44 503.833L1386.45 506.112L1388.49 509.683L1386.22 514.674L1389.26 516.061L1393.28 511.863L1396.32 513.25L1398.3 517.544L1402.76 514.678L1405.79 514.931L1406.98 519.239L1409.49 516.615L1415.14 519.191L1410.04 503.305L1398.17 509.195L1395.12 507.808L1395.68 504.292L1393.72 503.4L1391.65 506.222C1389.29 508.163 1389.21 505.614 1389.46 504.098L1388.41 488.549Z" fill="black"/>
</svg>
