<svg width="1920" height="1080" viewBox="0 0 1920 1080" fill="none" xmlns="http://www.w3.org/2000/svg">
<g clip-path="url(#clip0)">
<rect width="1920" height="1080" fill="#161621"/>
<path opacity="0.4" d="M176 534.5C154 416.5 37 411.5 -1 434.5L0.5 1079H1923.5V527.5C1704 430.5 1432.5 461.5 1402 583C1338 589.8 1320.5 627.5 1311.5 652C1293.5 634 1256.5 640 1246.5 645C1134.5 456 903 539 859 632.5C842.6 638.1 824.5 650.167 817.5 655.5C782.7 631.1 728 628.5 706 637C629.6 535.4 515.5 579 479.5 624.5C465.1 610.9 427.167 608.5 410 608.5C390 487 227 479 176 534.5Z" fill="url(#paint0_linear)"/>
<path d="M1628.57 926.72C1626.76 929.157 1628.62 936.922 1629.77 940.5H1621.19C1622.63 940.5 1621.79 934.505 1621.19 931.507C1619.86 930.114 1618.83 928.896 1618.48 928.461C1616.67 925.444 1614.61 924.109 1613.81 923.819L1612 922.369L1614.41 922.804L1616.07 923.819C1617.87 923.703 1616.82 922.804 1616.07 922.369C1614.38 921.557 1613.26 919.033 1612.9 917.872V916.567L1616.07 918.452L1617.57 920.773C1619.14 921.934 1619.43 920.967 1619.38 920.338L1618.33 918.743L1617.57 917.292C1617.42 915.842 1617.57 914.971 1616.67 913.956C1614.28 911.267 1612.85 910.475 1613.81 910.475C1614.41 910.475 1616.42 911.103 1617.57 912.07L1619.98 915.406L1620.73 919.323C1621.58 920.019 1622.09 919.033 1622.24 918.452C1623.08 917.756 1622.99 914.198 1622.84 912.505C1622.36 911.229 1621.54 908.686 1621.19 907.574C1621.09 908.202 1620.95 908.995 1621.19 907.139C1621.43 905.282 1622.39 907.912 1622.84 909.459L1624.65 913.231L1624.2 919.323C1624.92 922.572 1627.81 922.997 1629.17 922.804C1628.69 919.671 1633.29 917.34 1635.64 916.567L1637 914.101V917.147L1635.64 918.452C1633.72 919.033 1631.63 921.595 1630.83 922.804C1631.07 925.125 1629.42 926.382 1628.57 926.72Z" fill="black"/>
<path d="M833.5 915.168C825.9 913.568 823.333 929.168 823 937.168H840.5C846.1 917.168 838.167 914.168 833.5 915.168Z" fill="black"/>
<path d="M1126.5 916.668C1118.9 914.268 1118.33 929.335 1119 937.168H1136C1136 916.768 1129.67 915.002 1126.5 916.668Z" fill="black"/>
<path d="M1231 919.668C1225.4 918.868 1225.33 931.002 1226 937.168H1239C1241 919.568 1234.5 918.168 1231 919.668Z" fill="black"/>
<path d="M1007.49 910.212C999.897 908.191 997.333 927.895 997 937.999H1014.48C1020.08 912.738 1012.15 908.949 1007.49 910.212Z" fill="black"/>
<path d="M1300.23 912.107C1292.63 909.076 1292.07 928.106 1292.73 938H1309.72C1309.72 912.233 1303.39 910.002 1300.23 912.107Z" fill="black"/>
<path d="M1404.63 915.896C1399.04 914.886 1398.97 930.211 1399.64 938H1412.63C1414.62 915.77 1408.13 914.002 1404.63 915.896Z" fill="black"/>
<path d="M1577 911.5L1586 938.5H1600.5L1592 908L1612 901.5L1607 889L1586 894.5L1581 877L1568 882.5L1574 899L1553 904L1558 917.5L1577 911.5Z" fill="black"/>
<path d="M1412.5 923.5L1411 937H1404L1407 920.5L1398.5 918.5V912L1409 914.5V908L1415 909.5V918.5H1421.5V923.5H1412.5Z" fill="black"/>
<path d="M1105 910.5L1096 937.5H1081.5L1090 907L1070 900.5L1075 888L1096 893.5L1101 876L1114 881.5L1108 898L1129 903L1124 916.5L1105 910.5Z" fill="black"/>
<path d="M1269.5 922.5L1271 936H1278L1275 919.5L1283.5 917.5V911L1273 913.5V907L1267 908.5V917.5H1260.5V922.5H1269.5Z" fill="black"/>
<path d="M798 910.5L789 937.5H774.5L783 907L763 900.5L768 888L789 893.5L794 876L807 881.5L801 898L822 903L817 916.5L798 910.5Z" fill="black"/>
<path d="M962.5 922.5L964 936H971L968 919.5L976.5 917.5V911L966 913.5V907L960 908.5V917.5H953.5V922.5H962.5Z" fill="black"/>
<path d="M911.5 910.5L920.5 937.5H935L926.5 907L946.5 900.5L941.5 888L920.5 893.5L915.5 876L902.5 881.5L908.5 898L887.5 903L892.5 916.5L911.5 910.5Z" fill="black"/>
<path d="M867 922.5L865.5 936H858.5L861.5 919.5L853 917.5V911L863.5 913.5V907L869.5 908.5V917.5H876V922.5H867Z" fill="black"/>
<rect y="936" width="1920" height="144" fill="black"/>
<path d="M350.383 927.585C348.851 930.227 348.812 935.003 348.984 937.062V937.708H356.202C358.441 936.099 357.97 930.576 357.454 928.015C357.749 932.323 355.367 935.171 354.14 936.056C353.551 935.597 354.385 931.749 354.876 929.882C353.698 930.313 352.446 937.062 352.446 936.631V930.6L351.12 937.062C349.824 934.247 350.089 929.571 350.383 927.585Z" fill="black"/>
<path d="M375.32 938.282C375.787 936.607 375.703 932.941 371.638 931.677C372.718 930.839 375.365 930.614 377.309 936.415C377.555 933.759 377.898 928.102 377.309 926.723C378.242 928.47 380.064 932.596 379.887 935.123C380.43 932.153 381.455 926.167 381.375 925.103C381.37 925.068 381.365 925.034 381.36 925C381.367 925.026 381.372 925.061 381.375 925.103C381.72 927.517 382.282 932.608 381.875 934.477C382.293 933.161 383.702 930.643 386 931.103C384.748 932.323 382.435 935.611 383.201 939L375.32 938.282Z" fill="black"/>
<path d="M338.586 928.446C337.525 930.112 338.144 935.315 338.586 937.708H342.268C341.09 934.606 344.232 930.815 345.951 929.308C344.714 929.308 342.98 931.222 342.268 932.179C343.034 928.274 341.458 925.766 340.574 925C342.165 928.389 340.599 933.783 339.617 936.056C338.32 934.735 338.389 930.432 338.586 928.446Z" fill="black"/>
<path d="M464.383 927.585C462.851 930.227 462.812 935.003 462.984 937.062V937.708H470.202C472.441 936.099 471.97 930.576 471.454 928.015C471.749 932.323 469.367 935.171 468.14 936.056C467.551 935.597 468.385 931.749 468.876 929.882C467.698 930.313 466.446 937.062 466.446 936.631V930.6L465.12 937.062C463.824 934.247 464.089 929.571 464.383 927.585Z" fill="black"/>
<path d="M489.32 938.282C489.787 936.607 489.703 932.941 485.638 931.677C486.718 930.839 489.365 930.614 491.309 936.415C491.555 933.759 491.898 928.102 491.309 926.723C492.242 928.47 494.064 932.596 493.887 935.123C494.43 932.153 495.455 926.167 495.375 925.103C495.37 925.068 495.365 925.034 495.36 925C495.367 925.026 495.372 925.061 495.375 925.103C495.72 927.517 496.282 932.608 495.875 934.477C496.293 933.161 497.702 930.643 500 931.103C498.748 932.323 496.435 935.611 497.201 939L489.32 938.282Z" fill="black"/>
<path d="M452.586 928.446C451.525 930.112 452.144 935.315 452.586 937.708H456.268C455.09 934.606 458.232 930.815 459.951 929.308C458.714 929.308 456.98 931.222 456.268 932.179C457.034 928.274 455.458 925.766 454.574 925C456.165 928.389 454.599 933.783 453.617 936.056C452.32 934.735 452.389 930.432 452.586 928.446Z" fill="black"/>
<path d="M579.383 928.585C577.851 931.227 577.812 936.003 577.984 938.062V938.708H585.202C587.441 937.099 586.97 931.576 586.454 929.015C586.749 933.323 584.367 936.171 583.14 937.056C582.551 936.597 583.385 932.749 583.876 930.882C582.698 931.313 581.446 938.062 581.446 937.631V931.6L580.12 938.062C578.824 935.247 579.089 930.571 579.383 928.585Z" fill="black"/>
<path d="M604.32 939.282C604.787 937.607 604.703 933.941 600.638 932.677C601.718 931.839 604.365 931.614 606.309 937.415C606.555 934.759 606.898 929.102 606.309 927.723C607.242 929.47 609.064 933.596 608.887 936.123C609.43 933.153 610.455 927.167 610.375 926.103C610.37 926.068 610.365 926.034 610.36 926C610.367 926.026 610.372 926.061 610.375 926.103C610.72 928.517 611.282 933.608 610.875 935.477C611.293 934.161 612.702 931.643 615 932.103C613.748 933.323 611.435 936.611 612.201 940L604.32 939.282Z" fill="black"/>
<path d="M567.586 929.446C566.525 931.112 567.144 936.315 567.586 938.708H571.268C570.09 935.606 573.232 931.815 574.951 930.308C573.714 930.308 571.98 932.222 571.268 933.179C572.034 929.274 570.458 926.766 569.574 926C571.165 929.389 569.599 934.783 568.617 937.056C567.32 935.735 567.389 931.432 567.586 929.446Z" fill="black"/>
<path d="M698.383 926.585C696.851 929.227 696.812 934.003 696.984 936.062V936.708H704.202C706.441 935.099 705.97 929.576 705.454 927.015C705.749 931.323 703.367 934.171 702.14 935.056C701.551 934.597 702.385 930.749 702.876 928.882C701.698 929.313 700.446 936.062 700.446 935.631V929.6L699.12 936.062C697.824 933.247 698.089 928.571 698.383 926.585Z" fill="black"/>
<path d="M723.32 937.282C723.787 935.607 723.703 931.941 719.638 930.677C720.718 929.839 723.365 929.614 725.309 935.415C725.555 932.759 725.898 927.102 725.309 925.723C726.242 927.47 728.064 931.596 727.887 934.123C728.43 931.153 729.455 925.167 729.375 924.103C729.37 924.068 729.365 924.034 729.36 924C729.367 924.026 729.372 924.061 729.375 924.103C729.72 926.517 730.282 931.608 729.875 933.477C730.293 932.161 731.702 929.643 734 930.103C732.748 931.323 730.435 934.611 731.201 938L723.32 937.282Z" fill="black"/>
<path d="M686.586 927.446C685.525 929.112 686.144 934.315 686.586 936.708H690.268C689.09 933.606 692.232 929.815 693.951 928.308C692.714 928.308 690.98 930.222 690.268 931.179C691.034 927.274 689.458 924.766 688.574 924C690.165 927.389 688.599 932.783 687.617 935.056C686.32 933.735 686.389 929.432 686.586 927.446Z" fill="black"/>
<path d="M812.383 926.585C810.851 929.227 810.812 934.003 810.984 936.062V936.708H818.202C820.441 935.099 819.97 929.576 819.454 927.015C819.749 931.323 817.367 934.171 816.14 935.056C815.551 934.597 816.385 930.749 816.876 928.882C815.698 929.313 814.446 936.062 814.446 935.631V929.6L813.12 936.062C811.824 933.247 812.089 928.571 812.383 926.585Z" fill="black"/>
<path d="M837.32 937.282C837.787 935.607 837.703 931.941 833.638 930.677C834.718 929.839 837.365 929.614 839.309 935.415C839.555 932.759 839.898 927.102 839.309 925.723C840.242 927.47 842.064 931.596 841.887 934.123C842.43 931.153 843.455 925.167 843.375 924.103C843.37 924.068 843.365 924.034 843.36 924C843.367 924.026 843.372 924.061 843.375 924.103C843.72 926.517 844.282 931.608 843.875 933.477C844.293 932.161 845.702 929.643 848 930.103C846.748 931.323 844.435 934.611 845.201 938L837.32 937.282Z" fill="black"/>
<path d="M800.586 927.446C799.525 929.112 800.144 934.315 800.586 936.708H804.268C803.09 933.606 806.232 929.815 807.951 928.308C806.714 928.308 804.98 930.222 804.268 931.179C805.034 927.274 803.458 924.766 802.574 924C804.165 927.389 802.599 932.783 801.617 935.056C800.32 933.735 800.389 929.432 800.586 927.446Z" fill="black"/>
<path d="M922.383 926.585C920.851 929.227 920.812 934.003 920.984 936.062V936.708H928.202C930.441 935.099 929.97 929.576 929.454 927.015C929.749 931.323 927.367 934.171 926.14 935.056C925.551 934.597 926.385 930.749 926.876 928.882C925.698 929.313 924.446 936.062 924.446 935.631V929.6L923.12 936.062C921.824 933.247 922.089 928.571 922.383 926.585Z" fill="black"/>
<path d="M947.32 937.282C947.787 935.607 947.703 931.941 943.638 930.677C944.718 929.839 947.365 929.614 949.309 935.415C949.555 932.759 949.898 927.102 949.309 925.723C950.242 927.47 952.064 931.596 951.887 934.123C952.43 931.153 953.455 925.167 953.375 924.103C953.37 924.068 953.365 924.034 953.36 924C953.367 924.026 953.372 924.061 953.375 924.103C953.72 926.517 954.282 931.608 953.875 933.477C954.293 932.161 955.702 929.643 958 930.103C956.748 931.323 954.435 934.611 955.201 938L947.32 937.282Z" fill="black"/>
<path d="M910.586 927.446C909.525 929.112 910.144 934.315 910.586 936.708H914.268C913.09 933.606 916.232 929.815 917.951 928.308C916.714 928.308 914.98 930.222 914.268 931.179C915.034 927.274 913.458 924.766 912.574 924C914.165 927.389 912.599 932.783 911.617 935.056C910.32 933.735 910.389 929.432 910.586 927.446Z" fill="black"/>
<path d="M687.383 927.585C685.851 930.227 685.812 935.003 685.984 937.062V937.708H693.202C695.441 936.099 694.97 930.576 694.454 928.015C694.749 932.323 692.367 935.171 691.14 936.056C690.551 935.597 691.385 931.749 691.876 929.882C690.698 930.313 689.446 937.062 689.446 936.631V930.6L688.12 937.062C686.824 934.247 687.089 929.571 687.383 927.585Z" fill="black"/>
<path d="M712.32 938.282C712.787 936.607 712.703 932.941 708.638 931.677C709.718 930.839 712.365 930.614 714.309 936.415C714.555 933.759 714.898 928.102 714.309 926.723C715.242 928.47 717.064 932.596 716.887 935.123C717.43 932.153 718.455 926.167 718.375 925.103C718.37 925.068 718.365 925.034 718.36 925C718.367 925.026 718.372 925.061 718.375 925.103C718.72 927.517 719.282 932.608 718.875 934.477C719.293 933.161 720.702 930.643 723 931.103C721.748 932.323 719.435 935.611 720.201 939L712.32 938.282Z" fill="black"/>
<path d="M675.586 928.446C674.525 930.112 675.144 935.315 675.586 937.708H679.268C678.09 934.606 681.232 930.815 682.951 929.308C681.714 929.308 679.98 931.222 679.268 932.179C680.034 928.274 678.458 925.766 677.574 925C679.165 928.389 677.599 933.783 676.617 936.056C675.32 934.735 675.389 930.432 675.586 928.446Z" fill="black"/>
<path d="M801.383 927.585C799.851 930.227 799.812 935.003 799.984 937.062V937.708H807.202C809.441 936.099 808.97 930.576 808.454 928.015C808.749 932.323 806.367 935.171 805.14 936.056C804.551 935.597 805.385 931.749 805.876 929.882C804.698 930.313 803.446 937.062 803.446 936.631V930.6L802.12 937.062C800.824 934.247 801.089 929.571 801.383 927.585Z" fill="black"/>
<path d="M826.32 938.282C826.787 936.607 826.703 932.941 822.638 931.677C823.718 930.839 826.365 930.614 828.309 936.415C828.555 933.759 828.898 928.102 828.309 926.723C829.242 928.47 831.064 932.596 830.887 935.123C831.43 932.153 832.455 926.167 832.375 925.103C832.37 925.068 832.365 925.034 832.36 925C832.367 925.026 832.372 925.061 832.375 925.103C832.72 927.517 833.282 932.608 832.875 934.477C833.293 933.161 834.702 930.643 837 931.103C835.748 932.323 833.435 935.611 834.201 939L826.32 938.282Z" fill="black"/>
<path d="M789.586 928.446C788.525 930.112 789.144 935.315 789.586 937.708H793.268C792.09 934.606 795.232 930.815 796.951 929.308C795.714 929.308 793.98 931.222 793.268 932.179C794.034 928.274 792.458 925.766 791.574 925C793.165 928.389 791.599 933.783 790.617 936.056C789.32 934.735 789.389 930.432 789.586 928.446Z" fill="black"/>
<path d="M916.383 928.585C914.851 931.227 914.812 936.003 914.984 938.062V938.708H922.202C924.441 937.099 923.97 931.576 923.454 929.015C923.749 933.323 921.367 936.171 920.14 937.056C919.551 936.597 920.385 932.749 920.876 930.882C919.698 931.313 918.446 938.062 918.446 937.631V931.6L917.12 938.062C915.824 935.247 916.089 930.571 916.383 928.585Z" fill="black"/>
<path d="M941.32 939.282C941.787 937.607 941.703 933.941 937.638 932.677C938.718 931.839 941.365 931.614 943.309 937.415C943.555 934.759 943.898 929.102 943.309 927.723C944.242 929.47 946.064 933.596 945.887 936.123C946.43 933.153 947.455 927.167 947.375 926.103C947.37 926.068 947.365 926.034 947.36 926C947.367 926.026 947.372 926.061 947.375 926.103C947.72 928.517 948.282 933.608 947.875 935.477C948.293 934.161 949.702 931.643 952 932.103C950.748 933.323 948.435 936.611 949.201 940L941.32 939.282Z" fill="black"/>
<path d="M904.586 929.446C903.525 931.112 904.144 936.315 904.586 938.708H908.268C907.09 935.606 910.232 931.815 911.951 930.308C910.714 930.308 908.98 932.222 908.268 933.179C909.034 929.274 907.458 926.766 906.574 926C908.165 929.389 906.599 934.783 905.617 937.056C904.32 935.735 904.389 931.432 904.586 929.446Z" fill="black"/>
<path d="M1035.38 926.585C1033.85 929.227 1033.81 934.003 1033.98 936.062V936.708H1041.2C1043.44 935.099 1042.97 929.576 1042.45 927.015C1042.75 931.323 1040.37 934.171 1039.14 935.056C1038.55 934.597 1039.39 930.749 1039.88 928.882C1038.7 929.313 1037.45 936.062 1037.45 935.631V929.6L1036.12 936.062C1034.82 933.247 1035.09 928.571 1035.38 926.585Z" fill="black"/>
<path d="M1060.32 937.282C1060.79 935.607 1060.7 931.941 1056.64 930.677C1057.72 929.839 1060.36 929.614 1062.31 935.415C1062.55 932.759 1062.9 927.102 1062.31 925.723C1063.24 927.47 1065.06 931.596 1064.89 934.123C1065.43 931.153 1066.45 925.167 1066.37 924.103C1066.37 924.068 1066.36 924.034 1066.36 924C1066.37 924.026 1066.37 924.061 1066.37 924.103C1066.72 926.517 1067.28 931.608 1066.88 933.477C1067.29 932.161 1068.7 929.643 1071 930.103C1069.75 931.323 1067.44 934.611 1068.2 938L1060.32 937.282Z" fill="black"/>
<path d="M1023.59 927.446C1022.53 929.112 1023.14 934.315 1023.59 936.708H1027.27C1026.09 933.606 1029.23 929.815 1030.95 928.308C1029.71 928.308 1027.98 930.222 1027.27 931.179C1028.03 927.274 1026.46 924.766 1025.57 924C1027.17 927.389 1025.6 932.783 1024.62 935.056C1023.32 933.735 1023.39 929.432 1023.59 927.446Z" fill="black"/>
<path d="M1149.38 926.585C1147.85 929.227 1147.81 934.003 1147.98 936.062V936.708H1155.2C1157.44 935.099 1156.97 929.576 1156.45 927.015C1156.75 931.323 1154.37 934.171 1153.14 935.056C1152.55 934.597 1153.39 930.749 1153.88 928.882C1152.7 929.313 1151.45 936.062 1151.45 935.631V929.6L1150.12 936.062C1148.82 933.247 1149.09 928.571 1149.38 926.585Z" fill="black"/>
<path d="M1174.32 937.282C1174.79 935.607 1174.7 931.941 1170.64 930.677C1171.72 929.839 1174.36 929.614 1176.31 935.415C1176.55 932.759 1176.9 927.102 1176.31 925.723C1177.24 927.47 1179.06 931.596 1178.89 934.123C1179.43 931.153 1180.45 925.167 1180.37 924.103C1180.37 924.068 1180.36 924.034 1180.36 924C1180.37 924.026 1180.37 924.061 1180.37 924.103C1180.72 926.517 1181.28 931.608 1180.88 933.477C1181.29 932.161 1182.7 929.643 1185 930.103C1183.75 931.323 1181.44 934.611 1182.2 938L1174.32 937.282Z" fill="black"/>
<path d="M1137.59 927.446C1136.53 929.112 1137.14 934.315 1137.59 936.708H1141.27C1140.09 933.606 1143.23 929.815 1144.95 928.308C1143.71 928.308 1141.98 930.222 1141.27 931.179C1142.03 927.274 1140.46 924.766 1139.57 924C1141.17 927.389 1139.6 932.783 1138.62 935.056C1137.32 933.735 1137.39 929.432 1137.59 927.446Z" fill="black"/>
<path d="M1259.38 926.585C1257.85 929.227 1257.81 934.003 1257.98 936.062V936.708H1265.2C1267.44 935.099 1266.97 929.576 1266.45 927.015C1266.75 931.323 1264.37 934.171 1263.14 935.056C1262.55 934.597 1263.39 930.749 1263.88 928.882C1262.7 929.313 1261.45 936.062 1261.45 935.631V929.6L1260.12 936.062C1258.82 933.247 1259.09 928.571 1259.38 926.585Z" fill="black"/>
<path d="M1284.32 937.282C1284.79 935.607 1284.7 931.941 1280.64 930.677C1281.72 929.839 1284.36 929.614 1286.31 935.415C1286.55 932.759 1286.9 927.102 1286.31 925.723C1287.24 927.47 1289.06 931.596 1288.89 934.123C1289.43 931.153 1290.45 925.167 1290.37 924.103C1290.37 924.068 1290.36 924.034 1290.36 924C1290.37 924.026 1290.37 924.061 1290.37 924.103C1290.72 926.517 1291.28 931.608 1290.88 933.477C1291.29 932.161 1292.7 929.643 1295 930.103C1293.75 931.323 1291.44 934.611 1292.2 938L1284.32 937.282Z" fill="black"/>
<path d="M1247.59 927.446C1246.53 929.112 1247.14 934.315 1247.59 936.708H1251.27C1250.09 933.606 1253.23 929.815 1254.95 928.308C1253.71 928.308 1251.98 930.222 1251.27 931.179C1252.03 927.274 1250.46 924.766 1249.57 924C1251.17 927.389 1249.6 932.783 1248.62 935.056C1247.32 933.735 1247.39 929.432 1247.59 927.446Z" fill="black"/>
<path d="M404.383 927.585C402.851 930.227 402.812 935.003 402.984 937.062V937.708H410.202C412.441 936.099 411.97 930.576 411.454 928.015C411.749 932.323 409.367 935.171 408.14 936.056C407.551 935.597 408.385 931.749 408.876 929.882C407.698 930.313 406.446 937.062 406.446 936.631V930.6L405.12 937.062C403.824 934.247 404.089 929.571 404.383 927.585Z" fill="black"/>
<path d="M429.32 938.282C429.787 936.607 429.703 932.941 425.638 931.677C426.718 930.839 429.365 930.614 431.309 936.415C431.555 933.759 431.898 928.102 431.309 926.723C432.242 928.47 434.064 932.596 433.887 935.123C434.43 932.153 435.455 926.167 435.375 925.103C435.37 925.068 435.365 925.034 435.36 925C435.367 925.026 435.372 925.061 435.375 925.103C435.72 927.517 436.282 932.608 435.875 934.477C436.293 933.161 437.702 930.643 440 931.103C438.748 932.323 436.435 935.611 437.201 939L429.32 938.282Z" fill="black"/>
<path d="M392.586 928.446C391.525 930.112 392.144 935.315 392.586 937.708H396.268C395.09 934.606 398.232 930.815 399.951 929.308C398.714 929.308 396.98 931.222 396.268 932.179C397.034 928.274 395.458 925.766 394.574 925C396.165 928.389 394.599 933.783 393.617 936.056C392.32 934.735 392.389 930.432 392.586 928.446Z" fill="black"/>
<path d="M518.383 927.585C516.851 930.227 516.812 935.003 516.984 937.062V937.708H524.202C526.441 936.099 525.97 930.576 525.454 928.015C525.749 932.323 523.367 935.171 522.14 936.056C521.551 935.597 522.385 931.749 522.876 929.882C521.698 930.313 520.446 937.062 520.446 936.631V930.6L519.12 937.062C517.824 934.247 518.089 929.571 518.383 927.585Z" fill="black"/>
<path d="M543.32 938.282C543.787 936.607 543.703 932.941 539.638 931.677C540.718 930.839 543.365 930.614 545.309 936.415C545.555 933.759 545.898 928.102 545.309 926.723C546.242 928.47 548.064 932.596 547.887 935.123C548.43 932.153 549.455 926.167 549.375 925.103C549.37 925.068 549.365 925.034 549.36 925C549.367 925.026 549.372 925.061 549.375 925.103C549.72 927.517 550.282 932.608 549.875 934.477C550.293 933.161 551.702 930.643 554 931.103C552.748 932.323 550.435 935.611 551.201 939L543.32 938.282Z" fill="black"/>
<path d="M506.586 928.446C505.525 930.112 506.144 935.315 506.586 937.708H510.268C509.09 934.606 512.232 930.815 513.951 929.308C512.714 929.308 510.98 931.222 510.268 932.179C511.034 928.274 509.458 925.766 508.574 925C510.165 928.389 508.599 933.783 507.617 936.056C506.32 934.735 506.389 930.432 506.586 928.446Z" fill="black"/>
<path d="M633.383 928.585C631.851 931.227 631.812 936.003 631.984 938.062V938.708H639.202C641.441 937.099 640.97 931.576 640.454 929.015C640.749 933.323 638.367 936.171 637.14 937.056C636.551 936.597 637.385 932.749 637.876 930.882C636.698 931.313 635.446 938.062 635.446 937.631V931.6L634.12 938.062C632.824 935.247 633.089 930.571 633.383 928.585Z" fill="black"/>
<path d="M658.32 939.282C658.787 937.607 658.703 933.941 654.638 932.677C655.718 931.839 658.365 931.614 660.309 937.415C660.555 934.759 660.898 929.102 660.309 927.723C661.242 929.47 663.064 933.596 662.887 936.123C663.43 933.153 664.455 927.167 664.375 926.103C664.37 926.068 664.365 926.034 664.36 926C664.367 926.026 664.372 926.061 664.375 926.103C664.72 928.517 665.282 933.608 664.875 935.477C665.293 934.161 666.702 931.643 669 932.103C667.748 933.323 665.435 936.611 666.201 940L658.32 939.282Z" fill="black"/>
<path d="M621.586 929.446C620.525 931.112 621.144 936.315 621.586 938.708H625.268C624.09 935.606 627.232 931.815 628.951 930.308C627.714 930.308 625.98 932.222 625.268 933.179C626.034 929.274 624.458 926.766 623.574 926C625.165 929.389 623.599 934.783 622.617 937.056C621.32 935.735 621.389 931.432 621.586 929.446Z" fill="black"/>
<path d="M752.383 926.585C750.851 929.227 750.812 934.003 750.984 936.062V936.708H758.202C760.441 935.099 759.97 929.576 759.454 927.015C759.749 931.323 757.367 934.171 756.14 935.056C755.551 934.597 756.385 930.749 756.876 928.882C755.698 929.313 754.446 936.062 754.446 935.631V929.6L753.12 936.062C751.824 933.247 752.089 928.571 752.383 926.585Z" fill="black"/>
<path d="M777.32 937.282C777.787 935.607 777.703 931.941 773.638 930.677C774.718 929.839 777.365 929.614 779.309 935.415C779.555 932.759 779.898 927.102 779.309 925.723C780.242 927.47 782.064 931.596 781.887 934.123C782.43 931.153 783.455 925.167 783.375 924.103C783.37 924.068 783.365 924.034 783.36 924C783.367 924.026 783.372 924.061 783.375 924.103C783.72 926.517 784.282 931.608 783.875 933.477C784.293 932.161 785.702 929.643 788 930.103C786.748 931.323 784.435 934.611 785.201 938L777.32 937.282Z" fill="black"/>
<path d="M740.586 927.446C739.525 929.112 740.144 934.315 740.586 936.708H744.268C743.09 933.606 746.232 929.815 747.951 928.308C746.714 928.308 744.98 930.222 744.268 931.179C745.034 927.274 743.458 924.766 742.574 924C744.165 927.389 742.599 932.783 741.617 935.056C740.32 933.735 740.389 929.432 740.586 927.446Z" fill="black"/>
<path d="M866.383 926.585C864.851 929.227 864.812 934.003 864.984 936.062V936.708H872.202C874.441 935.099 873.97 929.576 873.454 927.015C873.749 931.323 871.367 934.171 870.14 935.056C869.551 934.597 870.385 930.749 870.876 928.882C869.698 929.313 868.446 936.062 868.446 935.631V929.6L867.12 936.062C865.824 933.247 866.089 928.571 866.383 926.585Z" fill="black"/>
<path d="M891.32 937.282C891.787 935.607 891.703 931.941 887.638 930.677C888.718 929.839 891.365 929.614 893.309 935.415C893.555 932.759 893.898 927.102 893.309 925.723C894.242 927.47 896.064 931.596 895.887 934.123C896.43 931.153 897.455 925.167 897.375 924.103C897.37 924.068 897.365 924.034 897.36 924C897.367 924.026 897.372 924.061 897.375 924.103C897.72 926.517 898.282 931.608 897.875 933.477C898.293 932.161 899.702 929.643 902 930.103C900.748 931.323 898.435 934.611 899.201 938L891.32 937.282Z" fill="black"/>
<path d="M854.586 927.446C853.525 929.112 854.144 934.315 854.586 936.708H858.268C857.09 933.606 860.232 929.815 861.951 928.308C860.714 928.308 858.98 930.222 858.268 931.179C859.034 927.274 857.458 924.766 856.574 924C858.165 927.389 856.599 932.783 855.617 935.056C854.32 933.735 854.389 929.432 854.586 927.446Z" fill="black"/>
<path d="M976.383 926.585C974.851 929.227 974.812 934.003 974.984 936.062V936.708H982.202C984.441 935.099 983.97 929.576 983.454 927.015C983.749 931.323 981.367 934.171 980.14 935.056C979.551 934.597 980.385 930.749 980.876 928.882C979.698 929.313 978.446 936.062 978.446 935.631V929.6L977.12 936.062C975.824 933.247 976.089 928.571 976.383 926.585Z" fill="black"/>
<path d="M1001.32 937.282C1001.79 935.607 1001.7 931.941 997.638 930.677C998.718 929.839 1001.36 929.614 1003.31 935.415C1003.55 932.759 1003.9 927.102 1003.31 925.723C1004.24 927.47 1006.06 931.596 1005.89 934.123C1006.43 931.153 1007.45 925.167 1007.37 924.103C1007.37 924.068 1007.36 924.034 1007.36 924C1007.37 924.026 1007.37 924.061 1007.37 924.103C1007.72 926.517 1008.28 931.608 1007.88 933.477C1008.29 932.161 1009.7 929.643 1012 930.103C1010.75 931.323 1008.44 934.611 1009.2 938L1001.32 937.282Z" fill="black"/>
<path d="M964.586 927.446C963.525 929.112 964.144 934.315 964.586 936.708H968.268C967.09 933.606 970.232 929.815 971.951 928.308C970.714 928.308 968.98 930.222 968.268 931.179C969.034 927.274 967.458 924.766 966.574 924C968.165 927.389 966.599 932.783 965.617 935.056C964.32 933.735 964.389 929.432 964.586 927.446Z" fill="black"/>
<path d="M741.383 927.585C739.851 930.227 739.812 935.003 739.984 937.062V937.708H747.202C749.441 936.099 748.97 930.576 748.454 928.015C748.749 932.323 746.367 935.171 745.14 936.056C744.551 935.597 745.385 931.749 745.876 929.882C744.698 930.313 743.446 937.062 743.446 936.631V930.6L742.12 937.062C740.824 934.247 741.089 929.571 741.383 927.585Z" fill="black"/>
<path d="M766.32 938.282C766.787 936.607 766.703 932.941 762.638 931.677C763.718 930.839 766.365 930.614 768.309 936.415C768.555 933.759 768.898 928.102 768.309 926.723C769.242 928.47 771.064 932.596 770.887 935.123C771.43 932.153 772.455 926.167 772.375 925.103C772.37 925.068 772.365 925.034 772.36 925C772.367 925.026 772.372 925.061 772.375 925.103C772.72 927.517 773.282 932.608 772.875 934.477C773.293 933.161 774.702 930.643 777 931.103C775.748 932.323 773.435 935.611 774.201 939L766.32 938.282Z" fill="black"/>
<path d="M729.586 928.446C728.525 930.112 729.144 935.315 729.586 937.708H733.268C732.09 934.606 735.232 930.815 736.951 929.308C735.714 929.308 733.98 931.222 733.268 932.179C734.034 928.274 732.458 925.766 731.574 925C733.165 928.389 731.599 933.783 730.617 936.056C729.32 934.735 729.389 930.432 729.586 928.446Z" fill="black"/>
<path d="M855.383 927.585C853.851 930.227 853.812 935.003 853.984 937.062V937.708H861.202C863.441 936.099 862.97 930.576 862.454 928.015C862.749 932.323 860.367 935.171 859.14 936.056C858.551 935.597 859.385 931.749 859.876 929.882C858.698 930.313 857.446 937.062 857.446 936.631V930.6L856.12 937.062C854.824 934.247 855.089 929.571 855.383 927.585Z" fill="black"/>
<path d="M880.32 938.282C880.787 936.607 880.703 932.941 876.638 931.677C877.718 930.839 880.365 930.614 882.309 936.415C882.555 933.759 882.898 928.102 882.309 926.723C883.242 928.47 885.064 932.596 884.887 935.123C885.43 932.153 886.455 926.167 886.375 925.103C886.37 925.068 886.365 925.034 886.36 925C886.367 925.026 886.372 925.061 886.375 925.103C886.72 927.517 887.282 932.608 886.875 934.477C887.293 933.161 888.702 930.643 891 931.103C889.748 932.323 887.435 935.611 888.201 939L880.32 938.282Z" fill="black"/>
<path d="M843.586 928.446C842.525 930.112 843.144 935.315 843.586 937.708H847.268C846.09 934.606 849.232 930.815 850.951 929.308C849.714 929.308 847.98 931.222 847.268 932.179C848.034 928.274 846.458 925.766 845.574 925C847.165 928.389 845.599 933.783 844.617 936.056C843.32 934.735 843.389 930.432 843.586 928.446Z" fill="black"/>
<path d="M970.383 928.585C968.851 931.227 968.812 936.003 968.984 938.062V938.708H976.202C978.441 937.099 977.97 931.576 977.454 929.015C977.749 933.323 975.367 936.171 974.14 937.056C973.551 936.597 974.385 932.749 974.876 930.882C973.698 931.313 972.446 938.062 972.446 937.631V931.6L971.12 938.062C969.824 935.247 970.089 930.571 970.383 928.585Z" fill="black"/>
<path d="M995.32 939.282C995.787 937.607 995.703 933.941 991.638 932.677C992.718 931.839 995.365 931.614 997.309 937.415C997.555 934.759 997.898 929.102 997.309 927.723C998.242 929.47 1000.06 933.596 999.887 936.123C1000.43 933.153 1001.45 927.167 1001.37 926.103C1001.37 926.068 1001.36 926.034 1001.36 926C1001.37 926.026 1001.37 926.061 1001.37 926.103C1001.72 928.517 1002.28 933.608 1001.88 935.477C1002.29 934.161 1003.7 931.643 1006 932.103C1004.75 933.323 1002.44 936.611 1003.2 940L995.32 939.282Z" fill="black"/>
<path d="M958.586 929.446C957.525 931.112 958.144 936.315 958.586 938.708H962.268C961.09 935.606 964.232 931.815 965.951 930.308C964.714 930.308 962.98 932.222 962.268 933.179C963.034 929.274 961.458 926.766 960.574 926C962.165 929.389 960.599 934.783 959.617 937.056C958.32 935.735 958.389 931.432 958.586 929.446Z" fill="black"/>
<path d="M1089.38 926.585C1087.85 929.227 1087.81 934.003 1087.98 936.062V936.708H1095.2C1097.44 935.099 1096.97 929.576 1096.45 927.015C1096.75 931.323 1094.37 934.171 1093.14 935.056C1092.55 934.597 1093.39 930.749 1093.88 928.882C1092.7 929.313 1091.45 936.062 1091.45 935.631V929.6L1090.12 936.062C1088.82 933.247 1089.09 928.571 1089.38 926.585Z" fill="black"/>
<path d="M1114.32 937.282C1114.79 935.607 1114.7 931.941 1110.64 930.677C1111.72 929.839 1114.36 929.614 1116.31 935.415C1116.55 932.759 1116.9 927.102 1116.31 925.723C1117.24 927.47 1119.06 931.596 1118.89 934.123C1119.43 931.153 1120.45 925.167 1120.37 924.103C1120.37 924.068 1120.36 924.034 1120.36 924C1120.37 924.026 1120.37 924.061 1120.37 924.103C1120.72 926.517 1121.28 931.608 1120.88 933.477C1121.29 932.161 1122.7 929.643 1125 930.103C1123.75 931.323 1121.44 934.611 1122.2 938L1114.32 937.282Z" fill="black"/>
<path d="M1077.59 927.446C1076.53 929.112 1077.14 934.315 1077.59 936.708H1081.27C1080.09 933.606 1083.23 929.815 1084.95 928.308C1083.71 928.308 1081.98 930.222 1081.27 931.179C1082.03 927.274 1080.46 924.766 1079.57 924C1081.17 927.389 1079.6 932.783 1078.62 935.056C1077.32 933.735 1077.39 929.432 1077.59 927.446Z" fill="black"/>
<path d="M1203.38 926.585C1201.85 929.227 1201.81 934.003 1201.98 936.062V936.708H1209.2C1211.44 935.099 1210.97 929.576 1210.45 927.015C1210.75 931.323 1208.37 934.171 1207.14 935.056C1206.55 934.597 1207.39 930.749 1207.88 928.882C1206.7 929.313 1205.45 936.062 1205.45 935.631V929.6L1204.12 936.062C1202.82 933.247 1203.09 928.571 1203.38 926.585Z" fill="black"/>
<path d="M1228.32 937.282C1228.79 935.607 1228.7 931.941 1224.64 930.677C1225.72 929.839 1228.36 929.614 1230.31 935.415C1230.55 932.759 1230.9 927.102 1230.31 925.723C1231.24 927.47 1233.06 931.596 1232.89 934.123C1233.43 931.153 1234.45 925.167 1234.37 924.103C1234.37 924.068 1234.36 924.034 1234.36 924C1234.37 924.026 1234.37 924.061 1234.37 924.103C1234.72 926.517 1235.28 931.608 1234.88 933.477C1235.29 932.161 1236.7 929.643 1239 930.103C1237.75 931.323 1235.44 934.611 1236.2 938L1228.32 937.282Z" fill="black"/>
<path d="M1191.59 927.446C1190.53 929.112 1191.14 934.315 1191.59 936.708H1195.27C1194.09 933.606 1197.23 929.815 1198.95 928.308C1197.71 928.308 1195.98 930.222 1195.27 931.179C1196.03 927.274 1194.46 924.766 1193.57 924C1195.17 927.389 1193.6 932.783 1192.62 935.056C1191.32 933.735 1191.39 929.432 1191.59 927.446Z" fill="black"/>
<path d="M1313.38 926.585C1311.85 929.227 1311.81 934.003 1311.98 936.062V936.708H1319.2C1321.44 935.099 1320.97 929.576 1320.45 927.015C1320.75 931.323 1318.37 934.171 1317.14 935.056C1316.55 934.597 1317.39 930.749 1317.88 928.882C1316.7 929.313 1315.45 936.062 1315.45 935.631V929.6L1314.12 936.062C1312.82 933.247 1313.09 928.571 1313.38 926.585Z" fill="black"/>
<path d="M1338.32 937.282C1338.79 935.607 1338.7 931.941 1334.64 930.677C1335.72 929.839 1338.36 929.614 1340.31 935.415C1340.55 932.759 1340.9 927.102 1340.31 925.723C1341.24 927.47 1343.06 931.596 1342.89 934.123C1343.43 931.153 1344.45 925.167 1344.37 924.103C1344.37 924.068 1344.36 924.034 1344.36 924C1344.37 924.026 1344.37 924.061 1344.37 924.103C1344.72 926.517 1345.28 931.608 1344.88 933.477C1345.29 932.161 1346.7 929.643 1349 930.103C1347.75 931.323 1345.44 934.611 1346.2 938L1338.32 937.282Z" fill="black"/>
<path d="M1301.59 927.446C1300.53 929.112 1301.14 934.315 1301.59 936.708H1305.27C1304.09 933.606 1307.23 929.815 1308.95 928.308C1307.71 928.308 1305.98 930.222 1305.27 931.179C1306.03 927.274 1304.46 924.766 1303.57 924C1305.17 927.389 1303.6 932.783 1302.62 935.056C1301.32 933.735 1301.39 929.432 1301.59 927.446Z" fill="black"/>
</g>
<defs>
<linearGradient id="paint0_linear" x1="961.25" y1="423.625" x2="961.25" y2="1079" gradientUnits="userSpaceOnUse">
<stop stop-color="#002032"/>
<stop offset="0.819675" stop-color="#161621"/>
</linearGradient>
<clipPath id="clip0">
<rect width="1920" height="1080" fill="white"/>
</clipPath>
</defs>
</svg>
