<svg width="1920" height="1080" viewBox="0 0 1920 1080" fill="none" xmlns="http://www.w3.org/2000/svg">
<g clip-path="url(#clip0)">
<rect width="1920" height="1080" fill="#161621"/>
<rect y="936" width="1920" height="144" fill="black"/>
<path d="M406.253 899.687C410.807 906.639 406.127 928.792 403.217 939H424.849C421.206 939 423.331 921.896 424.849 913.343C428.189 909.371 430.795 905.895 431.681 904.653C436.235 896.046 441.422 892.239 443.446 891.411L448 887.273L441.928 888.514L437.753 891.411C433.199 891.08 435.855 888.514 437.753 887.273C442.004 884.955 444.837 877.755 445.723 874.444V870.72L437.753 876.1L433.958 882.721C430.011 886.031 429.277 883.272 429.404 881.479L432.06 876.927L433.958 872.789C434.337 868.651 433.958 866.168 436.235 863.271C442.265 855.601 445.846 853.34 443.446 853.34C441.928 853.34 436.867 855.133 433.958 857.892L427.886 867.409L425.988 878.583C423.863 880.569 422.572 877.755 422.193 876.1C420.067 874.113 420.295 863.961 420.675 859.133C421.889 855.491 423.964 848.236 424.849 845.063C425.102 846.856 425.457 849.119 424.849 843.822C424.242 838.525 421.813 846.029 420.675 850.443L416.12 861.202L417.259 878.583C415.437 887.852 408.151 889.066 404.735 888.514C405.949 879.576 394.361 872.927 388.416 870.72L385 863.685V872.375L388.416 876.1C393.273 877.755 398.536 885.066 400.56 888.514C399.953 895.135 404.102 898.722 406.253 899.687Z" fill="black"/>
<path d="M1628.57 926.72C1626.76 929.157 1628.62 936.922 1629.77 940.5H1621.19C1622.63 940.5 1621.79 934.505 1621.19 931.507C1619.86 930.114 1618.83 928.896 1618.48 928.461C1616.67 925.444 1614.61 924.109 1613.81 923.819L1612 922.369L1614.41 922.804L1616.07 923.819C1617.87 923.703 1616.82 922.804 1616.07 922.369C1614.38 921.557 1613.26 919.033 1612.9 917.872V916.567L1616.07 918.452L1617.57 920.773C1619.14 921.934 1619.43 920.967 1619.38 920.338L1618.33 918.743L1617.57 917.292C1617.42 915.842 1617.57 914.971 1616.67 913.956C1614.28 911.267 1612.85 910.475 1613.81 910.475C1614.41 910.475 1616.42 911.103 1617.57 912.07L1619.98 915.406L1620.73 919.323C1621.58 920.019 1622.09 919.033 1622.24 918.452C1623.08 917.756 1622.99 914.198 1622.84 912.505C1622.36 911.229 1621.54 908.686 1621.19 907.574C1621.09 908.202 1620.95 908.995 1621.19 907.139C1621.43 905.282 1622.39 907.912 1622.84 909.459L1624.65 913.231L1624.2 919.323C1624.92 922.572 1627.81 922.997 1629.17 922.804C1628.69 919.671 1633.29 917.34 1635.64 916.567L1637 914.101V917.147L1635.64 918.452C1633.72 919.033 1631.63 921.595 1630.83 922.804C1631.07 925.125 1629.42 926.382 1628.57 926.72Z" fill="black"/>
<path d="M1349 914.5C1341.4 912.9 1338.83 928.5 1338.5 936.5H1356C1361.6 916.5 1353.67 913.5 1349 914.5Z" fill="black"/>
<path d="M1642 916.001C1634.4 913.601 1633.83 928.668 1634.5 936.501H1651.5C1651.5 916.101 1645.17 914.334 1642 916.001Z" fill="black"/>
<path d="M1746.5 919.001C1740.9 918.201 1740.83 930.334 1741.5 936.501H1754.5C1756.5 918.901 1750 917.501 1746.5 919.001Z" fill="black"/>
<path d="M1577 911.5L1586 938.5H1600.5L1592 908L1612 901.5L1607 889L1586 894.5L1581 877L1568 882.5L1574 899L1553 904L1558 917.5L1577 911.5Z" fill="black"/>
<path d="M1412.5 923.5L1411 937H1404L1407 920.5L1398.5 918.5V912L1409 914.5V908L1415 909.5V918.5H1421.5V923.5H1412.5Z" fill="black"/>
<path d="M1480 911.5L1471 938.5H1456.5L1465 908L1445 901.5L1450 889L1471 894.5L1476 877L1489 882.5L1483 899L1504 904L1499 917.5L1480 911.5Z" fill="black"/>
<path d="M1223.38 927.585C1221.85 930.227 1221.81 935.003 1221.98 937.062V937.708H1229.2C1231.44 936.099 1230.97 930.576 1230.45 928.015C1230.75 932.323 1228.37 935.171 1227.14 936.056C1226.55 935.597 1227.39 931.749 1227.88 929.882C1226.7 930.313 1225.45 937.062 1225.45 936.631V930.6L1224.12 937.062C1222.82 934.247 1223.09 929.571 1223.38 927.585Z" fill="black"/>
<path d="M1248.32 938.282C1248.79 936.607 1248.7 932.941 1244.64 931.677C1245.72 930.839 1248.36 930.614 1250.31 936.415C1250.55 933.759 1250.9 928.102 1250.31 926.723C1251.24 928.47 1253.06 932.596 1252.89 935.123C1253.43 932.153 1254.45 926.167 1254.37 925.103C1254.37 925.068 1254.36 925.034 1254.36 925C1254.37 925.026 1254.37 925.061 1254.37 925.103C1254.72 927.517 1255.28 932.608 1254.88 934.477C1255.29 933.161 1256.7 930.643 1259 931.103C1257.75 932.323 1255.44 935.611 1256.2 939L1248.32 938.282Z" fill="black"/>
<path d="M1211.59 928.446C1210.53 930.112 1211.14 935.315 1211.59 937.708H1215.27C1214.09 934.606 1217.23 930.815 1218.95 929.308C1217.71 929.308 1215.98 931.222 1215.27 932.179C1216.03 928.274 1214.46 925.766 1213.57 925C1215.17 928.389 1213.6 933.783 1212.62 936.056C1211.32 934.735 1211.39 930.432 1211.59 928.446Z" fill="black"/>
<path d="M1560.38 927.585C1558.85 930.227 1558.81 935.003 1558.98 937.062V937.708H1566.2C1568.44 936.099 1567.97 930.576 1567.45 928.015C1567.75 932.323 1565.37 935.171 1564.14 936.056C1563.55 935.597 1564.39 931.749 1564.88 929.882C1563.7 930.313 1562.45 937.062 1562.45 936.631V930.6L1561.12 937.062C1559.82 934.247 1560.09 929.571 1560.38 927.585Z" fill="black"/>
<path d="M1585.32 938.282C1585.79 936.607 1585.7 932.941 1581.64 931.677C1582.72 930.839 1585.36 930.614 1587.31 936.415C1587.55 933.759 1587.9 928.102 1587.31 926.723C1588.24 928.47 1590.06 932.596 1589.89 935.123C1590.43 932.153 1591.45 926.167 1591.37 925.103C1591.37 925.068 1591.36 925.034 1591.36 925C1591.37 925.026 1591.37 925.061 1591.37 925.103C1591.72 927.517 1592.28 932.608 1591.88 934.477C1592.29 933.161 1593.7 930.643 1596 931.103C1594.75 932.323 1592.44 935.611 1593.2 939L1585.32 938.282Z" fill="black"/>
<path d="M1548.59 928.446C1547.53 930.112 1548.14 935.315 1548.59 937.708H1552.27C1551.09 934.606 1554.23 930.815 1555.95 929.308C1554.71 929.308 1552.98 931.222 1552.27 932.179C1553.03 928.274 1551.46 925.766 1550.57 925C1552.17 928.389 1550.6 933.783 1549.62 936.056C1548.32 934.735 1548.39 930.432 1548.59 928.446Z" fill="black"/>
<path d="M1277.38 927.585C1275.85 930.227 1275.81 935.003 1275.98 937.062V937.708H1283.2C1285.44 936.099 1284.97 930.576 1284.45 928.015C1284.75 932.323 1282.37 935.171 1281.14 936.056C1280.55 935.597 1281.39 931.749 1281.88 929.882C1280.7 930.313 1279.45 937.062 1279.45 936.631V930.6L1278.12 937.062C1276.82 934.247 1277.09 929.571 1277.38 927.585Z" fill="black"/>
<path d="M1302.32 938.282C1302.79 936.607 1302.7 932.941 1298.64 931.677C1299.72 930.839 1302.36 930.614 1304.31 936.415C1304.55 933.759 1304.9 928.102 1304.31 926.723C1305.24 928.47 1307.06 932.596 1306.89 935.123C1307.43 932.153 1308.45 926.167 1308.37 925.103C1308.37 925.068 1308.36 925.034 1308.36 925C1308.37 925.026 1308.37 925.061 1308.37 925.103C1308.72 927.517 1309.28 932.608 1308.88 934.477C1309.29 933.161 1310.7 930.643 1313 931.103C1311.75 932.323 1309.44 935.611 1310.2 939L1302.32 938.282Z" fill="black"/>
<path d="M1265.59 928.446C1264.53 930.112 1265.14 935.315 1265.59 937.708H1269.27C1268.09 934.606 1271.23 930.815 1272.95 929.308C1271.71 929.308 1269.98 931.222 1269.27 932.179C1270.03 928.274 1268.46 925.766 1267.57 925C1269.17 928.389 1267.6 933.783 1266.62 936.056C1265.32 934.735 1265.39 930.432 1265.59 928.446Z" fill="black"/>
<path d="M1614.38 927.585C1612.85 930.227 1612.81 935.003 1612.98 937.062V937.708H1620.2C1622.44 936.099 1621.97 930.576 1621.45 928.015C1621.75 932.323 1619.37 935.171 1618.14 936.056C1617.55 935.597 1618.39 931.749 1618.88 929.882C1617.7 930.313 1616.45 937.062 1616.45 936.631V930.6L1615.12 937.062C1613.82 934.247 1614.09 929.571 1614.38 927.585Z" fill="black"/>
<path d="M1639.32 938.282C1639.79 936.607 1639.7 932.941 1635.64 931.677C1636.72 930.839 1639.36 930.614 1641.31 936.415C1641.55 933.759 1641.9 928.102 1641.31 926.723C1642.24 928.47 1644.06 932.596 1643.89 935.123C1644.43 932.153 1645.45 926.167 1645.37 925.103C1645.37 925.068 1645.36 925.034 1645.36 925C1645.37 925.026 1645.37 925.061 1645.37 925.103C1645.72 927.517 1646.28 932.608 1645.88 934.477C1646.29 933.161 1647.7 930.643 1650 931.103C1648.75 932.323 1646.44 935.611 1647.2 939L1639.32 938.282Z" fill="black"/>
<path d="M1602.59 928.446C1601.53 930.112 1602.14 935.315 1602.59 937.708H1606.27C1605.09 934.606 1608.23 930.815 1609.95 929.308C1608.71 929.308 1606.98 931.222 1606.27 932.179C1607.03 928.274 1605.46 925.766 1604.57 925C1606.17 928.389 1604.6 933.783 1603.62 936.056C1602.32 934.735 1602.39 930.432 1602.59 928.446Z" fill="black"/>
<path d="M1309 912L1300 939H1285.5L1294 908.5L1274 902L1279 889.5L1300 895L1305 877.5L1318 883L1312 899.5L1333 904.5L1328 918L1309 912Z" fill="black"/>
<g filter="url(#filter0_i)">
<path d="M1439.76 938.622H1436C1438.15 936.472 1437.25 930.917 1436.54 928.408C1436.54 922.387 1442.99 919.448 1446.21 918.731C1462.56 915.291 1465.21 924.824 1464.49 930.021C1464.06 938.622 1457.15 939.339 1453.74 938.622C1453.74 941.203 1451.59 943.282 1450.52 943.998L1446.21 941.31H1443.53L1439.76 938.622Z" fill="white"/>
</g>
<path d="M1443.53 938.085L1442.99 936.472L1445.68 934.859V938.085H1443.53Z" fill="black"/>
<path d="M1441.38 932.171C1440.09 930.881 1441.91 928.766 1442.99 927.87C1446 926.58 1444.96 929.483 1444.06 931.096C1443.2 932.816 1441.91 932.53 1441.38 932.171Z" fill="black"/>
<g filter="url(#filter1_i)">
<path d="M1449.35 934.106C1448.06 932.815 1449.88 930.701 1450.96 929.805C1453.97 928.515 1452.93 931.418 1452.03 933.03C1451.17 934.751 1449.88 934.464 1449.35 934.106Z" fill="black"/>
</g>
<g filter="url(#filter2_i)">
<path d="M1294.83 936.622H1298.6C1296.45 934.472 1297.34 928.917 1298.06 926.408C1298.06 920.387 1291.61 917.448 1288.38 916.731C1272.04 913.291 1269.39 922.824 1270.1 928.021C1270.53 936.622 1277.45 937.339 1280.86 936.622C1280.86 939.203 1283.01 941.282 1284.08 941.998L1288.38 939.31H1291.07L1294.83 936.622Z" fill="white"/>
</g>
<path d="M1291.07 936.085L1291.61 934.472L1288.92 932.859V936.085H1291.07Z" fill="black"/>
<path d="M1293.22 930.171C1294.51 928.881 1292.68 926.766 1291.61 925.87C1288.6 924.58 1289.64 927.483 1290.53 929.096C1291.39 930.816 1292.68 930.53 1293.22 930.171Z" fill="black"/>
<g filter="url(#filter3_i)">
<path d="M1285.25 932.106C1286.54 930.815 1284.71 928.701 1283.64 927.805C1280.63 926.515 1281.67 929.418 1282.56 931.03C1283.42 932.751 1284.71 932.464 1285.25 932.106Z" fill="black"/>
</g>
</g>
<defs>
<filter id="filter0_i" x="1436" y="918" width="28.597" height="29.9984" filterUnits="userSpaceOnUse" color-interpolation-filters="sRGB">
<feFlood flood-opacity="0" result="BackgroundImageFix"/>
<feBlend mode="normal" in="SourceGraphic" in2="BackgroundImageFix" result="shape"/>
<feColorMatrix in="SourceAlpha" type="matrix" values="0 0 0 0 0 0 0 0 0 0 0 0 0 0 0 0 0 0 127 0" result="hardAlpha"/>
<feOffset dy="4"/>
<feGaussianBlur stdDeviation="2"/>
<feComposite in2="hardAlpha" operator="arithmetic" k2="-1" k3="1"/>
<feColorMatrix type="matrix" values="0 0 0 0 0 0 0 0 0 0 0 0 0 0 0 0 0 0 0.25 0"/>
<feBlend mode="normal" in2="shape" result="effect1_innerShadow"/>
</filter>
<filter id="filter1_i" x="1448.9" y="929.483" width="4.05915" height="8.89419" filterUnits="userSpaceOnUse" color-interpolation-filters="sRGB">
<feFlood flood-opacity="0" result="BackgroundImageFix"/>
<feBlend mode="normal" in="SourceGraphic" in2="BackgroundImageFix" result="shape"/>
<feColorMatrix in="SourceAlpha" type="matrix" values="0 0 0 0 0 0 0 0 0 0 0 0 0 0 0 0 0 0 127 0" result="hardAlpha"/>
<feOffset dy="4"/>
<feGaussianBlur stdDeviation="2"/>
<feComposite in2="hardAlpha" operator="arithmetic" k2="-1" k3="1"/>
<feColorMatrix type="matrix" values="0 0 0 0 0.641667 0 0 0 0 0.641667 0 0 0 0 0.641667 0 0 0 0.02 0"/>
<feBlend mode="normal" in2="shape" result="effect1_innerShadow"/>
</filter>
<filter id="filter2_i" x="1270" y="916" width="28.597" height="29.9984" filterUnits="userSpaceOnUse" color-interpolation-filters="sRGB">
<feFlood flood-opacity="0" result="BackgroundImageFix"/>
<feBlend mode="normal" in="SourceGraphic" in2="BackgroundImageFix" result="shape"/>
<feColorMatrix in="SourceAlpha" type="matrix" values="0 0 0 0 0 0 0 0 0 0 0 0 0 0 0 0 0 0 127 0" result="hardAlpha"/>
<feOffset dy="4"/>
<feGaussianBlur stdDeviation="2"/>
<feComposite in2="hardAlpha" operator="arithmetic" k2="-1" k3="1"/>
<feColorMatrix type="matrix" values="0 0 0 0 0 0 0 0 0 0 0 0 0 0 0 0 0 0 0.25 0"/>
<feBlend mode="normal" in2="shape" result="effect1_innerShadow"/>
</filter>
<filter id="filter3_i" x="1281.64" y="927.483" width="4.05915" height="8.89419" filterUnits="userSpaceOnUse" color-interpolation-filters="sRGB">
<feFlood flood-opacity="0" result="BackgroundImageFix"/>
<feBlend mode="normal" in="SourceGraphic" in2="BackgroundImageFix" result="shape"/>
<feColorMatrix in="SourceAlpha" type="matrix" values="0 0 0 0 0 0 0 0 0 0 0 0 0 0 0 0 0 0 127 0" result="hardAlpha"/>
<feOffset dy="4"/>
<feGaussianBlur stdDeviation="2"/>
<feComposite in2="hardAlpha" operator="arithmetic" k2="-1" k3="1"/>
<feColorMatrix type="matrix" values="0 0 0 0 0.641667 0 0 0 0 0.641667 0 0 0 0 0.641667 0 0 0 0.02 0"/>
<feBlend mode="normal" in2="shape" result="effect1_innerShadow"/>
</filter>
<clipPath id="clip0">
<rect width="1920" height="1080" fill="white"/>
</clipPath>
</defs>
</svg>
