<svg width="1440" height="900" viewBox="0 0 1440 900" fill="none" xmlns="http://www.w3.org/2000/svg">
<g clip-path="url(#clip0)">
<rect width="1440" height="900" fill="#161621"/>
<path opacity="0.4" d="M135.164 408.878C118.737 310.031 31.3741 305.843 3 325.11L4.12003 865H1440V403.015C1276.1 321.759 1073.38 347.727 1050.6 449.506C1002.81 455.203 989.747 486.784 983.027 507.307C969.587 492.229 941.959 497.255 934.493 501.443C850.864 343.12 678.005 412.648 645.151 490.972C632.906 495.663 619.391 505.771 614.164 510.239C588.179 489.799 547.335 487.621 530.908 494.742C473.861 409.632 388.664 446.156 361.783 484.27C351.031 472.878 322.707 470.867 309.889 470.867C294.955 369.088 173.245 362.387 135.164 408.878Z" fill="url(#paint0_linear)"/>
<rect x="1" y="778" width="1439" height="122" fill="black"/>
<path d="M303.855 749.172C307.253 754.977 303.761 773.476 301.59 782H317.729C315.011 782 316.596 767.717 317.729 760.575C320.22 757.258 322.165 754.355 322.825 753.319C326.223 746.131 330.092 742.952 331.602 742.261L335 738.805L330.47 739.842L327.355 742.261C323.958 741.984 325.94 739.842 327.355 738.805C330.527 736.87 332.641 730.857 333.301 728.093V724.983L327.355 729.475L324.524 735.004C321.58 737.768 321.032 735.465 321.127 733.967L323.108 730.166L324.524 726.71C324.807 723.255 324.524 721.182 326.223 718.763C330.721 712.357 333.393 710.469 331.602 710.469C330.47 710.469 326.695 711.967 324.524 714.27L319.994 722.218L318.578 731.548C316.993 733.207 316.03 730.857 315.747 729.475C314.161 727.816 314.331 719.339 314.614 715.307C315.52 712.266 317.068 706.207 317.729 703.558C317.918 705.055 318.182 706.944 317.729 702.521C317.276 698.098 315.464 704.364 314.614 708.05L311.217 717.035L312.066 731.548C310.707 739.289 305.271 740.302 302.723 739.842C303.629 732.378 294.984 726.826 290.548 724.983L288 719.108V726.365L290.548 729.475C294.172 730.857 298.098 736.962 299.608 739.842C299.155 745.371 302.251 748.366 303.855 749.172Z" fill="black"/>
<path d="M1215.59 771.652C1214.22 773.659 1215.63 780.054 1216.51 783H1209.98C1211.08 783 1210.44 778.063 1209.98 775.594C1208.97 774.447 1208.19 773.444 1207.92 773.085C1206.55 770.601 1204.98 769.502 1204.37 769.263L1203 768.068L1204.83 768.427L1206.09 769.263C1207.46 769.167 1206.66 768.427 1206.09 768.068C1204.81 767.399 1203.95 765.321 1203.69 764.365V763.29L1206.09 764.843L1207.23 766.754C1208.43 767.71 1208.65 766.914 1208.61 766.396L1207.81 765.082L1207.23 763.888C1207.12 762.693 1207.23 761.976 1206.55 761.14C1204.73 758.926 1203.65 758.273 1204.37 758.273C1204.83 758.273 1206.36 758.791 1207.23 759.587L1209.07 762.335L1209.64 765.56C1210.28 766.133 1210.67 765.321 1210.78 764.843C1211.42 764.27 1211.36 761.339 1211.24 759.946C1210.87 758.894 1210.25 756.8 1209.98 755.884C1209.91 756.402 1209.8 757.055 1209.98 755.526C1210.17 753.997 1210.9 756.163 1211.24 757.437L1212.61 760.543L1212.27 765.56C1212.82 768.236 1215.02 768.586 1216.05 768.427C1215.68 765.847 1219.18 763.927 1220.97 763.29L1222 761.26V763.768L1220.97 764.843C1219.5 765.321 1217.92 767.431 1217.31 768.427C1217.49 770.338 1216.24 771.373 1215.59 771.652Z" fill="black"/>
<path d="M1006.84 760.144C1001.17 758.772 999.249 772.143 999 778.999H1012.07C1016.25 761.858 1010.33 759.287 1006.84 760.144Z" fill="black"/>
<path d="M1225.69 761.43C1220.01 759.373 1219.59 772.286 1220.09 779H1232.79C1232.79 761.516 1228.06 760.001 1225.69 761.43Z" fill="black"/>
<path d="M1303.74 764.001C1299.56 763.315 1299.51 773.715 1300.01 779H1309.72C1311.21 763.915 1306.36 762.715 1303.74 764.001Z" fill="black"/>
<path d="M1176.77 758.61L1183.52 781H1194.38L1188.01 755.707L1203 750.317L1199.25 739.951L1183.52 744.512L1179.77 730L1170.03 734.561L1174.52 748.244L1158.78 752.39L1162.53 763.585L1176.77 758.61Z" fill="black"/>
<path d="M1053.49 768.561L1052.37 779.756H1047.12L1049.37 766.073L1043 764.415V759.024L1050.87 761.098V755.707L1055.37 756.951V764.415H1060.24V768.561H1053.49Z" fill="black"/>
<path d="M1104.08 758.61L1097.33 781H1086.47L1092.84 755.707L1077.85 750.317L1081.59 739.951L1097.33 744.512L1101.08 730L1110.82 734.561L1106.33 748.244L1122.06 752.39L1118.32 763.585L1104.08 758.61Z" fill="black"/>
<path d="M914.03 771.4C912.913 773.853 912.884 778.289 913.009 780.2V780.8H918.272C919.905 779.307 919.561 774.178 919.185 771.8C919.4 775.8 917.664 778.444 916.769 779.267C916.339 778.84 916.948 775.267 917.306 773.533C916.446 773.933 915.533 780.2 915.533 779.8V774.2L914.567 780.2C913.621 777.587 913.815 773.244 914.03 771.4Z" fill="black"/>
<path d="M932.213 781.333C932.553 779.778 932.492 776.373 929.528 775.2C930.315 774.422 932.245 774.213 933.663 779.6C933.842 777.133 934.092 771.88 933.663 770.6C934.343 772.222 935.671 776.053 935.542 778.4C935.939 775.642 936.686 770.084 936.627 769.095C936.624 769.063 936.62 769.031 936.617 769C936.621 769.024 936.625 769.056 936.627 769.095C936.879 771.337 937.289 776.065 936.993 777.8C937.297 776.578 938.324 774.24 940 774.667C939.087 775.8 937.401 778.853 937.959 782L932.213 781.333Z" fill="black"/>
<path d="M905.427 772.2C904.654 773.747 905.105 778.578 905.427 780.8H908.112C907.253 777.92 909.544 774.4 910.798 773C909.895 773 908.631 774.778 908.112 775.667C908.671 772.04 907.522 769.711 906.877 769C908.037 772.147 906.895 777.156 906.179 779.267C905.234 778.04 905.284 774.044 905.427 772.2Z" fill="black"/>
<path d="M1166.29 771.4C1165.14 773.853 1165.11 778.289 1165.24 780.2V780.8H1170.65C1172.33 779.307 1171.98 774.178 1171.59 771.8C1171.81 775.8 1170.03 778.444 1169.1 779.267C1168.66 778.84 1169.29 775.267 1169.66 773.533C1168.77 773.933 1167.83 780.2 1167.83 779.8V774.2L1166.84 780.2C1165.87 777.587 1166.07 773.244 1166.29 771.4Z" fill="black"/>
<path d="M1184.99 781.333C1185.34 779.778 1185.28 776.373 1182.23 775.2C1183.04 774.422 1185.02 774.213 1186.48 779.6C1186.67 777.133 1186.92 771.88 1186.48 770.6C1187.18 772.222 1188.55 776.053 1188.42 778.4C1188.82 775.642 1189.59 770.084 1189.53 769.095C1189.53 769.063 1189.52 769.031 1189.52 769C1189.52 769.024 1189.53 769.056 1189.53 769.095C1189.79 771.337 1190.21 776.065 1189.91 777.8C1190.22 776.578 1191.28 774.24 1193 774.667C1192.06 775.8 1190.33 778.853 1190.9 782L1184.99 781.333Z" fill="black"/>
<path d="M1157.44 772.2C1156.64 773.747 1157.11 778.578 1157.44 780.8H1160.2C1159.32 777.92 1161.67 774.4 1162.96 773C1162.04 773 1160.74 774.778 1160.2 775.667C1160.78 772.04 1159.59 769.711 1158.93 769C1160.12 772.147 1158.95 777.156 1158.21 779.267C1157.24 778.04 1157.29 774.044 1157.44 772.2Z" fill="black"/>
<path d="M953.288 771.4C952.139 773.853 952.109 778.289 952.238 780.2V780.8H957.651C959.331 779.307 958.977 774.178 958.591 771.8C958.812 775.8 957.025 778.444 956.105 779.267C955.663 778.84 956.289 775.267 956.657 773.533C955.773 773.933 954.834 780.2 954.834 779.8V774.2L953.84 780.2C952.868 777.587 953.067 773.244 953.288 771.4Z" fill="black"/>
<path d="M971.99 781.333C972.34 779.778 972.278 776.373 969.228 775.2C970.038 774.422 972.023 774.213 973.482 779.6C973.666 777.133 973.924 771.88 973.482 770.6C974.181 772.222 975.548 776.053 975.415 778.4C975.823 775.642 976.591 770.084 976.531 769.095C976.527 769.063 976.524 769.031 976.52 769C976.525 769.024 976.529 769.056 976.531 769.095C976.79 771.337 977.212 776.065 976.907 777.8C977.22 776.578 978.277 774.24 980 774.667C979.061 775.8 977.326 778.853 977.901 782L971.99 781.333Z" fill="black"/>
<path d="M944.439 772.2C943.644 773.747 944.108 778.578 944.439 780.8H947.201C946.317 777.92 948.674 774.4 949.963 773C949.035 773 947.735 774.778 947.201 775.667C947.776 772.04 946.594 769.711 945.931 769C947.124 772.147 945.949 777.156 945.213 779.267C944.24 778.04 944.292 774.044 944.439 772.2Z" fill="black"/>
<path d="M1206.03 771.4C1204.91 773.853 1204.88 778.289 1205.01 780.2V780.8H1210.27C1211.9 779.307 1211.56 774.178 1211.19 771.8C1211.4 775.8 1209.66 778.444 1208.77 779.267C1208.34 778.84 1208.95 775.267 1209.31 773.533C1208.45 773.933 1207.53 780.2 1207.53 779.8V774.2L1206.57 780.2C1205.62 777.587 1205.81 773.244 1206.03 771.4Z" fill="black"/>
<path d="M1224.21 781.333C1224.55 779.778 1224.49 776.373 1221.53 775.2C1222.32 774.422 1224.25 774.213 1225.66 779.6C1225.84 777.133 1226.09 771.88 1225.66 770.6C1226.34 772.222 1227.67 776.053 1227.54 778.4C1227.94 775.642 1228.69 770.084 1228.63 769.095C1228.62 769.063 1228.62 769.031 1228.62 769C1228.62 769.024 1228.63 769.056 1228.63 769.095C1228.88 771.337 1229.29 776.065 1228.99 777.8C1229.3 776.578 1230.32 774.24 1232 774.667C1231.09 775.8 1229.4 778.853 1229.96 782L1224.21 781.333Z" fill="black"/>
<path d="M1197.43 772.2C1196.65 773.747 1197.1 778.578 1197.43 780.8H1200.11C1199.25 777.92 1201.54 774.4 1202.8 773C1201.9 773 1200.63 774.778 1200.11 775.667C1200.67 772.04 1199.52 769.711 1198.88 769C1200.04 772.147 1198.89 777.156 1198.18 779.267C1197.23 778.04 1197.28 774.044 1197.43 772.2Z" fill="black"/>
<path d="M977.393 759.171L970.607 782H959.672L966.082 756.211L951 750.715L954.77 740.146L970.607 744.797L974.377 730L984.18 734.65L979.656 748.602L995.492 752.829L991.721 764.244L977.393 759.171Z" fill="black"/>
<g filter="url(#filter0_i)">
<path d="M1075.18 781.624H1072.37C1073.98 779.824 1073.31 775.172 1072.77 773.072C1072.77 768.03 1077.59 765.569 1080 764.969C1092.2 762.088 1094.18 770.071 1093.64 774.422C1093.32 781.624 1088.16 782.224 1085.61 781.624C1085.61 783.785 1084.01 785.525 1083.21 786.125L1080 783.875H1077.99L1075.18 781.624Z" fill="white"/>
</g>
<path d="M1077.99 781.174L1077.59 779.824L1079.59 778.473V781.174H1077.99Z" fill="black"/>
<path d="M1076.38 776.223C1075.42 775.142 1076.79 773.372 1077.59 772.621C1079.84 771.541 1079.06 773.972 1078.39 775.322C1077.75 776.763 1076.79 776.523 1076.38 776.223Z" fill="black"/>
<g filter="url(#filter1_i)">
<path d="M1082.33 777.842C1081.37 776.762 1082.73 774.991 1083.54 774.241C1085.78 773.161 1085.01 775.591 1084.34 776.942C1083.7 778.382 1082.73 778.142 1082.33 777.842Z" fill="black"/>
</g>
<g filter="url(#filter2_i)">
<path d="M966.997 779.949H969.806C968.201 778.149 968.87 773.498 969.405 771.397C969.405 766.355 964.589 763.895 962.182 763.295C949.982 760.414 948.003 768.396 948.538 772.747C948.859 779.949 954.022 780.55 956.564 779.949C956.564 782.11 958.169 783.851 958.971 784.451L962.182 782.2H964.188L966.997 779.949Z" fill="white"/>
</g>
<path d="M964.188 779.499L964.589 778.149L962.583 776.799V779.499H964.188Z" fill="black"/>
<path d="M965.793 774.548C966.756 773.468 965.392 771.697 964.589 770.947C962.342 769.867 963.118 772.297 963.787 773.648C964.429 775.088 965.392 774.848 965.793 774.548Z" fill="black"/>
<g filter="url(#filter3_i)">
<path d="M959.844 776.167C960.807 775.087 959.443 773.317 958.64 772.566C956.393 771.486 957.169 773.917 957.838 775.267C958.48 776.708 959.443 776.468 959.844 776.167Z" fill="black"/>
</g>
</g>
<defs>
<filter id="filter0_i" x="1072.37" y="764.357" width="21.3463" height="25.7685" filterUnits="userSpaceOnUse" color-interpolation-filters="sRGB">
<feFlood flood-opacity="0" result="BackgroundImageFix"/>
<feBlend mode="normal" in="SourceGraphic" in2="BackgroundImageFix" result="shape"/>
<feColorMatrix in="SourceAlpha" type="matrix" values="0 0 0 0 0 0 0 0 0 0 0 0 0 0 0 0 0 0 127 0" result="hardAlpha"/>
<feOffset dy="4"/>
<feGaussianBlur stdDeviation="2"/>
<feComposite in2="hardAlpha" operator="arithmetic" k2="-1" k3="1"/>
<feColorMatrix type="matrix" values="0 0 0 0 0 0 0 0 0 0 0 0 0 0 0 0 0 0 0.25 0"/>
<feBlend mode="normal" in2="shape" result="effect1_innerShadow"/>
</filter>
<filter id="filter1_i" x="1082" y="773.972" width="3.02997" height="8.09792" filterUnits="userSpaceOnUse" color-interpolation-filters="sRGB">
<feFlood flood-opacity="0" result="BackgroundImageFix"/>
<feBlend mode="normal" in="SourceGraphic" in2="BackgroundImageFix" result="shape"/>
<feColorMatrix in="SourceAlpha" type="matrix" values="0 0 0 0 0 0 0 0 0 0 0 0 0 0 0 0 0 0 127 0" result="hardAlpha"/>
<feOffset dy="4"/>
<feGaussianBlur stdDeviation="2"/>
<feComposite in2="hardAlpha" operator="arithmetic" k2="-1" k3="1"/>
<feColorMatrix type="matrix" values="0 0 0 0 0.641667 0 0 0 0 0.641667 0 0 0 0 0.641667 0 0 0 0.02 0"/>
<feBlend mode="normal" in2="shape" result="effect1_innerShadow"/>
</filter>
<filter id="filter2_i" x="948.46" y="762.682" width="21.3463" height="25.7685" filterUnits="userSpaceOnUse" color-interpolation-filters="sRGB">
<feFlood flood-opacity="0" result="BackgroundImageFix"/>
<feBlend mode="normal" in="SourceGraphic" in2="BackgroundImageFix" result="shape"/>
<feColorMatrix in="SourceAlpha" type="matrix" values="0 0 0 0 0 0 0 0 0 0 0 0 0 0 0 0 0 0 127 0" result="hardAlpha"/>
<feOffset dy="4"/>
<feGaussianBlur stdDeviation="2"/>
<feComposite in2="hardAlpha" operator="arithmetic" k2="-1" k3="1"/>
<feColorMatrix type="matrix" values="0 0 0 0 0 0 0 0 0 0 0 0 0 0 0 0 0 0 0.25 0"/>
<feBlend mode="normal" in2="shape" result="effect1_innerShadow"/>
</filter>
<filter id="filter3_i" x="957.146" y="772.297" width="3.02997" height="8.09792" filterUnits="userSpaceOnUse" color-interpolation-filters="sRGB">
<feFlood flood-opacity="0" result="BackgroundImageFix"/>
<feBlend mode="normal" in="SourceGraphic" in2="BackgroundImageFix" result="shape"/>
<feColorMatrix in="SourceAlpha" type="matrix" values="0 0 0 0 0 0 0 0 0 0 0 0 0 0 0 0 0 0 127 0" result="hardAlpha"/>
<feOffset dy="4"/>
<feGaussianBlur stdDeviation="2"/>
<feComposite in2="hardAlpha" operator="arithmetic" k2="-1" k3="1"/>
<feColorMatrix type="matrix" values="0 0 0 0 0.641667 0 0 0 0 0.641667 0 0 0 0 0.641667 0 0 0 0.02 0"/>
<feBlend mode="normal" in2="shape" result="effect1_innerShadow"/>
</filter>
<linearGradient id="paint0_linear" x1="721.5" y1="316" x2="721.5" y2="865" gradientUnits="userSpaceOnUse">
<stop stop-color="#002032"/>
<stop offset="0.819675" stop-color="#161621"/>
</linearGradient>
<clipPath id="clip0">
<rect width="1440" height="900" fill="white"/>
</clipPath>
</defs>
</svg>
