<svg width="58" height="69" viewBox="0 0 58 69" fill="none" xmlns="http://www.w3.org/2000/svg">
<g filter="url(#filter0_i)">
<path d="M0.816406 20.8681C0.816406 9.82245 9.77071 0.868164 20.8164 0.868164H37.123C48.1686 0.868164 57.123 9.82247 57.123 20.8682V61.5737H0.816406V20.8681Z" fill="#FF0000"/>
</g>
<path d="M13.2717 32.0755V68.5H45.5019L45.9434 36.9321L47.0472 40.4641L46.6057 34.283L47.0472 34.5038L47.4887 35.3868L47.9302 34.283L49.034 43.334L48.5925 25.8943L49.2547 30.0887L49.034 20.3755L49.917 22.8038V16.4019H51.2415L52.1245 17.0642V18.1679L52.7868 17.0642L52.1245 15.9604L50.5792 15.7396L52.7868 15.2981L54.3321 15.9604L52.7868 14.8566H51.2415C50.9472 15.0038 50.2702 15.2981 49.917 15.2981H49.034L50.3585 14.1943L53.2283 13.7528L54.3321 14.1943L53.4491 13.0906L49.917 13.5321L48.5925 14.8566L47.2679 15.2981L48.5925 12.6491L52.1245 11.766L47.9302 12.2075L45.0604 15.9604L43.2943 16.4019V14.8566L43.7359 14.1943L46.3849 13.0906L42.6321 13.5321L41.5283 15.2981V18.8302H39.983L38.8792 20.817L37.5547 20.3755C37.3781 11.7219 33.066 10.2943 30.9321 10.6623C26.3404 10.6623 22.5434 15.666 21.2189 18.1679H18.1283V18.8302L15.4792 18.1679L15.0377 12.6491L13.4925 11.5453L11.0642 11.766L12.8302 12.2075L13.7132 13.0906V14.4151L12.1679 14.1943L9.07736 10L5.98679 10.6623H9.07736L10.1811 13.0906L9.73962 13.5321L7.97359 11.1038H6.64906L4 11.766L7.53208 12.2075L9.07736 14.1943L6.64906 12.6491H5.32453L4 14.4151L5.32453 13.5321H6.64906L7.97359 14.1943H5.98679L4.88302 15.9604L6.64906 14.8566H7.97359L8.41509 17.0642L9.07736 17.5057L10.1811 36.4906V29.4264L11.0642 28.7642L10.6226 40.2434L11.0642 43.334L11.5057 40.2434H12.1679V44.4377H12.8302V39.5811L12.1679 33.8415L13.2717 32.0755Z" fill="black"/>
<g filter="url(#filter1_f)">
<path d="M28.2832 16.335V15.3502C28.2832 15.1708 28.325 14.9938 28.4052 14.8333L28.4597 14.7244C28.6221 14.3996 28.956 14.1943 29.3192 14.1943C29.5068 14.1943 29.691 14.2498 29.847 14.3539C30.1113 14.53 30.27 14.8266 30.27 15.1442V16.1543C30.27 16.4542 30.1509 16.7417 29.9389 16.9538L29.8801 17.0125C29.7057 17.1869 29.4692 17.2849 29.2225 17.2849C28.9115 17.2849 28.6211 17.1295 28.4486 16.8707L28.4427 16.8619C28.3387 16.7059 28.2832 16.5226 28.2832 16.335Z" fill="#FF0000"/>
<path d="M31.5945 17.2181V16.2332C31.5945 16.0538 31.6363 15.8768 31.7166 15.7163L31.771 15.6075C31.9334 15.2826 32.2673 15.0774 32.6306 15.0774C32.8181 15.0774 33.0023 15.1329 33.1583 15.2369C33.4226 15.413 33.5813 15.7096 33.5813 16.0272V17.0374C33.5813 17.3372 33.4622 17.6248 33.2502 17.8368L33.1915 17.8955C33.017 18.0699 32.7805 18.1679 32.5338 18.1679C32.2228 18.1679 31.9324 18.0125 31.7599 17.7538L31.7541 17.7449C31.65 17.5889 31.5945 17.4056 31.5945 17.2181Z" fill="#FF0000"/>
</g>
<path d="M28.2832 16.335V15.3502C28.2832 15.1708 28.325 14.9938 28.4052 14.8333L28.4597 14.7244C28.6221 14.3996 28.956 14.1943 29.3192 14.1943C29.5068 14.1943 29.691 14.2498 29.847 14.3539C30.1113 14.53 30.27 14.8266 30.27 15.1442V16.1543C30.27 16.4542 30.1509 16.7417 29.9389 16.9538L29.8801 17.0125C29.7057 17.1869 29.4692 17.2849 29.2225 17.2849C28.9115 17.2849 28.6211 17.1295 28.4486 16.8707L28.4427 16.8619C28.3387 16.7059 28.2832 16.5226 28.2832 16.335Z" fill="white"/>
<path d="M31.5945 17.2181V16.2332C31.5945 16.0538 31.6363 15.8768 31.7166 15.7163L31.771 15.6075C31.9334 15.2826 32.2673 15.0774 32.6306 15.0774C32.8181 15.0774 33.0023 15.1329 33.1583 15.2369C33.4226 15.413 33.5813 15.7096 33.5813 16.0272V17.0374C33.5813 17.3372 33.4622 17.6248 33.2502 17.8368L33.1915 17.8955C33.017 18.0699 32.7805 18.1679 32.5338 18.1679C32.2228 18.1679 31.9324 18.0125 31.7599 17.7538L31.7541 17.7449C31.65 17.5889 31.5945 17.4056 31.5945 17.2181Z" fill="white"/>
<defs>
<filter id="filter0_i" x="0.816406" y="0.868164" width="56.3066" height="60.7055" filterUnits="userSpaceOnUse" color-interpolation-filters="sRGB">
<feFlood flood-opacity="0" result="BackgroundImageFix"/>
<feBlend mode="normal" in="SourceGraphic" in2="BackgroundImageFix" result="shape"/>
<feColorMatrix in="SourceAlpha" type="matrix" values="0 0 0 0 0 0 0 0 0 0 0 0 0 0 0 0 0 0 127 0" result="hardAlpha"/>
<feOffset/>
<feGaussianBlur stdDeviation="2"/>
<feComposite in2="hardAlpha" operator="arithmetic" k2="-1" k3="1"/>
<feColorMatrix type="matrix" values="0 0 0 0 1 0 0 0 0 0.9 0 0 0 0 0 0 0 0 0.2 0"/>
<feBlend mode="normal" in2="shape" result="effect1_innerShadow"/>
</filter>
<filter id="filter1_f" x="27.2832" y="13.1943" width="7.29811" height="5.97358" filterUnits="userSpaceOnUse" color-interpolation-filters="sRGB">
<feFlood flood-opacity="0" result="BackgroundImageFix"/>
<feBlend mode="normal" in="SourceGraphic" in2="BackgroundImageFix" result="shape"/>
<feGaussianBlur stdDeviation="0.5" result="effect1_foregroundBlur"/>
</filter>
</defs>
</svg>
