<svg width="574" height="660" viewBox="0 0 574 660" fill="none" xmlns="http://www.w3.org/2000/svg">
<g filter="url(#filter0_f)">
<path d="M118.685 253.724V639.368H459.922L464.596 305.143L476.283 342.539L471.608 277.096L476.283 279.434L480.957 288.783L485.632 277.096L497.318 372.923L492.643 188.281L499.655 232.689L497.318 129.85L506.667 155.56V87.7799H520.69L530.039 94.7917V106.478L537.051 94.7917L530.039 83.1055L513.679 80.7682L537.051 76.0937L553.412 83.1055L537.051 71.4193H520.69C517.574 72.9774 510.406 76.0937 506.667 76.0937H497.318L511.341 64.4075L541.725 59.7331L553.412 64.4075L544.063 52.7214L506.667 57.3958L492.643 71.4193L478.62 76.0937L492.643 48.0469L530.039 38.6979L485.632 43.3724L455.248 83.1055L436.55 87.7799V71.4193L441.224 64.4075L469.271 52.7214L429.538 57.3958L417.852 76.0937V113.49H401.491L389.805 134.525L375.781 129.85C373.912 38.2305 328.258 23.1163 305.664 27.0117C257.05 27.0117 216.849 79.9891 202.826 106.478H170.104V113.49L142.057 106.478L137.383 48.0469L121.022 36.3607L95.3127 38.6979L114.011 43.3724L123.36 52.7214V66.7448L106.999 64.4075L74.2775 20L41.5562 27.0117H74.2775L85.9637 52.7214L81.2892 57.3958L62.5913 31.6862H48.5679L20.521 38.6979L57.9168 43.3724L74.2775 64.4075L48.5679 48.0469H34.5444L20.521 66.7448L34.5444 57.3958H48.5679L62.5913 64.4075H41.5562L29.87 83.1055L48.5679 71.4193H62.5913L67.2658 94.7917L74.2775 99.4661L85.9637 300.469V225.677L95.3127 218.665L90.6382 340.202L95.3127 372.923L99.9871 340.202H106.999V384.609H114.011V333.19L106.999 272.422L118.685 253.724Z" fill="#FF0000"/>
</g>
<path d="M113.164 253.724V639.368H454.401L459.076 305.143L470.762 342.539L466.087 277.096L470.762 279.434L475.436 288.783L480.111 277.096L491.797 372.923L487.122 188.281L494.134 232.689L491.797 129.85L501.146 155.56V87.7799H515.169L524.518 94.7917V106.478L531.53 94.7917L524.518 83.1055L508.158 80.7682L531.53 76.0937L547.891 83.1055L531.53 71.4193H515.169C512.053 72.9774 504.885 76.0937 501.146 76.0937H491.797L505.82 64.4075L536.204 59.7331L547.891 64.4075L538.542 52.7214L501.146 57.3958L487.122 71.4193L473.099 76.0937L487.122 48.0469L524.518 38.6979L480.111 43.3724L449.727 83.1055L431.029 87.7799V71.4193L435.703 64.4075L463.75 52.7214L424.017 57.3958L412.331 76.0937V113.49H395.97L384.284 134.525L370.26 129.85C368.391 38.2305 322.737 23.1163 300.143 27.0117C251.529 27.0117 211.328 79.9891 197.305 106.478H164.583V113.49L136.536 106.478L131.862 48.0469L115.501 36.3607L89.7917 38.6979L108.49 43.3724L117.839 52.7214V66.7448L101.478 64.4075L68.7565 20L36.0352 27.0117H68.7565L80.4427 52.7214L75.7682 57.3958L57.0703 31.6862H43.0469L15 38.6979L52.3958 43.3724L68.7565 64.4075L43.0469 48.0469H29.0234L15 66.7448L29.0234 57.3958H43.0469L57.0703 64.4075H36.0352L24.349 83.1055L43.0469 71.4193H57.0703L61.7448 94.7917L68.7565 99.4661L80.4427 300.469V225.677L89.7917 218.665L85.1172 340.202L89.7917 372.923L94.4661 340.202H101.478V384.609H108.49V333.19L101.478 272.422L113.164 253.724Z" fill="black"/>
<g filter="url(#filter1_f)">
<path d="M272.096 87.0722V76.6454C272.096 74.7456 272.539 72.8718 273.388 71.1725L273.965 70.0199C275.685 66.5803 279.22 64.4075 283.065 64.4075C285.051 64.4075 287.001 64.9952 288.653 66.0965C291.451 67.9617 293.132 71.1017 293.132 74.4641V85.1591C293.132 88.3337 291.87 91.3782 289.626 93.623L289.004 94.2447C287.157 96.0914 284.653 97.1289 282.041 97.1289C278.749 97.1289 275.674 95.4834 273.848 92.7439L273.785 92.6506C272.684 90.9987 272.096 89.0577 272.096 87.0722Z" fill="#FF0000"/>
<path d="M307.155 96.4212V85.9944C307.155 84.0945 307.597 82.2207 308.447 80.5214L309.023 79.3689C310.743 75.9292 314.278 73.7565 318.124 73.7565C320.109 73.7565 322.06 74.3441 323.712 75.4455C326.51 77.3106 328.19 80.4506 328.19 83.8131V94.5081C328.19 97.6826 326.929 100.727 324.684 102.972L324.063 103.594C322.216 105.44 319.711 106.478 317.1 106.478C313.807 106.478 310.733 104.832 308.906 102.093L308.844 102C307.743 100.348 307.155 98.4066 307.155 96.4212Z" fill="#FF0000"/>
</g>
<path d="M272 86.6647V76.2379C272 74.3381 272.442 72.4643 273.292 70.765L273.868 69.6124C275.588 66.1728 279.123 64 282.969 64C284.954 64 286.905 64.5877 288.557 65.689C291.355 67.5542 293.035 70.6942 293.035 74.0566V84.7516C293.035 87.9262 291.774 90.9707 289.529 93.2155L288.908 93.8372C287.061 95.6839 284.556 96.7214 281.945 96.7214C278.652 96.7214 275.577 95.0759 273.751 92.3364L273.689 92.2431C272.588 90.5912 272 88.6502 272 86.6647Z" fill="white"/>
<path d="M307.059 96.0137V85.5869C307.059 83.687 307.501 81.8132 308.351 80.1139L308.927 78.9614C310.647 75.5217 314.182 73.349 318.028 73.349C320.013 73.349 321.964 73.9366 323.616 75.038C326.413 76.9031 328.094 80.0431 328.094 83.4056V94.1006C328.094 97.2751 326.833 100.32 324.588 102.564L323.966 103.186C322.12 105.033 319.615 106.07 317.003 106.07C313.711 106.07 310.636 104.425 308.81 101.685L308.748 101.592C307.646 99.9401 307.059 97.9991 307.059 96.0137Z" fill="white"/>
<defs>
<filter id="filter0_f" x="0.520996" y="0" width="572.891" height="659.368" filterUnits="userSpaceOnUse" color-interpolation-filters="sRGB">
<feFlood flood-opacity="0" result="BackgroundImageFix"/>
<feBlend mode="normal" in="SourceGraphic" in2="BackgroundImageFix" result="shape"/>
<feGaussianBlur stdDeviation="10" result="effect1_foregroundBlur"/>
</filter>
<filter id="filter1_f" x="262.096" y="54.4075" width="76.0938" height="62.0703" filterUnits="userSpaceOnUse" color-interpolation-filters="sRGB">
<feFlood flood-opacity="0" result="BackgroundImageFix"/>
<feBlend mode="normal" in="SourceGraphic" in2="BackgroundImageFix" result="shape"/>
<feGaussianBlur stdDeviation="5" result="effect1_foregroundBlur"/>
</filter>
</defs>
</svg>
