<svg width="1336" height="989" viewBox="0 0 1336 989" fill="none" xmlns="http://www.w3.org/2000/svg">
<g filter="url(#filter0_f)">
<path d="M396.627 409.217V1051.28H964.759L972.542 494.825L991.998 557.086L984.216 448.13L991.998 452.021L999.781 467.586L1007.56 448.13L1027.02 607.674L1019.24 300.26L1030.91 374.195L1027.02 202.977L1042.59 245.781V132.933H1065.93L1081.5 144.607V164.064L1093.17 144.607L1081.5 125.151L1054.26 121.259L1093.17 113.477L1120.41 125.151L1093.17 105.694H1065.93C1060.74 108.288 1048.81 113.477 1042.59 113.477H1027.02L1050.37 94.0202L1100.95 86.2375L1120.41 94.0202L1104.85 74.5636L1042.59 82.3462L1019.24 105.694L995.889 113.477L1019.24 66.781L1081.5 51.2157L1007.56 58.9983L956.976 125.151L925.846 132.933V105.694L933.628 94.0202L980.324 74.5636L914.172 82.3462L894.715 113.477V175.738H867.476L848.02 210.76L824.672 202.977C821.559 50.4374 745.548 25.2736 707.932 31.7591C626.993 31.7591 560.062 119.962 536.714 164.064H482.236V175.738L435.54 164.064L427.758 66.781L400.518 47.3244L357.714 51.2157L388.844 58.9983L404.41 74.5636V97.9115L377.171 94.0202L322.692 20.0852L268.214 31.7591H322.692L342.149 74.5636L334.366 82.3462L303.236 39.5418H279.888L233.192 51.2157L295.453 58.9983L322.692 94.0202L279.888 66.781H256.54L233.192 97.9115L256.54 82.3462H279.888L303.236 94.0202H268.214L248.757 125.151L279.888 105.694H303.236L311.018 144.607L322.692 152.39L342.149 487.043V362.521L357.714 350.847L349.931 553.195L357.714 607.674L365.497 553.195H377.171V627.13H388.844V541.521L377.171 440.347L396.627 409.217Z" fill="#FF0000"/>
</g>
<path d="M387.435 409.217V1051.28H955.567L963.35 494.825L982.806 557.086L975.024 448.13L982.806 452.021L990.589 467.586L998.372 448.13L1017.83 607.674L1010.05 300.26L1021.72 374.195L1017.83 202.977L1033.39 245.781V132.933H1056.74L1072.31 144.607V164.064L1083.98 144.607L1072.31 125.151L1045.07 121.259L1083.98 113.477L1111.22 125.151L1083.98 105.694H1056.74C1051.55 108.288 1039.62 113.477 1033.39 113.477H1017.83L1041.18 94.0202L1091.76 86.2375L1111.22 94.0202L1095.65 74.5636L1033.39 82.3462L1010.05 105.694L986.698 113.477L1010.05 66.781L1072.31 51.2157L998.372 58.9983L947.784 125.151L916.654 132.933V105.694L924.437 94.0202L971.132 74.5636L904.98 82.3462L885.523 113.477V175.738H858.284L838.828 210.76L815.48 202.977C812.367 50.4374 736.356 25.2736 698.74 31.7591C617.801 31.7591 550.87 119.962 527.522 164.064H473.044V175.738L426.348 164.064L418.566 66.781L391.327 47.3244L348.522 51.2157L379.653 58.9983L395.218 74.5636V97.9115L367.979 94.0202L313.5 20.0852L259.022 31.7591H313.5L332.957 74.5636L325.174 82.3462L294.044 39.5418H270.696L224 51.2157L286.261 58.9983L313.5 94.0202L270.696 66.781H247.348L224 97.9115L247.348 82.3462H270.696L294.044 94.0202H259.022L239.565 125.151L270.696 105.694H294.044L301.826 144.607L313.5 152.39L332.957 487.043V362.521L348.522 350.847L340.739 553.195L348.522 607.674L356.305 553.195H367.979V627.13H379.653V541.521L367.979 440.347L387.435 409.217Z" fill="black"/>
<g filter="url(#filter1_f)">
<path d="M652.045 131.755V114.307C652.045 111.202 652.768 108.14 654.156 105.363L655.155 103.365C658.019 97.638 663.905 94.0205 670.307 94.0205C673.613 94.0205 676.86 94.999 679.611 96.8326C684.269 99.9379 687.067 105.166 687.067 110.764V128.57C687.067 133.856 684.967 138.925 681.23 142.662L680.195 143.697C677.12 146.772 672.95 148.499 668.602 148.499C663.12 148.499 658.001 145.759 654.96 141.198L654.857 141.043C653.023 138.293 652.045 135.061 652.045 131.755Z" fill="#FF0000"/>
<path d="M710.415 147.321V129.872C710.415 126.767 711.138 123.705 712.526 120.928L713.525 118.93C716.389 113.203 722.274 109.586 728.677 109.586C731.983 109.586 735.23 110.564 737.981 112.398C742.639 115.503 745.436 120.731 745.436 126.329V144.135C745.436 149.421 743.337 154.49 739.599 158.227L738.564 159.262C735.49 162.337 731.32 164.064 726.972 164.064C721.49 164.064 716.371 161.325 713.33 156.764L713.227 156.608C711.393 153.858 710.415 150.626 710.415 147.321Z" fill="#FF0000"/>
</g>
<path d="M651.884 131.076V113.628C651.884 110.523 652.607 107.461 653.996 104.684L654.995 102.686C657.858 96.959 663.744 93.3416 670.147 93.3416C673.452 93.3416 676.7 94.32 679.45 96.1536C684.108 99.2589 686.906 104.487 686.906 110.085V127.891C686.906 133.177 684.806 138.246 681.069 141.983L680.034 143.018C676.959 146.093 672.789 147.82 668.441 147.82C662.959 147.82 657.841 145.08 654.8 140.519L654.696 140.364C652.863 137.614 651.884 134.382 651.884 131.076Z" fill="white"/>
<path d="M710.254 146.642V129.193C710.254 126.089 710.977 123.026 712.365 120.249L713.365 118.251C716.228 112.524 722.114 108.907 728.516 108.907C731.822 108.907 735.07 109.885 737.82 111.719C742.478 114.824 745.276 120.052 745.276 125.65V143.457C745.276 148.742 743.176 153.811 739.439 157.548L738.404 158.583C735.329 161.658 731.159 163.385 726.811 163.385C721.329 163.385 716.21 160.646 713.17 156.085L713.066 155.929C711.232 153.179 710.254 149.947 710.254 146.642Z" fill="white"/>
<path d="M183.747 429.906H184.968V435.521H183.747V429.906ZM193.024 431.249C197.175 431.9 199.25 432.714 199.25 433.69V434.301H198.64C198.151 434.301 196.28 433.69 193.024 432.47V431.249ZM219.147 451.024H220.49C220.979 451.024 221.589 451.675 222.321 452.978V454.809H221.101C220.205 454.809 219.554 453.547 219.147 451.024ZM206.086 452.367L207.429 454.198L206.086 454.809C205.272 454.809 204.865 454.402 204.865 453.588C204.947 452.774 205.354 452.367 206.086 452.367ZM174.47 462.255V464.818H175.08V462.255H174.47ZM189.973 492.772V493.383H192.414V492.772H189.973ZM182.526 495.824C182.526 496.638 182.323 497.045 181.916 497.045L182.526 500.219V502.66C180.166 502.66 178.498 505.793 177.521 512.06V513.891H178.742C178.742 512.507 179.597 509.374 181.306 504.491H181.916L183.137 505.224C183.137 503.596 184.398 501.724 186.921 499.608V498.388C186.758 497.737 185.7 496.882 183.747 495.824H182.526ZM179.963 500.219L181.306 500.829V498.998C180.41 499.079 179.963 499.486 179.963 500.219ZM189.362 502.66L188.142 502.05H186.921C183.584 506.119 181.916 509.862 181.916 513.28C184.764 513.28 186.188 515.355 186.188 519.506H187.531V518.896L186.921 517.553C187.002 516.82 188.02 515.193 189.973 512.67L188.752 510.717C188.752 510.31 190.827 509.293 194.978 507.665V506.444C194.978 505.631 194.571 505.224 193.757 505.224H193.024V506.444H191.804V505.834C192.618 504.451 193.024 503.189 193.024 502.05L191.193 500.829C190.624 500.829 190.013 501.439 189.362 502.66ZM201.203 507.665L202.424 508.275V506.444C201.61 506.526 201.203 506.933 201.203 507.665ZM194.367 510.717V515.111H195.588V510.717H194.367ZM173.127 512.67V513.891H173.859C174.673 513.891 175.08 513.484 175.08 512.67V511.327H174.47C173.575 511.49 173.127 511.938 173.127 512.67ZM199.86 512.67V513.28H201.203V511.327C200.308 511.49 199.86 511.938 199.86 512.67ZM195.588 528.783V530.614H196.809V528.783H195.588ZM193.269 571.996C192.699 571.589 192.414 571.06 192.414 570.409C193.716 569.188 195.181 568.578 196.809 568.578V567.968C196.809 567.154 196.402 566.747 195.588 566.747H194.978L190.583 569.188H188.142V567.968C190.746 567.968 193.024 566.503 194.978 563.573V560.521L193.024 557.958V557.348L193.757 554.296H193.024C192.78 554.296 191.153 555.964 188.142 559.301L187.531 557.958V556.737L189.362 553.686L188.142 549.901C188.549 549.088 188.752 548.477 188.752 548.07L187.531 547.46C186.636 548.355 185.782 552.506 184.968 559.911H183.747V558.69L184.357 551.122C183.137 550.715 182.526 550.308 182.526 549.901C183.096 548.274 183.706 547.46 184.357 547.46L183.747 546.239V543.065C183.259 543.065 182.648 542.862 181.916 542.455V543.065C182.323 543.879 182.526 544.49 182.526 544.896L179.963 546.85H178.132L178.742 542.455V541.845C177.115 543.065 175.894 543.676 175.08 543.676C174.917 545.141 174.836 546.483 174.836 547.704L171.906 543.676C171.499 541.234 170.889 540.014 170.075 540.014C169.668 540.827 169.261 542.699 168.854 545.629C169.668 545.71 170.075 546.117 170.075 546.85V547.46C170.075 547.948 169.628 548.477 168.732 549.047L166.291 546.239C167.186 545.1 167.837 543.025 168.244 540.014L167.023 539.403C164.745 540.217 163.483 541.234 163.239 542.455C164.46 542.455 165.07 542.862 165.07 543.676V544.286L162.019 543.676V544.53L155.793 541.845C155.386 540.054 155.183 537.776 155.183 535.009H156.403L157.624 535.619V535.009C157.624 534.358 156.403 533.747 153.962 533.178C153.311 531.062 152.66 530.004 152.009 530.004L151.398 531.225V537.45C151.398 538.101 150.788 538.752 149.567 539.403H148.957V538.793C149.12 531.713 149.527 528.173 150.178 528.173C149.852 527.44 149.445 524.958 148.957 520.727H149.567C149.16 519.913 148.957 519.302 148.957 518.896L147.736 519.506H146.394V518.896C146.394 515.315 146.638 511.571 147.126 507.665V506.444H146.394C146.394 508.886 145.987 510.106 145.173 510.106H144.562C144.562 508.56 144.766 506.688 145.173 504.491C145.173 503.922 144.969 501.033 144.562 495.824C144.807 490.535 145.417 487.442 146.394 486.547V482.763C145.498 482.763 144.481 485.041 143.342 489.599H142.121V488.988C142.528 482.966 142.731 479.67 142.731 479.101C141.674 479.914 140.86 480.321 140.29 480.321V482.152C140.29 484.838 139.842 487.727 138.947 490.819H137.727V487.768L136.506 485.937H137.727L137.116 482.763V472.875C137.116 469.62 136.913 466.69 136.506 464.086C136.913 462.051 137.116 459.366 137.116 456.029V449.804C139.232 449.804 140.29 446.508 140.29 439.916V438.695H139.558C139.558 441.137 138.947 442.357 137.727 442.357H137.116V438.695C137.116 438.288 137.32 438.085 137.727 438.085L137.116 436.742V426.244C137.116 425.268 136.913 424.413 136.506 423.681C137.32 414.892 141.267 404.149 148.347 391.454H149.567V393.285H150.178C150.91 393.285 151.968 391.413 153.352 387.67C156.118 387.67 158.153 385.391 159.455 380.834H160.188C161.001 380.834 161.408 381.648 161.408 383.275C163.117 381.241 164.338 380.224 165.07 380.224L166.291 380.834C166.942 380.834 167.797 380.02 168.854 378.393C170.889 378.393 171.906 378.799 171.906 379.613L176.911 378.393V379.003C180.248 378.189 181.916 376.521 181.916 373.998H184.968C185.782 374.079 186.188 374.486 186.188 375.219C186.188 376.033 185.578 376.439 184.357 376.439V377.05C184.357 377.701 185.212 378.555 186.921 379.613H187.531L189.973 377.05C190.38 377.05 190.583 377.294 190.583 377.782C191.315 377.294 191.926 377.05 192.414 377.05L195.588 377.782C195.588 376.48 195.995 375.829 196.809 375.829L199.25 379.003H200.593C200.593 376.887 201 375.829 201.813 375.829C201.813 376.48 202.627 377.131 204.255 377.782C204.987 377.294 205.801 377.05 206.696 377.05C206.696 377.701 208.365 378.555 211.701 379.613L212.312 378.393C213.695 378.881 214.956 379.695 216.096 380.834C216.828 380.427 217.438 380.224 217.927 380.224C222.565 382.177 227.733 384.862 233.43 388.28C234.325 388.28 236.197 391.413 239.045 397.68L240.266 396.947C242.707 400.365 244.375 403.905 245.271 407.567C245.271 407.812 245.067 408.625 244.66 410.009C244.66 411.555 245.922 414.281 248.444 418.188C248.444 418.35 248.241 421.036 247.834 426.244C247.834 427.383 248.037 431.534 248.444 438.695C248.444 442.276 247.183 444.555 244.66 445.531H244.05L240.998 442.968C240.998 444.27 240.55 444.921 239.655 444.921H239.045C237.01 444.921 233.918 445.124 229.768 445.531C229.768 446.752 229.361 447.362 228.547 447.362L225.983 443.578H224.763C224.763 444.88 224.356 445.531 223.542 445.531C222.728 445.531 222.321 444.88 222.321 443.578H221.101L219.147 444.921L216.706 442.357C216.299 444.148 215.241 445.409 213.532 446.142V447.362H212.312C210.44 445.735 209.423 444.921 209.26 444.921C208.527 444.921 207.062 445.938 204.865 447.973L203.645 446.142C204.458 446.142 204.865 445.735 204.865 444.921C204.865 444.351 203.645 442.886 201.203 440.526C202.017 440.526 202.424 440.119 202.424 439.306C201.61 439.306 201.203 438.899 201.203 438.085C201.285 437.19 201.691 436.742 202.424 436.742C202.424 436.335 202.22 436.132 201.813 436.132L202.424 433.08V425.023C202.424 424.047 202.22 423.192 201.813 422.46C202.22 421.728 202.424 420.914 202.424 420.019V418.188H201.813V419.408H201.203C200.308 419.408 199.657 417.74 199.25 414.403H198.029C198.029 416.031 197.622 416.845 196.809 416.845L193.024 413.793C190.583 414.2 189.362 414.81 189.362 415.624L186.188 415.014H185.578C183.137 415.014 181.713 428.279 181.306 454.809C180.655 454.809 180.004 455.419 179.353 456.64V461.645H181.916V466.649H180.695V464.818H179.353V477.147C180.329 477.147 180.98 474.869 181.306 470.312H182.526V470.922C182.526 478.409 181.468 482.152 179.353 482.152V487.157C180.248 487.157 180.695 487.361 180.695 487.768L181.916 487.157H182.526V490.819H184.357C185.171 490.819 185.578 490.412 185.578 489.599H183.747V487.768H184.968C185.782 487.768 186.188 488.581 186.188 490.209H188.752C189.24 490.209 189.851 489.599 190.583 488.378V479.101H192.414C192.17 475.357 191.356 473.485 189.973 473.485V461.034L190.583 457.982H191.804L193.024 458.593C193.024 457.942 193.675 457.291 194.978 456.64L194.367 452.367V451.757C194.367 448.502 195.384 446.426 197.419 445.531C198.233 445.613 198.64 446.02 198.64 446.752C197.907 446.752 197.093 447.566 196.198 449.193V451.757C196.198 452.326 196.809 452.937 198.029 453.588L202.424 452.367V452.978C201.61 455.826 201.203 457.494 201.203 457.982L202.424 458.593C202.424 456.884 202.831 456.029 203.645 456.029H204.255L207.429 456.64C207.429 455.419 207.836 454.809 208.649 454.809L212.312 455.419C212.474 454.605 212.881 454.198 213.532 454.198H214.265V457.982H214.875V455.419H215.485L216.706 456.029C216.706 454.809 217.113 454.198 217.927 454.198L221.101 458.593C223.461 458.593 225.292 457.535 226.594 455.419C227.489 455.419 227.937 456.029 227.937 457.25H229.157L233.43 454.809C234.325 454.809 234.772 455.622 234.772 457.25H237.214C237.214 455.622 237.621 454.809 238.435 454.809L240.998 458.593V457.25H242.829C242.992 457.25 244.009 458.308 245.881 460.424H246.491C246.491 458.308 246.939 457.25 247.834 457.25C248.648 459.366 249.055 464.167 249.055 471.654V479.101C249.055 482.274 248.851 485.163 248.444 487.768C248.851 489.965 249.055 492.447 249.055 495.214C249.055 497.33 248.851 499.812 248.444 502.66C248.851 505.508 249.055 507.787 249.055 509.496C249.055 517.39 248.2 521.337 246.491 521.337H245.271V520.727C245.271 518.529 245.677 514.379 246.491 508.275H244.05V513.28C244.05 514.582 243.846 515.6 243.439 516.332L244.05 520.116V527.562C244.05 530.004 243.236 531.225 241.608 531.225V531.957C241.608 534.48 241.405 537.165 240.998 540.014L241.608 542.455C241.201 545.141 240.998 547.826 240.998 550.512H240.266C239.452 550.512 239.045 550.105 239.045 549.291V548.681C239.045 546.321 239.248 544.856 239.655 544.286C239.248 542.17 239.045 540.95 239.045 540.624C239.452 535.009 239.655 530.858 239.655 528.173C240.55 528.173 240.998 527.766 240.998 526.952V523.168L241.608 516.942C240.957 516.942 240.306 517.593 239.655 518.896V520.727H239.045V523.778L237.214 526.342V527.562C237.214 537.084 236.197 541.845 234.162 541.845H233.43L234.162 538.793V536.84C234.162 536.026 233.715 535.619 232.819 535.619C232.819 536.84 232.616 537.45 232.209 537.45C230.581 537.206 229.768 535.578 229.768 532.567V528.783C229.768 527.969 229.361 527.562 228.547 527.562H227.937C227.53 533.34 227.326 538.305 227.326 542.455H227.937V543.676C227.937 549.047 227.285 551.732 225.983 551.732C225.17 551.732 224.763 551.326 224.763 550.512V548.681C224.763 548.274 224.966 548.07 225.373 548.07C225.373 547.663 225.17 547.46 224.763 547.46L225.373 544.286V543.065C225.373 541.194 224.966 539.525 224.152 538.061C224.559 533.34 224.966 530.655 225.373 530.004H224.763C223.949 530.411 223.339 530.614 222.932 530.614L223.542 536.229C223.135 540.461 222.728 542.943 222.321 543.676C223.135 543.839 223.542 544.245 223.542 544.896V546.239C223.542 546.809 222.932 547.419 221.711 548.07C221.304 547.338 221.101 546.28 221.101 544.896L219.758 545.629V544.896L221.101 542.455L219.758 541.845C219.188 541.845 218.578 542.862 217.927 544.896L218.537 546.239C218.537 547.053 218.13 547.46 217.316 547.46H216.706L216.096 544.286C216.096 541.438 216.299 536.881 216.706 530.614V529.394H216.096C216.096 531.916 215.485 533.178 214.265 533.178V536.229C214.265 537.938 214.468 540.217 214.875 543.065C213.329 548.355 212.271 551.041 211.701 551.122H211.091V546.85L211.701 545.629L209.26 544.896C208.039 548.233 207.185 549.901 206.696 549.901L207.429 553.686C207.429 559.464 206.778 562.353 205.476 562.353C205.069 561.539 204.865 560.928 204.865 560.521C204.865 560.115 205.069 558.446 205.476 555.517H204.865C204.296 555.517 203.685 556.127 203.034 557.348V559.301L203.645 562.353C202.831 562.759 202.22 562.963 201.813 562.963L202.424 564.184V564.794L201.813 566.137L200.593 565.526H199.86C198.884 566.34 198.273 566.747 198.029 566.747L198.64 567.968C198.233 568.7 198.029 569.514 198.029 570.409L193.269 571.996ZM282.746 545.019C281.525 543.879 280.915 541.194 280.915 536.962V533.666C281.566 530.574 282.461 529.027 283.601 529.027H284.211L283.601 535.619L284.211 543.554C285.594 543.554 286.286 540.705 286.286 535.009L285.554 530.37L286.286 527.074C286.286 526.749 286.042 525.447 285.554 523.168V519.14H283.601C283.031 522.72 282.136 524.511 280.915 524.511C279.857 523.616 279.206 523.168 278.962 523.168C278.962 523.575 278.758 523.778 278.352 523.778L278.962 527.074C278.718 531.469 278.067 533.666 277.009 533.666H276.398C276.398 532.12 276.154 531.021 275.666 530.37C276.154 528.824 276.398 527.969 276.398 527.807C275.91 521.215 275.666 516.82 275.666 514.623C276.561 511.775 277.009 509.781 277.009 508.642V504.735H278.352C278.352 504.247 278.107 503.596 277.619 502.782C278.107 500.341 278.352 498.347 278.352 496.801C277.538 497.208 276.887 497.411 276.398 497.411V502.05L274.323 504.735V508.642C274.323 512.711 274.12 516.454 273.713 519.872C274.12 522.151 274.323 524.348 274.323 526.464L273.713 532.323C274.12 534.683 274.323 536.677 274.323 538.305L273.713 541.601L275.056 544.164C274.486 549.779 274.038 552.872 273.713 553.441C274.12 554.174 274.323 555.028 274.323 556.005C273.184 556.9 271.231 557.795 268.464 558.69L267.854 557.348C270.865 550.919 272.37 546.321 272.37 543.554H271.027L271.76 538.915C271.271 535.172 271.027 532.12 271.027 529.76H269.074V532.323H268.464C267.569 532.323 267.121 531.916 267.121 531.103C268.423 529.231 269.074 527.44 269.074 525.731L267.854 526.464L264.558 525.121C263.988 530.167 263.093 533.218 261.872 534.276V536.962C261.872 542.333 261.221 547.175 259.919 551.488H258.576C259.471 537.41 260.57 529.271 261.872 527.074L261.262 525.731C261.669 522.232 262.32 520.482 263.215 520.482H264.558C264.558 521.378 264.761 521.825 265.168 521.825C266.063 521.418 266.714 521.215 267.121 521.215C267.121 521.622 267.365 521.825 267.854 521.825C267.854 521.418 268.057 521.215 268.464 521.215C268.871 522.029 269.074 522.68 269.074 523.168H269.807C269.807 520.727 270.01 518.285 270.417 515.844V515.233H269.807V516.576H268.464C266.674 513.158 265.778 509.211 265.778 504.735H264.558C264.558 513.931 263.662 518.529 261.872 518.529L260.529 515.844C260.529 514.786 260.977 511.734 261.872 506.688L259.919 508.031H258.576V507.299L276.398 421.117C277.212 421.117 278.962 413.671 281.647 398.778C284.496 384.781 286.449 377.294 287.507 376.317H288.85V377.05L290.192 376.317C291.088 376.317 291.535 377.213 291.535 379.003H292.756C293.651 379.003 294.099 378.352 294.099 377.05H294.831C295.645 377.05 296.052 377.904 296.052 379.613H298.737C298.737 377.416 299.185 376.317 300.08 376.317H304.719L306.672 377.66H308.625C308.625 375.463 309.073 374.364 309.968 374.364C309.968 375.015 310.619 375.666 311.921 376.317L315.217 375.707C315.38 376.602 315.827 377.05 316.56 377.05H320.466V374.975C325.756 374.975 328.4 376.073 328.4 378.271H330.354C330.354 376.562 330.801 375.707 331.696 375.707H336.213C338.003 377.986 339.997 379.532 342.194 380.346C344.392 383.926 345.49 387.629 345.49 391.454H344.758C344.921 394.302 346.263 399.348 348.786 406.591L349.396 409.887C348.99 414.525 348.339 418.472 347.443 421.728V424.413H349.396L350.129 417.821H351.35C351.35 419.612 351.594 421.361 352.082 423.07C352.082 423.314 351.838 424.21 351.35 425.756C352.163 430.639 353.506 435.033 355.378 438.939C355.378 439.346 355.581 439.997 355.988 440.893L355.378 444.799V445.409C356.68 448.99 358.226 456.233 360.017 467.138C360.017 469.823 359.121 471.166 357.331 471.166C356.924 476.618 356.721 479.914 356.721 481.054V482.274H357.331C359.121 478.612 360.017 474.462 360.017 469.823H360.627C361.278 469.823 361.929 470.474 362.58 471.776V473.729C362.58 476.252 362.784 479.792 363.19 484.35C363.19 486.059 362.132 486.913 360.017 486.913V490.941C361.726 490.941 362.58 493.342 362.58 498.144H363.19L363.923 494.848V486.303H364.533C365.103 486.303 366.201 490.006 367.829 497.411C368.399 497.411 368.846 498.306 369.172 500.097L368.562 504.003C368.968 506.526 369.172 508.723 369.172 510.595C368.521 510.595 367.626 511.49 366.486 513.28L369.782 517.187C369.619 519.872 368.765 521.215 367.219 521.215V523.168C367.219 523.575 367.422 523.778 367.829 523.778L366.486 529.76L367.219 533.666C367.219 534.317 366.975 537.41 366.486 542.943H369.172V545.507C369.172 548.192 368.277 549.535 366.486 549.535V554.784C366.486 555.598 366.079 556.005 365.266 556.005H364.533L363.19 555.395L364.533 549.535C364.126 544.978 363.923 541.438 363.923 538.915C364.33 537.369 364.533 536.514 364.533 536.352C364.045 533.259 363.394 531.713 362.58 531.713C362.255 536.677 361.4 539.729 360.017 540.868C360.017 548.762 358.918 554.906 356.721 559.301C356.721 561.091 356.273 561.986 355.378 561.986H353.425L352.692 558.69V550.756C352.692 549.779 352.489 548.925 352.082 548.192C352.082 547.704 352.285 547.46 352.692 547.46L352.082 539.647V533.666C350.536 533.666 349.437 537.165 348.786 544.164H347.443L346.833 540.868C346.833 533.463 347.688 529.76 349.396 529.76V525.731C349.396 523.86 349.641 521.459 350.129 518.529C350.129 518.122 349.885 517.919 349.396 517.919L350.129 514.623V509.374C348.664 509.374 347.565 509.13 346.833 508.642C345.45 513.036 344.758 515.437 344.758 515.844L346.101 515.233H347.443C347.443 519.058 346.345 526.505 344.147 537.572C344.554 538.386 345.002 540.583 345.49 544.164C344.595 550.105 344.147 554.052 344.147 556.005C343.578 556.005 342.927 554.906 342.194 552.709L342.805 548.192V538.305C341.991 538.305 341.584 537.41 341.584 535.619C337.515 538.712 334.87 540.258 333.649 540.258L329.011 538.915V535.619C329.011 535.212 329.214 535.009 329.621 535.009C328.807 533.218 328.4 530.818 328.4 527.807C327.017 527.807 325.471 527.562 323.762 527.074C323.355 528.865 322.46 529.76 321.076 529.76L318.513 528.417C312.653 530.777 308.259 534.032 305.329 538.183L282.746 545.019ZM310.578 456.029C310.985 456.029 311.188 458.227 311.188 462.621H309.968C309.968 466.283 309.52 469.783 308.625 473.119C309.032 476.049 309.235 478.45 309.235 480.321V488.256C309.479 489.151 309.927 489.599 310.578 489.599H311.921V480.321L312.531 477.025H313.264C313.264 480.443 314.566 485.285 317.17 491.552C319.123 491.552 320.222 488.052 320.466 481.054V468.48C321.361 467.423 321.809 466.771 321.809 466.527V463.231H320.466L319.855 469.823H319.123C318.065 469.823 317.211 466.324 316.56 459.325L315.217 458.593C315.624 457.779 315.827 457.128 315.827 456.64C315.827 454.768 315.38 452.571 314.484 450.048C313.02 450.048 311.717 452.042 310.578 456.029ZM320.466 505.346V507.299C321.117 507.299 321.768 506.648 322.419 505.346V504.735C321.687 505.142 321.035 505.346 320.466 505.346ZM356.721 505.346C356.721 506.648 356.029 507.746 354.646 508.642C354.646 511.815 353.791 516.21 352.082 521.825L352.692 525.121C352.285 528.214 352.082 529.963 352.082 530.37V533.056H352.692C353.832 521.581 355.174 515.844 356.721 515.844H357.331V516.576C357.331 524.47 356.436 529.068 354.646 530.37C354.646 534.439 354.442 538.183 354.035 541.601L354.646 546.239C354.239 549.169 354.035 551.57 354.035 553.441V554.052H354.646C356.436 551.203 357.331 548.152 357.331 544.896C356.761 541.804 356.11 540.258 355.378 540.258C356.924 530.167 358.023 525.121 358.674 525.121C359.976 521.133 360.83 519.14 361.237 519.14C361.237 519.628 361.481 519.872 361.97 519.872C363.679 511.815 364.533 507.217 364.533 506.078H362.58V509.374C360.871 510.432 360.017 511.531 360.017 512.67C358.47 513.077 357.575 513.28 357.331 513.28V505.346H356.721ZM306.672 525.731C306.672 526.871 306.021 528.417 304.719 530.37C305.533 531.509 305.939 532.405 305.939 533.056H306.672C308.381 531.265 309.683 530.37 310.578 530.37V529.027L308.625 530.37L307.893 529.027C308.788 529.027 309.235 528.62 309.235 527.807L306.672 525.731ZM312.531 526.464V527.807H314.484V526.464H312.531ZM435.944 533.178C437.653 531.306 438.508 529.556 438.508 527.929V520.727C438.508 519.913 438.02 519.506 437.043 519.506C437.043 527.318 436.229 531.225 434.602 531.225H433.137C433.137 530.248 432.933 529.394 432.526 528.661C433.34 526.301 434.032 523.046 434.602 518.896C433.625 516.861 432.73 515.762 431.916 515.6C431.916 516.332 431.468 517.431 430.573 518.896L429.23 518.163H428.62V519.506L431.916 524.022V524.633C431.916 525.528 431.468 525.976 430.573 525.976H429.963C427.766 522.151 426.667 519.547 426.667 518.163L427.399 511.693L426.057 512.304C424.755 508.642 424.104 504.735 424.104 500.585L424.714 497.289L423.371 497.899L422.15 495.946V491.43C423.452 489.721 424.104 488.174 424.104 486.791V479.711L423.371 476.415H422.15V479.711L421.418 487.523H420.197C420.197 485.326 419.75 484.228 418.854 484.228V474.34C418.854 473.933 419.058 473.729 419.465 473.729L418.854 472.509C419.261 471.532 419.465 470.84 419.465 470.434L416.169 466.527C416.169 466.283 416.413 463.435 416.901 457.982C416.413 457.169 416.169 456.558 416.169 456.151H414.948C414.948 458.186 414.257 464.452 412.873 474.95C412.873 477.392 413.361 481.786 414.338 488.134C413.687 490.738 412.995 492.04 412.263 492.04H411.652V490.087H411.042C410.147 490.168 409.699 490.616 409.699 491.43V497.289H410.432V495.946H411.042C411.856 496.109 412.263 496.557 412.263 497.289C412.263 498.103 411.652 498.51 410.432 498.51V503.759H411.652V505.102H409.699V509.008C409.699 509.333 409.048 509.984 407.746 510.961C407.746 520.971 407.054 525.976 405.671 525.976H404.45V525.365C404.45 521.703 404.654 517.756 405.061 513.524V512.304H404.45C404.45 514.908 404.043 516.21 403.229 516.21H402.497C402.497 514.664 402.741 512.67 403.229 510.229C403.229 509.659 402.985 506.648 402.497 501.195C402.823 495.661 403.474 492.406 404.45 491.43V487.523C403.474 487.523 402.375 489.883 401.154 494.604H399.934V493.993C400.34 487.646 400.544 484.187 400.544 483.617C399.486 484.431 398.591 484.838 397.858 484.838V486.791C397.858 489.639 397.451 492.691 396.638 495.946H395.295V492.04C394.156 492.854 393.505 493.261 393.342 493.261C392.935 492.691 392.731 491.389 392.731 489.354L391.389 490.087H390.046V488.134C392.243 481.461 393.342 475.764 393.342 471.044C392.935 471.044 392.731 471.288 392.731 471.776L391.389 471.044H390.778V474.95C390.778 475.927 389.883 476.415 388.093 476.415V478.246H389.436V479.711H388.093V480.932C388.093 488.174 386.791 494.481 384.187 499.853H382.966C382.966 498.225 384.024 492.325 386.14 482.152V481.542H385.529C383.82 483.658 382.966 485.652 382.966 487.523L381.623 486.791H380.891V487.523H382.233V488.134C381.013 489.599 380.158 492.65 379.67 497.289C378.286 497.289 377.595 499.446 377.595 503.759V505.102H375.764C376.089 497.696 376.496 493.993 376.984 493.993C377.391 493.993 377.839 493.342 378.327 492.04C377.839 489.11 377.595 486.71 377.595 484.838V482.152L376.374 482.763C376.374 482.356 376.171 482.152 375.764 482.152C375.764 484.024 374.868 486.221 373.078 488.744C373.485 489.477 373.688 490.575 373.688 492.04H375.153C375.153 490.982 375.357 490.087 375.764 489.354H373.688V488.134H374.299C375.275 488.541 375.967 488.744 376.374 488.744V490.087C376.374 491.959 375.479 493.261 373.688 493.993L373.078 497.289L373.688 500.585C373.119 502.294 372.508 503.148 371.857 503.148C370.881 503.148 370.393 502.701 370.393 501.806V495.946H372.468V495.336C371.654 495.336 370.759 494.441 369.782 492.65C369.782 492.243 369.986 491.592 370.393 490.697L369.782 486.791V484.228C370.352 484.228 371.247 483.129 372.468 480.932C373.282 480.932 373.688 478.734 373.688 474.34V473.729H373.078C371.857 476.008 371.247 478.002 371.247 479.711H369.782V478.856C369.782 476.415 369.986 474.91 370.393 474.34C369.986 471.98 369.782 470.027 369.782 468.48C369.782 465.469 369.986 459.813 370.393 451.513L369.782 447.484C370.189 446.671 370.393 446.06 370.393 445.653L369.782 444.433C370.189 441.991 370.393 439.997 370.393 438.451V435.766C370.393 434.545 370.189 433.935 369.782 433.935L370.393 430.639V422.704C370.393 421.89 369.986 421.483 369.172 421.483C369.579 416.356 369.782 412.654 369.782 410.375V407.079C369.782 405.289 369.579 403.539 369.172 401.83C369.579 400.121 369.782 398.616 369.782 397.313L369.172 389.501C369.172 384.293 370.677 380.997 373.688 379.613C373.933 377.823 374.624 376.928 375.764 376.928C375.845 377.904 376.252 378.393 376.984 378.393L380.28 377.782C380.687 378.352 380.891 379.654 380.891 381.688H382.966C384.431 380.305 385.936 379.613 387.482 379.613C389.68 380.753 390.778 381.648 390.778 382.299H392.121L394.685 379.003C395.091 379.735 395.295 380.631 395.295 381.688C401.805 379.491 406.607 378.393 409.699 378.393C416.698 378.718 420.197 379.817 420.197 381.688H420.808C420.808 380.305 421.662 379.206 423.371 378.393C424.266 378.393 424.714 379.003 424.714 380.224H425.324C425.568 380.224 426.667 379.125 428.62 376.928C431.224 380.183 433.625 384.374 435.822 389.501C436.636 389.501 437.328 392.105 437.897 397.313C439.525 397.313 440.339 400.976 440.339 408.3L439.729 409.765C440.38 413.59 441.275 415.502 442.414 415.502L441.804 418.798V420.141C443.35 420.141 444.408 422.541 444.978 427.343C444.489 429.703 444.245 431.656 444.245 433.202V435.766C444.245 437.719 445.344 439.713 447.541 441.747V443.578C447.541 445.938 447.785 449.682 448.273 454.809C450.389 454.809 451.447 457.209 451.447 462.011L450.837 465.185H453.522C454.825 460.953 457.185 450.292 460.603 433.202C466.299 403.905 470.49 386.042 473.176 379.613L479.523 376.928C479.849 378.718 481.639 379.613 484.895 379.613C485.383 377.416 485.993 376.317 486.726 376.317C487.214 377.05 487.458 378.148 487.458 379.613H488.068C489.126 379.613 490.021 379.41 490.754 379.003C491.568 379.41 492.219 379.613 492.707 379.613C494.009 378.148 494.66 376.846 494.66 375.707H496.613C497.264 375.707 498.119 376.602 499.177 378.393L500.52 377.782C502.229 377.782 503.978 377.986 505.769 378.393C507.396 377.986 509.105 377.782 510.896 377.782L514.191 378.393C514.191 377.009 514.639 376.317 515.534 376.317H517.487C518.789 376.317 519.44 377.619 519.44 380.224H524.079C524.079 379.003 524.486 378.393 525.3 378.393C528.555 379.206 530.508 379.613 531.159 379.613V379.003C532.543 379.41 533.234 379.817 533.234 380.224L534.455 379.613C534.862 379.613 535.757 380.508 537.141 382.299C536.734 388.158 536.53 392.512 536.53 395.36V396.581C536.53 402.847 536.734 407.445 537.141 410.375C536.734 414.118 536.53 418.92 536.53 424.779V427.343C536.53 434.341 536.734 439.346 537.141 442.357C536.734 446.752 536.53 452.204 536.53 458.715V472.509C536.53 476.578 536.734 481.583 537.141 487.523C536.245 493.057 535.554 501.114 535.065 511.693H536.53C536.042 518.122 535.798 522.883 535.798 525.976V530.614L533.845 533.178H534.455C533.641 536.189 531.932 538.386 529.328 539.77C529.328 541.479 529.084 542.333 528.596 542.333L529.328 544.896C528.84 550.349 528.596 553.645 528.596 554.784C529.084 555.598 529.328 556.249 529.328 556.737C527.701 557.226 526.805 557.47 526.643 557.47C526.236 556.493 526.032 555.801 526.032 555.395H524.689C522.98 557.999 521.882 559.301 521.394 559.301H520.783L521.394 556.005V550.878C521.394 549.901 520.987 549.413 520.173 549.413L521.394 540.99C520.987 538.142 520.783 535.334 520.783 532.567V525.976H519.44V544.286C519.44 545.344 519.237 546.239 518.83 546.972C519.237 547.704 519.44 548.518 519.44 549.413V550.878C519.44 551.529 518.586 552.424 516.877 553.563H516.267C516.267 551.692 515.371 549.901 513.581 548.192V547.582L514.802 548.192C515.778 548.192 516.267 547.785 516.267 546.972C516.267 545.995 516.022 545.507 515.534 545.507C516.022 543.228 516.267 541.519 516.267 540.38L515.534 533.788C516.022 532.242 516.267 530.533 516.267 528.661H514.191V534.521C513.785 542.414 512.482 546.361 510.285 546.361C509.471 546.361 509.064 547.175 509.064 548.803H506.379L506.989 545.507V540.99C508.535 537.979 509.838 536.474 510.896 536.474L509.675 534.521V531.835L512.36 529.271C511.872 528.376 511.628 527.725 511.628 527.318L510.285 527.929H508.454V527.318C508.454 525.121 508.861 520.727 509.675 514.135H506.989V519.506C506.989 520.889 506.786 521.988 506.379 522.802L506.989 526.708V533.178C506.989 536.677 506.135 538.427 504.426 538.427V539.037C504.426 541.885 504.182 544.734 503.693 547.582L504.426 550.268C503.938 553.035 503.693 555.842 503.693 558.69H503.083C502.269 558.69 501.862 558.284 501.862 557.47V554.174C501.862 552.79 502.066 552.099 502.473 552.099C502.066 550.634 501.862 549.739 501.862 549.413C502.269 541.926 502.473 537.165 502.473 535.131C503.286 535.131 503.693 534.683 503.693 533.788V527.929H501.862C501.862 530.37 501.171 532.12 499.787 533.178V534.521C499.787 542.577 499.095 547.379 497.712 548.925L496.613 548.681V543.676H495.271V544.896H494.05V543.676C492.992 544.49 492.3 544.896 491.975 544.896H490.021V544.286C491.324 542.089 491.975 540.339 491.975 539.037V536.474L490.754 534.521V527.929L487.458 528.661H483.552C482.901 528.661 482.25 528.01 481.599 526.708V525.365C481.599 524.633 484.406 521.988 490.021 517.431C490.754 517.431 491.405 511.124 491.975 498.51C491.324 498.51 490.673 497.859 490.021 496.557C490.673 496.557 491.324 495.906 491.975 494.604V492.04L491.364 488.744H491.975C491.161 486.547 489.859 485.448 488.068 485.448C486.034 489.029 484.284 496.882 482.819 509.008L480.988 510.229L481.599 511.693C480.785 519.506 479.035 523.412 476.35 523.412V522.069H475.617C475.617 524.348 475.414 526.301 475.007 527.929L477.692 531.225C477.285 535.863 472.484 536.84 463.288 534.154C456.208 538.467 447.093 538.142 435.944 533.178ZM497.712 548.925C497.386 549.25 497.02 549.413 496.613 549.413V548.681L497.712 548.925ZM617.707 365.087H619.05V367.772H617.707V365.087ZM588.41 485.326V488.012H589.143V485.326H588.41ZM646.882 519.14H648.225C648.225 520.604 648.021 521.744 647.614 522.558L648.225 526.464C647.818 529.149 647.167 530.492 646.271 530.492H644.929V527.807C644.929 522.029 645.58 519.14 646.882 519.14ZM575.959 541.234L576.447 540.502H575.837C575.511 540.665 575.227 540.787 574.982 540.868L573.884 540.38V536.474H573.151C573.151 538.671 572.948 539.77 572.541 539.77L571.198 539.281V531.835C571.198 531.347 571.402 531.103 571.809 531.103C571.402 530.207 571.198 529.556 571.198 529.149L571.809 525.854C570.1 525.854 569.001 522.965 568.513 517.187L566.56 515.844L565.827 522.558L566.56 528.539C566.234 534.236 565.542 537.084 564.484 537.084H563.874V535.131C563.874 532.771 564.077 530.777 564.484 529.149C564.077 526.708 563.874 524.918 563.874 523.778C564.118 519.384 564.566 517.187 565.217 517.187L564.484 515.844C565.38 514.216 565.827 512.466 565.827 510.595V499.242C565.827 498.347 565.38 497.899 564.484 497.899C564.484 498.795 564.281 499.242 563.874 499.242L564.484 500.585C564.077 508.967 563.874 514.745 563.874 517.919C563.223 517.919 561.677 519.669 559.235 523.168H557.893C556.997 521.378 556.55 519.831 556.55 518.529C557.038 514.542 557.282 512.1 557.282 511.205C559.479 511.205 561.026 509.211 561.921 505.224C561.433 502.131 561.188 499.69 561.188 497.899V494.604C561.188 493.708 560.741 493.261 559.846 493.261H559.235C557.364 505.224 556.021 511.205 555.207 511.205C553.905 513.891 553.05 515.233 552.644 515.233L551.911 513.891V509.862H553.254L552.644 506.566C551.748 506.566 551.057 508.764 550.568 513.158L548.615 514.501V513.158C548.615 509.74 549.714 503.799 551.911 495.336V491.918L553.864 489.354V488.622L552.644 489.354V486.669C551.748 486.669 551.301 486.221 551.301 485.326V467.992C551.301 466.365 551.504 464.371 551.911 462.011C551.504 461.522 551.301 459.976 551.301 457.372C551.708 452.733 551.911 450.089 551.911 449.438L550.568 448.827H549.958C549.063 448.909 548.615 449.315 548.615 450.048C549.022 450.862 549.226 451.757 549.226 452.733H547.272C547.679 444.758 548.33 440.771 549.226 440.771V438.817C548.33 435.644 547.883 433.853 547.883 433.446V432.836C547.883 428.116 548.127 424.372 548.615 421.605C548.127 418.35 547.883 414.363 547.883 409.643V405.614C547.883 404.638 548.127 403.743 548.615 402.929L547.272 391.698C547.272 382.828 549.266 378.393 553.254 378.393C554.149 378.393 554.597 379.695 554.597 382.299H557.282C557.282 379.695 557.73 378.393 558.625 378.393H561.188C561.677 378.393 561.921 378.596 561.921 379.003L563.264 378.393L564.484 379.003C564.484 376.806 564.932 375.707 565.827 375.707C566.397 378.799 567.292 380.346 568.513 380.346C568.513 379.288 570.059 377.742 573.151 375.707L573.884 377.05V380.346H575.837C576.244 376.846 576.895 375.097 577.79 375.097C578.685 376.155 579.133 377.009 579.133 377.66C581.249 377.66 584.341 376.806 588.41 375.097C588.898 375.748 589.143 376.846 589.143 378.393H589.753L592.438 374.364L595.124 378.393H596.467V374.364C596.548 373.469 596.996 373.021 597.81 373.021H599.763L601.105 373.754C601.187 372.859 601.634 372.411 602.448 372.411H603.791C604.605 372.493 605.012 372.94 605.012 373.754H602.448V374.364C602.448 375.015 603.099 375.707 604.401 376.439L606.354 375.097H607.087L611.726 378.393H612.336L615.021 374.364L617.707 376.439C617.707 375.056 618.358 374.364 619.66 374.364C621.857 374.364 622.956 374.812 622.956 375.707L624.299 375.097C625.194 375.097 625.642 375.951 625.642 377.66L627.595 376.439C627.595 376.846 627.839 377.05 628.327 377.05C628.327 375.748 628.775 375.097 629.67 375.097C630.077 375.097 630.28 375.3 630.28 375.707L631.623 375.097C633.82 375.097 634.919 376.399 634.919 379.003C638.256 376.806 641.145 375.707 643.586 375.707H644.929C645.824 375.707 646.719 377.05 647.614 379.735L648.957 379.003H649.567V380.346C649.567 380.834 649.364 381.078 648.957 381.078C649.608 381.078 650.259 390.6 650.91 409.643C650.91 415.339 649.12 419.734 645.539 422.826H643.586C642.691 422.826 642.243 421.524 642.243 418.92L640.9 419.53C640.493 419.53 640.29 419.327 640.29 418.92C639.313 418.92 637.971 420.019 636.262 422.216C635.367 422.216 634.715 420.425 634.309 416.845H633.576C633.169 419.53 632.518 420.873 631.623 420.873H630.28C629.873 420.873 629.67 420.67 629.67 420.263C629.1 420.263 628.002 421.361 626.374 423.559C625.479 423.559 625.031 422.216 625.031 419.53C623.648 419.53 622.956 420.629 622.956 422.826H621.613C620.799 422.826 620.393 421.728 620.393 419.53C618.602 419.53 617.707 420.425 617.707 422.216H616.975C616.079 422.216 615.632 421.565 615.632 420.263C614.574 421.158 613.923 421.605 613.679 421.605L610.993 420.263L608.43 421.605C608.43 420.71 607.982 420.263 607.087 420.263H606.354C605.297 421.158 604.646 421.605 604.401 421.605C603.506 421.605 603.059 420.71 603.059 418.92H601.105C597.525 418.92 595.734 425.756 595.734 439.428C597.525 442.113 599.071 443.456 600.373 443.456V442.846C604.361 444.473 606.354 445.572 606.354 446.142L609.65 445.409H610.383V446.752H612.336C613.231 446.752 613.679 445.897 613.679 444.188L623.688 445.409C623.688 443.7 624.991 442.846 627.595 442.846L628.327 444.188L629.67 443.456C632.274 444.677 633.576 445.572 633.576 446.142V449.438H634.919C634.919 445.938 636.709 444.188 640.29 444.188C640.941 446.223 642.243 448.176 644.196 450.048C645.091 450.048 645.539 449.397 645.539 448.095H646.271C646.271 449.071 647.37 451.065 649.567 454.076C648.672 476.7 647.329 488.012 645.539 488.012C645.132 488.012 644.929 488.215 644.929 488.622C642.813 488.052 640.575 486.954 638.215 485.326V480.688H637.604C637.604 484.187 637.157 485.937 636.262 485.937C635.367 485.937 634.919 485.489 634.919 484.594V478.612L634.309 475.316H633.576C633.576 485.082 632.722 489.965 631.013 489.965C630.524 489.314 630.28 487.971 630.28 485.937L628.938 486.669L627.595 485.937C627.595 487.727 627.188 488.622 626.374 488.622H625.642C624.746 488.622 624.299 487.523 624.299 485.326H622.956C622.956 487.523 622.508 488.622 621.613 488.622C620.962 488.622 620.311 487.279 619.66 484.594L618.317 483.983C618.317 484.228 617.015 486.425 614.411 490.575C613.516 490.575 613.068 489.924 613.068 488.622C613.475 484.634 613.679 482.193 613.679 481.298H610.993C610.668 485.285 610.017 487.279 609.04 487.279H607.697V486.669C607.697 482.681 608.592 477.351 610.383 470.678C610.383 470.352 610.139 469.05 609.65 466.771C610.139 465.958 610.383 465.062 610.383 464.086C609.732 462.296 609.081 461.4 608.43 461.4V464.086C608.43 477.025 606.192 484.757 601.716 487.279C601.309 486.547 601.105 485.448 601.105 483.983H600.373C600.373 487.971 599.722 489.965 598.42 489.965C598.42 489.558 598.216 489.354 597.81 489.354L598.42 485.937V485.326C597.525 485.733 596.874 485.937 596.467 485.937V489.354L595.734 493.993H599.03C599.925 494.075 600.373 494.522 600.373 495.336C599.641 495.743 598.786 495.946 597.81 495.946C597.81 496.353 599.803 497.248 603.791 498.632V499.975L608.43 499.242V497.899L605.744 495.336L607.087 494.604C612.784 500.056 615.632 505.834 615.632 511.938C615.876 512.67 618.562 515.315 623.688 519.872V527.807H625.031L625.642 521.215V519.14L625.031 515.844C626.74 513.646 627.839 512.548 628.327 512.548H629.67C630.24 512.548 631.338 513.891 632.966 516.576V517.187C632.966 518 631.867 518.651 629.67 519.14C629.67 518.326 629.222 517.919 628.327 517.919V518.529C629.629 522.436 630.28 524.633 630.28 525.121H631.013C631.013 522.924 631.42 521.825 632.233 521.825H632.966C634.105 524.022 635 525.121 635.651 525.121C636.709 526.911 637.564 527.807 638.215 527.807C636.913 535.701 634.512 541.031 631.013 543.798C629.873 542.903 629.182 542.455 628.938 542.455H628.327V545.385L619.66 550.756C619.416 549.942 618.317 549.372 616.364 549.047L615.632 550.39L614.411 549.779H613.679V551.122L615.876 553.197L614.899 553.686H613.679V554.418L608.43 557.714C608.837 556.168 609.04 555.272 609.04 555.028C608.633 554.133 608.43 553.482 608.43 553.075L607.087 553.686C606.192 553.686 605.744 552.383 605.744 549.779H604.401C603.506 549.861 603.059 550.308 603.059 551.122V552.587L586.457 545.629V543.065H585.847C585.847 543.472 585.44 544.083 584.626 544.896L581.208 543.432V543.065C581.208 542.17 580.76 541.723 579.865 541.723H579.133L579.377 542.699L575.959 541.234ZM768.342 418.798C767.447 417.414 766.999 416.316 766.999 415.502H766.389C764.517 417.699 763.418 418.798 763.093 418.798C762.686 417.903 762.482 417.252 762.482 416.845H761.75C757.437 422.623 755.28 428.93 755.28 435.766V437.719C755.28 441.706 756.135 444.555 757.844 446.264V446.874C756.704 450.048 755.646 452.042 754.67 452.855C755.077 454.158 755.484 454.809 755.891 454.809L755.28 457.372C755.28 458.349 755.484 459.203 755.891 459.936C755.077 466.69 754.67 475.642 754.67 486.791V492.65L755.28 496.557C754.873 497.208 754.67 498.306 754.67 499.853V501.806H753.327V504.491C753.409 505.305 753.856 505.712 754.67 505.712C754.182 506.607 753.938 507.258 753.938 507.665L754.67 510.961C753.775 511.042 753.327 511.49 753.327 512.304V519.506C753.327 520.157 755.484 521.459 759.797 523.412L761.14 522.68C761.872 523.168 762.727 523.412 763.703 523.412H764.436C765.087 523.412 765.941 521.662 766.999 518.163L765.046 516.82C764.639 517.634 764.436 518.529 764.436 519.506H762.482V518.773C762.482 517.471 763.133 516.82 764.436 516.82V514.867H763.093V516.21H761.75V515.6C762.645 511.286 763.093 508.886 763.093 508.397C762.198 508.397 761.75 507.746 761.75 506.444C764.436 502.375 765.778 499.73 765.778 498.51H763.703V499.853H762.482V497.289C764.11 497.289 766.063 494.644 768.342 489.354C767.447 489.354 766.592 487.849 765.778 484.838H765.046C765.046 486.221 764.842 487.32 764.436 488.134L765.778 490.697C764.883 492.65 763.988 493.749 763.093 493.993H762.482L763.093 490.087C762.686 486.262 762.482 482.966 762.482 480.199V478.979C763.866 476.374 764.72 475.072 765.046 475.072C763.744 470.678 763.093 468.033 763.093 467.138C763.988 465.998 764.436 464.493 764.436 462.621C763.54 462.133 762.889 461.889 762.482 461.889C761.831 464.086 761.18 465.185 760.529 465.185H759.797V462.621C760.448 460.831 761.994 459.936 764.436 459.936C765.331 460.098 765.778 460.546 765.778 461.278C766.755 461.278 769.359 460.627 773.591 459.325C774.079 459.732 775.178 459.936 776.887 459.936C777.294 459.203 777.497 458.349 777.497 457.372V452.123C777.497 446.996 777.701 438.939 778.107 427.953C777.456 427.953 776.602 425.552 775.544 420.751C772.94 419.205 771.638 417.048 771.638 414.281H770.905L768.342 418.798ZM760.529 450.17C760.529 450.821 762.93 453.669 767.731 458.715L766.389 459.325C763.785 458.267 760.936 455.867 757.844 452.123V450.78C758.82 450.78 759.715 450.577 760.529 450.17ZM772.248 463.964V464.574L775.544 463.964C775.544 466.975 776.195 468.48 777.497 468.48H778.107L776.887 461.889H774.201C773.55 461.889 772.899 462.58 772.248 463.964ZM766.999 462.621V465.917H768.342V463.964C768.342 463.069 767.894 462.621 766.999 462.621ZM769.685 465.185V465.917C769.766 466.731 770.173 467.138 770.905 467.138V465.185H769.685ZM772.248 471.044C774.445 474.462 775.747 476.659 776.154 477.636H776.887L778.107 477.025C778.107 476.537 777.904 476.293 777.497 476.293L778.107 473.119V469.823H776.154C774.934 469.823 773.632 470.23 772.248 471.044ZM768.952 471.776C769.847 475.683 770.946 477.636 772.248 477.636C773.143 477.636 773.591 477.188 773.591 476.293C771.394 474.258 770.295 472.305 770.295 470.434C769.4 470.515 768.952 470.963 768.952 471.776ZM758.576 479.589H759.187L759.797 482.885C759.797 485.082 759.593 488.337 759.187 492.65C759.593 492.65 759.797 492.854 759.797 493.261H759.187C758.129 493.261 757.478 492.406 757.233 490.697C758.129 484.838 758.576 481.135 758.576 479.589ZM751.374 482.152V488.134C752.188 488.134 752.595 487.686 752.595 486.791V482.152H751.374ZM773.591 486.791V488.134L774.934 492.65C776.236 492.243 776.887 490.941 776.887 488.744C776.887 488.093 776.236 487.442 774.934 486.791H773.591ZM770.295 501.195V501.806C770.702 502.701 770.905 503.352 770.905 503.759C769.847 504.654 768.789 505.102 767.731 505.102V505.712C767.813 506.607 768.22 507.055 768.952 507.055C770.743 506.404 772.045 505.305 772.858 503.759C772.045 503.759 771.638 502.904 771.638 501.195H770.295ZM770.905 514.257L769.685 513.524C768.382 514.013 767.731 514.46 767.731 514.867L768.342 518.163H768.952C772.94 515.559 774.934 514.013 774.934 513.524V512.914C774.934 512.019 774.486 511.571 773.591 511.571L770.905 514.257ZM769.685 522.069H770.295C771.027 521.662 771.882 521.459 772.858 521.459L774.934 522.68H776.154C775.747 521.866 775.544 521.215 775.544 520.727C775.544 520.32 775.747 518.611 776.154 515.6C774.201 515.6 772.045 517.756 769.685 522.069ZM755.28 516.21H756.623V518.773H755.28V516.21ZM767.731 543.31V541.723C767.731 541.153 765.982 539.607 762.482 537.084V541.967L759.797 541.234V540.38C758.983 539.322 758.576 538.671 758.576 538.427V537.084H760.529V535.863C760.529 534.968 760.082 534.521 759.187 534.521H758.576C758.088 538.427 757.437 540.38 756.623 540.38H755.28V530.614H753.327V533.178H752.595C751.781 533.178 751.374 532.73 751.374 531.835C750.072 531.835 749.421 532.486 749.421 533.788C748.526 533.788 748.078 533.381 748.078 532.567L748.688 531.225C747.631 528.214 746.776 526.708 746.125 526.708L745.515 527.929L746.125 535.863C745.799 541.479 744.904 544.286 743.439 544.286C741.486 539.973 739.981 537.816 738.923 537.816C739.493 535.131 740.144 533.788 740.876 533.788C742.178 536.962 742.829 539.159 742.829 540.38H743.439L744.172 534.521C743.602 534.521 742.504 533.218 740.876 530.614L741.486 527.929V527.318H740.876C740.876 529.027 740.225 529.882 738.923 529.882C738.923 532.323 738.475 535.619 737.58 539.77C738.475 539.851 738.923 540.258 738.923 540.99V541.723C737.377 542.13 736.522 542.333 736.359 542.333C732.86 539.729 731.11 537.776 731.11 536.474L731.721 532.567C730.826 532.567 730.378 532.12 730.378 531.225V524.755C730.378 523.86 729.971 523.412 729.157 523.412H728.425L729.157 527.929L728.425 531.225L729.157 534.521L727.814 545.629H726.472C726.472 543.676 726.716 538.874 727.204 531.225L726.472 525.365C726.472 524.958 727.367 519.953 729.157 510.351C730.866 510.351 731.721 507.299 731.721 501.195V497.899C733.023 497.899 733.674 497.452 733.674 496.557V493.261L732.331 493.993C731.517 493.993 731.11 493.546 731.11 492.65V476.293C731.11 474.258 731.314 472.102 731.721 469.823C731.314 468.033 731.11 466.283 731.11 464.574C731.517 460.668 731.721 458.267 731.721 457.372L730.378 456.762H729.768L728.425 457.372L729.157 458.715V461.889C729.157 462.377 728.913 462.621 728.425 462.621C728.425 463.028 728.669 463.231 729.157 463.231C729.157 463.72 728.913 464.371 728.425 465.185L729.157 469.823C729.157 471.776 728.506 473.729 727.204 475.683V481.542L726.472 486.181C728.262 486.343 729.157 486.994 729.157 488.134C729.157 489.192 728.913 490.901 728.425 493.261C728.913 497.737 729.157 500.382 729.157 501.195C729.157 504.369 727.611 510.676 724.519 520.116C724.193 523.616 723.542 525.365 722.565 525.365H721.223V522.68C721.223 514.867 721.914 510.961 723.298 510.961C723.298 511.368 723.501 511.571 723.908 511.571C723.908 506.363 725.007 503.759 727.204 503.759V502.416C727.204 500.463 726.757 498.754 725.861 497.289C726.757 493.79 727.204 491.145 727.204 489.354V486.791H726.472C726.472 489.477 725.821 491.43 724.519 492.65V495.336C724.519 495.743 724.763 495.946 725.251 495.946C724.356 500.178 723.257 504.084 721.955 507.665V508.397H720.612L723.908 483.495V480.199C723.908 478.165 723.705 476.008 723.298 473.729L724.519 462.621L722.565 461.278H721.955V476.293C721.955 482.315 721.304 486.018 720.002 487.401V489.354C720.002 498.632 719.107 504.084 717.316 505.712H716.096C716.91 497.981 717.316 491.674 717.316 486.791C716.258 487.686 715.404 488.134 714.753 488.134L715.363 489.354C714.549 491.552 713.247 492.65 711.457 492.65V493.261L712.067 496.557C710.765 496.801 710.114 498.55 710.114 501.806V506.444C710.114 507.258 709.707 507.665 708.894 507.665L708.161 506.444V499.242L710.114 486.181V484.838H709.504V486.791H708.161C708.161 484.919 707.958 482.519 707.551 479.589C707.958 472.183 708.161 464.981 708.161 457.982C708.161 457.576 708.405 457.372 708.894 457.372C708.405 456.477 708.161 455.826 708.161 455.419C708.649 453.873 708.894 453.018 708.894 452.855C708.405 451.96 708.161 451.269 708.161 450.78C708.161 450.373 708.405 450.17 708.894 450.17L708.161 445.653V424.657C708.161 417.821 710.806 409.317 716.096 399.145C722.606 392.227 725.861 388.524 725.861 388.036H727.204V390.111H729.157C729.157 388.891 730.215 387.792 732.331 386.815H733.063C733.959 386.815 734.406 387.466 734.406 388.769H735.017C735.017 387.466 736.97 384.171 740.876 378.881C741.283 380.264 741.73 380.956 742.219 380.956C744.172 379.735 747.875 378.637 753.327 377.66C753.327 376.358 753.775 375.707 754.67 375.707L757.233 378.271H758.576C758.576 376.968 758.983 376.317 759.797 376.317C760.692 376.317 761.14 377.172 761.14 378.881H761.75C764.598 377.172 766.145 375.666 766.389 374.364H768.952C769.847 374.364 770.295 375.219 770.295 376.928L774.934 376.317C774.934 377.619 775.992 378.271 778.107 378.271C778.107 377.294 778.352 376.439 778.84 375.707L786.652 378.881C787.385 378.474 788.239 378.271 789.216 378.271C789.216 379.817 791.617 380.915 796.418 381.566C798.615 384.171 801.219 385.473 804.23 385.473V389.379C805.207 389.379 806.102 389.623 806.916 390.111V388.036H807.526C810.131 389.745 811.88 392.39 812.775 395.971C816.682 397.761 818.635 401.016 818.635 405.736L819.978 405.126C821.687 406.835 822.989 409.887 823.884 414.281C823.477 415.99 823.273 417.496 823.273 418.798L824.494 418.188H825.227L825.837 424.047C825.837 427.383 825.633 430.435 825.227 433.202C825.633 437.759 825.837 442.764 825.837 448.217V454.076C825.837 454.564 825.633 454.809 825.227 454.809L825.837 456.029V457.372C825.837 457.779 825.633 457.982 825.227 457.982C825.227 458.471 825.43 458.715 825.837 458.715L825.227 466.527V474.34C825.227 475.316 825.43 476.212 825.837 477.025C825.43 477.758 825.227 478.612 825.227 479.589C825.227 481.623 825.43 483.821 825.837 486.181C825.43 493.912 824.779 498.266 823.884 499.242C824.779 499.242 825.227 499.893 825.227 501.195C825.227 502.497 824.982 504.003 824.494 505.712C824.982 507.991 825.227 510.188 825.227 512.304V513.524C825.227 514.013 824.982 514.257 824.494 514.257C824.494 514.664 824.738 514.867 825.227 514.867C824.25 525.365 822.948 530.614 821.32 530.614C820.995 535.416 820.344 537.816 819.367 537.816H818.635V531.225H816.071V528.661L816.682 527.318C815.786 527.318 815.135 524.714 814.729 519.506C815.705 519.506 816.6 516.658 817.414 510.961C818.228 510.961 818.879 509.008 819.367 505.102V503.148H818.635C818.635 505.753 817.984 507.055 816.682 507.055C816.682 507.462 816.926 507.665 817.414 507.665C816.519 510.595 814.769 512.792 812.165 514.257C812.165 515.966 811.921 516.82 811.433 516.82C811.433 517.064 811.677 517.96 812.165 519.506C811.677 524.958 811.433 528.01 811.433 528.661L812.165 531.835C810.375 531.998 809.479 533.747 809.479 537.084C810.375 537.084 810.822 538.386 810.822 540.99H808.869V544.286C807.16 546.158 806.306 547.46 806.306 548.192L806.916 551.488C806.916 554.581 805.614 557.632 803.01 560.644C799.104 559.748 797.15 558.65 797.15 557.348V552.831C797.15 548.925 795.808 546.28 793.122 544.896C794.099 541.885 794.994 540.38 795.808 540.38C795.808 540.787 796.011 540.99 796.418 540.99C796.906 540.176 797.15 539.525 797.15 539.037V534.521H796.418V538.427H795.075C795.075 536.718 794.424 535.863 793.122 535.863H792.512L791.169 542.943C791.169 544.164 792.268 545.914 794.465 548.192L793.122 548.925L791.901 548.192C791.901 548.762 791.698 549.169 791.291 549.413L790.314 549.169C790.07 548.437 789.948 547.012 789.948 544.896H789.216C789.216 546.28 788.565 546.972 787.263 546.972V548.314L767.731 543.31ZM866.486 367.528H867.829V370.092H866.486V367.528ZM868.317 552.099C868.643 550.878 868.887 549.372 869.05 547.582L867.829 546.85C865.469 547.663 863.841 548.681 862.946 549.901L860.017 548.803V544.286L859.406 541.112C861.115 541.519 861.97 542.374 861.97 543.676H862.58C862.58 542.292 863.231 540.543 864.533 538.427V537.816C863.475 538.712 862.824 539.159 862.58 539.159V538.427L860.017 539.77C860.017 539.2 859.366 538.549 858.063 537.816C858.063 538.549 857.209 539.403 855.5 540.38C853.791 538.427 852.937 536.921 852.937 535.863C853.343 535.131 853.547 534.48 853.547 533.91C852.57 533.91 851.919 531.55 851.594 526.83C854.523 526.83 856.68 523.819 858.063 517.797C855.052 516.82 853.547 515.925 853.547 515.111C855.256 513.077 856.558 509.211 857.453 503.515H858.063C858.959 503.515 859.406 504.369 859.406 506.078H860.017C860.912 506.078 861.359 505.671 861.359 504.857C861.359 502.009 861.563 497.655 861.97 491.796C860.261 492.447 859.406 493.546 859.406 495.092H858.063V492.528C858.063 492.04 858.267 491.796 858.674 491.796C858.674 491.389 858.47 491.186 858.063 491.186L859.406 479.589V478.856H858.674C858.674 481.054 858.023 482.152 856.721 482.152C856.721 489.07 855.866 492.528 854.157 492.528C853.669 488.703 852.814 486.099 851.594 484.716C852.001 481.786 852.204 479.426 852.204 477.636V476.293C851.39 476.293 850.983 476.09 850.983 475.683V472.387H849.03V473.119H847.688L848.42 468.603L847.688 462.011C848.583 462.011 849.03 461.604 849.03 460.79V458.837C847.972 459.732 847.321 460.18 847.077 460.18L844.514 453.71H843.781V451.757C843.781 449.478 843.374 444.27 842.561 436.132H841.828C841.828 437.434 841.421 438.085 840.607 438.085L839.997 436.864V427.709C837.8 427.709 836.701 426 836.701 422.582C837.108 420.303 837.312 418.35 837.312 416.723C836.009 414.363 835.358 411.555 835.358 408.3L834.138 408.91H833.527V403.783C831.737 398.738 830.842 394.872 830.842 392.187C830.435 392.187 830.231 391.535 830.231 390.233V383.031C830.476 382.217 830.923 381.811 831.574 381.811H832.795V383.031H834.138L836.701 379.125C837.108 379.776 837.312 381.078 837.312 383.031H839.265C839.753 379.206 840.404 377.294 841.218 377.294H845.124V379.857L851.594 379.125H855.5L858.674 375.951C859.569 378.23 860.871 379.939 862.58 381.078H863.312C863.719 378.555 864.33 377.294 865.144 377.294C866.039 377.294 866.486 378.148 866.486 379.857H869.05C869.05 377.66 869.497 376.562 870.393 376.562C873.811 380.142 876.171 384.252 877.473 388.891C878.368 391.169 879.019 394.18 879.426 397.924C879.833 397.924 880.036 398.168 880.036 398.656V399.877C880.036 400.365 879.833 400.609 879.426 400.609C880.321 401.83 880.972 404.394 881.379 408.3L880.769 414.77C882.396 417.292 884.349 421.321 886.628 426.854H887.238L886.628 430.15C886.628 430.883 887.035 432.592 887.849 435.277L886.628 436.01C887.035 437.312 887.442 437.963 887.849 437.963C887.849 438.451 887.645 439.062 887.238 439.794C889.354 453.791 890.412 461.36 890.412 462.499L892.365 465.062C892.365 466.365 892.162 467.016 891.755 467.016C892.65 471.817 893.098 475.276 893.098 477.392H893.708C894.522 477.392 894.929 476.985 894.929 476.171V474.218C894.929 473.241 894.725 472.346 894.318 471.532C895.376 471.532 896.475 465.307 897.614 452.855C896.719 450.007 896.271 448.054 896.271 446.996C896.271 445.368 897.777 442.968 900.788 439.794C899.974 438.736 899.567 438.126 899.567 437.963C900.869 437.475 901.521 436.173 901.521 434.057V430.15C900.625 430.15 898.428 429.499 894.929 428.197V426.854C898.347 427.424 900.747 428.319 902.131 429.54C906.444 411.962 909.252 397.354 910.554 385.717C912.995 381.241 914.704 378.637 915.681 377.904H920.197C921.092 377.904 921.54 378.759 921.54 380.468H922.883C923.697 380.468 924.104 380.02 924.104 379.125L925.446 379.857L928.01 376.562C928.417 377.213 928.62 378.515 928.62 380.468H935.09C935.904 380.468 936.555 379.166 937.043 376.562L940.339 377.294H940.949L944.855 376.562L947.419 377.904C948.314 377.497 948.965 377.294 949.372 377.294C950.593 377.294 952.546 378.148 955.231 379.857V378.515H957.185C958.243 378.515 958.894 380.02 959.138 383.031C959.138 388.321 950.715 427.628 933.869 500.951C929.719 522.517 926.911 533.3 925.446 533.3C925.446 534.195 924.999 534.643 924.104 534.643L924.714 535.863V540.38C921.947 552.099 920.238 557.958 919.587 557.958C919.587 556.656 918.732 556.005 917.023 556.005C916.617 558.365 916.413 560.277 916.413 561.742H915.07C914.175 561.742 913.728 561.335 913.728 560.521V554.662L914.46 553.319L911.774 552.709C910.635 555.72 909.781 557.226 909.211 557.226L909.821 560.521C909.659 567.439 909.048 570.897 907.99 570.897C907.502 570.084 907.258 569.433 907.258 568.944C907.258 568.619 907.502 566.869 907.99 563.695H907.258C906.607 563.695 905.752 564.997 904.694 567.602C905.59 568.985 906.037 570.084 906.037 570.897C905.223 571.304 904.572 571.508 904.084 571.508L904.694 572.851L898.225 575.536C898.143 575.455 897.94 575.414 897.614 575.414H896.882L892.365 577.978H889.802V576.635C892.65 576.635 895.01 575.129 896.882 572.118V570.165C896.882 568.049 896.231 566.991 894.929 566.991V566.381C894.929 566.055 895.376 564.306 896.271 561.132L889.802 566.991L889.191 565.648V565.038C890.9 563.329 891.755 561.579 891.755 559.789V557.226H891.145V558.568H889.802V557.958C890.209 557.144 890.412 556.493 890.412 556.005L889.191 555.272C887.889 557.388 886.913 558.65 886.262 559.057L884.797 558.568L883.942 557.958C884.593 556.168 885.244 555.272 885.896 555.272L885.285 554.052V550.756C884.878 550.756 884.227 550.552 883.332 550.146V550.756C883.739 551.651 883.942 552.302 883.942 552.709L881.379 554.662H880.769L879.426 554.052L880.036 550.756V549.535C877.513 551 876.252 551.854 876.252 552.099C876.252 553.157 876.171 554.174 876.008 555.15L872.59 553.808L869.782 552.709L868.317 552.099ZM849.641 405.736V408.91H852.204L851.594 405.736H849.641ZM898.225 445.653V448.949C899.12 448.949 899.567 448.502 899.567 447.606V444.433C898.672 444.595 898.225 445.002 898.225 445.653ZM931.306 489.965V495.092L930.573 498.388H932.526L933.869 490.575L931.306 489.965ZM926.057 517.797V520.971H926.667V517.797H926.057ZM918.977 522.924L918.244 526.22V528.173H918.977L919.587 524.877V522.924H918.977ZM923.493 523.534C921.784 527.359 920.93 531.469 920.93 535.863V536.596H921.54C921.54 535.294 922.191 534.643 923.493 534.643C923.493 532.12 923.697 528.661 924.104 524.267V523.534H923.493ZM1035.68 365.087H1037.02V367.772H1035.68V365.087ZM1006.38 485.326V488.012H1007.11V485.326H1006.38ZM1064.85 519.14H1066.19C1066.19 520.604 1065.99 521.744 1065.58 522.558L1066.19 526.464C1065.79 529.149 1065.14 530.492 1064.24 530.492H1062.9V527.807C1062.9 522.029 1063.55 519.14 1064.85 519.14ZM993.928 541.234L994.416 540.502H993.806C993.48 540.665 993.195 540.787 992.951 540.868L991.853 540.38V536.474H991.12C991.12 538.671 990.917 539.77 990.51 539.77L989.167 539.281V531.835C989.167 531.347 989.37 531.103 989.777 531.103C989.37 530.207 989.167 529.556 989.167 529.149L989.777 525.854C988.068 525.854 986.97 522.965 986.481 517.187L984.528 515.844L983.796 522.558L984.528 528.539C984.203 534.236 983.511 537.084 982.453 537.084H981.843V535.131C981.843 532.771 982.046 530.777 982.453 529.149C982.046 526.708 981.843 524.918 981.843 523.778C982.087 519.384 982.535 517.187 983.186 517.187L982.453 515.844C983.348 514.216 983.796 512.466 983.796 510.595V499.242C983.796 498.347 983.348 497.899 982.453 497.899C982.453 498.795 982.25 499.242 981.843 499.242L982.453 500.585C982.046 508.967 981.843 514.745 981.843 517.919C981.192 517.919 979.646 519.669 977.204 523.168H975.861C974.966 521.378 974.519 519.831 974.519 518.529C975.007 514.542 975.251 512.1 975.251 511.205C977.448 511.205 978.994 509.211 979.89 505.224C979.401 502.131 979.157 499.69 979.157 497.899V494.604C979.157 493.708 978.71 493.261 977.814 493.261H977.204C975.332 505.224 973.99 511.205 973.176 511.205C971.874 513.891 971.019 515.233 970.612 515.233L969.88 513.891V509.862H971.223L970.612 506.566C969.717 506.566 969.025 508.764 968.537 513.158L966.584 514.501V513.158C966.584 509.74 967.683 503.799 969.88 495.336V491.918L971.833 489.354V488.622L970.612 489.354V486.669C969.717 486.669 969.27 486.221 969.27 485.326V467.992C969.27 466.365 969.473 464.371 969.88 462.011C969.473 461.522 969.27 459.976 969.27 457.372C969.676 452.733 969.88 450.089 969.88 449.438L968.537 448.827H967.927C967.032 448.909 966.584 449.315 966.584 450.048C966.991 450.862 967.194 451.757 967.194 452.733H965.241C965.648 444.758 966.299 440.771 967.194 440.771V438.817C966.299 435.644 965.852 433.853 965.852 433.446V432.836C965.852 428.116 966.096 424.372 966.584 421.605C966.096 418.35 965.852 414.363 965.852 409.643V405.614C965.852 404.638 966.096 403.743 966.584 402.929L965.241 391.698C965.241 382.828 967.235 378.393 971.223 378.393C972.118 378.393 972.565 379.695 972.565 382.299H975.251C975.251 379.695 975.699 378.393 976.594 378.393H979.157C979.646 378.393 979.89 378.596 979.89 379.003L981.232 378.393L982.453 379.003C982.453 376.806 982.901 375.707 983.796 375.707C984.366 378.799 985.261 380.346 986.481 380.346C986.481 379.288 988.028 377.742 991.12 375.707L991.853 377.05V380.346H993.806C994.213 376.846 994.864 375.097 995.759 375.097C996.654 376.155 997.102 377.009 997.102 377.66C999.217 377.66 1002.31 376.806 1006.38 375.097C1006.87 375.748 1007.11 376.846 1007.11 378.393H1007.72L1010.41 374.364L1013.09 378.393H1014.44V374.364C1014.52 373.469 1014.96 373.021 1015.78 373.021H1017.73L1019.07 373.754C1019.16 372.859 1019.6 372.411 1020.42 372.411H1021.76C1022.57 372.493 1022.98 372.94 1022.98 373.754H1020.42V374.364C1020.42 375.015 1021.07 375.707 1022.37 376.439L1024.32 375.097H1025.06L1029.69 378.393H1030.3L1032.99 374.364L1035.68 376.439C1035.68 375.056 1036.33 374.364 1037.63 374.364C1039.83 374.364 1040.92 374.812 1040.92 375.707L1042.27 375.097C1043.16 375.097 1043.61 375.951 1043.61 377.66L1045.56 376.439C1045.56 376.846 1045.81 377.05 1046.3 377.05C1046.3 375.748 1046.74 375.097 1047.64 375.097C1048.05 375.097 1048.25 375.3 1048.25 375.707L1049.59 375.097C1051.79 375.097 1052.89 376.399 1052.89 379.003C1056.22 376.806 1059.11 375.707 1061.55 375.707H1062.9C1063.79 375.707 1064.69 377.05 1065.58 379.735L1066.93 379.003H1067.54V380.346C1067.54 380.834 1067.33 381.078 1066.93 381.078C1067.58 381.078 1068.23 390.6 1068.88 409.643C1068.88 415.339 1067.09 419.734 1063.51 422.826H1061.55C1060.66 422.826 1060.21 421.524 1060.21 418.92L1058.87 419.53C1058.46 419.53 1058.26 419.327 1058.26 418.92C1057.28 418.92 1055.94 420.019 1054.23 422.216C1053.34 422.216 1052.68 420.425 1052.28 416.845H1051.54C1051.14 419.53 1050.49 420.873 1049.59 420.873H1048.25C1047.84 420.873 1047.64 420.67 1047.64 420.263C1047.07 420.263 1045.97 421.361 1044.34 423.559C1043.45 423.559 1043 422.216 1043 419.53C1041.62 419.53 1040.92 420.629 1040.92 422.826H1039.58C1038.77 422.826 1038.36 421.728 1038.36 419.53C1036.57 419.53 1035.68 420.425 1035.68 422.216H1034.94C1034.05 422.216 1033.6 421.565 1033.6 420.263C1032.54 421.158 1031.89 421.605 1031.65 421.605L1028.96 420.263L1026.4 421.605C1026.4 420.71 1025.95 420.263 1025.06 420.263H1024.32C1023.27 421.158 1022.61 421.605 1022.37 421.605C1021.47 421.605 1021.03 420.71 1021.03 418.92H1019.07C1015.49 418.92 1013.7 425.756 1013.7 439.428C1015.49 442.113 1017.04 443.456 1018.34 443.456V442.846C1022.33 444.473 1024.32 445.572 1024.32 446.142L1027.62 445.409H1028.35V446.752H1030.3C1031.2 446.752 1031.65 445.897 1031.65 444.188L1041.66 445.409C1041.66 443.7 1042.96 442.846 1045.56 442.846L1046.3 444.188L1047.64 443.456C1050.24 444.677 1051.54 445.572 1051.54 446.142V449.438H1052.89C1052.89 445.938 1054.68 444.188 1058.26 444.188C1058.91 446.223 1060.21 448.176 1062.17 450.048C1063.06 450.048 1063.51 449.397 1063.51 448.095H1064.24C1064.24 449.071 1065.34 451.065 1067.54 454.076C1066.64 476.7 1065.3 488.012 1063.51 488.012C1063.1 488.012 1062.9 488.215 1062.9 488.622C1060.78 488.052 1058.54 486.954 1056.18 485.326V480.688H1055.57C1055.57 484.187 1055.13 485.937 1054.23 485.937C1053.34 485.937 1052.89 485.489 1052.89 484.594V478.612L1052.28 475.316H1051.54C1051.54 485.082 1050.69 489.965 1048.98 489.965C1048.49 489.314 1048.25 487.971 1048.25 485.937L1046.91 486.669L1045.56 485.937C1045.56 487.727 1045.16 488.622 1044.34 488.622H1043.61C1042.72 488.622 1042.27 487.523 1042.27 485.326H1040.92C1040.92 487.523 1040.48 488.622 1039.58 488.622C1038.93 488.622 1038.28 487.279 1037.63 484.594L1036.29 483.983C1036.29 484.228 1034.98 486.425 1032.38 490.575C1031.48 490.575 1031.04 489.924 1031.04 488.622C1031.44 484.634 1031.65 482.193 1031.65 481.298H1028.96C1028.64 485.285 1027.99 487.279 1027.01 487.279H1025.67V486.669C1025.67 482.681 1026.56 477.351 1028.35 470.678C1028.35 470.352 1028.11 469.05 1027.62 466.771C1028.11 465.958 1028.35 465.062 1028.35 464.086C1027.7 462.296 1027.05 461.4 1026.4 461.4V464.086C1026.4 477.025 1024.16 484.757 1019.68 487.279C1019.28 486.547 1019.07 485.448 1019.07 483.983H1018.34C1018.34 487.971 1017.69 489.965 1016.39 489.965C1016.39 489.558 1016.19 489.354 1015.78 489.354L1016.39 485.937V485.326C1015.49 485.733 1014.84 485.937 1014.44 485.937V489.354L1013.7 493.993H1017C1017.89 494.075 1018.34 494.522 1018.34 495.336C1017.61 495.743 1016.75 495.946 1015.78 495.946C1015.78 496.353 1017.77 497.248 1021.76 498.632V499.975L1026.4 499.242V497.899L1023.71 495.336L1025.06 494.604C1030.75 500.056 1033.6 505.834 1033.6 511.938C1033.84 512.67 1036.53 515.315 1041.66 519.872V527.807H1043L1043.61 521.215V519.14L1043 515.844C1044.71 513.646 1045.81 512.548 1046.3 512.548H1047.64C1048.21 512.548 1049.31 513.891 1050.93 516.576V517.187C1050.93 518 1049.84 518.651 1047.64 519.14C1047.64 518.326 1047.19 517.919 1046.3 517.919V518.529C1047.6 522.436 1048.25 524.633 1048.25 525.121H1048.98C1048.98 522.924 1049.39 521.825 1050.2 521.825H1050.93C1052.07 524.022 1052.97 525.121 1053.62 525.121C1054.68 526.911 1055.53 527.807 1056.18 527.807C1054.88 535.701 1052.48 541.031 1048.98 543.798C1047.84 542.903 1047.15 542.455 1046.91 542.455H1046.3V545.385L1037.63 550.756C1037.38 549.942 1036.29 549.372 1034.33 549.047L1033.6 550.39L1032.38 549.779H1031.65V551.122L1033.84 553.197L1032.87 553.686H1031.65V554.418L1026.4 557.714C1026.81 556.168 1027.01 555.272 1027.01 555.028C1026.6 554.133 1026.4 553.482 1026.4 553.075L1025.06 553.686C1024.16 553.686 1023.71 552.383 1023.71 549.779H1022.37C1021.47 549.861 1021.03 550.308 1021.03 551.122V552.587L1004.43 545.629V543.065H1003.82C1003.82 543.472 1003.41 544.083 1002.59 544.896L999.177 543.432V543.065C999.177 542.17 998.729 541.723 997.834 541.723H997.102L997.346 542.699L993.928 541.234ZM1144.2 557.47C1142.73 554.459 1141.63 552.872 1140.9 552.709C1139.84 553.36 1138.17 554.011 1135.9 554.662V554.052C1138.01 551.773 1139.07 550.308 1139.07 549.657C1139.88 549.657 1140.29 548.843 1140.29 547.216C1139.31 547.216 1138.46 545.344 1137.73 541.601C1138.78 540.787 1139.64 540.38 1140.29 540.38V539.037H1137.73V537.206H1138.34L1139.68 537.816L1140.29 536.596V529.149L1140.9 527.929L1139.68 527.318H1136.51L1137.73 524.755C1135.29 524.755 1134.06 524.348 1134.06 523.534C1136.1 523.046 1137.12 522.436 1137.12 521.703C1135.9 521.703 1135.29 521.256 1135.29 520.36V519.75C1135.37 518.936 1135.77 518.529 1136.51 518.529L1135.9 515.478L1137.12 513.524V512.914L1135.29 510.473V509.862L1135.9 508.642C1135.08 508.642 1134.67 508.194 1134.67 507.299V506.688L1135.9 504.857V504.247C1135.16 504.247 1134.15 503.637 1132.84 502.416C1127.31 506.16 1124.18 509.049 1123.44 511.083V512.304C1124.26 512.304 1125.52 512.955 1127.23 514.257V512.304H1126.01V510.473C1126.09 509.659 1126.5 509.252 1127.23 509.252C1128.04 511.693 1128.86 512.914 1129.67 512.914V511.083H1130.89C1131.7 511.164 1132.11 511.571 1132.11 512.304V512.914C1129.83 515.193 1128.41 518.529 1127.84 522.924L1129.67 524.145L1130.89 523.534C1131.62 523.941 1132.48 524.145 1133.45 524.145V524.755C1131.75 525.731 1130.89 526.993 1130.89 528.539L1126.62 531.591C1126.05 534.683 1123.97 537.816 1120.39 540.99V542.211H1121C1121.82 541.804 1122.43 541.601 1122.83 541.601L1123.44 542.821C1122.79 542.821 1121.78 544.896 1120.39 549.047L1116.61 548.925C1115.55 548.599 1114.94 546.972 1114.78 544.042C1114.37 544.042 1114.17 543.839 1114.17 543.432V542.821C1115.14 539.566 1116.36 536.881 1117.83 534.765V526.586C1115.39 524.958 1114.17 520.849 1114.17 514.257H1113.56L1112.82 518.529L1113.56 524.145C1113.23 529.923 1112.58 532.812 1111.6 532.812H1110.99V530.98L1111.6 523.534L1110.38 522.924C1112.01 514.786 1112.82 509.822 1112.82 508.031V504.857L1113.56 503.637L1112.21 503.026C1111.4 503.108 1110.99 503.515 1110.99 504.247V513.524C1109.28 514.989 1108.27 516.861 1107.94 519.14C1106.48 519.547 1105.62 519.75 1105.38 519.75C1104.16 517.715 1103.55 516.291 1103.55 515.478C1104.36 510.757 1106.03 507.624 1108.55 506.078L1109.16 502.416C1108.35 502.416 1107.94 501.968 1107.94 501.073C1108.35 498.225 1108.55 495.946 1108.55 494.237V493.627C1107.9 493.627 1107.29 494.278 1106.72 495.58V498.021C1106.72 501.521 1105.05 506.078 1101.72 511.693V512.304H1099.76V506.078H1099.15C1099.15 507.787 1098.34 510.513 1096.71 514.257V516.698C1096.71 519.872 1096.91 522.761 1097.32 525.365L1096.1 534.154H1094.88C1094.88 532.689 1095.08 528.336 1095.49 521.093L1094.88 515.478L1097.32 503.026V499.242C1095.86 499.975 1093.98 505.386 1091.71 515.478H1089.88V512.914C1089.88 505.508 1090.49 501.806 1091.71 501.806C1091.71 502.213 1091.91 502.416 1092.32 502.416C1092.72 497.859 1093.37 495.132 1094.27 494.237V491.796C1094.27 490.982 1093.82 490.575 1092.93 490.575C1092.93 493.912 1092.11 495.58 1090.49 495.58V499.242H1089.26C1090.16 489.639 1090.97 484.675 1091.71 484.35V478.124C1091.71 477.31 1091.3 476.903 1090.49 476.903H1089.88C1089.88 477.473 1089.47 478.287 1088.65 479.345V481.176C1088.65 490.046 1087.8 495.255 1086.09 496.801H1084.87C1085.68 489.395 1086.09 483.373 1086.09 478.734C1085.11 479.548 1084.3 479.955 1083.65 479.955V480.565H1084.87V481.786C1082.67 483.495 1081.21 484.35 1080.48 484.35V484.96L1081.21 488.012C1079.91 488.256 1079.25 489.924 1079.25 493.017V498.021H1078.64C1077.83 498.021 1077.42 497.615 1077.42 496.801C1078.24 487.686 1078.64 481.054 1078.64 476.903H1078.03V459.447H1079.25V460.668C1080.07 460.668 1080.48 460.261 1080.48 459.447V457.006H1078.64C1078.64 454.483 1079.5 453.222 1081.21 453.222V452.611C1080.31 452.611 1079.87 452.408 1079.87 452.001L1078.64 452.611H1078.03C1078.03 451.146 1077.83 450.089 1077.42 449.438C1077.83 445.206 1078.03 441.91 1078.03 439.55V434.545C1079.66 434.545 1080.72 431.452 1081.21 425.268V423.314H1080.48C1080.48 425.186 1079.87 428.523 1078.64 433.324H1077.42V427.709C1077.42 425.105 1077.63 422.012 1078.03 418.432L1077.42 414.647L1078.03 411.596C1078.03 411.026 1077.83 408.951 1077.42 405.37C1077.42 386.246 1078.44 376.684 1080.48 376.684L1081.21 377.904V381.078H1083.04C1083.36 378.148 1083.97 376.684 1084.87 376.684C1085.68 376.684 1086.09 377.945 1086.09 380.468H1088.04C1088.04 377.538 1089.92 376.073 1093.66 376.073H1096.1C1097.65 378.189 1098.66 379.247 1099.15 379.247C1099.8 377.538 1100.45 376.684 1101.11 376.684C1101.92 376.684 1102.33 377.742 1102.33 379.857H1104.16C1104.16 376.928 1105.62 375.463 1108.55 375.463H1109.16V377.294H1110.99L1112.82 376.073H1114.78C1115.18 376.073 1115.39 376.277 1115.39 376.684L1116.61 376.073H1117.22C1117.46 376.073 1118.07 376.48 1119.05 377.294H1120.39C1120.39 376.073 1120.8 375.463 1121.61 375.463C1122.43 375.463 1122.83 376.073 1122.83 377.294H1125.28C1125.28 376.073 1125.72 375.463 1126.62 375.463C1127.43 375.463 1127.84 376.277 1127.84 377.904H1128.45L1130.89 376.073H1131.5C1132.48 376.073 1133.33 376.277 1134.06 376.684C1134.88 376.277 1137.16 375.87 1140.9 375.463C1141.31 376.114 1141.51 377.375 1141.51 379.247H1143.34C1143.59 379.247 1144.24 378.799 1145.29 377.904V378.515L1148.96 377.294C1151.48 377.457 1154.37 378.718 1157.62 381.078V379.247H1158.97C1161.33 380.631 1164.22 381.851 1167.63 382.909C1167.63 384.618 1168.9 386.083 1171.42 387.304V386.083H1172.03C1172.19 389.338 1172.8 390.966 1173.86 390.966C1173.86 388.931 1174.27 387.914 1175.08 387.914H1175.69C1176.5 387.995 1176.91 388.402 1176.91 389.135V390.355C1176.91 390.762 1176.71 390.966 1176.3 390.966C1179.64 394.628 1181.31 396.907 1181.31 397.802C1181.31 398.453 1181.71 400.121 1182.53 402.807L1183.75 402.196H1184.48V406.591C1185.7 406.591 1186.31 406.998 1186.31 407.812V413.427C1187.94 417.252 1188.75 419.734 1188.75 420.873V424.657C1188.75 427.017 1188.55 428.441 1188.14 428.93C1188.55 431.127 1188.75 432.999 1188.75 434.545V437.719C1188.75 444.88 1186.68 453.791 1182.53 464.452C1177.89 470.149 1175.41 474.096 1175.08 476.293C1175.49 477.107 1175.89 478.938 1176.3 481.786L1177.64 481.176H1178.86C1178.86 483.292 1179.27 484.35 1180.08 484.35C1180.08 482.641 1180.9 481.379 1182.53 480.565C1183.18 480.565 1183.83 481.216 1184.48 482.519L1181.92 493.627H1181.31C1180.08 491.592 1179.47 490.168 1179.47 489.354C1180.21 489.354 1181.02 488.093 1181.92 485.57L1180.7 484.96C1179.23 487.483 1178.21 488.744 1177.64 488.744C1177.64 487.849 1177.2 487.401 1176.3 487.401V488.744C1176.3 489.558 1177.56 492.243 1180.08 496.801C1179.11 499.649 1178.5 501.073 1178.25 501.073C1179.07 502.457 1179.47 503.718 1179.47 504.857V506.078C1179.47 506.892 1178.62 507.299 1176.91 507.299V511.693C1177.81 513.402 1178.46 514.257 1178.86 514.257C1178.05 519.465 1177.64 522.965 1177.64 524.755C1179.27 524.755 1180.08 526.83 1180.08 530.98L1178.25 532.201C1176.54 531.387 1175.69 530.777 1175.69 530.37L1174.47 530.98L1173.25 530.37V534.765C1171.54 534.765 1170.69 535.578 1170.69 537.206L1171.42 540.38C1171.42 546.565 1170.56 549.657 1168.85 549.657L1168.24 548.437V547.826L1168.85 544.652C1168.04 544.652 1167.63 544.042 1167.63 542.821C1167.63 539.729 1168.45 537.654 1170.08 536.596C1170.97 530.98 1171.42 527.44 1171.42 525.976V523.534C1172.23 522.476 1172.64 521.866 1172.64 521.703L1171.42 521.093C1170.85 523.941 1170.2 525.365 1169.46 525.365H1168.24V524.145H1167.63L1167.02 527.318V528.539H1168.24V529.76L1167.02 531.591V533.544L1165.8 544.652H1164.58L1163.85 541.601V540.38L1164.58 535.985C1164.09 535.985 1163.85 535.782 1163.85 535.375L1162.63 535.985H1162.02C1160.8 535.985 1160.19 534.724 1160.19 532.201C1161.41 532.201 1162.02 530.777 1162.02 527.929V524.755H1161.41V526.586L1158.36 525.976L1157.62 527.318C1157.62 527.725 1157.87 527.929 1158.36 527.929L1157.62 530.98C1159.33 535.945 1160.19 541.153 1160.19 546.605C1157.26 551.57 1155.59 554.052 1155.18 554.052L1151.4 549.657H1150.79V551.488L1152.13 553.441L1150.79 555.272L1149.57 554.662H1148.35C1148.67 555.069 1149 555.476 1149.32 555.883L1144.2 557.47ZM1136.51 412.816C1136.1 415.258 1135.49 416.479 1134.67 416.479C1133.86 415.176 1133.45 414.159 1133.45 413.427H1132.84L1130.28 416.479C1128 416.072 1126.13 415.868 1124.67 415.868C1123.53 418.716 1122.71 421.443 1122.22 424.047C1122.63 428.116 1123.04 430.15 1123.44 430.15L1122.83 433.324V439.55L1123.44 443.334L1122.83 444.555L1124.05 450.17C1123.65 450.821 1123.44 451.431 1123.44 452.001L1124.67 452.611L1127.23 445.775V445.165L1126.62 441.381C1127.03 440.567 1127.23 439.957 1127.23 439.55L1126.62 438.329C1127.03 437.597 1127.23 436.742 1127.23 435.766H1128.45L1129.67 450.78C1131.54 449.885 1132.6 449.031 1132.84 448.217V447.606C1131.54 446.06 1130.89 444.636 1130.89 443.334H1131.5C1134.02 445.775 1135.9 446.996 1137.12 446.996C1137.12 446.101 1138.58 445.287 1141.51 444.555C1142.32 443.904 1142.93 439.55 1143.34 431.493L1142.73 428.319C1143.14 427.587 1143.34 426.57 1143.34 425.268C1139.84 419.978 1137.77 415.827 1137.12 412.816H1136.51ZM1176.3 437.719V444.555H1176.91C1176.91 442.683 1177.16 441.422 1177.64 440.771C1177.16 440.038 1176.91 439.021 1176.91 437.719H1176.3ZM1164.58 441.991V445.775H1166.41V443.334C1166.41 442.439 1166.01 441.991 1165.19 441.991H1164.58ZM1130.89 446.996L1131.5 448.217L1130.28 448.827L1129.67 447.606L1130.89 446.996ZM1176.3 454.442V464.452H1176.91L1177.64 458.837L1176.91 454.442H1176.3ZM1139.07 459.447V463.842C1139.88 463.842 1140.29 463.435 1140.29 462.621V460.668C1140.29 459.854 1139.88 459.447 1139.07 459.447ZM1128.45 491.186H1127.84L1123.44 488.012C1123.04 488.907 1122.63 491.226 1122.22 494.97C1123.85 495.132 1124.67 495.743 1124.67 496.801C1123.85 496.882 1123.44 497.289 1123.44 498.021L1125.28 500.463C1125.28 500.707 1124.87 501.358 1124.05 502.416V503.026L1127.23 502.416C1127.64 503.148 1127.84 503.759 1127.84 504.247H1129.06C1129.06 503.026 1129.67 502.416 1130.89 502.416V501.806C1130.89 500.91 1129.67 500.056 1127.23 499.242C1127.23 496.394 1128.86 493.301 1132.11 489.965V489.354C1132.11 488.703 1131.5 488.052 1130.28 487.401C1129.06 487.401 1128.45 488.663 1128.45 491.186ZM1143.34 490.575H1145.29V489.354H1144.56C1143.75 489.436 1143.34 489.843 1143.34 490.575ZM1116 493.627V501.806C1116.08 502.619 1116.49 503.026 1117.22 503.026H1117.83C1117.83 502.619 1117.42 500.951 1116.61 498.021L1117.22 493.627H1116ZM1130.28 494.97C1130.28 495.539 1129.87 496.353 1129.06 497.411C1129.47 498.144 1129.67 498.754 1129.67 499.242H1131.5V496.19C1131.5 495.377 1131.09 494.97 1130.28 494.97ZM1111.6 495.58V498.021H1112.21V495.58H1111.6ZM1182.53 495.58L1183.14 496.801L1181.92 497.411H1180.7V496.19C1181.1 496.19 1181.71 495.987 1182.53 495.58ZM1149.57 498.632C1149.57 500.259 1149.16 501.073 1148.35 501.073C1148.75 501.806 1148.96 502.66 1148.96 503.637C1149.77 503.23 1150.38 503.026 1150.79 503.026L1150.18 498.632H1149.57ZM1116.61 503.637L1116 504.857V507.299H1116.61C1116.61 506.648 1117.02 505.834 1117.83 504.857C1117.83 504.044 1117.42 503.637 1116.61 503.637ZM1123.44 504.857V508.031H1124.67V506.078C1124.67 505.264 1124.26 504.857 1123.44 504.857ZM1178.86 509.252H1179.47C1180.29 509.333 1180.7 509.74 1180.7 510.473H1178.86V509.252ZM1179.47 512.914H1180.08C1180.9 513.077 1181.31 513.524 1181.31 514.257V514.867H1179.47V512.914Z" fill="white"/>
<defs>
<filter id="filter0_f" x="213.192" y="0.0852051" width="927.22" height="1071.2" filterUnits="userSpaceOnUse" color-interpolation-filters="sRGB">
<feFlood flood-opacity="0" result="BackgroundImageFix"/>
<feBlend mode="normal" in="SourceGraphic" in2="BackgroundImageFix" result="shape"/>
<feGaussianBlur stdDeviation="10" result="effect1_foregroundBlur"/>
</filter>
<filter id="filter1_f" x="642.045" y="84.0205" width="113.392" height="90.0436" filterUnits="userSpaceOnUse" color-interpolation-filters="sRGB">
<feFlood flood-opacity="0" result="BackgroundImageFix"/>
<feBlend mode="normal" in="SourceGraphic" in2="BackgroundImageFix" result="shape"/>
<feGaussianBlur stdDeviation="5" result="effect1_foregroundBlur"/>
</filter>
</defs>
</svg>
