<svg width="1100" height="861" viewBox="0 0 1100 861" fill="none" xmlns="http://www.w3.org/2000/svg">
<g filter="url(#filter0_f)">
<path d="M321.418 337.358V861H751.814L757.71 407.177L772.449 457.955L766.553 369.094L772.449 372.268L778.345 384.962L784.241 369.094L798.98 499.211L793.085 248.498L801.928 308.796L798.98 169.158L810.772 204.068V112.034H828.46L840.251 121.555V137.423L849.095 121.555L840.251 105.687L819.616 102.513L849.095 96.166L869.73 105.687L849.095 89.8189H828.46C824.529 91.9346 815.489 96.166 810.772 96.166H798.98L816.668 80.2981L854.991 73.9509L869.73 80.2981L857.939 64.4302L810.772 70.7774L793.085 89.8189L775.397 96.166L793.085 58.083L840.251 45.3887L784.241 51.7358L745.918 105.687L722.335 112.034V89.8189L728.23 80.2981L763.605 64.4302L713.491 70.7774L698.751 96.166V146.943H678.116L663.376 175.506L645.689 169.158C643.33 44.754 585.748 24.2314 557.251 29.5208C495.935 29.5208 445.23 101.455 427.543 137.423H386.272V146.943L350.897 137.423L345.001 58.083L324.366 42.2151L291.939 45.3887L315.522 51.7358L327.314 64.4302V83.4717L306.678 80.2981L265.407 20L224.136 29.5208H265.407L280.147 64.4302L274.251 70.7774L250.668 35.8679H232.98L197.605 45.3887L244.772 51.7358L265.407 80.2981L232.98 58.083H215.293L197.605 83.4717L215.293 70.7774H232.98L250.668 80.2981H224.136L209.397 105.687L232.98 89.8189H250.668L256.564 121.555L265.407 127.902L280.147 400.83V299.275L291.939 289.755L286.043 454.781L291.939 499.211L297.834 454.781H306.678V515.079H315.522V445.26L306.678 362.747L321.418 337.358Z" fill="#FF0000"/>
</g>
<path d="M314.454 337.358V861H744.85L750.746 407.177L765.486 457.955L759.59 369.094L765.486 372.268L771.382 384.962L777.277 369.094L792.017 499.211L786.121 248.498L794.965 308.796L792.017 169.158L803.809 204.068V112.034H821.496L833.288 121.555V137.423L842.132 121.555L833.288 105.687L812.652 102.513L842.132 96.166L862.767 105.687L842.132 89.8189H821.496C817.566 91.9346 808.525 96.166 803.809 96.166H792.017L809.705 80.2981L848.027 73.9509L862.767 80.2981L850.975 64.4302L803.809 70.7774L786.121 89.8189L768.434 96.166L786.121 58.083L833.288 45.3887L777.277 51.7358L738.955 105.687L715.371 112.034V89.8189L721.267 80.2981L756.642 64.4302L706.527 70.7774L691.788 96.166V146.943H671.152L656.413 175.506L638.725 169.158C636.367 44.754 578.784 24.2314 550.288 29.5208C488.971 29.5208 438.267 101.455 420.579 137.423H379.309V146.943L343.934 137.423L338.038 58.083L317.402 42.2151L284.975 45.3887L308.559 51.7358L320.35 64.4302V83.4717L299.715 80.2981L258.444 20L217.173 29.5208H258.444L273.184 64.4302L267.288 70.7774L243.704 35.8679H226.017L190.642 45.3887L237.809 51.7358L258.444 80.2981L226.017 58.083H208.329L190.642 83.4717L208.329 70.7774H226.017L243.704 80.2981H217.173L202.434 105.687L226.017 89.8189H243.704L249.6 121.555L258.444 127.902L273.184 400.83V299.275L284.975 289.755L279.079 454.781L284.975 499.211L290.871 454.781H299.715V515.079H308.559V445.26L299.715 362.747L314.454 337.358Z" fill="black"/>
<g filter="url(#filter1_f)">
<path d="M514.913 111.421V96.5918C514.913 94.221 515.43 91.8787 516.429 89.7285L517.507 87.4084C519.521 83.0722 523.867 80.2983 528.648 80.2983C531.218 80.2983 533.724 81.1043 535.811 82.6027L536.008 82.7441C539.421 85.1932 541.444 89.1363 541.444 93.3367V109.049C541.444 113.008 539.947 116.82 537.253 119.72L536.124 120.935C533.877 123.354 530.725 124.729 527.423 124.729C523.311 124.729 519.492 122.601 517.327 119.105L516.907 118.427C515.604 116.323 514.913 113.896 514.913 111.421Z" fill="#FF0000"/>
<path d="M559.132 124.115V109.286C559.132 106.915 559.649 104.573 560.648 102.423L561.725 100.103C563.739 95.7666 568.086 92.9927 572.867 92.9927C575.437 92.9927 577.942 93.7986 580.03 95.2971L580.227 95.4384C583.64 97.8875 585.663 101.831 585.663 106.031V121.743C585.663 125.702 584.166 129.514 581.472 132.414L580.343 133.629C578.096 136.048 574.943 137.423 571.642 137.423C567.53 137.423 563.71 135.296 561.545 131.8L561.126 131.122C559.822 129.017 559.132 126.591 559.132 124.115Z" fill="#FF0000"/>
</g>
<path d="M514.792 110.867V96.0381C514.792 93.6673 515.309 91.3251 516.308 89.1749L517.385 86.8548C519.399 82.5186 523.746 79.7447 528.527 79.7447C531.097 79.7447 533.602 80.5507 535.69 82.0491L535.887 82.1905C539.299 84.6396 541.323 88.5827 541.323 92.783V108.495C541.323 112.454 539.825 116.266 537.131 119.167L536.003 120.382C533.756 122.801 530.603 124.175 527.302 124.175C523.189 124.175 519.37 122.048 517.205 118.552L516.785 117.874C515.482 115.769 514.792 113.343 514.792 110.867Z" fill="white"/>
<path d="M559.01 123.562V108.732C559.01 106.362 559.528 104.019 560.526 101.869L561.604 99.5491C563.618 95.2129 567.965 92.4391 572.746 92.4391C575.316 92.4391 577.821 93.245 579.909 94.7435L580.106 94.8848C583.518 97.3339 585.542 101.277 585.542 105.477V121.19C585.542 125.148 584.044 128.96 581.35 131.861L580.221 133.076C577.974 135.495 574.822 136.869 571.52 136.869C567.408 136.869 563.589 134.742 561.424 131.246L561.004 130.568C559.701 128.463 559.01 126.037 559.01 123.562Z" fill="white"/>
<path d="M65.7471 372.743H66.9678V378.358H65.7471V372.743ZM75.0244 374.086C79.1748 374.737 81.25 375.55 81.25 376.527V377.137H80.6396C80.1514 377.137 78.2796 376.527 75.0244 375.306V374.086ZM101.147 393.861H102.49C102.979 393.861 103.589 394.512 104.321 395.814V397.645H103.101C102.205 397.645 101.554 396.384 101.147 393.861ZM88.0859 395.204L89.4287 397.035L88.0859 397.645C87.2721 397.645 86.8652 397.238 86.8652 396.424C86.9466 395.611 87.3535 395.204 88.0859 395.204ZM56.4697 405.091V407.655H57.0801V405.091H56.4697ZM71.9727 435.609V436.219H74.4141V435.609H71.9727ZM64.5264 438.661C64.5264 439.475 64.3229 439.881 63.916 439.881L64.5264 443.055V445.497C62.1663 445.497 60.498 448.63 59.5215 454.896V456.727H60.7422C60.7422 455.344 61.5967 452.211 63.3057 447.328H63.916L65.1367 448.06C65.1367 446.433 66.3981 444.561 68.9209 442.445V441.224C68.7581 440.573 67.7002 439.719 65.7471 438.661H64.5264ZM61.9629 443.055L63.3057 443.666V441.835C62.4105 441.916 61.9629 442.323 61.9629 443.055ZM71.3623 445.497L70.1416 444.886H68.9209C65.5843 448.955 63.916 452.699 63.916 456.117C66.7643 456.117 68.1885 458.192 68.1885 462.342H69.5312V461.732L68.9209 460.389C69.0023 459.657 70.0195 458.029 71.9727 455.506L70.752 453.553C70.752 453.146 72.8271 452.129 76.9775 450.502V449.281C76.9775 448.467 76.5706 448.06 75.7568 448.06H75.0244V449.281H73.8037V448.67C74.6175 447.287 75.0244 446.026 75.0244 444.886L73.1934 443.666C72.6237 443.666 72.0133 444.276 71.3623 445.497ZM83.2031 450.502L84.4238 451.112V449.281C83.61 449.362 83.2031 449.769 83.2031 450.502ZM76.3672 453.553V457.948H77.5879V453.553H76.3672ZM55.127 455.506V456.727H55.8594C56.6732 456.727 57.0801 456.32 57.0801 455.506V454.164H56.4697C55.5745 454.326 55.127 454.774 55.127 455.506ZM81.8604 455.506V456.117H83.2031V454.164C82.3079 454.326 81.8604 454.774 81.8604 455.506ZM77.5879 471.62V473.451H78.8086V471.62H77.5879ZM75.2686 514.833C74.6989 514.426 74.4141 513.897 74.4141 513.246C75.7161 512.025 77.181 511.415 78.8086 511.415V510.804C78.8086 509.99 78.4017 509.584 77.5879 509.584H76.9775L72.583 512.025H70.1416V510.804C72.7458 510.804 75.0244 509.339 76.9775 506.41V503.358L75.0244 500.794V500.184L75.7568 497.132H75.0244C74.7803 497.132 73.1527 498.801 70.1416 502.137L69.5312 500.794V499.574L71.3623 496.522L70.1416 492.738C70.5485 491.924 70.752 491.314 70.752 490.907L69.5312 490.296C68.6361 491.192 67.7816 495.342 66.9678 502.748H65.7471V501.527L66.3574 493.959C65.1367 493.552 64.5264 493.145 64.5264 492.738C65.096 491.11 65.7064 490.296 66.3574 490.296L65.7471 489.076V485.902C65.2588 485.902 64.6484 485.698 63.916 485.292V485.902C64.3229 486.716 64.5264 487.326 64.5264 487.733L61.9629 489.686H60.1318L60.7422 485.292V484.681C59.1146 485.902 57.8939 486.512 57.0801 486.512C56.9173 487.977 56.8359 489.32 56.8359 490.541L53.9062 486.512C53.4993 484.071 52.889 482.85 52.0752 482.85C51.6683 483.664 51.2614 485.536 50.8545 488.465C51.6683 488.547 52.0752 488.954 52.0752 489.686V490.296C52.0752 490.785 51.6276 491.314 50.7324 491.883L48.291 489.076C49.1862 487.936 49.8372 485.861 50.2441 482.85L49.0234 482.24C46.7448 483.054 45.4834 484.071 45.2393 485.292C46.46 485.292 47.0703 485.698 47.0703 486.512V487.123L44.0186 486.512V487.367L37.793 484.681C37.3861 482.891 37.1826 480.612 37.1826 477.845H38.4033L39.624 478.456V477.845C39.624 477.194 38.4033 476.584 35.9619 476.014C35.3109 473.898 34.6598 472.84 34.0088 472.84L33.3984 474.061V480.287C33.3984 480.938 32.7881 481.589 31.5674 482.24H30.957V481.629C31.1198 474.549 31.5267 471.009 32.1777 471.009C31.8522 470.277 31.4453 467.795 30.957 463.563H31.5674C31.1605 462.749 30.957 462.139 30.957 461.732L29.7363 462.342H28.3936V461.732C28.3936 458.151 28.6377 454.408 29.126 450.502V449.281H28.3936C28.3936 451.722 27.9867 452.943 27.1729 452.943H26.5625C26.5625 451.397 26.766 449.525 27.1729 447.328C27.1729 446.758 26.9694 443.869 26.5625 438.661C26.8066 433.371 27.417 430.279 28.3936 429.383V425.599C27.4984 425.599 26.4811 427.878 25.3418 432.435H24.1211V431.825C24.528 425.803 24.7314 422.507 24.7314 421.937C23.6735 422.751 22.8597 423.158 22.29 423.158V424.989C22.29 427.674 21.8424 430.563 20.9473 433.656H19.7266V430.604L18.5059 428.773H19.7266L19.1162 425.599V415.711C19.1162 412.456 18.9128 409.527 18.5059 406.922C18.9128 404.888 19.1162 402.202 19.1162 398.866V392.64C21.2321 392.64 22.29 389.344 22.29 382.753V381.532H21.5576C21.5576 383.973 20.9473 385.194 19.7266 385.194H19.1162V381.532C19.1162 381.125 19.3197 380.921 19.7266 380.921L19.1162 379.579V369.081C19.1162 368.104 18.9128 367.25 18.5059 366.517C19.3197 357.728 23.2666 346.986 30.3467 334.291H31.5674V336.122H32.1777C32.9102 336.122 33.9681 334.25 35.3516 330.506C38.1185 330.506 40.153 328.228 41.4551 323.67H42.1875C43.0013 323.67 43.4082 324.484 43.4082 326.112C45.1172 324.077 46.3379 323.06 47.0703 323.06L48.291 323.67C48.9421 323.67 49.7965 322.857 50.8545 321.229C52.889 321.229 53.9062 321.636 53.9062 322.45L58.9111 321.229V321.839C62.2477 321.026 63.916 319.357 63.916 316.835H66.9678C67.7816 316.916 68.1885 317.323 68.1885 318.055C68.1885 318.869 67.5781 319.276 66.3574 319.276V319.886C66.3574 320.537 67.2119 321.392 68.9209 322.45H69.5312L71.9727 319.886C72.3796 319.886 72.583 320.13 72.583 320.619C73.3154 320.13 73.9258 319.886 74.4141 319.886L77.5879 320.619C77.5879 319.317 77.9948 318.666 78.8086 318.666L81.25 321.839H82.5928C82.5928 319.724 82.9997 318.666 83.8135 318.666C83.8135 319.317 84.6273 319.968 86.2549 320.619C86.9873 320.13 87.8011 319.886 88.6963 319.886C88.6963 320.537 90.3646 321.392 93.7012 322.45L94.3115 321.229C95.695 321.717 96.9564 322.531 98.0957 323.67C98.8281 323.264 99.4385 323.06 99.9268 323.06C104.565 325.013 109.733 327.699 115.43 331.117C116.325 331.117 118.197 334.25 121.045 340.516L122.266 339.784C124.707 343.202 126.375 346.742 127.271 350.404C127.271 350.648 127.067 351.462 126.66 352.845C126.66 354.391 127.922 357.118 130.444 361.024C130.444 361.187 130.241 363.872 129.834 369.081C129.834 370.22 130.037 374.37 130.444 381.532C130.444 385.113 129.183 387.391 126.66 388.368H126.05L122.998 385.804C122.998 387.106 122.55 387.757 121.655 387.757H121.045C119.01 387.757 115.918 387.961 111.768 388.368C111.768 389.588 111.361 390.199 110.547 390.199L107.983 386.415H106.763C106.763 387.717 106.356 388.368 105.542 388.368C104.728 388.368 104.321 387.717 104.321 386.415H103.101L101.147 387.757L98.7061 385.194C98.2992 386.984 97.2412 388.246 95.5322 388.978V390.199H94.3115C92.4398 388.571 91.4225 387.757 91.2598 387.757C90.5273 387.757 89.0625 388.775 86.8652 390.809L85.6445 388.978C86.4583 388.978 86.8652 388.571 86.8652 387.757C86.8652 387.188 85.6445 385.723 83.2031 383.363C84.0169 383.363 84.4238 382.956 84.4238 382.142C83.61 382.142 83.2031 381.735 83.2031 380.921C83.2845 380.026 83.6914 379.579 84.4238 379.579C84.4238 379.172 84.2204 378.968 83.8135 378.968L84.4238 375.917V367.86C84.4238 366.883 84.2204 366.029 83.8135 365.296C84.2204 364.564 84.4238 363.75 84.4238 362.855V361.024H83.8135V362.245H83.2031C82.3079 362.245 81.6569 360.576 81.25 357.24H80.0293C80.0293 358.867 79.6224 359.681 78.8086 359.681L75.0244 356.629C72.583 357.036 71.3623 357.647 71.3623 358.461L68.1885 357.85H67.5781C65.1367 357.85 63.7126 371.115 63.3057 397.645C62.6546 397.645 62.0036 398.255 61.3525 399.476V404.481H63.916V409.486H62.6953V407.655H61.3525V419.984C62.3291 419.984 62.9801 417.705 63.3057 413.148H64.5264V413.758C64.5264 421.245 63.4684 424.989 61.3525 424.989V429.994C62.2477 429.994 62.6953 430.197 62.6953 430.604L63.916 429.994H64.5264V433.656H66.3574C67.1712 433.656 67.5781 433.249 67.5781 432.435H65.7471V430.604H66.9678C67.7816 430.604 68.1885 431.418 68.1885 433.045H70.752C71.2402 433.045 71.8506 432.435 72.583 431.214V421.937H74.4141C74.1699 418.194 73.3561 416.322 71.9727 416.322V403.871L72.583 400.819H73.8037L75.0244 401.429C75.0244 400.778 75.6755 400.127 76.9775 399.476L76.3672 395.204V394.593C76.3672 391.338 77.3844 389.263 79.4189 388.368C80.2327 388.449 80.6396 388.856 80.6396 389.588C79.9072 389.588 79.0934 390.402 78.1982 392.03V394.593C78.1982 395.163 78.8086 395.773 80.0293 396.424L84.4238 395.204V395.814C83.61 398.662 83.2031 400.331 83.2031 400.819L84.4238 401.429C84.4238 399.72 84.8307 398.866 85.6445 398.866H86.2549L89.4287 399.476C89.4287 398.255 89.8356 397.645 90.6494 397.645L94.3115 398.255C94.4743 397.442 94.8812 397.035 95.5322 397.035H96.2646V400.819H96.875V398.255H97.4854L98.7061 398.866C98.7061 397.645 99.113 397.035 99.9268 397.035L103.101 401.429C105.461 401.429 107.292 400.371 108.594 398.255C109.489 398.255 109.937 398.866 109.937 400.086H111.157L115.43 397.645C116.325 397.645 116.772 398.459 116.772 400.086H119.214C119.214 398.459 119.621 397.645 120.435 397.645L122.998 401.429V400.086H124.829C124.992 400.086 126.009 401.144 127.881 403.26H128.491C128.491 401.144 128.939 400.086 129.834 400.086C130.648 402.202 131.055 407.004 131.055 414.491V421.937C131.055 425.111 130.851 428 130.444 430.604C130.851 432.801 131.055 435.283 131.055 438.05C131.055 440.166 130.851 442.648 130.444 445.497C130.851 448.345 131.055 450.624 131.055 452.333C131.055 460.226 130.2 464.173 128.491 464.173H127.271V463.563C127.271 461.366 127.677 457.215 128.491 451.112H126.05V456.117C126.05 457.419 125.846 458.436 125.439 459.169L126.05 462.953V470.399C126.05 472.84 125.236 474.061 123.608 474.061V474.794C123.608 477.316 123.405 480.002 122.998 482.85L123.608 485.292C123.201 487.977 122.998 490.663 122.998 493.348H122.266C121.452 493.348 121.045 492.941 121.045 492.128V491.517C121.045 489.157 121.248 487.692 121.655 487.123C121.248 485.007 121.045 483.786 121.045 483.461C121.452 477.845 121.655 473.695 121.655 471.009C122.55 471.009 122.998 470.602 122.998 469.789V466.004L123.608 459.779C122.957 459.779 122.306 460.43 121.655 461.732V463.563H121.045V466.615L119.214 469.178V470.399C119.214 479.92 118.197 484.681 116.162 484.681H115.43L116.162 481.629V479.676C116.162 478.863 115.715 478.456 114.819 478.456C114.819 479.676 114.616 480.287 114.209 480.287C112.581 480.043 111.768 478.415 111.768 475.404V471.62C111.768 470.806 111.361 470.399 110.547 470.399H109.937C109.53 476.177 109.326 481.141 109.326 485.292H109.937V486.512C109.937 491.883 109.285 494.569 107.983 494.569C107.17 494.569 106.763 494.162 106.763 493.348V491.517C106.763 491.11 106.966 490.907 107.373 490.907C107.373 490.5 107.17 490.296 106.763 490.296L107.373 487.123V485.902C107.373 484.03 106.966 482.362 106.152 480.897C106.559 476.177 106.966 473.491 107.373 472.84H106.763C105.949 473.247 105.339 473.451 104.932 473.451L105.542 479.066C105.135 483.298 104.728 485.78 104.321 486.512C105.135 486.675 105.542 487.082 105.542 487.733V489.076C105.542 489.645 104.932 490.256 103.711 490.907C103.304 490.174 103.101 489.116 103.101 487.733L101.758 488.465V487.733L103.101 485.292L101.758 484.681C101.188 484.681 100.578 485.698 99.9268 487.733L100.537 489.076C100.537 489.89 100.13 490.296 99.3164 490.296H98.7061L98.0957 487.123C98.0957 484.274 98.2992 479.717 98.7061 473.451V472.23H98.0957C98.0957 474.753 97.4854 476.014 96.2646 476.014V479.066C96.2646 480.775 96.4681 483.054 96.875 485.902C95.3288 491.192 94.2708 493.877 93.7012 493.959H93.0908V489.686L93.7012 488.465L91.2598 487.733C90.0391 491.07 89.1846 492.738 88.6963 492.738L89.4287 496.522C89.4287 502.3 88.7777 505.189 87.4756 505.189C87.0687 504.375 86.8652 503.765 86.8652 503.358C86.8652 502.951 87.0687 501.283 87.4756 498.353H86.8652C86.2956 498.353 85.6852 498.963 85.0342 500.184V502.137L85.6445 505.189C84.8307 505.596 84.2204 505.799 83.8135 505.799L84.4238 507.02V507.63L83.8135 508.973L82.5928 508.363H81.8604C80.8838 509.177 80.2734 509.584 80.0293 509.584L80.6396 510.804C80.2327 511.537 80.0293 512.35 80.0293 513.246L75.2686 514.833ZM164.746 487.855C163.525 486.716 162.915 484.03 162.915 479.798V476.503C163.566 473.41 164.461 471.864 165.601 471.864H166.211L165.601 478.456L166.211 486.39C167.594 486.39 168.286 483.542 168.286 477.845L167.554 473.207L168.286 469.911C168.286 469.585 168.042 468.283 167.554 466.004V461.976H165.601C165.031 465.557 164.136 467.347 162.915 467.347C161.857 466.452 161.206 466.004 160.962 466.004C160.962 466.411 160.758 466.615 160.352 466.615L160.962 469.911C160.718 474.305 160.067 476.503 159.009 476.503H158.398C158.398 474.956 158.154 473.858 157.666 473.207C158.154 471.66 158.398 470.806 158.398 470.643C157.91 464.051 157.666 459.657 157.666 457.46C158.561 454.611 159.009 452.617 159.009 451.478V447.572H160.352C160.352 447.084 160.107 446.433 159.619 445.619C160.107 443.177 160.352 441.183 160.352 439.637C159.538 440.044 158.887 440.248 158.398 440.248V444.886L156.323 447.572V451.478C156.323 455.547 156.12 459.291 155.713 462.709C156.12 464.987 156.323 467.184 156.323 469.3L155.713 475.16C156.12 477.52 156.323 479.514 156.323 481.141L155.713 484.437L157.056 487.001C156.486 492.616 156.038 495.708 155.713 496.278C156.12 497.01 156.323 497.865 156.323 498.841C155.184 499.737 153.231 500.632 150.464 501.527L149.854 500.184C152.865 493.755 154.37 489.157 154.37 486.39H153.027L153.76 481.752C153.271 478.008 153.027 474.956 153.027 472.596H151.074V475.16H150.464C149.569 475.16 149.121 474.753 149.121 473.939C150.423 472.067 151.074 470.277 151.074 468.568L149.854 469.3L146.558 467.958C145.988 473.003 145.093 476.055 143.872 477.113V479.798C143.872 485.169 143.221 490.012 141.919 494.325H140.576C141.471 480.246 142.57 472.108 143.872 469.911L143.262 468.568C143.669 465.069 144.32 463.319 145.215 463.319H146.558C146.558 464.214 146.761 464.662 147.168 464.662C148.063 464.255 148.714 464.051 149.121 464.051C149.121 464.458 149.365 464.662 149.854 464.662C149.854 464.255 150.057 464.051 150.464 464.051C150.871 464.865 151.074 465.516 151.074 466.004H151.807C151.807 463.563 152.01 461.122 152.417 458.68V458.07H151.807V459.413H150.464C148.674 455.995 147.778 452.048 147.778 447.572H146.558C146.558 456.768 145.662 461.366 143.872 461.366L142.529 458.68C142.529 457.622 142.977 454.571 143.872 449.525L141.919 450.868H140.576V450.135L158.398 363.954C159.212 363.954 160.962 356.507 163.647 341.615C166.496 327.617 168.449 320.13 169.507 319.154H170.85V319.886L172.192 319.154C173.088 319.154 173.535 320.049 173.535 321.839H174.756C175.651 321.839 176.099 321.188 176.099 319.886H176.831C177.645 319.886 178.052 320.741 178.052 322.45H180.737C180.737 320.253 181.185 319.154 182.08 319.154H186.719L188.672 320.497H190.625C190.625 318.299 191.073 317.201 191.968 317.201C191.968 317.852 192.619 318.503 193.921 319.154L197.217 318.544C197.38 319.439 197.827 319.886 198.56 319.886H202.466V317.811C207.756 317.811 210.4 318.91 210.4 321.107H212.354C212.354 319.398 212.801 318.544 213.696 318.544H218.213C220.003 320.822 221.997 322.368 224.194 323.182C226.392 326.763 227.49 330.466 227.49 334.291H226.758C226.921 337.139 228.263 342.184 230.786 349.427L231.396 352.723C230.99 357.362 230.339 361.309 229.443 364.564V367.25H231.396L232.129 360.658H233.35C233.35 362.448 233.594 364.198 234.082 365.907C234.082 366.151 233.838 367.046 233.35 368.592C234.163 373.475 235.506 377.87 237.378 381.776C237.378 382.183 237.581 382.834 237.988 383.729L237.378 387.635V388.246C238.68 391.826 240.226 399.069 242.017 409.974C242.017 412.66 241.121 414.003 239.331 414.003C238.924 419.455 238.721 422.751 238.721 423.89V425.111H239.331C241.121 421.449 242.017 417.298 242.017 412.66H242.627C243.278 412.66 243.929 413.311 244.58 414.613V416.566C244.58 419.089 244.784 422.629 245.19 427.186C245.19 428.895 244.132 429.75 242.017 429.75V433.778C243.726 433.778 244.58 436.179 244.58 440.98H245.19L245.923 437.684V429.139H246.533C247.103 429.139 248.201 432.842 249.829 440.248C250.399 440.248 250.846 441.143 251.172 442.933L250.562 446.839C250.968 449.362 251.172 451.559 251.172 453.431C250.521 453.431 249.626 454.326 248.486 456.117L251.782 460.023C251.619 462.709 250.765 464.051 249.219 464.051V466.004C249.219 466.411 249.422 466.615 249.829 466.615L248.486 472.596L249.219 476.503C249.219 477.154 248.975 480.246 248.486 485.78H251.172V488.343C251.172 491.029 250.277 492.372 248.486 492.372V497.621C248.486 498.434 248.079 498.841 247.266 498.841H246.533L245.19 498.231L246.533 492.372C246.126 487.814 245.923 484.274 245.923 481.752C246.33 480.205 246.533 479.351 246.533 479.188C246.045 476.096 245.394 474.549 244.58 474.549C244.255 479.514 243.4 482.565 242.017 483.705C242.017 491.599 240.918 497.743 238.721 502.137C238.721 503.928 238.273 504.823 237.378 504.823H235.425L234.692 501.527V493.592C234.692 492.616 234.489 491.761 234.082 491.029C234.082 490.541 234.285 490.296 234.692 490.296L234.082 482.484V476.503C232.536 476.503 231.437 480.002 230.786 487.001H229.443L228.833 483.705C228.833 476.299 229.688 472.596 231.396 472.596V468.568C231.396 466.696 231.641 464.295 232.129 461.366C232.129 460.959 231.885 460.755 231.396 460.755L232.129 457.46V452.211C230.664 452.211 229.565 451.966 228.833 451.478C227.45 455.873 226.758 458.273 226.758 458.68L228.101 458.07H229.443C229.443 461.895 228.345 469.341 226.147 480.409C226.554 481.223 227.002 483.42 227.49 487.001C226.595 492.941 226.147 496.888 226.147 498.841C225.578 498.841 224.927 497.743 224.194 495.545L224.805 491.029V481.141C223.991 481.141 223.584 480.246 223.584 478.456C219.515 481.548 216.87 483.094 215.649 483.094L211.011 481.752V478.456C211.011 478.049 211.214 477.845 211.621 477.845C210.807 476.055 210.4 473.654 210.4 470.643C209.017 470.643 207.471 470.399 205.762 469.911C205.355 471.701 204.46 472.596 203.076 472.596L200.513 471.253C194.653 473.614 190.259 476.869 187.329 481.019L164.746 487.855ZM192.578 398.866C192.985 398.866 193.188 401.063 193.188 405.458H191.968C191.968 409.12 191.52 412.619 190.625 415.956C191.032 418.885 191.235 421.286 191.235 423.158V431.092C191.479 431.988 191.927 432.435 192.578 432.435H193.921V423.158L194.531 419.862H195.264C195.264 423.28 196.566 428.122 199.17 434.388C201.123 434.388 202.222 430.889 202.466 423.89V411.317C203.361 410.259 203.809 409.608 203.809 409.364V406.068H202.466L201.855 412.66H201.123C200.065 412.66 199.211 409.16 198.56 402.162L197.217 401.429C197.624 400.615 197.827 399.964 197.827 399.476C197.827 397.604 197.38 395.407 196.484 392.884C195.02 392.884 193.717 394.878 192.578 398.866ZM202.466 448.182V450.135C203.117 450.135 203.768 449.484 204.419 448.182V447.572C203.687 447.979 203.035 448.182 202.466 448.182ZM238.721 448.182C238.721 449.484 238.029 450.583 236.646 451.478C236.646 454.652 235.791 459.046 234.082 464.662L234.692 467.958C234.285 471.05 234.082 472.8 234.082 473.207V475.892H234.692C235.832 464.418 237.174 458.68 238.721 458.68H239.331V459.413C239.331 467.307 238.436 471.905 236.646 473.207C236.646 477.276 236.442 481.019 236.035 484.437L236.646 489.076C236.239 492.005 236.035 494.406 236.035 496.278V496.888H236.646C238.436 494.04 239.331 490.988 239.331 487.733C238.761 484.641 238.11 483.094 237.378 483.094C238.924 473.003 240.023 467.958 240.674 467.958C241.976 463.97 242.83 461.976 243.237 461.976C243.237 462.464 243.481 462.709 243.97 462.709C245.679 454.652 246.533 450.054 246.533 448.915H244.58V452.211C242.871 453.268 242.017 454.367 242.017 455.506C240.47 455.913 239.575 456.117 239.331 456.117V448.182H238.721ZM188.672 468.568C188.672 469.707 188.021 471.253 186.719 473.207C187.533 474.346 187.939 475.241 187.939 475.892H188.672C190.381 474.102 191.683 473.207 192.578 473.207V471.864L190.625 473.207L189.893 471.864C190.788 471.864 191.235 471.457 191.235 470.643L188.672 468.568ZM194.531 469.3V470.643H196.484V469.3H194.531ZM317.944 476.014C319.653 474.142 320.508 472.393 320.508 470.765V463.563C320.508 462.749 320.02 462.342 319.043 462.342C319.043 470.155 318.229 474.061 316.602 474.061H315.137C315.137 473.085 314.933 472.23 314.526 471.498C315.34 469.138 316.032 465.882 316.602 461.732C315.625 459.697 314.73 458.599 313.916 458.436C313.916 459.169 313.468 460.267 312.573 461.732L311.23 461H310.62V462.342L313.916 466.859V467.469C313.916 468.364 313.468 468.812 312.573 468.812H311.963C309.766 464.987 308.667 462.383 308.667 461L309.399 454.53L308.057 455.14C306.755 451.478 306.104 447.572 306.104 443.421L306.714 440.126L305.371 440.736L304.15 438.783V434.266C305.452 432.557 306.104 431.011 306.104 429.628V422.547L305.371 419.252H304.15V422.547L303.418 430.36H302.197C302.197 428.163 301.75 427.064 300.854 427.064V417.176C300.854 416.769 301.058 416.566 301.465 416.566L300.854 415.345C301.261 414.369 301.465 413.677 301.465 413.27L298.169 409.364C298.169 409.12 298.413 406.271 298.901 400.819C298.413 400.005 298.169 399.395 298.169 398.988H296.948C296.948 401.022 296.257 407.289 294.873 417.787C294.873 420.228 295.361 424.623 296.338 430.97C295.687 433.574 294.995 434.877 294.263 434.877H293.652V432.923H293.042C292.147 433.005 291.699 433.452 291.699 434.266V440.126H292.432V438.783H293.042C293.856 438.946 294.263 439.393 294.263 440.126C294.263 440.939 293.652 441.346 292.432 441.346V446.595H293.652V447.938H291.699V451.844C291.699 452.17 291.048 452.821 289.746 453.797C289.746 463.807 289.054 468.812 287.671 468.812H286.45V468.202C286.45 464.54 286.654 460.593 287.061 456.361V455.14H286.45C286.45 457.744 286.043 459.046 285.229 459.046H284.497C284.497 457.5 284.741 455.506 285.229 453.065C285.229 452.495 284.985 449.484 284.497 444.032C284.823 438.498 285.474 435.243 286.45 434.266V430.36C285.474 430.36 284.375 432.72 283.154 437.44H281.934V436.83C282.34 430.482 282.544 427.023 282.544 426.454C281.486 427.267 280.591 427.674 279.858 427.674V429.628C279.858 432.476 279.451 435.528 278.638 438.783H277.295V434.877C276.156 435.69 275.505 436.097 275.342 436.097C274.935 435.528 274.731 434.225 274.731 432.191L273.389 432.923H272.046V430.97C274.243 424.297 275.342 418.6 275.342 413.88C274.935 413.88 274.731 414.125 274.731 414.613L273.389 413.88H272.778V417.787C272.778 418.763 271.883 419.252 270.093 419.252V421.083H271.436V422.547H270.093V423.768C270.093 431.011 268.791 437.318 266.187 442.689H264.966C264.966 441.061 266.024 435.161 268.14 424.989V424.378H267.529C265.82 426.494 264.966 428.488 264.966 430.36L263.623 429.628H262.891V430.36H264.233V430.97C263.013 432.435 262.158 435.487 261.67 440.126C260.286 440.126 259.595 442.282 259.595 446.595V447.938H257.764C258.089 440.532 258.496 436.83 258.984 436.83C259.391 436.83 259.839 436.179 260.327 434.877C259.839 431.947 259.595 429.546 259.595 427.674V424.989L258.374 425.599C258.374 425.192 258.171 424.989 257.764 424.989C257.764 426.861 256.868 429.058 255.078 431.581C255.485 432.313 255.688 433.412 255.688 434.877H257.153C257.153 433.819 257.357 432.923 257.764 432.191H255.688V430.97H256.299C257.275 431.377 257.967 431.581 258.374 431.581V432.923C258.374 434.795 257.479 436.097 255.688 436.83L255.078 440.126L255.688 443.421C255.119 445.13 254.508 445.985 253.857 445.985C252.881 445.985 252.393 445.537 252.393 444.642V438.783H254.468V438.172C253.654 438.172 252.759 437.277 251.782 435.487C251.782 435.08 251.986 434.429 252.393 433.534L251.782 429.628V427.064C252.352 427.064 253.247 425.965 254.468 423.768C255.282 423.768 255.688 421.571 255.688 417.176V416.566H255.078C253.857 418.845 253.247 420.838 253.247 422.547H251.782V421.693C251.782 419.252 251.986 417.746 252.393 417.176C251.986 414.816 251.782 412.863 251.782 411.317C251.782 408.306 251.986 402.65 252.393 394.349L251.782 390.321C252.189 389.507 252.393 388.897 252.393 388.49L251.782 387.269C252.189 384.828 252.393 382.834 252.393 381.288V378.602C252.393 377.381 252.189 376.771 251.782 376.771L252.393 373.475V365.541C252.393 364.727 251.986 364.32 251.172 364.32C251.579 359.193 251.782 355.49 251.782 353.211V349.916C251.782 348.125 251.579 346.376 251.172 344.667C251.579 342.958 251.782 341.452 251.782 340.15L251.172 332.337C251.172 327.129 252.677 323.833 255.688 322.45C255.933 320.659 256.624 319.764 257.764 319.764C257.845 320.741 258.252 321.229 258.984 321.229L262.28 320.619C262.687 321.188 262.891 322.49 262.891 324.525H264.966C266.431 323.141 267.936 322.45 269.482 322.45C271.68 323.589 272.778 324.484 272.778 325.135H274.121L276.685 321.839C277.091 322.572 277.295 323.467 277.295 324.525C283.805 322.328 288.607 321.229 291.699 321.229C298.698 321.555 302.197 322.653 302.197 324.525H302.808C302.808 323.141 303.662 322.043 305.371 321.229C306.266 321.229 306.714 321.839 306.714 323.06H307.324C307.568 323.06 308.667 321.961 310.62 319.764C313.224 323.019 315.625 327.211 317.822 332.337C318.636 332.337 319.328 334.942 319.897 340.15C321.525 340.15 322.339 343.812 322.339 351.136L321.729 352.601C322.38 356.426 323.275 358.338 324.414 358.338L323.804 361.634V362.977C325.35 362.977 326.408 365.378 326.978 370.179C326.489 372.539 326.245 374.492 326.245 376.039V378.602C326.245 380.555 327.344 382.549 329.541 384.584V386.415C329.541 388.775 329.785 392.518 330.273 397.645C332.389 397.645 333.447 400.046 333.447 404.847L332.837 408.021H335.522C336.825 403.789 339.185 393.128 342.603 376.039C348.299 346.742 352.49 328.879 355.176 322.45L361.523 319.764C361.849 321.555 363.639 322.45 366.895 322.45C367.383 320.253 367.993 319.154 368.726 319.154C369.214 319.886 369.458 320.985 369.458 322.45H370.068C371.126 322.45 372.021 322.246 372.754 321.839C373.568 322.246 374.219 322.45 374.707 322.45C376.009 320.985 376.66 319.683 376.66 318.544H378.613C379.264 318.544 380.119 319.439 381.177 321.229L382.52 320.619C384.229 320.619 385.978 320.822 387.769 321.229C389.396 320.822 391.105 320.619 392.896 320.619L396.191 321.229C396.191 319.846 396.639 319.154 397.534 319.154H399.487C400.789 319.154 401.44 320.456 401.44 323.06H406.079C406.079 321.839 406.486 321.229 407.3 321.229C410.555 322.043 412.508 322.45 413.159 322.45V321.839C414.543 322.246 415.234 322.653 415.234 323.06L416.455 322.45C416.862 322.45 417.757 323.345 419.141 325.135C418.734 330.995 418.53 335.349 418.53 338.197V339.418C418.53 345.684 418.734 350.282 419.141 353.211C418.734 356.955 418.53 361.756 418.53 367.616V370.179C418.53 377.178 418.734 382.183 419.141 385.194C418.734 389.588 418.53 395.041 418.53 401.551V415.345C418.53 419.414 418.734 424.419 419.141 430.36C418.245 435.894 417.554 443.95 417.065 454.53H418.53C418.042 460.959 417.798 465.72 417.798 468.812V473.451L415.845 476.014H416.455C415.641 479.025 413.932 481.223 411.328 482.606C411.328 484.315 411.084 485.169 410.596 485.169L411.328 487.733C410.84 493.185 410.596 496.481 410.596 497.621C411.084 498.434 411.328 499.086 411.328 499.574C409.701 500.062 408.805 500.306 408.643 500.306C408.236 499.33 408.032 498.638 408.032 498.231H406.689C404.98 500.835 403.882 502.137 403.394 502.137H402.783L403.394 498.841V493.714C403.394 492.738 402.987 492.25 402.173 492.25L403.394 483.827C402.987 480.978 402.783 478.171 402.783 475.404V468.812H401.44V487.123C401.44 488.181 401.237 489.076 400.83 489.808C401.237 490.541 401.44 491.354 401.44 492.25V493.714C401.44 494.365 400.586 495.261 398.877 496.4H398.267C398.267 494.528 397.371 492.738 395.581 491.029V490.419L396.802 491.029C397.778 491.029 398.267 490.622 398.267 489.808C398.267 488.832 398.022 488.343 397.534 488.343C398.022 486.065 398.267 484.356 398.267 483.216L397.534 476.625C398.022 475.078 398.267 473.369 398.267 471.498H396.191V477.357C395.785 485.251 394.482 489.198 392.285 489.198C391.471 489.198 391.064 490.012 391.064 491.639H388.379L388.989 488.343V483.827C390.535 480.816 391.838 479.31 392.896 479.31L391.675 477.357V474.671L394.36 472.108C393.872 471.213 393.628 470.562 393.628 470.155L392.285 470.765H390.454V470.155C390.454 467.958 390.861 463.563 391.675 456.971H388.989V462.342C388.989 463.726 388.786 464.824 388.379 465.638L388.989 469.544V476.014C388.989 479.514 388.135 481.263 386.426 481.263V481.874C386.426 484.722 386.182 487.57 385.693 490.419L386.426 493.104C385.938 495.871 385.693 498.679 385.693 501.527H385.083C384.269 501.527 383.862 501.12 383.862 500.306V497.01C383.862 495.627 384.066 494.935 384.473 494.935C384.066 493.47 383.862 492.575 383.862 492.25C384.269 484.763 384.473 480.002 384.473 477.967C385.286 477.967 385.693 477.52 385.693 476.625V470.765H383.862C383.862 473.207 383.171 474.956 381.787 476.014V477.357C381.787 485.414 381.095 490.215 379.712 491.761L378.613 491.517V486.512H377.271V487.733H376.05V486.512C374.992 487.326 374.3 487.733 373.975 487.733H372.021V487.123C373.324 484.925 373.975 483.176 373.975 481.874V479.31L372.754 477.357V470.765L369.458 471.498H365.552C364.901 471.498 364.25 470.847 363.599 469.544V468.202C363.599 467.469 366.406 464.824 372.021 460.267C372.754 460.267 373.405 453.96 373.975 441.346C373.324 441.346 372.673 440.695 372.021 439.393C372.673 439.393 373.324 438.742 373.975 437.44V434.877L373.364 431.581H373.975C373.161 429.383 371.859 428.285 370.068 428.285C368.034 431.865 366.284 439.719 364.819 451.844L362.988 453.065L363.599 454.53C362.785 462.342 361.035 466.249 358.35 466.249V464.906H357.617C357.617 467.184 357.414 469.138 357.007 470.765L359.692 474.061C359.285 478.7 354.484 479.676 345.288 476.991C338.208 481.304 329.093 480.978 317.944 476.014ZM379.712 491.761C379.386 492.087 379.02 492.25 378.613 492.25V491.517L379.712 491.761ZM499.707 307.923H501.05V310.609H499.707V307.923ZM470.41 428.163V430.848H471.143V428.163H470.41ZM528.882 461.976H530.225C530.225 463.441 530.021 464.58 529.614 465.394L530.225 469.3C529.818 471.986 529.167 473.329 528.271 473.329H526.929V470.643C526.929 464.865 527.58 461.976 528.882 461.976ZM457.959 484.071L458.447 483.338H457.837C457.511 483.501 457.227 483.623 456.982 483.705L455.884 483.216V479.31H455.151C455.151 481.507 454.948 482.606 454.541 482.606L453.198 482.118V474.671C453.198 474.183 453.402 473.939 453.809 473.939C453.402 473.044 453.198 472.393 453.198 471.986L453.809 468.69C452.1 468.69 451.001 465.801 450.513 460.023L448.56 458.68L447.827 465.394L448.56 471.376C448.234 477.072 447.542 479.92 446.484 479.92H445.874V477.967C445.874 475.607 446.077 473.614 446.484 471.986C446.077 469.544 445.874 467.754 445.874 466.615C446.118 462.22 446.566 460.023 447.217 460.023L446.484 458.68C447.38 457.053 447.827 455.303 447.827 453.431V442.079C447.827 441.183 447.38 440.736 446.484 440.736C446.484 441.631 446.281 442.079 445.874 442.079L446.484 443.421C446.077 451.804 445.874 457.582 445.874 460.755C445.223 460.755 443.677 462.505 441.235 466.004H439.893C438.997 464.214 438.55 462.668 438.55 461.366C439.038 457.378 439.282 454.937 439.282 454.042C441.479 454.042 443.026 452.048 443.921 448.06C443.433 444.968 443.188 442.526 443.188 440.736V437.44C443.188 436.545 442.741 436.097 441.846 436.097H441.235C439.364 448.06 438.021 454.042 437.207 454.042C435.905 456.727 435.05 458.07 434.644 458.07L433.911 456.727V452.699H435.254L434.644 449.403C433.748 449.403 433.057 451.6 432.568 455.995L430.615 457.337V455.995C430.615 452.577 431.714 446.636 433.911 438.172V434.754L435.864 432.191V431.459L434.644 432.191V429.505C433.748 429.505 433.301 429.058 433.301 428.163V410.829C433.301 409.201 433.504 407.207 433.911 404.847C433.504 404.359 433.301 402.813 433.301 400.209C433.708 395.57 433.911 392.925 433.911 392.274L432.568 391.664H431.958C431.063 391.745 430.615 392.152 430.615 392.884C431.022 393.698 431.226 394.593 431.226 395.57H429.272C429.679 387.595 430.33 383.607 431.226 383.607V381.654C430.33 378.48 429.883 376.69 429.883 376.283V375.672C429.883 370.952 430.127 367.209 430.615 364.442C430.127 361.187 429.883 357.199 429.883 352.479V348.451C429.883 347.474 430.127 346.579 430.615 345.765L429.272 334.535C429.272 325.664 431.266 321.229 435.254 321.229C436.149 321.229 436.597 322.531 436.597 325.135H439.282C439.282 322.531 439.73 321.229 440.625 321.229H443.188C443.677 321.229 443.921 321.433 443.921 321.839L445.264 321.229L446.484 321.839C446.484 319.642 446.932 318.544 447.827 318.544C448.397 321.636 449.292 323.182 450.513 323.182C450.513 322.124 452.059 320.578 455.151 318.544L455.884 319.886V323.182H457.837C458.244 319.683 458.895 317.933 459.79 317.933C460.685 318.991 461.133 319.846 461.133 320.497C463.249 320.497 466.341 319.642 470.41 317.933C470.898 318.584 471.143 319.683 471.143 321.229H471.753L474.438 317.201L477.124 321.229H478.467V317.201C478.548 316.306 478.996 315.858 479.81 315.858H481.763L483.105 316.59C483.187 315.695 483.634 315.248 484.448 315.248H485.791C486.605 315.329 487.012 315.777 487.012 316.59H484.448V317.201C484.448 317.852 485.099 318.544 486.401 319.276L488.354 317.933H489.087L493.726 321.229H494.336L497.021 317.201L499.707 319.276C499.707 317.892 500.358 317.201 501.66 317.201C503.857 317.201 504.956 317.648 504.956 318.544L506.299 317.933C507.194 317.933 507.642 318.788 507.642 320.497L509.595 319.276C509.595 319.683 509.839 319.886 510.327 319.886C510.327 318.584 510.775 317.933 511.67 317.933C512.077 317.933 512.28 318.137 512.28 318.544L513.623 317.933C515.82 317.933 516.919 319.235 516.919 321.839C520.256 319.642 523.145 318.544 525.586 318.544H526.929C527.824 318.544 528.719 319.886 529.614 322.572L530.957 321.839H531.567V323.182C531.567 323.67 531.364 323.915 530.957 323.915C531.608 323.915 532.259 333.436 532.91 352.479C532.91 358.176 531.12 362.57 527.539 365.663H525.586C524.691 365.663 524.243 364.361 524.243 361.756L522.9 362.367C522.493 362.367 522.29 362.163 522.29 361.756C521.313 361.756 519.971 362.855 518.262 365.052C517.367 365.052 516.715 363.262 516.309 359.681H515.576C515.169 362.367 514.518 363.71 513.623 363.71H512.28C511.873 363.71 511.67 363.506 511.67 363.099C511.1 363.099 510.002 364.198 508.374 366.395C507.479 366.395 507.031 365.052 507.031 362.367C505.648 362.367 504.956 363.465 504.956 365.663H503.613C502.799 365.663 502.393 364.564 502.393 362.367C500.602 362.367 499.707 363.262 499.707 365.052H498.975C498.079 365.052 497.632 364.401 497.632 363.099C496.574 363.994 495.923 364.442 495.679 364.442L492.993 363.099L490.43 364.442C490.43 363.547 489.982 363.099 489.087 363.099H488.354C487.297 363.994 486.646 364.442 486.401 364.442C485.506 364.442 485.059 363.547 485.059 361.756H483.105C479.525 361.756 477.734 368.592 477.734 382.264C479.525 384.95 481.071 386.293 482.373 386.293V385.682C486.361 387.31 488.354 388.408 488.354 388.978L491.65 388.246H492.383V389.588H494.336C495.231 389.588 495.679 388.734 495.679 387.025L505.688 388.246C505.688 386.537 506.991 385.682 509.595 385.682L510.327 387.025L511.67 386.293C514.274 387.513 515.576 388.408 515.576 388.978V392.274H516.919C516.919 388.775 518.709 387.025 522.29 387.025C522.941 389.059 524.243 391.013 526.196 392.884C527.091 392.884 527.539 392.233 527.539 390.931H528.271C528.271 391.908 529.37 393.902 531.567 396.913C530.672 419.536 529.329 430.848 527.539 430.848C527.132 430.848 526.929 431.052 526.929 431.459C524.813 430.889 522.575 429.79 520.215 428.163V423.524H519.604C519.604 427.023 519.157 428.773 518.262 428.773C517.367 428.773 516.919 428.325 516.919 427.43V421.449L516.309 418.153H515.576C515.576 427.919 514.722 432.801 513.013 432.801C512.524 432.15 512.28 430.808 512.28 428.773L510.938 429.505L509.595 428.773C509.595 430.563 509.188 431.459 508.374 431.459H507.642C506.746 431.459 506.299 430.36 506.299 428.163H504.956C504.956 430.36 504.508 431.459 503.613 431.459C502.962 431.459 502.311 430.116 501.66 427.43L500.317 426.82C500.317 427.064 499.015 429.261 496.411 433.412C495.516 433.412 495.068 432.761 495.068 431.459C495.475 427.471 495.679 425.03 495.679 424.134H492.993C492.668 428.122 492.017 430.116 491.04 430.116H489.697V429.505C489.697 425.518 490.592 420.187 492.383 413.514C492.383 413.189 492.139 411.887 491.65 409.608C492.139 408.794 492.383 407.899 492.383 406.922C491.732 405.132 491.081 404.237 490.43 404.237V406.922C490.43 419.862 488.192 427.593 483.716 430.116C483.309 429.383 483.105 428.285 483.105 426.82H482.373C482.373 430.808 481.722 432.801 480.42 432.801C480.42 432.394 480.216 432.191 479.81 432.191L480.42 428.773V428.163C479.525 428.57 478.874 428.773 478.467 428.773V432.191L477.734 436.83H481.03C481.925 436.911 482.373 437.359 482.373 438.172C481.641 438.579 480.786 438.783 479.81 438.783C479.81 439.19 481.803 440.085 485.791 441.468V442.811L490.43 442.079V440.736L487.744 438.172L489.087 437.44C494.784 442.892 497.632 448.67 497.632 454.774C497.876 455.506 500.562 458.151 505.688 462.709V470.643H507.031L507.642 464.051V461.976L507.031 458.68C508.74 456.483 509.839 455.384 510.327 455.384H511.67C512.24 455.384 513.338 456.727 514.966 459.413V460.023C514.966 460.837 513.867 461.488 511.67 461.976C511.67 461.162 511.222 460.755 510.327 460.755V461.366C511.629 465.272 512.28 467.469 512.28 467.958H513.013C513.013 465.76 513.42 464.662 514.233 464.662H514.966C516.105 466.859 517 467.958 517.651 467.958C518.709 469.748 519.564 470.643 520.215 470.643C518.913 478.537 516.512 483.867 513.013 486.634C511.873 485.739 511.182 485.292 510.938 485.292H510.327V488.221L501.66 493.592C501.416 492.779 500.317 492.209 498.364 491.883L497.632 493.226L496.411 492.616H495.679V493.959L497.876 496.034L496.899 496.522H495.679V497.254L490.43 500.55C490.837 499.004 491.04 498.109 491.04 497.865C490.633 496.97 490.43 496.319 490.43 495.912L489.087 496.522C488.192 496.522 487.744 495.22 487.744 492.616H486.401C485.506 492.697 485.059 493.145 485.059 493.959V495.423L468.457 488.465V485.902H467.847C467.847 486.309 467.44 486.919 466.626 487.733L463.208 486.268V485.902C463.208 485.007 462.76 484.559 461.865 484.559H461.133L461.377 485.536L457.959 484.071ZM650.342 361.634C649.447 360.251 648.999 359.152 648.999 358.338H648.389C646.517 360.536 645.418 361.634 645.093 361.634C644.686 360.739 644.482 360.088 644.482 359.681H643.75C639.437 365.459 637.28 371.766 637.28 378.602V380.555C637.28 384.543 638.135 387.391 639.844 389.1V389.711C638.704 392.884 637.646 394.878 636.67 395.692C637.077 396.994 637.484 397.645 637.891 397.645L637.28 400.209C637.28 401.185 637.484 402.04 637.891 402.772C637.077 409.527 636.67 418.478 636.67 429.628V435.487L637.28 439.393C636.873 440.044 636.67 441.143 636.67 442.689V444.642H635.327V447.328C635.409 448.141 635.856 448.548 636.67 448.548C636.182 449.444 635.938 450.095 635.938 450.502L636.67 453.797C635.775 453.879 635.327 454.326 635.327 455.14V462.342C635.327 462.993 637.484 464.295 641.797 466.249L643.14 465.516C643.872 466.004 644.727 466.249 645.703 466.249H646.436C647.087 466.249 647.941 464.499 648.999 461L647.046 459.657C646.639 460.471 646.436 461.366 646.436 462.342H644.482V461.61C644.482 460.308 645.133 459.657 646.436 459.657V457.704H645.093V459.046H643.75V458.436C644.645 454.123 645.093 451.722 645.093 451.234C644.198 451.234 643.75 450.583 643.75 449.281C646.436 445.212 647.778 442.567 647.778 441.346H645.703V442.689H644.482V440.126C646.11 440.126 648.063 437.481 650.342 432.191C649.447 432.191 648.592 430.685 647.778 427.674H647.046C647.046 429.058 646.842 430.156 646.436 430.97L647.778 433.534C646.883 435.487 645.988 436.586 645.093 436.83H644.482L645.093 432.923C644.686 429.099 644.482 425.803 644.482 423.036V421.815C645.866 419.211 646.72 417.909 647.046 417.909C645.744 413.514 645.093 410.869 645.093 409.974C645.988 408.835 646.436 407.329 646.436 405.458C645.54 404.969 644.889 404.725 644.482 404.725C643.831 406.922 643.18 408.021 642.529 408.021H641.797V405.458C642.448 403.667 643.994 402.772 646.436 402.772C647.331 402.935 647.778 403.382 647.778 404.115C648.755 404.115 651.359 403.464 655.591 402.162C656.079 402.569 657.178 402.772 658.887 402.772C659.294 402.04 659.497 401.185 659.497 400.209V394.96C659.497 389.833 659.701 381.776 660.107 370.79C659.456 370.79 658.602 368.389 657.544 363.587C654.94 362.041 653.638 359.885 653.638 357.118H652.905L650.342 361.634ZM642.529 393.006C642.529 393.657 644.93 396.506 649.731 401.551L648.389 402.162C645.785 401.104 642.936 398.703 639.844 394.96V393.617C640.82 393.617 641.715 393.413 642.529 393.006ZM654.248 406.8V407.411L657.544 406.8C657.544 409.811 658.195 411.317 659.497 411.317H660.107L658.887 404.725H656.201C655.55 404.725 654.899 405.417 654.248 406.8ZM648.999 405.458V408.753H650.342V406.8C650.342 405.905 649.894 405.458 648.999 405.458ZM651.685 408.021V408.753C651.766 409.567 652.173 409.974 652.905 409.974V408.021H651.685ZM654.248 413.88C656.445 417.298 657.747 419.496 658.154 420.472H658.887L660.107 419.862C660.107 419.374 659.904 419.129 659.497 419.129L660.107 415.956V412.66H658.154C656.934 412.66 655.632 413.067 654.248 413.88ZM650.952 414.613C651.847 418.519 652.946 420.472 654.248 420.472C655.143 420.472 655.591 420.025 655.591 419.129C653.394 417.095 652.295 415.142 652.295 413.27C651.4 413.351 650.952 413.799 650.952 414.613ZM640.576 422.425H641.187L641.797 425.721C641.797 427.919 641.593 431.174 641.187 435.487C641.593 435.487 641.797 435.69 641.797 436.097H641.187C640.129 436.097 639.478 435.243 639.233 433.534C640.129 427.674 640.576 423.972 640.576 422.425ZM633.374 424.989V430.97C634.188 430.97 634.595 430.523 634.595 429.628V424.989H633.374ZM655.591 429.628V430.97L656.934 435.487C658.236 435.08 658.887 433.778 658.887 431.581C658.887 430.93 658.236 430.279 656.934 429.628H655.591ZM652.295 444.032V444.642C652.702 445.537 652.905 446.188 652.905 446.595C651.847 447.49 650.789 447.938 649.731 447.938V448.548C649.813 449.444 650.22 449.891 650.952 449.891C652.743 449.24 654.045 448.141 654.858 446.595C654.045 446.595 653.638 445.741 653.638 444.032H652.295ZM652.905 457.093L651.685 456.361C650.382 456.849 649.731 457.297 649.731 457.704L650.342 461H650.952C654.94 458.395 656.934 456.849 656.934 456.361V455.751C656.934 454.855 656.486 454.408 655.591 454.408L652.905 457.093ZM651.685 464.906H652.295C653.027 464.499 653.882 464.295 654.858 464.295L656.934 465.516H658.154C657.747 464.702 657.544 464.051 657.544 463.563C657.544 463.156 657.747 461.447 658.154 458.436C656.201 458.436 654.045 460.593 651.685 464.906ZM637.28 459.046H638.623V461.61H637.28V459.046ZM649.731 486.146V484.559C649.731 483.989 647.982 482.443 644.482 479.92V484.803L641.797 484.071V483.216C640.983 482.158 640.576 481.507 640.576 481.263V479.92H642.529V478.7C642.529 477.805 642.082 477.357 641.187 477.357H640.576C640.088 481.263 639.437 483.216 638.623 483.216H637.28V473.451H635.327V476.014H634.595C633.781 476.014 633.374 475.567 633.374 474.671C632.072 474.671 631.421 475.322 631.421 476.625C630.526 476.625 630.078 476.218 630.078 475.404L630.688 474.061C629.631 471.05 628.776 469.544 628.125 469.544L627.515 470.765L628.125 478.7C627.799 484.315 626.904 487.123 625.439 487.123C623.486 482.809 621.981 480.653 620.923 480.653C621.493 477.967 622.144 476.625 622.876 476.625C624.178 479.798 624.829 481.996 624.829 483.216H625.439L626.172 477.357C625.602 477.357 624.504 476.055 622.876 473.451L623.486 470.765V470.155H622.876C622.876 471.864 622.225 472.718 620.923 472.718C620.923 475.16 620.475 478.456 619.58 482.606C620.475 482.687 620.923 483.094 620.923 483.827V484.559C619.377 484.966 618.522 485.169 618.359 485.169C614.86 482.565 613.11 480.612 613.11 479.31L613.721 475.404C612.826 475.404 612.378 474.956 612.378 474.061V467.591C612.378 466.696 611.971 466.249 611.157 466.249H610.425L611.157 470.765L610.425 474.061L611.157 477.357L609.814 488.465H608.472C608.472 486.512 608.716 481.711 609.204 474.061L608.472 468.202C608.472 467.795 609.367 462.79 611.157 453.187C612.866 453.187 613.721 450.135 613.721 444.032V440.736C615.023 440.736 615.674 440.288 615.674 439.393V436.097L614.331 436.83C613.517 436.83 613.11 436.382 613.11 435.487V419.129C613.11 417.095 613.314 414.938 613.721 412.66C613.314 410.869 613.11 409.12 613.11 407.411C613.517 403.504 613.721 401.104 613.721 400.209L612.378 399.598H611.768L610.425 400.209L611.157 401.551V404.725C611.157 405.213 610.913 405.458 610.425 405.458C610.425 405.864 610.669 406.068 611.157 406.068C611.157 406.556 610.913 407.207 610.425 408.021L611.157 412.66C611.157 414.613 610.506 416.566 609.204 418.519V424.378L608.472 429.017C610.262 429.18 611.157 429.831 611.157 430.97C611.157 432.028 610.913 433.737 610.425 436.097C610.913 440.573 611.157 443.218 611.157 444.032C611.157 447.206 609.611 453.513 606.519 462.953C606.193 466.452 605.542 468.202 604.565 468.202H603.223V465.516C603.223 457.704 603.914 453.797 605.298 453.797C605.298 454.204 605.501 454.408 605.908 454.408C605.908 449.199 607.007 446.595 609.204 446.595V445.253C609.204 443.299 608.757 441.59 607.861 440.126C608.757 436.626 609.204 433.981 609.204 432.191V429.628H608.472C608.472 432.313 607.821 434.266 606.519 435.487V438.172C606.519 438.579 606.763 438.783 607.251 438.783C606.356 443.015 605.257 446.921 603.955 450.502V451.234H602.612L605.908 426.332V423.036C605.908 421.001 605.705 418.845 605.298 416.566L606.519 405.458L604.565 404.115H603.955V419.129C603.955 425.152 603.304 428.854 602.002 430.238V432.191C602.002 441.468 601.107 446.921 599.316 448.548H598.096C598.91 440.817 599.316 434.51 599.316 429.628C598.258 430.523 597.404 430.97 596.753 430.97L597.363 432.191C596.549 434.388 595.247 435.487 593.457 435.487V436.097L594.067 439.393C592.765 439.637 592.114 441.387 592.114 444.642V449.281C592.114 450.095 591.707 450.502 590.894 450.502L590.161 449.281V442.079L592.114 429.017V427.674H591.504V429.628H590.161C590.161 427.756 589.958 425.355 589.551 422.425C589.958 415.02 590.161 407.818 590.161 400.819C590.161 400.412 590.405 400.209 590.894 400.209C590.405 399.313 590.161 398.662 590.161 398.255C590.649 396.709 590.894 395.855 590.894 395.692C590.405 394.797 590.161 394.105 590.161 393.617C590.161 393.21 590.405 393.006 590.894 393.006L590.161 388.49V367.494C590.161 360.658 592.806 352.154 598.096 341.981C604.606 335.064 607.861 331.361 607.861 330.873H609.204V332.948H611.157C611.157 331.727 612.215 330.628 614.331 329.652H615.063C615.959 329.652 616.406 330.303 616.406 331.605H617.017C617.017 330.303 618.97 327.007 622.876 321.717C623.283 323.101 623.73 323.793 624.219 323.793C626.172 322.572 629.875 321.473 635.327 320.497C635.327 319.195 635.775 318.544 636.67 318.544L639.233 321.107H640.576C640.576 319.805 640.983 319.154 641.797 319.154C642.692 319.154 643.14 320.008 643.14 321.717H643.75C646.598 320.008 648.145 318.503 648.389 317.201H650.952C651.847 317.201 652.295 318.055 652.295 319.764L656.934 319.154C656.934 320.456 657.992 321.107 660.107 321.107C660.107 320.13 660.352 319.276 660.84 318.544L668.652 321.717C669.385 321.31 670.239 321.107 671.216 321.107C671.216 322.653 673.617 323.752 678.418 324.403C680.615 327.007 683.219 328.309 686.23 328.309V332.215C687.207 332.215 688.102 332.46 688.916 332.948V330.873H689.526C692.131 332.582 693.88 335.226 694.775 338.807C698.682 340.598 700.635 343.853 700.635 348.573L701.978 347.962C703.687 349.671 704.989 352.723 705.884 357.118C705.477 358.827 705.273 360.332 705.273 361.634L706.494 361.024H707.227L707.837 366.883C707.837 370.22 707.633 373.272 707.227 376.039C707.633 380.596 707.837 385.601 707.837 391.053V396.913C707.837 397.401 707.633 397.645 707.227 397.645L707.837 398.866V400.209C707.837 400.615 707.633 400.819 707.227 400.819C707.227 401.307 707.43 401.551 707.837 401.551L707.227 409.364V417.176C707.227 418.153 707.43 419.048 707.837 419.862C707.43 420.594 707.227 421.449 707.227 422.425C707.227 424.46 707.43 426.657 707.837 429.017C707.43 436.748 706.779 441.102 705.884 442.079C706.779 442.079 707.227 442.73 707.227 444.032C707.227 445.334 706.982 446.839 706.494 448.548C706.982 450.827 707.227 453.024 707.227 455.14V456.361C707.227 456.849 706.982 457.093 706.494 457.093C706.494 457.5 706.738 457.704 707.227 457.704C706.25 468.202 704.948 473.451 703.32 473.451C702.995 478.252 702.344 480.653 701.367 480.653H700.635V474.061H698.071V471.498L698.682 470.155C697.786 470.155 697.135 467.551 696.729 462.342C697.705 462.342 698.6 459.494 699.414 453.797C700.228 453.797 700.879 451.844 701.367 447.938V445.985H700.635C700.635 448.589 699.984 449.891 698.682 449.891C698.682 450.298 698.926 450.502 699.414 450.502C698.519 453.431 696.769 455.628 694.165 457.093C694.165 458.802 693.921 459.657 693.433 459.657C693.433 459.901 693.677 460.796 694.165 462.342C693.677 467.795 693.433 470.847 693.433 471.498L694.165 474.671C692.375 474.834 691.479 476.584 691.479 479.92C692.375 479.92 692.822 481.223 692.822 483.827H690.869V487.123C689.16 488.994 688.306 490.296 688.306 491.029L688.916 494.325C688.916 497.417 687.614 500.469 685.01 503.48C681.104 502.585 679.15 501.486 679.15 500.184V495.668C679.15 491.761 677.808 489.116 675.122 487.733C676.099 484.722 676.994 483.216 677.808 483.216C677.808 483.623 678.011 483.827 678.418 483.827C678.906 483.013 679.15 482.362 679.15 481.874V477.357H678.418V481.263H677.075C677.075 479.554 676.424 478.7 675.122 478.7H674.512L673.169 485.78C673.169 487.001 674.268 488.75 676.465 491.029L675.122 491.761L673.901 491.029C673.901 491.599 673.698 492.005 673.291 492.25L672.314 492.005C672.07 491.273 671.948 489.849 671.948 487.733H671.216C671.216 489.116 670.565 489.808 669.263 489.808V491.151L649.731 486.146ZM748.486 310.365H749.829V312.928H748.486V310.365ZM750.317 494.935C750.643 493.714 750.887 492.209 751.05 490.419L749.829 489.686C747.469 490.5 745.841 491.517 744.946 492.738L742.017 491.639V487.123L741.406 483.949C743.115 484.356 743.97 485.21 743.97 486.512H744.58C744.58 485.129 745.231 483.379 746.533 481.263V480.653C745.475 481.548 744.824 481.996 744.58 481.996V481.263L742.017 482.606C742.017 482.036 741.366 481.385 740.063 480.653C740.063 481.385 739.209 482.24 737.5 483.216C735.791 481.263 734.937 479.758 734.937 478.7C735.343 477.967 735.547 477.316 735.547 476.747C734.57 476.747 733.919 474.387 733.594 469.667C736.523 469.667 738.68 466.655 740.063 460.633C737.052 459.657 735.547 458.762 735.547 457.948C737.256 455.913 738.558 452.048 739.453 446.351H740.063C740.959 446.351 741.406 447.206 741.406 448.915H742.017C742.912 448.915 743.359 448.508 743.359 447.694C743.359 444.846 743.563 440.492 743.97 434.632C742.261 435.283 741.406 436.382 741.406 437.928H740.063V435.365C740.063 434.877 740.267 434.632 740.674 434.632C740.674 434.225 740.47 434.022 740.063 434.022L741.406 422.425V421.693H740.674C740.674 423.89 740.023 424.989 738.721 424.989C738.721 431.906 737.866 435.365 736.157 435.365C735.669 431.54 734.814 428.936 733.594 427.552C734.001 424.623 734.204 422.263 734.204 420.472V419.129C733.39 419.129 732.983 418.926 732.983 418.519V415.223H731.03V415.956H729.688L730.42 411.439L729.688 404.847C730.583 404.847 731.03 404.44 731.03 403.627V401.673C729.972 402.569 729.321 403.016 729.077 403.016L726.514 396.546H725.781V394.593C725.781 392.315 725.374 387.106 724.561 378.968H723.828C723.828 380.27 723.421 380.921 722.607 380.921L721.997 379.701V370.545C719.8 370.545 718.701 368.836 718.701 365.419C719.108 363.14 719.312 361.187 719.312 359.559C718.009 357.199 717.358 354.391 717.358 351.136L716.138 351.747H715.527V346.62C713.737 341.574 712.842 337.709 712.842 335.023C712.435 335.023 712.231 334.372 712.231 333.07V325.868C712.476 325.054 712.923 324.647 713.574 324.647H714.795V325.868H716.138L718.701 321.961C719.108 322.613 719.312 323.915 719.312 325.868H721.265C721.753 322.043 722.404 320.13 723.218 320.13H727.124V322.694L733.594 321.961H737.5L740.674 318.788C741.569 321.066 742.871 322.775 744.58 323.915H745.312C745.719 321.392 746.33 320.13 747.144 320.13C748.039 320.13 748.486 320.985 748.486 322.694H751.05C751.05 320.497 751.497 319.398 752.393 319.398C755.811 322.979 758.171 327.088 759.473 331.727C760.368 334.006 761.019 337.017 761.426 340.76C761.833 340.76 762.036 341.004 762.036 341.493V342.713C762.036 343.202 761.833 343.446 761.426 343.446C762.321 344.667 762.972 347.23 763.379 351.136L762.769 357.606C764.396 360.129 766.349 364.157 768.628 369.691H769.238L768.628 372.987C768.628 373.719 769.035 375.428 769.849 378.114L768.628 378.846C769.035 380.148 769.442 380.799 769.849 380.799C769.849 381.288 769.645 381.898 769.238 382.63C771.354 396.628 772.412 404.196 772.412 405.336L774.365 407.899C774.365 409.201 774.162 409.852 773.755 409.852C774.65 414.654 775.098 418.112 775.098 420.228H775.708C776.522 420.228 776.929 419.821 776.929 419.007V417.054C776.929 416.078 776.725 415.183 776.318 414.369C777.376 414.369 778.475 408.143 779.614 395.692C778.719 392.844 778.271 390.891 778.271 389.833C778.271 388.205 779.777 385.804 782.788 382.63C781.974 381.572 781.567 380.962 781.567 380.799C782.869 380.311 783.521 379.009 783.521 376.893V372.987C782.625 372.987 780.428 372.336 776.929 371.034V369.691C780.347 370.261 782.747 371.156 784.131 372.377C788.444 354.798 791.252 340.191 792.554 328.553C794.995 324.077 796.704 321.473 797.681 320.741H802.197C803.092 320.741 803.54 321.595 803.54 323.304H804.883C805.697 323.304 806.104 322.857 806.104 321.961L807.446 322.694L810.01 319.398C810.417 320.049 810.62 321.351 810.62 323.304H817.09C817.904 323.304 818.555 322.002 819.043 319.398L822.339 320.13H822.949L826.855 319.398L829.419 320.741C830.314 320.334 830.965 320.13 831.372 320.13C832.593 320.13 834.546 320.985 837.231 322.694V321.351H839.185C840.243 321.351 840.894 322.857 841.138 325.868C841.138 331.157 832.715 370.464 815.869 443.788C811.719 465.353 808.911 476.136 807.446 476.136C807.446 477.031 806.999 477.479 806.104 477.479L806.714 478.7V483.216C803.947 494.935 802.238 500.794 801.587 500.794C801.587 499.492 800.732 498.841 799.023 498.841C798.617 501.201 798.413 503.114 798.413 504.579H797.07C796.175 504.579 795.728 504.172 795.728 503.358V497.499L796.46 496.156L793.774 495.545C792.635 498.557 791.781 500.062 791.211 500.062L791.821 503.358C791.659 510.275 791.048 513.734 789.99 513.734C789.502 512.92 789.258 512.269 789.258 511.781C789.258 511.455 789.502 509.706 789.99 506.532H789.258C788.607 506.532 787.752 507.834 786.694 510.438C787.59 511.822 788.037 512.92 788.037 513.734C787.223 514.141 786.572 514.344 786.084 514.344L786.694 515.687L780.225 518.373C780.143 518.291 779.94 518.251 779.614 518.251H778.882L774.365 520.814H771.802V519.471C774.65 519.471 777.01 517.966 778.882 514.955V513.002C778.882 510.886 778.231 509.828 776.929 509.828V509.217C776.929 508.892 777.376 507.142 778.271 503.968L771.802 509.828L771.191 508.485V507.875C772.9 506.166 773.755 504.416 773.755 502.626V500.062H773.145V501.405H771.802V500.794C772.209 499.981 772.412 499.33 772.412 498.841L771.191 498.109C769.889 500.225 768.913 501.486 768.262 501.893L766.797 501.405L765.942 500.794C766.593 499.004 767.244 498.109 767.896 498.109L767.285 496.888V493.592C766.878 493.592 766.227 493.389 765.332 492.982V493.592C765.739 494.488 765.942 495.139 765.942 495.545L763.379 497.499H762.769L761.426 496.888L762.036 493.592V492.372C759.513 493.836 758.252 494.691 758.252 494.935C758.252 495.993 758.171 497.01 758.008 497.987L754.59 496.644L751.782 495.545L750.317 494.935ZM731.641 348.573V351.747H734.204L733.594 348.573H731.641ZM780.225 388.49V391.786C781.12 391.786 781.567 391.338 781.567 390.443V387.269C780.672 387.432 780.225 387.839 780.225 388.49ZM813.306 432.801V437.928L812.573 441.224H814.526L815.869 433.412L813.306 432.801ZM808.057 460.633V463.807H808.667V460.633H808.057ZM800.977 465.76L800.244 469.056V471.009H800.977L801.587 467.713V465.76H800.977ZM805.493 466.371C803.784 470.196 802.93 474.305 802.93 478.7V479.432H803.54C803.54 478.13 804.191 477.479 805.493 477.479C805.493 474.956 805.697 471.498 806.104 467.103V466.371H805.493ZM917.676 307.923H919.019V310.609H917.676V307.923ZM888.379 428.163V430.848H889.111V428.163H888.379ZM946.851 461.976H948.193C948.193 463.441 947.99 464.58 947.583 465.394L948.193 469.3C947.786 471.986 947.135 473.329 946.24 473.329H944.897V470.643C944.897 464.865 945.549 461.976 946.851 461.976ZM875.928 484.071L876.416 483.338H875.806C875.48 483.501 875.195 483.623 874.951 483.705L873.853 483.216V479.31H873.12C873.12 481.507 872.917 482.606 872.51 482.606L871.167 482.118V474.671C871.167 474.183 871.37 473.939 871.777 473.939C871.37 473.044 871.167 472.393 871.167 471.986L871.777 468.69C870.068 468.69 868.97 465.801 868.481 460.023L866.528 458.68L865.796 465.394L866.528 471.376C866.203 477.072 865.511 479.92 864.453 479.92H863.843V477.967C863.843 475.607 864.046 473.614 864.453 471.986C864.046 469.544 863.843 467.754 863.843 466.615C864.087 462.22 864.535 460.023 865.186 460.023L864.453 458.68C865.348 457.053 865.796 455.303 865.796 453.431V442.079C865.796 441.183 865.348 440.736 864.453 440.736C864.453 441.631 864.25 442.079 863.843 442.079L864.453 443.421C864.046 451.804 863.843 457.582 863.843 460.755C863.192 460.755 861.646 462.505 859.204 466.004H857.861C856.966 464.214 856.519 462.668 856.519 461.366C857.007 457.378 857.251 454.937 857.251 454.042C859.448 454.042 860.994 452.048 861.89 448.06C861.401 444.968 861.157 442.526 861.157 440.736V437.44C861.157 436.545 860.71 436.097 859.814 436.097H859.204C857.332 448.06 855.99 454.042 855.176 454.042C853.874 456.727 853.019 458.07 852.612 458.07L851.88 456.727V452.699H853.223L852.612 449.403C851.717 449.403 851.025 451.6 850.537 455.995L848.584 457.337V455.995C848.584 452.577 849.683 446.636 851.88 438.172V434.754L853.833 432.191V431.459L852.612 432.191V429.505C851.717 429.505 851.27 429.058 851.27 428.163V410.829C851.27 409.201 851.473 407.207 851.88 404.847C851.473 404.359 851.27 402.813 851.27 400.209C851.676 395.57 851.88 392.925 851.88 392.274L850.537 391.664H849.927C849.032 391.745 848.584 392.152 848.584 392.884C848.991 393.698 849.194 394.593 849.194 395.57H847.241C847.648 387.595 848.299 383.607 849.194 383.607V381.654C848.299 378.48 847.852 376.69 847.852 376.283V375.672C847.852 370.952 848.096 367.209 848.584 364.442C848.096 361.187 847.852 357.199 847.852 352.479V348.451C847.852 347.474 848.096 346.579 848.584 345.765L847.241 334.535C847.241 325.664 849.235 321.229 853.223 321.229C854.118 321.229 854.565 322.531 854.565 325.135H857.251C857.251 322.531 857.699 321.229 858.594 321.229H861.157C861.646 321.229 861.89 321.433 861.89 321.839L863.232 321.229L864.453 321.839C864.453 319.642 864.901 318.544 865.796 318.544C866.366 321.636 867.261 323.182 868.481 323.182C868.481 322.124 870.028 320.578 873.12 318.544L873.853 319.886V323.182H875.806C876.213 319.683 876.864 317.933 877.759 317.933C878.654 318.991 879.102 319.846 879.102 320.497C881.217 320.497 884.31 319.642 888.379 317.933C888.867 318.584 889.111 319.683 889.111 321.229H889.722L892.407 317.201L895.093 321.229H896.436V317.201C896.517 316.306 896.965 315.858 897.778 315.858H899.731L901.074 316.59C901.156 315.695 901.603 315.248 902.417 315.248H903.76C904.574 315.329 904.98 315.777 904.98 316.59H902.417V317.201C902.417 317.852 903.068 318.544 904.37 319.276L906.323 317.933H907.056L911.694 321.229H912.305L914.99 317.201L917.676 319.276C917.676 317.892 918.327 317.201 919.629 317.201C921.826 317.201 922.925 317.648 922.925 318.544L924.268 317.933C925.163 317.933 925.61 318.788 925.61 320.497L927.563 319.276C927.563 319.683 927.808 319.886 928.296 319.886C928.296 318.584 928.743 317.933 929.639 317.933C930.046 317.933 930.249 318.137 930.249 318.544L931.592 317.933C933.789 317.933 934.888 319.235 934.888 321.839C938.224 319.642 941.113 318.544 943.555 318.544H944.897C945.793 318.544 946.688 319.886 947.583 322.572L948.926 321.839H949.536V323.182C949.536 323.67 949.333 323.915 948.926 323.915C949.577 323.915 950.228 333.436 950.879 352.479C950.879 358.176 949.089 362.57 945.508 365.663H943.555C942.66 365.663 942.212 364.361 942.212 361.756L940.869 362.367C940.462 362.367 940.259 362.163 940.259 361.756C939.282 361.756 937.939 362.855 936.23 365.052C935.335 365.052 934.684 363.262 934.277 359.681H933.545C933.138 362.367 932.487 363.71 931.592 363.71H930.249C929.842 363.71 929.639 363.506 929.639 363.099C929.069 363.099 927.97 364.198 926.343 366.395C925.448 366.395 925 365.052 925 362.367C923.617 362.367 922.925 363.465 922.925 365.663H921.582C920.768 365.663 920.361 364.564 920.361 362.367C918.571 362.367 917.676 363.262 917.676 365.052H916.943C916.048 365.052 915.601 364.401 915.601 363.099C914.543 363.994 913.892 364.442 913.647 364.442L910.962 363.099L908.398 364.442C908.398 363.547 907.951 363.099 907.056 363.099H906.323C905.265 363.994 904.614 364.442 904.37 364.442C903.475 364.442 903.027 363.547 903.027 361.756H901.074C897.493 361.756 895.703 368.592 895.703 382.264C897.493 384.95 899.04 386.293 900.342 386.293V385.682C904.329 387.31 906.323 388.408 906.323 388.978L909.619 388.246H910.352V389.588H912.305C913.2 389.588 913.647 388.734 913.647 387.025L923.657 388.246C923.657 386.537 924.959 385.682 927.563 385.682L928.296 387.025L929.639 386.293C932.243 387.513 933.545 388.408 933.545 388.978V392.274H934.888C934.888 388.775 936.678 387.025 940.259 387.025C940.91 389.059 942.212 391.013 944.165 392.884C945.06 392.884 945.508 392.233 945.508 390.931H946.24C946.24 391.908 947.339 393.902 949.536 396.913C948.641 419.536 947.298 430.848 945.508 430.848C945.101 430.848 944.897 431.052 944.897 431.459C942.782 430.889 940.544 429.79 938.184 428.163V423.524H937.573C937.573 427.023 937.126 428.773 936.23 428.773C935.335 428.773 934.888 428.325 934.888 427.43V421.449L934.277 418.153H933.545C933.545 427.919 932.69 432.801 930.981 432.801C930.493 432.15 930.249 430.808 930.249 428.773L928.906 429.505L927.563 428.773C927.563 430.563 927.157 431.459 926.343 431.459H925.61C924.715 431.459 924.268 430.36 924.268 428.163H922.925C922.925 430.36 922.477 431.459 921.582 431.459C920.931 431.459 920.28 430.116 919.629 427.43L918.286 426.82C918.286 427.064 916.984 429.261 914.38 433.412C913.485 433.412 913.037 432.761 913.037 431.459C913.444 427.471 913.647 425.03 913.647 424.134H910.962C910.636 428.122 909.985 430.116 909.009 430.116H907.666V429.505C907.666 425.518 908.561 420.187 910.352 413.514C910.352 413.189 910.107 411.887 909.619 409.608C910.107 408.794 910.352 407.899 910.352 406.922C909.701 405.132 909.049 404.237 908.398 404.237V406.922C908.398 419.862 906.16 427.593 901.685 430.116C901.278 429.383 901.074 428.285 901.074 426.82H900.342C900.342 430.808 899.691 432.801 898.389 432.801C898.389 432.394 898.185 432.191 897.778 432.191L898.389 428.773V428.163C897.493 428.57 896.842 428.773 896.436 428.773V432.191L895.703 436.83H898.999C899.894 436.911 900.342 437.359 900.342 438.172C899.609 438.579 898.755 438.783 897.778 438.783C897.778 439.19 899.772 440.085 903.76 441.468V442.811L908.398 442.079V440.736L905.713 438.172L907.056 437.44C912.752 442.892 915.601 448.67 915.601 454.774C915.845 455.506 918.53 458.151 923.657 462.709V470.643H925L925.61 464.051V461.976L925 458.68C926.709 456.483 927.808 455.384 928.296 455.384H929.639C930.208 455.384 931.307 456.727 932.935 459.413V460.023C932.935 460.837 931.836 461.488 929.639 461.976C929.639 461.162 929.191 460.755 928.296 460.755V461.366C929.598 465.272 930.249 467.469 930.249 467.958H930.981C930.981 465.76 931.388 464.662 932.202 464.662H932.935C934.074 466.859 934.969 467.958 935.62 467.958C936.678 469.748 937.533 470.643 938.184 470.643C936.882 478.537 934.481 483.867 930.981 486.634C929.842 485.739 929.15 485.292 928.906 485.292H928.296V488.221L919.629 493.592C919.385 492.779 918.286 492.209 916.333 491.883L915.601 493.226L914.38 492.616H913.647V493.959L915.845 496.034L914.868 496.522H913.647V497.254L908.398 500.55C908.805 499.004 909.009 498.109 909.009 497.865C908.602 496.97 908.398 496.319 908.398 495.912L907.056 496.522C906.16 496.522 905.713 495.22 905.713 492.616H904.37C903.475 492.697 903.027 493.145 903.027 493.959V495.423L886.426 488.465V485.902H885.815C885.815 486.309 885.409 486.919 884.595 487.733L881.177 486.268V485.902C881.177 485.007 880.729 484.559 879.834 484.559H879.102L879.346 485.536L875.928 484.071ZM1026.2 500.306C1024.73 497.295 1023.63 495.708 1022.9 495.545C1021.84 496.197 1020.17 496.848 1017.9 497.499V496.888C1020.01 494.61 1021.07 493.145 1021.07 492.494C1021.88 492.494 1022.29 491.68 1022.29 490.052C1021.31 490.052 1020.46 488.181 1019.73 484.437C1020.78 483.623 1021.64 483.216 1022.29 483.216V481.874H1019.73V480.043H1020.34L1021.68 480.653L1022.29 479.432V471.986L1022.9 470.765L1021.68 470.155H1018.51L1019.73 467.591C1017.29 467.591 1016.06 467.184 1016.06 466.371C1018.1 465.882 1019.12 465.272 1019.12 464.54C1017.9 464.54 1017.29 464.092 1017.29 463.197V462.586C1017.37 461.773 1017.77 461.366 1018.51 461.366L1017.9 458.314L1019.12 456.361V455.751L1017.29 453.309V452.699L1017.9 451.478C1017.08 451.478 1016.67 451.03 1016.67 450.135V449.525L1017.9 447.694V447.084C1017.16 447.084 1016.15 446.473 1014.84 445.253C1009.31 448.996 1006.18 451.885 1005.44 453.919V455.14C1006.26 455.14 1007.52 455.791 1009.23 457.093V455.14H1008.01V453.309C1008.09 452.495 1008.5 452.088 1009.23 452.088C1010.04 454.53 1010.86 455.751 1011.67 455.751V453.919H1012.89C1013.7 454.001 1014.11 454.408 1014.11 455.14V455.751C1011.83 458.029 1010.41 461.366 1009.84 465.76L1011.67 466.981L1012.89 466.371C1013.62 466.778 1014.48 466.981 1015.45 466.981V467.591C1013.75 468.568 1012.89 469.829 1012.89 471.376L1008.62 474.427C1008.05 477.52 1005.97 480.653 1002.39 483.827V485.047H1003C1003.82 484.641 1004.43 484.437 1004.83 484.437L1005.44 485.658C1004.79 485.658 1003.78 487.733 1002.39 491.883L998.608 491.761C997.55 491.436 996.94 489.808 996.777 486.878C996.37 486.878 996.167 486.675 996.167 486.268V485.658C997.144 482.403 998.364 479.717 999.829 477.601V469.422C997.388 467.795 996.167 463.685 996.167 457.093H995.557L994.824 461.366L995.557 466.981C995.231 472.759 994.58 475.648 993.604 475.648H992.993V473.817L993.604 466.371L992.383 465.76C994.01 457.622 994.824 452.658 994.824 450.868V447.694L995.557 446.473L994.214 445.863C993.4 445.944 992.993 446.351 992.993 447.084V456.361C991.284 457.826 990.267 459.697 989.941 461.976C988.477 462.383 987.622 462.586 987.378 462.586C986.157 460.552 985.547 459.128 985.547 458.314C986.361 453.594 988.029 450.461 990.552 448.915L991.162 445.253C990.348 445.253 989.941 444.805 989.941 443.91C990.348 441.061 990.552 438.783 990.552 437.074V436.463C989.901 436.463 989.29 437.114 988.721 438.417V440.858C988.721 444.357 987.052 448.915 983.716 454.53V455.14H981.763V448.915H981.152C981.152 450.624 980.339 453.35 978.711 457.093V459.535C978.711 462.709 978.914 465.598 979.321 468.202L978.101 476.991H976.88C976.88 475.526 977.083 471.172 977.49 463.929L976.88 458.314L979.321 445.863V442.079C977.856 442.811 975.985 448.223 973.706 458.314H971.875V455.751C971.875 448.345 972.485 444.642 973.706 444.642C973.706 445.049 973.91 445.253 974.316 445.253C974.723 440.695 975.374 437.969 976.27 437.074V434.632C976.27 433.819 975.822 433.412 974.927 433.412C974.927 436.748 974.113 438.417 972.485 438.417V442.079H971.265C972.16 432.476 972.974 427.512 973.706 427.186V420.961C973.706 420.147 973.299 419.74 972.485 419.74H971.875C971.875 420.309 971.468 421.123 970.654 422.181V424.012C970.654 432.883 969.8 438.091 968.091 439.637H966.87C967.684 432.232 968.091 426.21 968.091 421.571C967.114 422.385 966.3 422.792 965.649 422.792V423.402H966.87V424.623C964.673 426.332 963.208 427.186 962.476 427.186V427.796L963.208 430.848C961.906 431.092 961.255 432.761 961.255 435.853V440.858H960.645C959.831 440.858 959.424 440.451 959.424 439.637C960.238 430.523 960.645 423.89 960.645 419.74H960.034V402.284H961.255V403.504C962.069 403.504 962.476 403.098 962.476 402.284V399.842H960.645C960.645 397.32 961.499 396.058 963.208 396.058V395.448C962.313 395.448 961.865 395.244 961.865 394.837L960.645 395.448H960.034C960.034 393.983 959.831 392.925 959.424 392.274C959.831 388.042 960.034 384.746 960.034 382.386V377.381C961.662 377.381 962.72 374.289 963.208 368.104V366.151H962.476C962.476 368.023 961.865 371.359 960.645 376.161H959.424V370.545C959.424 367.941 959.627 364.849 960.034 361.268L959.424 357.484L960.034 354.432C960.034 353.863 959.831 351.787 959.424 348.207C959.424 329.082 960.441 319.52 962.476 319.52L963.208 320.741V323.915H965.039C965.365 320.985 965.975 319.52 966.87 319.52C967.684 319.52 968.091 320.781 968.091 323.304H970.044C970.044 320.375 971.916 318.91 975.659 318.91H978.101C979.647 321.026 980.664 322.084 981.152 322.084C981.803 320.375 982.454 319.52 983.105 319.52C983.919 319.52 984.326 320.578 984.326 322.694H986.157C986.157 319.764 987.622 318.299 990.552 318.299H991.162V320.13H992.993L994.824 318.91H996.777C997.184 318.91 997.388 319.113 997.388 319.52L998.608 318.91H999.219C999.463 318.91 1000.07 319.317 1001.05 320.13H1002.39C1002.39 318.91 1002.8 318.299 1003.61 318.299C1004.43 318.299 1004.83 318.91 1004.83 320.13H1007.28C1007.28 318.91 1007.72 318.299 1008.62 318.299C1009.43 318.299 1009.84 319.113 1009.84 320.741H1010.45L1012.89 318.91H1013.5C1014.48 318.91 1015.33 319.113 1016.06 319.52C1016.88 319.113 1019.16 318.706 1022.9 318.299C1023.31 318.95 1023.51 320.212 1023.51 322.084H1025.34C1025.59 322.084 1026.24 321.636 1027.29 320.741V321.351L1030.96 320.13C1033.48 320.293 1036.37 321.555 1039.62 323.915V322.084H1040.97C1043.33 323.467 1046.22 324.688 1049.63 325.746C1049.63 327.455 1050.9 328.919 1053.42 330.14V328.919H1054.03C1054.19 332.175 1054.8 333.802 1055.86 333.802C1055.86 331.768 1056.27 330.751 1057.08 330.751H1057.69C1058.5 330.832 1058.91 331.239 1058.91 331.971V333.192C1058.91 333.599 1058.71 333.802 1058.3 333.802C1061.64 337.464 1063.31 339.743 1063.31 340.638C1063.31 341.289 1063.71 342.958 1064.53 345.643L1065.75 345.033H1066.48V349.427C1067.7 349.427 1068.31 349.834 1068.31 350.648V356.263C1069.94 360.088 1070.75 362.57 1070.75 363.71V367.494C1070.75 369.854 1070.55 371.278 1070.14 371.766C1070.55 373.963 1070.75 375.835 1070.75 377.381V380.555C1070.75 387.717 1068.68 396.628 1064.53 407.289C1059.89 412.985 1057.41 416.932 1057.08 419.129C1057.49 419.943 1057.89 421.774 1058.3 424.623L1059.64 424.012H1060.86C1060.86 426.128 1061.27 427.186 1062.08 427.186C1062.08 425.477 1062.9 424.216 1064.53 423.402C1065.18 423.402 1065.83 424.053 1066.48 425.355L1063.92 436.463H1063.31C1062.08 434.429 1061.47 433.005 1061.47 432.191C1062.21 432.191 1063.02 430.93 1063.92 428.407L1062.7 427.796C1061.23 430.319 1060.21 431.581 1059.64 431.581C1059.64 430.685 1059.2 430.238 1058.3 430.238V431.581C1058.3 432.394 1059.56 435.08 1062.08 439.637C1061.11 442.486 1060.5 443.91 1060.25 443.91C1061.07 445.293 1061.47 446.555 1061.47 447.694V448.915C1061.47 449.728 1060.62 450.135 1058.91 450.135V454.53C1059.81 456.239 1060.46 457.093 1060.86 457.093C1060.05 462.302 1059.64 465.801 1059.64 467.591C1061.27 467.591 1062.08 469.667 1062.08 473.817L1060.25 475.038C1058.54 474.224 1057.69 473.614 1057.69 473.207L1056.47 473.817L1055.25 473.207V477.601C1053.54 477.601 1052.69 478.415 1052.69 480.043L1053.42 483.216C1053.42 489.401 1052.56 492.494 1050.85 492.494L1050.24 491.273V490.663L1050.85 487.489C1050.04 487.489 1049.63 486.878 1049.63 485.658C1049.63 482.565 1050.45 480.49 1052.08 479.432C1052.97 473.817 1053.42 470.277 1053.42 468.812V466.371C1054.23 465.313 1054.64 464.702 1054.64 464.54L1053.42 463.929C1052.85 466.778 1052.2 468.202 1051.46 468.202H1050.24V466.981H1049.63L1049.02 470.155V471.376H1050.24V472.596L1049.02 474.427V476.38L1047.8 487.489H1046.58L1045.85 484.437V483.216L1046.58 478.822C1046.09 478.822 1045.85 478.618 1045.85 478.211L1044.63 478.822H1044.02C1042.8 478.822 1042.19 477.56 1042.19 475.038C1043.41 475.038 1044.02 473.614 1044.02 470.765V467.591H1043.41V469.422L1040.36 468.812L1039.62 470.155C1039.62 470.562 1039.87 470.765 1040.36 470.765L1039.62 473.817C1041.33 478.781 1042.19 483.989 1042.19 489.442C1039.26 494.406 1037.59 496.888 1037.18 496.888L1033.4 492.494H1032.79V494.325L1034.13 496.278L1032.79 498.109L1031.57 497.499H1030.35C1030.67 497.905 1031 498.312 1031.32 498.719L1026.2 500.306ZM1018.51 355.653C1018.1 358.094 1017.49 359.315 1016.67 359.315C1015.86 358.013 1015.45 356.996 1015.45 356.263H1014.84L1012.28 359.315C1010 358.908 1008.13 358.705 1006.67 358.705C1005.53 361.553 1004.71 364.279 1004.22 366.883C1004.63 370.952 1005.04 372.987 1005.44 372.987L1004.83 376.161V382.386L1005.44 386.17L1004.83 387.391L1006.05 393.006C1005.65 393.657 1005.44 394.268 1005.44 394.837L1006.67 395.448L1009.23 388.612V388.002L1008.62 384.217C1009.03 383.404 1009.23 382.793 1009.23 382.386L1008.62 381.166C1009.03 380.433 1009.23 379.579 1009.23 378.602H1010.45L1011.67 393.617C1013.54 392.722 1014.6 391.867 1014.84 391.053V390.443C1013.54 388.897 1012.89 387.473 1012.89 386.17H1013.5C1016.02 388.612 1017.9 389.833 1019.12 389.833C1019.12 388.937 1020.58 388.124 1023.51 387.391C1024.32 386.74 1024.93 382.386 1025.34 374.33L1024.73 371.156C1025.14 370.423 1025.34 369.406 1025.34 368.104C1021.84 362.814 1019.77 358.664 1019.12 355.653H1018.51ZM1058.3 380.555V387.391H1058.91C1058.91 385.519 1059.16 384.258 1059.64 383.607C1059.16 382.875 1058.91 381.857 1058.91 380.555H1058.3ZM1046.58 384.828V388.612H1048.41V386.17C1048.41 385.275 1048.01 384.828 1047.19 384.828H1046.58ZM1012.89 389.833L1013.5 391.053L1012.28 391.664L1011.67 390.443L1012.89 389.833ZM1058.3 397.279V407.289H1058.91L1059.64 401.673L1058.91 397.279H1058.3ZM1021.07 402.284V406.678C1021.88 406.678 1022.29 406.271 1022.29 405.458V403.504C1022.29 402.691 1021.88 402.284 1021.07 402.284ZM1010.45 434.022H1009.84L1005.44 430.848C1005.04 431.743 1004.63 434.063 1004.22 437.806C1005.85 437.969 1006.67 438.579 1006.67 439.637C1005.85 439.719 1005.44 440.126 1005.44 440.858L1007.28 443.299C1007.28 443.544 1006.87 444.195 1006.05 445.253V445.863L1009.23 445.253C1009.64 445.985 1009.84 446.595 1009.84 447.084H1011.06C1011.06 445.863 1011.67 445.253 1012.89 445.253V444.642C1012.89 443.747 1011.67 442.892 1009.23 442.079C1009.23 439.23 1010.86 436.138 1014.11 432.801V432.191C1014.11 431.54 1013.5 430.889 1012.28 430.238C1011.06 430.238 1010.45 431.499 1010.45 434.022ZM1025.34 433.412H1027.29V432.191H1026.56C1025.75 432.272 1025.34 432.679 1025.34 433.412ZM997.998 436.463V444.642C998.079 445.456 998.486 445.863 999.219 445.863H999.829C999.829 445.456 999.422 443.788 998.608 440.858L999.219 436.463H997.998ZM1012.28 437.806C1012.28 438.376 1011.87 439.19 1011.06 440.248C1011.47 440.98 1011.67 441.59 1011.67 442.079H1013.5V439.027C1013.5 438.213 1013.09 437.806 1012.28 437.806ZM993.604 438.417V440.858H994.214V438.417H993.604ZM1064.53 438.417L1065.14 439.637L1063.92 440.248H1062.7V439.027C1063.1 439.027 1063.71 438.823 1064.53 438.417ZM1031.57 441.468C1031.57 443.096 1031.16 443.91 1030.35 443.91C1030.75 444.642 1030.96 445.497 1030.96 446.473C1031.77 446.066 1032.38 445.863 1032.79 445.863L1032.18 441.468H1031.57ZM998.608 446.473L997.998 447.694V450.135H998.608C998.608 449.484 999.015 448.67 999.829 447.694C999.829 446.88 999.422 446.473 998.608 446.473ZM1005.44 447.694V450.868H1006.67V448.915C1006.67 448.101 1006.26 447.694 1005.44 447.694ZM1060.86 452.088H1061.47C1062.29 452.17 1062.7 452.577 1062.7 453.309H1060.86V452.088ZM1061.47 455.751H1062.08C1062.9 455.913 1063.31 456.361 1063.31 457.093V457.704H1061.47V455.751Z" fill="white"/>
<defs>
<filter id="filter0_f" x="177.605" y="0" width="712.125" height="881" filterUnits="userSpaceOnUse" color-interpolation-filters="sRGB">
<feFlood flood-opacity="0" result="BackgroundImageFix"/>
<feBlend mode="normal" in="SourceGraphic" in2="BackgroundImageFix" result="shape"/>
<feGaussianBlur stdDeviation="10" result="effect1_foregroundBlur"/>
</filter>
<filter id="filter1_f" x="504.913" y="70.2983" width="90.75" height="77.1245" filterUnits="userSpaceOnUse" color-interpolation-filters="sRGB">
<feFlood flood-opacity="0" result="BackgroundImageFix"/>
<feBlend mode="normal" in="SourceGraphic" in2="BackgroundImageFix" result="shape"/>
<feGaussianBlur stdDeviation="5" result="effect1_foregroundBlur"/>
</filter>
</defs>
</svg>
