<svg width="558" height="668" viewBox="0 0 558 668" fill="none" xmlns="http://www.w3.org/2000/svg">
<g filter="url(#filter0_f)">
<path d="M115.604 256.743V647.368H446.7L451.236 308.826L462.575 346.705L458.039 280.417L462.575 282.785L467.11 292.254L471.646 280.417L482.985 377.482L478.449 190.455L485.252 235.436L482.985 131.269L492.056 157.311V88.6554H505.662L514.734 95.7577V107.595L521.537 95.7577L514.734 83.9206L498.859 81.5531L521.537 76.8183L537.411 83.9206L521.537 72.0834H505.662C502.639 73.6617 495.684 76.8183 492.056 76.8183H482.985L496.591 64.9811L526.073 60.2463L537.411 64.9811L528.34 53.144L492.056 57.8788L478.449 72.0834L464.842 76.8183L478.449 48.4091L514.734 38.9394L471.646 43.6743L442.165 83.9206L424.022 88.6554V72.0834L428.558 64.9811L455.771 53.144L417.219 57.8788L405.88 76.8183V114.697H390.006L378.667 136.004L365.06 131.269C363.246 38.4659 318.948 23.1566 297.026 27.1023C249.856 27.1023 210.851 80.764 197.244 107.595H165.495V114.697L138.282 107.595L133.746 48.4091L117.871 36.572L92.9259 38.9394L111.068 43.6743L120.139 53.144V67.3486L104.265 64.9811L72.5158 20L40.7668 27.1023H72.5158L83.8547 53.144L79.3192 57.8788L61.1769 31.8371H47.5702L20.3568 38.9394L56.6413 43.6743L72.5158 64.9811L47.5702 48.4091H33.9635L20.3568 67.3486L33.9635 57.8788H47.5702L61.1769 64.9811H40.7668L29.4279 83.9206L47.5702 72.0834H61.1769L65.7125 95.7577L72.5158 100.493L83.8547 304.091V228.334L92.9259 221.231L88.3903 344.338L92.9259 377.482L97.4614 344.338H104.265V389.319H111.068V337.235L104.265 275.682L115.604 256.743Z" fill="#FF0000"/>
</g>
<path d="M110.247 256.743V647.368H441.343L445.879 308.826L457.218 346.705L452.682 280.417L457.218 282.785L461.753 292.254L466.289 280.417L477.628 377.482L473.092 190.455L479.896 235.436L477.628 131.269L486.699 157.311V88.6554H500.306L509.377 95.7577V107.595L516.18 95.7577L509.377 83.9206L493.502 81.5531L516.18 76.8183L532.055 83.9206L516.18 72.0834H500.306C497.282 73.6617 490.327 76.8183 486.699 76.8183H477.628L491.235 64.9811L520.716 60.2463L532.055 64.9811L522.984 53.144L486.699 57.8788L473.092 72.0834L459.486 76.8183L473.092 48.4091L509.377 38.9394L466.289 43.6743L436.808 83.9206L418.665 88.6554V72.0834L423.201 64.9811L450.414 53.144L411.862 57.8788L400.523 76.8183V114.697H384.649L373.31 136.004L359.703 131.269C357.889 38.4659 313.592 23.1566 291.67 27.1023C244.5 27.1023 205.494 80.764 191.887 107.595H160.138V114.697L132.925 107.595L128.389 48.4091L112.515 36.572L87.5691 38.9394L105.711 43.6743L114.782 53.144V67.3486L98.908 64.9811L67.159 20L35.4101 27.1023H67.159L78.4979 53.144L73.9624 57.8788L55.8201 31.8371H42.2134L15 38.9394L51.2845 43.6743L67.159 64.9811L42.2134 48.4091H28.6067L15 67.3486L28.6067 57.8788H42.2134L55.8201 64.9811H35.4101L24.0711 83.9206L42.2134 72.0834H55.8201L60.3557 95.7577L67.159 100.493L78.4979 304.091V228.334L87.5691 221.231L83.0335 344.338L87.5691 377.482L92.1046 344.338H98.908V389.319H105.711V337.235L98.908 275.682L110.247 256.743Z" fill="black"/>
<g filter="url(#filter1_f)">
<path d="M264.456 88.0927V77.2337C264.456 75.4018 264.867 73.5932 265.658 71.941L266.376 70.4421C267.975 67.1048 271.347 64.9811 275.047 64.9811C277.01 64.9811 278.927 65.5824 280.539 66.7041L280.616 66.7578C283.279 68.6111 284.866 71.6502 284.866 74.8947V86.2548C284.866 89.3147 283.685 92.2564 281.568 94.4661L280.811 95.2565C279.056 97.089 276.628 98.1251 274.091 98.1251C270.914 98.1251 267.957 96.505 266.248 93.8278L266.033 93.4924C265.003 91.8797 264.456 90.0062 264.456 88.0927Z" fill="#FF0000"/>
<path d="M298.473 97.5624V86.7034C298.473 84.8715 298.884 83.0629 299.675 81.4107L300.393 79.9118C301.991 76.5745 305.363 74.4509 309.064 74.4509C311.027 74.4509 312.944 75.0521 314.555 76.1738L314.632 76.2275C317.295 78.0808 318.883 81.1199 318.883 84.3644V95.7245C318.883 98.7844 317.701 101.726 315.585 103.936L314.828 104.726C313.072 106.559 310.645 107.595 308.107 107.595C304.931 107.595 301.974 105.975 300.264 103.298L300.05 102.962C299.02 101.349 298.473 99.4759 298.473 97.5624Z" fill="#FF0000"/>
</g>
<path d="M264.363 87.6799V76.8209C264.363 74.989 264.774 73.1804 265.565 71.5282L266.283 70.0293C267.881 66.6921 271.253 64.5684 274.953 64.5684C276.917 64.5684 278.833 65.1696 280.445 66.2913L280.522 66.345C283.185 68.1983 284.773 71.2374 284.773 74.4819V85.842C284.773 88.9019 283.591 91.8436 281.475 94.0533L280.717 94.8438C278.962 96.6762 276.535 97.7123 273.997 97.7123C270.821 97.7123 267.864 96.0922 266.154 93.4151L265.94 93.0796C264.91 91.4669 264.363 89.5934 264.363 87.6799Z" fill="white"/>
<path d="M298.38 97.1497V86.2906C298.38 84.4587 298.79 82.6501 299.582 80.998L300.3 79.499C301.898 76.1618 305.27 74.0381 308.97 74.0381C310.934 74.0381 312.85 74.6393 314.462 75.761L314.539 75.8147C317.202 77.668 318.79 80.7072 318.79 83.9516V95.3117C318.79 98.3716 317.608 101.313 315.491 103.523L314.734 104.313C312.979 106.146 310.551 107.182 308.014 107.182C304.838 107.182 301.88 105.562 300.171 102.885L299.957 102.549C298.927 100.937 298.38 99.0631 298.38 97.1497Z" fill="white"/>
<defs>
<filter id="filter0_f" x="0.356781" y="0" width="557.055" height="667.368" filterUnits="userSpaceOnUse" color-interpolation-filters="sRGB">
<feFlood flood-opacity="0" result="BackgroundImageFix"/>
<feBlend mode="normal" in="SourceGraphic" in2="BackgroundImageFix" result="shape"/>
<feGaussianBlur stdDeviation="10" result="effect1_foregroundBlur"/>
</filter>
<filter id="filter1_f" x="254.456" y="54.9811" width="74.4268" height="62.6137" filterUnits="userSpaceOnUse" color-interpolation-filters="sRGB">
<feFlood flood-opacity="0" result="BackgroundImageFix"/>
<feBlend mode="normal" in="SourceGraphic" in2="BackgroundImageFix" result="shape"/>
<feGaussianBlur stdDeviation="5" result="effect1_foregroundBlur"/>
</filter>
</defs>
</svg>
