<svg width="91" height="48" viewBox="0 0 91 48" fill="none" xmlns="http://www.w3.org/2000/svg">
<path d="M11.9541 6.9209C12.1331 6.95345 12.2227 7.04297 12.2227 7.18945L11.9541 7.31152C11.7913 7.31152 11.71 7.23014 11.71 7.06738L11.9541 6.9209ZM11.71 8.84961C11.8727 8.88216 11.9541 8.97168 11.9541 9.11816V9.24023C11.7913 9.24023 11.71 9.15885 11.71 8.99609V8.84961ZM12.7354 24.0352C12.7354 24.556 12.6051 24.8164 12.3447 24.8164H12.2227V24.1816H12.0762C11.5716 24.5397 11.3193 24.8815 11.3193 25.207C11.3193 25.3372 11.1891 25.4674 10.9287 25.5977L10.5381 25.3291C10.473 25.9313 10.3428 26.2324 10.1475 26.2324L9.90332 26.1104V26.2324C9.90332 26.4928 9.94401 26.623 10.0254 26.623L9.90332 27.2578V27.8926C9.90332 27.9414 9.9847 28.0716 10.1475 28.2832C9.9847 28.3158 9.90332 28.4053 9.90332 28.5518V28.7959H10.416C10.416 29.3167 10.6276 29.5771 11.0508 29.5771V30.2119C11.181 30.2119 11.4414 30.0003 11.832 29.5771C11.9948 29.5771 12.125 29.9596 12.2227 30.7246H11.71V30.8711C11.8727 30.8711 12.2552 31.2129 12.8574 31.8965C13.069 31.8965 13.2806 31.9779 13.4922 32.1406L14.2734 32.0186V32.1406C14.6966 32.0104 14.9082 31.7093 14.9082 31.2373V31.1152L14.2734 31.2373V31.1152C14.2734 30.8548 14.4036 30.7246 14.6641 30.7246V30.3584H14.3955V30.6025H14.1514V30.4805C14.3141 29.6341 14.3955 29.1621 14.3955 29.0645C14.2327 29.0645 14.1514 28.9342 14.1514 28.6738C14.5745 28.0716 14.7861 27.5589 14.7861 27.1357H14.542V27.3799H14.2734V26.8672C14.5339 26.8672 14.6641 26.6556 14.6641 26.2324H14.542C14.363 26.3138 14.2327 26.3545 14.1514 26.3545V25.4512C14.1514 25.2884 14.0618 25.207 13.8828 25.207L13.7607 25.4512V25.5977L13.8828 26.2324L13.6387 26.3545C13.2969 26.3545 13.0365 25.5814 12.8574 24.0352H12.7354ZM16.5928 30.7246V31.6279C16.609 31.807 16.6904 31.8965 16.8369 31.8965L16.7148 31.2373C16.7962 30.9443 16.8369 30.7734 16.8369 30.7246H16.5928ZM11.3193 32.5312H11.5635L11.71 33.0439H11.4414C11.36 32.751 11.3193 32.5801 11.3193 32.5312ZM22.1348 39.3428C21.7767 39.2288 21.5977 39.1068 21.5977 38.9766L21.3535 39.0986C21.2396 39.0986 20.9792 38.708 20.5723 37.9268V37.8047L20.9629 37.292C20.9629 36.8688 20.792 36.6084 20.4502 36.5107V37.9268C20.4502 39.1312 20.1898 39.7334 19.6689 39.7334V40.002C19.8317 40.002 20.0026 40.124 20.1816 40.3682L19.1562 40.9053C19.1562 40.7425 19.2865 40.5228 19.5469 40.2461V40.002L18.9121 39.8555C18.8307 40.0182 18.79 40.238 18.79 40.5146H18.6436C18.5133 40.5146 18.3831 40.3844 18.2529 40.124V39.7334C18.2529 39.652 18.3018 39.6113 18.3994 39.6113C18.139 38.8464 17.9193 38.4639 17.7402 38.4639H17.6182C17.6182 38.8382 17.5775 39.0905 17.4961 39.2207L17.6182 40.002C17.2113 40.36 16.9997 40.8727 16.9834 41.54H16.5928V41.2715L16.8369 40.9053L16.2021 39.8555H16.0801L16.2021 40.5146C15.9906 40.6774 15.8604 40.7588 15.8115 40.7588C15.7301 40.6123 15.6895 40.4414 15.6895 40.2461C15.4779 40.2461 15.3477 40.417 15.2988 40.7588H15.1768L14.7861 40.5146C14.6559 40.5146 14.5176 40.5879 14.3711 40.7344L13.7363 40.5635C13.7363 40.5472 13.7445 40.5309 13.7607 40.5146C13.6794 40.3356 13.6387 40.2054 13.6387 40.124H13.3701L13.248 40.4414L12.7598 40.3193C12.8249 40.124 12.8981 39.9287 12.9795 39.7334V39.6113L12.8574 38.9766C13.0365 38.9766 13.2074 38.6266 13.3701 37.9268H12.6133L12.7354 38.1953C12.7354 38.3418 12.2227 38.5534 11.1973 38.8301C11.0996 38.9928 11.0508 39.1637 11.0508 39.3428C11.0508 39.4079 11.3926 39.6683 12.0762 40.124L10.416 39.6846C10.5625 39.5706 10.6927 39.2451 10.8066 38.708C11.0671 38.708 11.1973 38.6266 11.1973 38.4639C11.0996 38.4639 11.0508 38.415 11.0508 38.3174C11.5879 37.9919 12.2308 37.6908 12.9795 37.4141C13.2725 37.5931 13.4922 37.6826 13.6387 37.6826C13.6387 37.5524 13.7689 37.4222 14.0293 37.292L13.8828 36.6572L14.0293 35.998C13.9316 35.8353 13.8828 35.7132 13.8828 35.6318H14.1514L14.2734 36.2666L14.1514 36.9014C14.3141 37.4385 14.5257 37.7396 14.7861 37.8047H14.9082V37.6826L14.7861 37.0479L15.1768 35.4854C14.3467 34.5251 13.6143 33.8822 12.9795 33.5566C12.9795 33.3939 12.8086 33.3125 12.4668 33.3125C12.4668 33.3939 12.4261 33.4346 12.3447 33.4346C12.1657 33.0928 12.0762 32.8324 12.0762 32.6533L12.3447 32.5312C13.5166 33.4753 14.1595 33.9473 14.2734 33.9473C14.2897 34.1263 14.3792 34.2158 14.542 34.2158H14.7861L14.6641 33.9473C14.7454 33.4753 14.7861 33.1335 14.7861 32.9219H14.3955C14.2002 32.9219 14.0293 32.9626 13.8828 33.0439L12.4668 32.2871C12.4668 32.1081 12.3854 32.0186 12.2227 32.0186H12.0762L11.4414 32.1406V31.3838H11.3193C10.7985 31.3838 10.5381 31.7256 10.5381 32.4092H10.416L9.90332 32.0186L9.78125 32.2871L9.90332 32.5312C9.48014 33.2799 9.26855 33.7113 9.26855 33.8252C9.34993 33.988 9.39062 34.1182 9.39062 34.2158H9.5127V33.5566H9.63477C9.8138 33.5892 9.90332 33.6787 9.90332 33.8252V34.582C9.90332 35.3633 9.8138 36.0957 9.63477 36.7793H9.39062V35.7539C9.27669 35.7539 8.9349 35.5342 8.36523 35.0947C8.36523 35.3551 8.31641 35.6562 8.21875 35.998H7.97461V34.9727L8.09668 34.0693C7.93392 34.0693 7.76302 33.5973 7.58398 32.6533H7.46191C7.46191 33.0928 7.24219 33.3125 6.80273 33.3125C6.63997 32.987 6.55859 32.6452 6.55859 32.2871C6.55859 31.5872 6.8597 31.0257 7.46191 30.6025C7.46191 30.3421 7.5026 30.041 7.58398 29.6992C7.5026 28.9505 7.46191 28.3076 7.46191 27.7705C7.46191 27.6077 7.3724 27.5264 7.19336 27.5264H7.07129C6.68066 30.0654 6.24935 31.4733 5.77734 31.75L5.65527 31.5059V31.1152C5.91569 30.7572 6.0459 30.3258 6.0459 29.8213H5.65527C5.65527 30.391 5.44368 31.1641 5.02051 32.1406C5.02051 32.7428 4.97168 33.0439 4.87402 33.0439C4.97168 33.223 5.0612 33.6136 5.14258 34.2158L4.87402 36.2666H4.62988C4.62988 35.9574 4.67057 35.054 4.75195 33.5566L4.62988 32.4092C4.62988 31.9697 4.97168 30.5537 5.65527 28.1611V27.2578L6.0459 26.7451V26.1104L5.77734 26.2324C5.61458 26.2324 5.5332 26.1429 5.5332 25.9639V22.7656C5.5332 22.3587 5.57389 21.9274 5.65527 21.4717C5.57389 21.1299 5.5332 20.7881 5.5332 20.4463C5.61458 19.6976 5.65527 19.2256 5.65527 19.0303L5.38672 18.8838H5.26465L5.02051 19.0303L5.14258 19.665V19.9336C5.14258 20.015 5.10189 20.0557 5.02051 20.0557C5.02051 20.137 5.0612 20.1777 5.14258 20.1777C5.14258 20.2591 5.10189 20.3893 5.02051 20.5684L5.14258 21.4717C5.14258 21.8623 5.01237 22.2448 4.75195 22.6191V23.791L4.62988 24.6943C4.97168 24.7269 5.14258 24.849 5.14258 25.0605C5.14258 25.2884 5.10189 25.6383 5.02051 26.1104C5.10189 26.9893 5.14258 27.502 5.14258 27.6484C5.14258 28.2669 4.84147 29.512 4.23926 31.3838C4.17415 32.0674 4.04395 32.4092 3.84863 32.4092H3.60449V31.8965C3.60449 30.3503 3.72656 29.5771 3.9707 29.5771C3.9707 29.6585 4.01953 29.6992 4.11719 29.6992C4.11719 28.6738 4.32878 28.1611 4.75195 28.1611V27.8926C4.75195 27.5345 4.67057 27.1927 4.50781 26.8672C4.67057 26.1836 4.75195 25.6709 4.75195 25.3291V24.8164H4.62988C4.62988 25.3698 4.49967 25.7523 4.23926 25.9639V26.8672C4.23926 27.8112 4.10905 28.2832 3.84863 28.2832H3.60449L4.11719 24.1816V23.5225C4.11719 23.1156 4.06836 22.6842 3.9707 22.2285L4.23926 20.0557L3.84863 19.7871H3.72656V22.7656C3.72656 23.9375 3.59635 24.6618 3.33594 24.9385V25.3291C3.33594 27.152 3.16504 28.2262 2.82324 28.5518H2.5791C2.74186 27.0218 2.82324 25.7767 2.82324 24.8164C2.61165 24.9792 2.44076 25.0605 2.31055 25.0605L2.43262 25.3291C2.26986 25.7523 2.01758 25.9639 1.67578 25.9639V26.1104L1.79785 26.7451C1.52116 26.7451 1.35026 27.6891 1.28516 29.5771H1.0166V29.0645C1.0166 28.804 0.975911 28.6738 0.894531 28.6738L1.0166 28.0391V26.623C1.27702 25.679 1.40723 25.0768 1.40723 24.8164V24.4258H1.28516V24.9385H1.0166V19.4209C1.0166 19.3232 1.06543 19.2744 1.16309 19.2744C1.06543 19.193 0.975911 18.4688 0.894531 17.1016C0.975911 16.3529 1.0166 15.8809 1.0166 15.6855C0.935221 15.2135 0.894531 14.8229 0.894531 14.5137H1.0166C0.935221 14.3509 0.894531 14.2207 0.894531 14.123C0.894531 13.7487 0.935221 13.1953 1.0166 12.4629L0.894531 11.8281L1.0166 11.0469C0.935221 9.76107 0.894531 8.68685 0.894531 7.82422V6.16406C0.894531 6.06641 0.935221 6.01758 1.0166 6.01758L0.894531 5.77344C0.894531 4.58529 1.15495 3.77148 1.67578 3.33203L1.79785 3.57617V4.35742H2.18848L2.31055 3.4541V3.20996H2.5791C2.74186 3.22624 2.82324 3.30762 2.82324 3.4541V4.35742H3.21387C3.21387 3.9668 3.29525 3.58431 3.45801 3.20996C4.09277 3.37272 4.52409 3.4541 4.75195 3.4541C4.76823 3.29134 4.85775 3.20996 5.02051 3.20996C5.10189 3.35645 5.14258 3.52734 5.14258 3.72266H5.5332C5.5332 3.46224 5.61458 3.33203 5.77734 3.33203H5.92383C6.08659 3.33203 6.16797 3.54362 6.16797 3.9668H6.55859C6.63997 3.46224 6.77018 3.20996 6.94922 3.20996H7.33984C7.5026 3.20996 7.58398 3.38086 7.58398 3.72266H8.09668C8.09668 3.625 8.13737 3.49479 8.21875 3.33203C9.42318 3.49479 10.0254 3.70638 10.0254 3.9668C10.0254 4.09701 10.2451 4.4388 10.6846 4.99219C10.5055 5.08984 10.3753 5.13867 10.2939 5.13867L10.416 6.67676V9.63086C10.416 9.82617 10.4567 9.99707 10.5381 10.1436C10.4567 10.5667 10.3753 10.7783 10.2939 10.7783L10.5381 16.1982C10.4567 16.3447 10.416 16.5156 10.416 16.7109L10.9287 17.1016C11.0589 17.1016 11.3193 16.8818 11.71 16.4424H11.832V17.2236C11.832 17.3538 11.9622 17.484 12.2227 17.6143H12.3447V16.7109C12.54 16.7109 12.7516 16.5807 12.9795 16.3203C13.3538 16.6621 13.7852 16.9225 14.2734 17.1016V17.3457H14.542L14.6641 16.7109C14.6641 15.9297 14.7048 15.0671 14.7861 14.123C14.7048 13.5534 14.6641 13.0895 14.6641 12.7314C14.6641 12.5361 14.7048 12.3571 14.7861 12.1943L14.6641 11.3154C14.7454 8.9554 14.7861 7.10807 14.7861 5.77344L14.6641 5.13867C14.7943 3.67383 15.0954 2.94141 15.5674 2.94141C15.5674 3.02279 15.7383 3.15299 16.0801 3.33203C16.2428 3.25065 16.7148 3.16113 17.4961 3.06348C17.6263 3.16113 17.8379 3.20996 18.1309 3.20996C18.1471 3.03092 18.2367 2.94141 18.3994 2.94141L18.5215 3.20996C18.668 3.1123 18.7982 3.06348 18.9121 3.06348C19.5957 3.06348 19.9375 3.23438 19.9375 3.57617H20.2061C20.3688 3.57617 20.4502 3.36458 20.4502 2.94141H20.7188C20.8815 2.94141 20.9629 3.07161 20.9629 3.33203H21.3535C21.4349 3.33203 21.9069 3.24251 22.7695 3.06348C23.7298 3.64941 24.2425 4.12142 24.3076 4.47949V6.16406C24.3076 6.42448 24.2669 6.55469 24.1855 6.55469L24.3076 7.18945V8.33691C24.3076 9.21582 24.2669 9.90755 24.1855 10.4121L24.3076 11.3154C24.2262 14.1149 24.1855 16.5563 24.1855 18.6396V20.959C24.1855 21.4473 24.2262 22.1309 24.3076 23.0098C24.2262 23.1237 24.1855 23.4248 24.1855 23.9131L24.3076 24.5479C24.21 26.1429 24.0391 27.0462 23.7949 27.2578C24.0716 27.2578 24.2425 27.5182 24.3076 28.0391C24.2262 28.6087 24.1855 29.0807 24.1855 29.4551V30.0898C24.1855 30.1712 24.1449 30.2119 24.0635 30.2119C24.1449 30.391 24.1855 30.5212 24.1855 30.6025C24.1855 31.1559 24.2262 31.7174 24.3076 32.2871C24.2262 32.9382 24.1855 33.6624 24.1855 34.46L23.7949 34.7285H23.6729V33.3125C23.3311 33.3125 23.1602 33.7845 23.1602 34.7285V35.2412H22.7695V33.8252H22.6475C22.6475 34.0531 22.2975 34.3949 21.5977 34.8506V35.4854C21.6465 35.4854 21.7767 35.404 21.9883 35.2412H22.2568V35.6318C21.9964 35.6318 21.7767 35.8841 21.5977 36.3887C21.5977 36.4701 21.6465 36.5107 21.7441 36.5107L21.5977 37.1699V37.5605C21.6302 37.7233 21.7197 37.8047 21.8662 37.8047L21.9883 36.5107H22.1348L22.2568 37.1699V37.4141L21.9883 37.8047V38.0732C22.2487 38.3825 22.3789 38.765 22.3789 39.2207L22.1348 39.3428ZM40.3721 0.817383H40.6406V1.35449H40.3721V0.817383ZM34.5127 24.8652V25.4023H34.6592V24.8652H34.5127ZM46.207 31.6279H46.4756C46.4756 31.9209 46.4349 32.1488 46.3535 32.3115L46.4756 33.0928C46.3942 33.6299 46.264 33.8984 46.085 33.8984H45.8164V33.3613C45.8164 32.2057 45.9466 31.6279 46.207 31.6279ZM32.0225 36.0469L32.1201 35.9004H31.998C31.9329 35.9329 31.876 35.9574 31.8271 35.9736L31.6074 35.876V35.0947H31.4609C31.4609 35.5342 31.4202 35.7539 31.3389 35.7539L31.0703 35.6562V34.167C31.0703 34.0693 31.111 34.0205 31.1924 34.0205C31.111 33.8415 31.0703 33.7113 31.0703 33.6299L31.1924 32.9707C30.8506 32.9707 30.6309 32.3929 30.5332 31.2373L30.1426 30.9688L29.9961 32.3115L30.1426 33.5078C30.0775 34.6471 29.9391 35.2168 29.7275 35.2168H29.6055V34.8262C29.6055 34.3542 29.6462 33.9554 29.7275 33.6299C29.6462 33.1416 29.6055 32.7835 29.6055 32.5557C29.6543 31.6768 29.7438 31.2373 29.874 31.2373L29.7275 30.9688C29.9066 30.6432 29.9961 30.2933 29.9961 29.9189V27.6484C29.9961 27.4694 29.9066 27.3799 29.7275 27.3799C29.7275 27.5589 29.6868 27.6484 29.6055 27.6484L29.7275 27.917C29.6462 29.5934 29.6055 30.749 29.6055 31.3838C29.4753 31.3838 29.166 31.7337 28.6777 32.4336H28.4092C28.2301 32.0755 28.1406 31.7663 28.1406 31.5059C28.2383 30.7083 28.2871 30.2201 28.2871 30.041C28.7266 30.041 29.0358 29.6423 29.2148 28.8447C29.1172 28.2262 29.0684 27.738 29.0684 27.3799V26.7207C29.0684 26.5417 28.9788 26.4521 28.7998 26.4521H28.6777C28.3034 28.8447 28.0348 30.041 27.8721 30.041C27.6117 30.5781 27.4408 30.8467 27.3594 30.8467L27.2129 30.5781V29.7725H27.4814L27.3594 29.1133C27.1803 29.1133 27.042 29.5527 26.9443 30.4316L26.5537 30.7002V30.4316C26.5537 29.748 26.7734 28.5599 27.2129 26.8672V26.1836L27.6035 25.6709V25.5244L27.3594 25.6709V25.1338C27.1803 25.1338 27.0908 25.0443 27.0908 24.8652V21.3984C27.0908 21.0729 27.1315 20.6742 27.2129 20.2021C27.1315 20.1045 27.0908 19.7952 27.0908 19.2744C27.1722 18.3467 27.2129 17.8177 27.2129 17.6875L26.9443 17.5654H26.8223C26.6432 17.5817 26.5537 17.6631 26.5537 17.8096C26.6351 17.9723 26.6758 18.1514 26.6758 18.3467H26.2852C26.3665 16.7516 26.4967 15.9541 26.6758 15.9541V15.5635C26.4967 14.9287 26.4072 14.5706 26.4072 14.4893V14.3672C26.4072 13.4232 26.4561 12.6745 26.5537 12.1211C26.4561 11.4701 26.4072 10.6725 26.4072 9.72852V8.92285C26.4072 8.72754 26.4561 8.5485 26.5537 8.38574L26.2852 6.13965C26.2852 4.36556 26.6839 3.47852 27.4814 3.47852C27.6605 3.47852 27.75 3.73893 27.75 4.25977H28.2871C28.2871 3.73893 28.3766 3.47852 28.5557 3.47852H29.0684C29.166 3.47852 29.2148 3.51921 29.2148 3.60059L29.4834 3.47852L29.7275 3.60059C29.7275 3.16113 29.8171 2.94141 29.9961 2.94141C30.11 3.5599 30.2891 3.86914 30.5332 3.86914C30.5332 3.65755 30.8424 3.34831 31.4609 2.94141L31.6074 3.20996V3.86914H31.998C32.0794 3.16927 32.2096 2.81934 32.3887 2.81934C32.5677 3.03092 32.6572 3.20182 32.6572 3.33203C33.0804 3.33203 33.6989 3.16113 34.5127 2.81934C34.6104 2.94954 34.6592 3.16927 34.6592 3.47852H34.7812L35.3184 2.67285L35.8555 3.47852H36.124V2.67285C36.1403 2.49382 36.2298 2.4043 36.3926 2.4043H36.7832L37.0518 2.55078C37.068 2.37174 37.1576 2.28223 37.3203 2.28223H37.5889C37.7516 2.2985 37.833 2.38802 37.833 2.55078H37.3203V2.67285C37.3203 2.80306 37.4505 2.94141 37.7109 3.08789L38.1016 2.81934H38.248L39.1758 3.47852H39.2979L39.835 2.67285L40.3721 3.08789C40.3721 2.8112 40.5023 2.67285 40.7627 2.67285C41.2021 2.67285 41.4219 2.76237 41.4219 2.94141L41.6904 2.81934C41.8695 2.81934 41.959 2.99023 41.959 3.33203L42.3496 3.08789C42.3496 3.16927 42.3984 3.20996 42.4961 3.20996C42.4961 2.94954 42.5856 2.81934 42.7646 2.81934C42.846 2.81934 42.8867 2.86003 42.8867 2.94141L43.1553 2.81934C43.5947 2.81934 43.8145 3.07975 43.8145 3.60059C44.4818 3.16113 45.0596 2.94141 45.5479 2.94141H45.8164C45.9954 2.94141 46.1745 3.20996 46.3535 3.74707L46.6221 3.60059H46.7441V3.86914C46.7441 3.9668 46.7035 4.01562 46.6221 4.01562C46.7523 4.01562 46.8825 5.91992 47.0127 9.72852C47.0127 10.8678 46.6546 11.7467 45.9385 12.3652H45.5479C45.3688 12.3652 45.2793 12.1048 45.2793 11.584L45.0107 11.7061C44.9294 11.7061 44.8887 11.6654 44.8887 11.584C44.6934 11.584 44.4248 11.8037 44.083 12.2432C43.904 12.2432 43.7738 11.8851 43.6924 11.1689H43.5459C43.4645 11.7061 43.3343 11.9746 43.1553 11.9746H42.8867C42.8053 11.9746 42.7646 11.9339 42.7646 11.8525C42.6507 11.8525 42.431 12.0723 42.1055 12.5117C41.9264 12.5117 41.8369 12.2432 41.8369 11.7061C41.5602 11.7061 41.4219 11.9258 41.4219 12.3652H41.1533C40.9906 12.3652 40.9092 12.1455 40.9092 11.7061C40.5511 11.7061 40.3721 11.8851 40.3721 12.2432H40.2256C40.0465 12.2432 39.957 12.113 39.957 11.8525C39.7454 12.0316 39.6152 12.1211 39.5664 12.1211L39.0293 11.8525L38.5166 12.1211C38.5166 11.9421 38.4271 11.8525 38.248 11.8525H38.1016C37.89 12.0316 37.7598 12.1211 37.7109 12.1211C37.5319 12.1211 37.4424 11.9421 37.4424 11.584H37.0518C36.3356 11.584 35.9775 12.9512 35.9775 15.6855C36.3356 16.2227 36.6449 16.4912 36.9053 16.4912V16.3691C37.7028 16.6947 38.1016 16.9144 38.1016 17.0283L38.7607 16.8818H38.9072V17.1504H39.2979C39.4769 17.1504 39.5664 16.9795 39.5664 16.6377L41.5684 16.8818C41.5684 16.54 41.8288 16.3691 42.3496 16.3691L42.4961 16.6377L42.7646 16.4912C43.2855 16.7354 43.5459 16.9144 43.5459 17.0283V17.6875H43.8145C43.8145 16.9876 44.1725 16.6377 44.8887 16.6377C45.0189 17.0446 45.2793 17.4352 45.6699 17.8096C45.849 17.8096 45.9385 17.6794 45.9385 17.4189H46.085C46.085 17.6143 46.3047 18.013 46.7441 18.6152C46.5651 23.14 46.2965 25.4023 45.9385 25.4023C45.8571 25.4023 45.8164 25.443 45.8164 25.5244C45.3932 25.4105 44.9456 25.1908 44.4736 24.8652V23.9375H44.3516C44.3516 24.6374 44.262 24.9873 44.083 24.9873C43.904 24.9873 43.8145 24.8978 43.8145 24.7188V23.5225L43.6924 22.8633H43.5459C43.5459 24.8164 43.375 25.793 43.0332 25.793C42.9355 25.6628 42.8867 25.3942 42.8867 24.9873L42.6182 25.1338L42.3496 24.9873C42.3496 25.3454 42.2682 25.5244 42.1055 25.5244H41.959C41.7799 25.5244 41.6904 25.3047 41.6904 24.8652H41.4219C41.4219 25.3047 41.3324 25.5244 41.1533 25.5244C41.0231 25.5244 40.8929 25.2559 40.7627 24.7188L40.4941 24.5967C40.4941 24.6455 40.2337 25.085 39.7129 25.915C39.5339 25.915 39.4443 25.7848 39.4443 25.5244C39.5257 24.7269 39.5664 24.2386 39.5664 24.0596H39.0293C38.9642 24.8571 38.834 25.2559 38.6387 25.2559H38.3701V25.1338C38.3701 24.3363 38.5492 23.2702 38.9072 21.9355C38.9072 21.8704 38.8584 21.61 38.7607 21.1543C38.8584 20.9915 38.9072 20.8125 38.9072 20.6172C38.777 20.2591 38.6468 20.0801 38.5166 20.0801V20.6172C38.5166 23.2051 38.069 24.7513 37.1738 25.2559C37.0924 25.1094 37.0518 24.8896 37.0518 24.5967H36.9053C36.9053 25.3942 36.7751 25.793 36.5146 25.793C36.5146 25.7116 36.474 25.6709 36.3926 25.6709L36.5146 24.9873V24.8652C36.3356 24.9466 36.2054 24.9873 36.124 24.9873V25.6709L35.9775 26.5986H36.6367C36.8158 26.6149 36.9053 26.7044 36.9053 26.8672C36.7588 26.9486 36.5879 26.9893 36.3926 26.9893C36.3926 27.0706 36.7913 27.2497 37.5889 27.5264V27.7949L38.5166 27.6484V27.3799L37.9795 26.8672L38.248 26.7207C39.3874 27.8112 39.957 28.9668 39.957 30.1875C40.0059 30.334 40.543 30.863 41.5684 31.7744V33.3613H41.8369L41.959 32.043V31.6279L41.8369 30.9688C42.1787 30.5293 42.3984 30.3096 42.4961 30.3096H42.7646C42.8786 30.3096 43.0983 30.5781 43.4238 31.1152V31.2373C43.4238 31.4001 43.2041 31.5303 42.7646 31.6279C42.7646 31.4652 42.6751 31.3838 42.4961 31.3838V31.5059C42.7565 32.2871 42.8867 32.7266 42.8867 32.8242H43.0332C43.0332 32.3848 43.1146 32.165 43.2773 32.165H43.4238C43.6517 32.6045 43.8307 32.8242 43.9609 32.8242C44.1725 33.1823 44.3434 33.3613 44.4736 33.3613C44.2132 34.9401 43.7331 36.0062 43.0332 36.5596C42.8053 36.3805 42.667 36.291 42.6182 36.291H42.4961V36.877L40.7627 37.9512C40.7139 37.7884 40.4941 37.6745 40.1035 37.6094L39.957 37.8779L39.7129 37.7559H39.5664V38.0244L40.0059 38.4395L39.8105 38.5371H39.5664V38.6836L38.5166 39.3428C38.598 39.0335 38.6387 38.8545 38.6387 38.8057C38.5573 38.6266 38.5166 38.4964 38.5166 38.415L38.248 38.5371C38.069 38.5371 37.9795 38.2767 37.9795 37.7559H37.7109C37.5319 37.7721 37.4424 37.8617 37.4424 38.0244V38.3174L34.1221 36.9258V36.4131H34C34 36.4945 33.9186 36.6165 33.7559 36.7793L33.0723 36.4863V36.4131C33.0723 36.234 32.9827 36.1445 32.8037 36.1445H32.6572L32.7061 36.3398L32.0225 36.0469ZM56.7295 40.5391C56.7783 40.3275 56.819 40.0996 56.8516 39.8555V39.7334H56.4609C56.3796 40.0426 56.2819 40.3031 56.168 40.5146C55.9238 41.0029 55.6064 41.2471 55.2158 41.2471H55.0693C54.9066 41.2471 54.7845 40.9134 54.7031 40.2461C54.8659 40.2461 54.9473 40.1566 54.9473 39.9775V39.8555C54.9473 39.6927 54.7845 39.6113 54.459 39.6113V39.0986H54.5811C54.7438 39.0986 54.8252 39.2288 54.8252 39.4893H55.2158V38.9766L55.3379 38.3418C55.2077 38.3418 55.0775 38.2197 54.9473 37.9756H55.0693C55.0693 37.8617 54.9066 37.5687 54.5811 37.0967C54.5811 36.9665 54.7031 36.8363 54.9473 36.7061L54.8252 36.4619C54.8252 36.3154 55.0368 36.0225 55.46 35.583L55.7041 34.4355C55.7041 34.2728 55.582 34.1914 55.3379 34.1914V33.9473C55.3379 33.8496 55.3786 33.8008 55.46 33.8008C55.46 33.6868 55.1263 33.4346 54.459 33.0439C54.459 33.223 54.3695 33.3125 54.1904 33.3125C54.0277 33.3125 53.9463 33.223 53.9463 33.0439V28.6494H53.7021C53.4417 30.4072 53.1406 31.2861 52.7988 31.2861H52.6768V30.7734L52.9453 30.4072C52.8477 30.4072 52.7988 30.3665 52.7988 30.2852C52.9779 30.2852 53.0674 30.2038 53.0674 30.041V28.0146C52.986 28.0146 52.8558 27.974 52.6768 27.8926V28.3809C52.6768 28.5762 52.7174 28.7471 52.7988 28.8936C52.3105 30.0654 52.0664 30.9036 52.0664 31.4082L52.1885 32.165L51.9199 33.9473H51.6758V33.8008C51.6758 33.3939 51.7165 32.8893 51.7979 32.2871C51.7165 31.8477 51.6758 31.4326 51.6758 31.042C51.8385 31.042 51.9199 30.9525 51.9199 30.7734C51.8385 30.334 51.7979 29.9596 51.7979 29.6504H51.6758C51.6758 29.9434 51.5049 30.277 51.1631 30.6514C51.1631 30.9118 51.0003 31.1234 50.6748 31.2861C50.4144 31.2536 50.2842 30.9606 50.2842 30.4072C50.2842 29.512 50.5771 28.9261 51.1631 28.6494V28.3809C51.0003 28.0553 50.7969 27.8926 50.5527 27.8926V27.1357H50.4062C50.4062 28.096 50.2028 28.8529 49.7959 29.4062C49.7959 29.6504 49.7064 29.7725 49.5273 29.7725L49.4053 29.5283V29.1377C49.6657 28.7796 49.7959 28.3646 49.7959 27.8926H49.4053V28.2588H49.1611V28.1367C49.3239 26.7044 49.4053 25.9069 49.4053 25.7441V25.3779L49.7959 24.8652V24.2305L49.5273 24.3525C49.3646 24.3525 49.2832 24.2305 49.2832 23.9863C49.2832 22.9284 49.2425 21.6263 49.1611 20.0801C49.2425 19.5267 49.2832 18.9814 49.2832 18.4443L49.0391 18.5664L48.8926 18.3223C49.0716 17.6875 49.1611 17.3457 49.1611 17.2969L48.8926 17.1748C48.7298 17.2562 48.6077 17.2969 48.5264 17.2969C48.5264 17.0853 48.6973 16.9632 49.0391 16.9307C49.1204 15.9215 49.1611 15.1647 49.1611 14.6602C49.0798 14.4974 49.0391 14.3672 49.0391 14.2695H49.1611L49.0391 14.0254V8.36133C49.0391 7.84049 49.0798 7.20573 49.1611 6.45703C49.0798 6.16406 49.0391 5.70833 49.0391 5.08984C49.1042 4.16211 49.2669 3.69824 49.5273 3.69824H49.6494C49.9749 4.2028 50.2272 4.45508 50.4062 4.45508C50.4062 3.95052 50.5365 3.69824 50.7969 3.69824C51.3991 3.77962 51.7327 3.82031 51.7979 3.82031C51.7979 3.39714 51.8874 3.18555 52.0664 3.18555L52.1885 3.42969V4.06445C52.2699 4.06445 52.3919 4.10514 52.5547 4.18652C52.6035 3.87728 52.8965 3.54362 53.4336 3.18555L53.5557 3.42969V4.18652H53.9463C54.0114 3.51921 54.1335 3.18555 54.3125 3.18555C54.6543 3.34831 54.8252 3.47852 54.8252 3.57617C55.5576 3.47852 56.0215 3.34831 56.2168 3.18555C56.3796 3.18555 56.4609 3.39714 56.4609 3.82031C56.5749 3.82031 56.7865 3.56803 57.0957 3.06348C57.2259 3.06348 57.348 3.31576 57.4619 3.82031L57.7305 3.94238C57.8932 3.861 58.0153 3.82031 58.0967 3.82031L58.3652 4.18652V7.21387L58.4873 7.9707C58.4059 8.11719 58.3652 8.32878 58.3652 8.60547V9.24023C58.528 9.58203 58.6501 9.75293 58.7314 9.75293C58.6501 9.99707 58.528 10.6644 58.3652 11.7549C58.3652 11.8363 58.4059 11.9665 58.4873 12.1455L58.2188 15.5391C58.3164 16.2389 58.4466 16.9144 58.6094 17.5654C58.4466 17.5817 58.3652 17.6631 58.3652 17.8096V19.5674C58.3652 19.8604 58.4059 20.0719 58.4873 20.2021L58.3652 20.959V21.96C58.3652 22.7412 58.528 23.2865 58.8535 23.5957V23.7178H58.6094L58.3652 23.5957C58.3652 24.2956 58.2757 24.8001 58.0967 25.1094L58.4873 25.3779V24.7432H58.6094C58.7721 24.7432 58.8535 24.8652 58.8535 25.1094C58.8535 25.4837 58.7314 25.8662 58.4873 26.2568V26.623H58.7314C58.8942 25.7604 59.1465 25.0443 59.4883 24.4746L59.3662 23.5957C59.4476 23.5957 59.4883 23.555 59.4883 23.4736C59.7487 23.6364 60.0417 23.7178 60.3672 23.7178L60.2451 24.3525C60.4079 24.3851 60.4893 24.4746 60.4893 24.6211H60.3672L60.123 24.4746C60.123 24.9792 59.9521 25.2314 59.6104 25.2314V25.5C59.6104 25.7441 59.9033 25.8662 60.4893 25.8662V26.2568H59.3662C59.6104 26.6637 59.7324 26.9567 59.7324 27.1357L59.3662 27.3799H59.1221L58.8535 27.2578L58.7314 27.8926V28.2588L59.6104 28.0146V28.1367C58.6826 28.6413 58.2188 29.1458 58.2188 29.6504C58.5117 29.9434 58.7233 30.277 58.8535 30.6514C58.9837 30.6514 59.1953 30.9443 59.4883 31.5303H59.6104V31.4082C59.6104 31.2617 59.529 31.0094 59.3662 30.6514L59.6104 30.5293C59.6104 30.6107 59.651 30.6514 59.7324 30.6514C59.765 29.984 59.9359 29.6504 60.2451 29.6504L60.7578 29.7725C60.9206 29.6911 61.0426 29.6504 61.124 29.6504V29.0156C61.2054 29.0156 61.2461 28.9749 61.2461 28.8936C61.2461 28.4541 60.9124 27.9902 60.2451 27.502L60.123 27.2578C60.2533 26.8346 60.5462 26.623 61.002 26.623H61.2461C61.7181 27.388 62.3936 27.7705 63.2725 27.7705C63.2725 27.3473 63.3538 27.1357 63.5166 27.1357H63.6387V27.2578C63.6387 27.3392 63.598 27.3799 63.5166 27.3799C63.5654 27.738 64.1107 28.0716 65.1523 28.3809V28.6494L65.0303 28.8936H65.1523C65.3639 28.8936 65.7871 28.5192 66.4219 27.7705C66.5846 27.8519 66.7067 27.8926 66.7881 27.8926L67.0566 27.3799C67.6426 27.4613 67.9355 27.5915 67.9355 27.7705V27.8926H67.6914L67.4229 27.7705L67.3008 28.0146L67.5449 28.3809V28.5273C67.0404 28.8529 66.7881 29.0563 66.7881 29.1377C66.8857 29.3167 66.9346 29.4469 66.9346 29.5283C66.6904 29.5283 66.5195 29.7806 66.4219 30.2852H66.7881C66.7881 30.0247 66.959 29.8132 67.3008 29.6504C67.5612 30.4479 67.6914 30.9118 67.6914 31.042V31.9209C67.6914 32.3441 67.6019 32.8486 67.4229 33.4346H67.6914V33.1904H67.8135L68.0576 33.3125L67.8135 34.9482H67.5449V34.6797C67.5449 34.0775 67.4229 33.7438 67.1787 33.6787C67.1787 35.111 67.0485 35.8271 66.7881 35.8271L66.5439 35.7051C66.5439 36.2096 66.4219 36.4619 66.1777 36.4619L65.9092 36.3398C66.1696 35.8841 66.2998 35.1273 66.2998 34.0693C66.2184 33.2718 66.1289 32.8079 66.0312 32.6777L66.1777 31.9209V31.7988C65.9661 31.7988 65.7139 32.5557 65.4209 34.0693C65.3232 34.0693 65.2744 34.11 65.2744 34.1914C65.5348 34.1914 65.665 34.3135 65.665 34.5576C65.5837 35.1761 65.543 35.5179 65.543 35.583C65.3639 35.583 65.2744 35.4528 65.2744 35.1924L65.4209 34.6797C65.3232 34.5169 65.2744 34.3949 65.2744 34.3135H65.0303V34.4355L65.1523 34.6797C64.9896 34.6797 64.9082 34.932 64.9082 35.4365H64.6641V35.1924L64.7861 34.9482H64.3955L64.5176 33.6787L64.2734 33.5566C64.2734 34.1914 64.1107 34.5658 63.7852 34.6797C63.8665 35.9004 63.9886 36.999 64.1514 37.9756C63.8747 38.0732 63.5003 38.529 63.0283 39.3428C62.833 39.3428 62.5319 38.9277 62.125 38.0977H62.0029V38.7324L62.3936 39.2207L62.125 39.6113L61.8809 39.4893H61.6367C62.0924 40.1077 62.4098 40.5553 62.5889 40.832L56.7295 40.5391ZM70.9385 47.1064V46.6426C71.1989 46.6426 71.3291 46.5531 71.3291 46.374V46.252H71.207L69.8398 47.4727L69.7422 47.5215L69.6445 47.3018C70.9466 46.2113 71.5977 45.3405 71.5977 44.6895C71.972 42.7689 72.4033 41.8086 72.8916 41.8086C72.8916 41.1738 72.501 40.7344 71.7197 40.4902C71.7197 41.1087 71.5895 41.418 71.3291 41.418C71.3291 41.3203 71.2884 41.2715 71.207 41.2715C70.5234 41.8411 70.1735 42.1911 70.1572 42.3213V42.9805H69.8887V42.1992C69.4655 41.3854 69.2539 40.9053 69.2539 40.7588C69.3353 40.6123 69.376 40.4821 69.376 40.3682H69.6445C69.6445 40.889 69.9863 41.1494 70.6699 41.1494C70.7676 41.0029 70.8164 40.8727 70.8164 40.7588C70.6862 40.7588 70.556 40.5879 70.4258 40.2461C70.5885 39.8555 70.7594 39.6357 70.9385 39.5869L71.207 39.709C71.207 39.5788 71.2965 39.4079 71.4756 39.1963C71.2152 38.1709 71.085 37.3001 71.085 36.584H71.3291L71.5977 36.7061V36.584C71.5977 36.4701 71.3372 36.3398 70.8164 36.1934C70.7025 35.7539 70.5723 35.5342 70.4258 35.5342L70.2793 35.8027V37.0967C70.2793 37.2269 70.1491 37.3571 69.8887 37.4873H69.7666V37.3652C69.8317 35.8841 69.9212 35.1436 70.0352 35.1436C69.9701 35.0133 69.8805 34.4925 69.7666 33.5811H69.8887C69.8073 33.4183 69.7666 33.2881 69.7666 33.1904L69.498 33.3125H69.2539V33.1904C69.2539 32.4417 69.2946 31.6523 69.376 30.8223V30.5781H69.2539C69.2539 31.099 69.1644 31.3594 68.9854 31.3594H68.8633C68.8633 31.0501 68.904 30.6595 68.9854 30.1875C68.9854 30.0573 68.9447 29.4469 68.8633 28.3564C68.9284 27.266 69.0586 26.6068 69.2539 26.3789V25.5977C69.0749 25.5977 68.8551 26.0778 68.5947 27.0381H68.3262V26.916C68.4238 25.679 68.4727 24.9792 68.4727 24.8164C68.2611 24.9954 68.082 25.085 67.9355 25.085V25.4756C67.9355 26.0452 67.846 26.6556 67.667 27.3066H67.4229V26.2568C67.4229 25.4593 67.374 24.6292 67.2764 23.7666L67.4229 22.8633L67.2764 21.9355C67.374 21.2845 67.4229 20.5521 67.4229 19.7383L67.2764 18.8105C67.7158 18.6966 67.9355 17.9561 67.9355 16.5889V16.3203H67.8135C67.8135 16.8411 67.6833 17.1016 67.4229 17.1016H67.2764V16.7109L67.4229 15.8076H67.1543L67.2764 15.1484V13.0732C67.2764 12.5199 67.3252 11.9502 67.4229 11.3643C67.3089 10.404 67.2194 9.79362 67.1543 9.5332C67.1543 6.16406 67.4147 4.33301 67.9355 4.04004C68.2936 3.97493 68.4727 3.84473 68.4727 3.64941C69.0911 3.74707 69.4329 3.7959 69.498 3.7959C70.8164 3.76335 71.4756 3.67383 71.4756 3.52734C71.5081 3.34831 71.5895 3.25879 71.7197 3.25879H71.8662C71.8662 3.63314 72.0778 3.89355 72.501 4.04004H72.6475C72.7126 3.61686 72.8428 3.40527 73.0381 3.40527C73.1683 3.40527 73.2985 3.61686 73.4287 4.04004C73.5589 4.04004 73.7786 3.77962 74.0879 3.25879C74.0879 3.51921 74.7389 3.73893 76.041 3.91797C76.041 3.83659 76.391 3.48665 77.0908 2.86816H77.4814V3.13672H77.2129V3.7959C77.3594 3.7959 77.5303 3.87728 77.7256 4.04004H77.8721L78.3848 3.64941C78.4824 3.64941 78.5312 3.69824 78.5312 3.7959L78.7754 3.64941H79.166V4.04004H79.3125L79.8252 3.52734C80.0042 3.52734 80.0938 3.69824 80.0938 4.04004H80.6064V3.7959L81.5342 3.91797C81.5667 3.73893 81.6481 3.64941 81.7783 3.64941L82.5596 4.18652L83.2188 4.04004C83.4629 4.47949 83.6419 4.69922 83.7559 4.69922H83.8779L84.2686 4.43066V4.57715C84.4476 4.47949 84.5778 4.43066 84.6592 4.43066C85.7334 4.6748 86.9541 5.54557 88.3213 7.04297C88.3213 7.35221 88.4108 7.75098 88.5898 8.23926H88.834V7.9707H88.9805C89.5827 8.60547 89.8838 9.34603 89.8838 10.1924H89.7617C90.0221 11.2178 90.3232 11.9583 90.665 12.4141L90.543 13.9766V16.7109C90.543 18.2897 90.1523 20.0801 89.3711 22.082V22.2041H89.2246L88.9805 22.082C88.5573 23.3678 88.0283 24.1979 87.3936 24.5723L87.1494 24.4258C87.0518 24.5885 87.0029 24.7676 87.0029 24.9629H86.7588V24.5723C86.6286 24.5723 86.3193 24.9141 85.8311 25.5977C85.6846 25.5163 85.5137 25.4756 85.3184 25.4756C85.3184 25.8174 84.8789 25.9883 84 25.9883C84 25.9069 83.9593 25.8662 83.8779 25.8662L83.7559 26.5254C83.8372 26.5254 83.8779 26.5661 83.8779 26.6475L83.6094 26.7695C83.4466 26.5742 83.3652 26.3138 83.3652 25.9883H83.0967C83.0967 26.444 82.7874 26.7044 82.1689 26.7695V26.916C82.4294 27.7135 82.5596 28.1937 82.5596 28.3564C82.2992 28.3564 82.0387 28.7064 81.7783 29.4062C82.0062 29.4062 82.1852 29.9678 82.3154 31.0908V31.6035C82.3154 31.9128 82.1852 32.222 81.9248 32.5312L82.1689 32.9219C81.3877 33.5566 80.9971 34.0775 80.9971 34.4844C81.1273 34.4844 81.3877 34.7448 81.7783 35.2656V35.5342H81.3877L80.9971 34.7529H80.6064V34.875C80.7855 35.1029 80.875 35.2819 80.875 35.4121C80.8262 36.0957 80.696 36.4375 80.4844 36.4375H80.3379L80.0938 36.3154L80.2158 36.0469V35.6562C80.2158 35.5749 79.9147 35.2738 79.3125 34.7529C79.3125 34.3298 79.1823 33.8496 78.9219 33.3125H78.7754C78.7754 33.4264 78.7347 33.5566 78.6533 33.7031L78.7754 34.4844C78.4336 34.6146 78.1732 34.8343 77.9941 35.1436V35.5342L77.3105 38.4395C77.1641 38.293 76.9606 38.1058 76.7002 37.8779C76.7002 38.5778 76.5212 38.9766 76.1631 39.0742L75.9189 38.9277L76.041 38.2686V38.0244C75.7155 38.2848 75.4551 38.415 75.2598 38.415C75.1621 40.6774 74.9424 41.8086 74.6006 41.8086L74.4785 41.54C74.4785 41.4587 74.5192 41.418 74.6006 41.418C74.6006 41.3203 74.5599 41.2715 74.4785 41.2715L74.6006 40.6367V40.0996C74.0798 40.4251 73.8193 40.6449 73.8193 40.7588V41.1494H74.21V41.2715C74.0309 41.4993 73.9414 41.6784 73.9414 41.8086C73.9414 42.0853 74.1204 42.4352 74.4785 42.8584V42.9805H74.21L73.8193 42.7119C73.6403 43.0212 73.5508 43.2816 73.5508 43.4932V43.9082C73.9089 45.0312 74.0879 45.6335 74.0879 45.7148H74.332C74.332 45.4544 74.4215 45.3242 74.6006 45.3242H74.8691C74.8691 45.5195 74.9098 45.6986 74.9912 45.8613C74.9098 46.0078 74.8691 46.1787 74.8691 46.374C75.0319 46.6833 75.1133 46.9437 75.1133 47.1553V47.4238H74.8691C74.8691 47.0983 74.5192 46.488 73.8193 45.5928H73.5508C73.5182 46.0322 73.388 46.252 73.1602 46.252H73.0381C73.0381 45.9915 72.9486 45.8613 72.7695 45.8613C72.6882 46.138 72.623 46.3659 72.5742 46.5449L70.9385 47.1064ZM77.2129 11.2422C76.9525 11.9421 76.7816 13.1628 76.7002 14.9043L76.8223 16.9795C76.6921 19.0791 76.4723 20.1289 76.1631 20.1289V21.1543H76.3096C76.4561 21.1543 76.627 20.4626 76.8223 19.0791C76.9362 19.0791 77.0664 19.0303 77.2129 18.9326L77.8721 19.4697C78.2139 18.9489 78.4336 18.6885 78.5312 18.6885L78.6533 18.9326V19.5918H79.0439V18.9326C79.0602 18.5094 79.1497 18.2979 79.3125 18.2979L79.166 18.0293V17.7607H79.3125L79.7031 18.0293V17.5166L80.3379 17.6387C80.3379 17.5573 80.3867 17.4271 80.4844 17.248L80.7529 17.3701H80.875V16.5889H80.9971C80.8343 16.3773 80.7529 16.2471 80.7529 16.1982C80.9645 16.068 81.0947 15.3275 81.1436 13.9766L80.4844 12.5361V11.877C80.2891 11.877 80.11 11.9258 79.9473 12.0234C79.8008 11.9258 79.6299 11.877 79.4346 11.877V12.1455H79.3125C79.1986 12.1455 79.0684 11.8851 78.9219 11.3643C78.7591 11.4456 78.6289 11.4863 78.5312 11.4863C78.5312 11.4049 78.4824 11.3643 78.3848 11.3643C78.3848 11.4945 78.2546 11.6247 77.9941 11.7549C77.9941 11.6247 77.7337 11.4538 77.2129 11.2422ZM79.0439 14.7578C79.9066 14.9206 80.3379 15.0996 80.3379 15.2949V15.417H80.2158C80.1344 15.417 79.7438 15.2868 79.0439 15.0264V14.7578ZM78.6533 23.9131V24.8164H78.9219L78.7754 23.9131H78.6533ZM77.6035 24.6943V25.3535L77.8721 25.7441C77.7581 25.7441 77.4977 26.0046 77.0908 26.5254C77.514 26.5254 77.7256 26.6963 77.7256 27.0381H77.9941C78.9544 26.7939 79.4346 26.5742 79.4346 26.3789C78.4743 26.3789 77.9941 26.2975 77.9941 26.1348L78.1406 24.8164L77.8721 24.6943H77.6035ZM83.0967 27.0381L83.2188 27.3066C83.2188 27.4857 83.1292 27.5752 82.9502 27.5752H82.8281V27.3066C82.877 27.1276 82.9665 27.0381 83.0967 27.0381ZM78.2627 27.5752V27.8193L78.9219 27.9658H79.0439V27.5752H78.2627ZM76.8223 28.6006V29.9189L76.7002 30.1875H76.8223L77.7256 29.1377V28.8691C77.7256 28.7552 77.514 28.5843 77.0908 28.3564C76.9118 28.389 76.8223 28.4704 76.8223 28.6006ZM78.2627 29.7969L77.9941 29.6504H77.7256C77.0745 30.4316 76.7327 31.221 76.7002 32.0186C76.863 32.0511 76.9443 32.1325 76.9443 32.2627V32.5312L76.8223 33.8252H76.9443C77.7419 33.6299 78.1406 33.3288 78.1406 32.9219C77.9616 32.9219 77.8721 32.8324 77.8721 32.6533C78.0511 32.6533 78.1406 32.5719 78.1406 32.4092C78.043 32.4092 77.9941 32.3604 77.9941 32.2627C78.1243 32.2627 78.2546 32.1325 78.3848 31.8721L78.1406 31.4814C78.1406 31.4001 78.5719 31.1803 79.4346 30.8223V30.5781C79.4346 30.3991 79.3451 30.3096 79.166 30.3096H79.0439V30.5781H78.7754V30.4316C78.9544 30.1549 79.0439 29.8945 79.0439 29.6504L78.6533 29.4062C78.5394 29.4062 78.4092 29.5365 78.2627 29.7969Z" fill="white"/>
</svg>
