<svg width="34" height="26" viewBox="0 0 34 26" fill="none" xmlns="http://www.w3.org/2000/svg">
<g filter="url(#filter0_d)">
<path d="M23.53 19.3054C25.1993 21.0691 25.6746 19.4749 25.7036 18.4574C29.2226 19.3721 30.5713 16.7306 30.8057 15.2955C31.0453 12.1995 28.8127 11.0789 27.6664 10.9057C27.9504 10.5805 27.9939 9.96572 27.9801 9.69895C27.5229 8.51627 26.5699 8.88914 26.1506 9.22342C26.0003 7.75484 25.5631 7.00677 25.3633 6.81631C23.5987 4.39619 21.0956 5.22223 20.0646 5.93776C17.8949 7.63447 18.4498 10.3386 18.9985 11.4785L18.6482 11.3875C18.275 10.3929 17.4806 10.71 17.13 10.9929C14.8082 10.5889 14.3346 10.1832 14.388 10.0308L14.6713 8.9409L13.8539 8.72843L14.0765 7.87204L14.8939 8.08452L15.5516 5.5543L13.7999 5.099L13.5166 6.18894L12.9716 6.04729L13.2549 4.95735L11.4643 4.49193L10.8066 7.02215L11.5852 7.22451L11.3626 8.08089L10.4673 7.84818L10.2953 8.50993L9.63351 8.33793L9.80551 7.67618L9.02698 7.47382L9.24957 6.61744L10.0281 6.8198L10.6858 4.28957L8.97299 3.84439L8.68969 4.93433L7.95009 4.7421L8.23339 3.65216L6.28706 3.14627L5.62941 5.67649L6.56364 5.91932L6.34105 6.7757L5.40682 6.53287L5.12352 7.62282C3.85482 7.25981 3.38617 8.07163 3.31043 8.52292C3.01341 9.40982 3.96371 9.95326 4.47598 10.1141L4.11174 11.5155L5.04598 11.7583L4.85374 12.4979L3.91951 12.2551L3.25173 14.8242L5.19806 15.3301L5.47124 14.2791L6.21084 14.4713L5.93766 15.5223L7.65043 15.9675L7.84266 15.2279C8.56935 13.4554 8.25486 13.2157 8.00678 13.3174C7.4151 13.1636 7.577 12.6793 7.7319 12.4564C8.54158 12.6669 8.67598 12.3416 8.64197 12.1527C8.9029 11.7884 9.22558 11.9858 9.35431 12.1301L9.28896 12.8611L10.0675 13.0635L9.87526 13.8031L9.09673 13.6007L8.62119 15.4303C8.41883 16.2088 8.66823 16.3152 8.81822 16.2711L10.2196 16.6353L10.4928 15.5843L11.0377 15.7259C10.6461 16.7212 10.9519 16.9088 11.1538 16.8781L12.5162 17.2322L13.184 14.6631L12.7169 14.5417C12.0747 13.9426 12.5775 13.799 12.9091 13.8021C13.6484 14.0275 13.6163 13.6396 13.5078 13.4174C13.6859 12.7323 13.8669 12.5688 13.9351 12.5727L16.5432 13.2506C17.1343 14.3019 17.8016 13.9517 18.0613 13.6452C18.4525 13.5474 18.4174 13.8209 18.351 13.9698C16.5125 15.2872 16.3307 17.2125 16.4696 18.0105C16.6323 19.8147 18.1309 20.8387 18.8599 21.1251C21.2322 21.9745 22.9618 20.2659 23.53 19.3054Z" fill="url(#paint0_linear)"/>
</g>
<g filter="url(#filter1_i)">
<path d="M21.1554 18.6885C23.3893 17.6401 22.5314 16.5389 21.8232 16.1193C21.8879 15.8702 22.4569 15.8131 22.7332 15.8156C22.6205 15.3541 22.927 14.9102 23.0944 14.7459C23.8685 14.5814 24.1617 15.0095 24.2116 15.2441C24.5753 14.7402 24.9709 14.7211 25.1232 14.7746C24.7607 15.1458 24.9437 15.8915 25.0805 16.2179C26.2913 16.9316 27.279 16.1799 27.6215 15.7148C28.3246 14.8005 27.9559 13.6824 27.6836 13.2376C26.0374 11.5132 25.4459 12.9469 25.3559 13.8793L24.7984 12.9864C22.8441 13.3428 23.329 12.2443 23.8158 11.6505L23.3129 11.1873C25.3768 10.7929 24.0625 8.30322 23.146 8.1519C21.0422 7.80453 20.5075 9.34998 20.5031 10.1661C20.2117 11.2872 21.3876 11.5596 22.012 11.5557C22.2113 11.9399 21.2834 12.2805 20.7945 12.4028C21.3108 13.1021 20.7601 13.6544 20.4201 13.8431C21.1881 14.3419 21.1403 15.0692 21.0205 15.3705C19.6265 14.2103 18.9683 15.7513 18.8135 16.6668C18.7339 18.5079 20.3416 18.7817 21.1554 18.6885Z" fill="url(#paint1_linear)"/>
</g>
<defs>
<filter id="filter0_d" x="0.218018" y="0.150146" width="33.5583" height="25.035" filterUnits="userSpaceOnUse" color-interpolation-filters="sRGB">
<feFlood flood-opacity="0" result="BackgroundImageFix"/>
<feColorMatrix in="SourceAlpha" type="matrix" values="0 0 0 0 0 0 0 0 0 0 0 0 0 0 0 0 0 0 127 0"/>
<feOffset dy="0.5"/>
<feGaussianBlur stdDeviation="0.5"/>
<feColorMatrix type="matrix" values="0 0 0 0 0 0 0 0 0 0 0 0 0 0 0 0 0 0 0.8 0"/>
<feBlend mode="normal" in2="BackgroundImageFix" result="effect1_dropShadow"/>
<feBlend mode="normal" in="SourceGraphic" in2="effect1_dropShadow" result="shape"/>
</filter>
<filter id="filter1_i" x="18.3594" y="7.61646" width="10.9709" height="13.6685" filterUnits="userSpaceOnUse" color-interpolation-filters="sRGB">
<feFlood flood-opacity="0" result="BackgroundImageFix"/>
<feBlend mode="normal" in="SourceGraphic" in2="BackgroundImageFix" result="shape"/>
<feColorMatrix in="SourceAlpha" type="matrix" values="0 0 0 0 0 0 0 0 0 0 0 0 0 0 0 0 0 0 127 0" result="hardAlpha"/>
<feOffset dy="1"/>
<feGaussianBlur stdDeviation="0.5"/>
<feComposite in2="hardAlpha" operator="arithmetic" k2="-1" k3="1"/>
<feColorMatrix type="matrix" values="0 0 0 0 0 0 0 0 0 0 0 0 0 0 0 0 0 0 0.25 0"/>
<feBlend mode="normal" in2="shape" result="effect1_innerShadow"/>
</filter>
<linearGradient id="paint0_linear" x1="14.93" y1="20.1211" x2="19.0645" y2="4.21407" gradientUnits="userSpaceOnUse">
<stop stop-color="#FEE501"/>
<stop offset="1" stop-color="#FEA801"/>
</linearGradient>
<linearGradient id="paint1_linear" x1="22.4765" y1="19.2148" x2="25.213" y2="8.68659" gradientUnits="userSpaceOnUse">
<stop stop-color="#FEE501"/>
<stop offset="1" stop-color="#FEE501"/>
</linearGradient>
</defs>
</svg>
