<svg width="91" height="157" viewBox="0 0 91 157" fill="none" xmlns="http://www.w3.org/2000/svg">
<path d="M74.2879 33.3303C81.3794 21.984 72.2196 21.6589 66.7533 22.9147C66.7533 2.88137 50.7975 -0.649576 42.8196 0.0891184C25.9774 3.10298 23.0965 16.562 23.7614 22.9147C21.6339 21.851 18.295 22.4715 16.8915 22.9147C11.2184 26.9923 14.5277 31.5574 16.8915 33.3303C9.2682 36.1668 5.885 39.5353 5.14631 40.865C-5.31358 53.6296 2.56088 65.8328 7.80559 70.3388C19.861 79.5577 33.5121 72.8503 38.8307 68.3443L38.8307 70.3388C34.0439 73.7072 36.8362 77.5041 38.8307 78.9815C39.8944 91.9234 38.3875 95.0111 37.501 94.9372L31.296 94.9372L31.296 99.591L26.4206 99.591L26.4206 94.9372L12.0161 94.9372L12.0161 104.91L18.2212 104.91L18.2212 108.012L12.0161 108.012L12.0161 118.206L26.4206 118.206L26.4206 113.774L31.296 113.774L31.296 118.871L35.0633 118.871L35.0633 122.638L31.296 122.638L31.296 127.07L26.4206 127.07L26.4206 122.638L12.0161 122.638L12.0161 132.389L18.2212 132.389L18.2212 136.599L12.0161 136.599L12.0161 147.68L26.4206 147.68L26.4206 142.361L31.296 142.361L31.296 147.68L37.501 147.68C37.3237 154.949 42.3025 156.323 44.8141 156.101C49.9554 156.456 51.5362 150.635 51.6839 147.68L59.6618 147.68L59.6618 142.361L63.8723 142.361L63.8723 147.68L78.4984 147.68L78.4984 136.599L72.515 136.599L72.515 132.389L78.4984 132.389L78.4984 122.638L74.2879 122.638C63.8281 121.22 62.9859 123.229 63.8723 124.411C63.8723 127.78 61.0653 127.587 59.6618 127.07C59.6618 122.461 57.7412 122.195 56.7809 122.638C54.4762 121.752 55.0819 119.757 55.6729 118.871L59.6618 118.206L59.6618 113.774L63.8723 113.774L63.8723 118.206L74.2879 118.206C78.7201 118.206 78.9417 116.729 78.4984 115.99L78.4984 108.012L72.515 108.012L72.515 104.91C78.3655 105.619 78.9417 103.728 78.4984 102.694L78.4984 94.9372L63.8723 94.9372L63.8723 97.5965C61.5676 101.851 60.105 99.3694 59.6618 97.5965C59.8391 93.3417 57.8151 94.0508 56.7809 94.9372C52.8806 94.9372 51.7578 94.1985 51.6839 93.8292L51.6839 78.9815C56.4706 74.372 53.6784 71.2991 51.6839 70.3388C50.6202 68.3886 52.1271 68.1966 53.0136 68.3443C62.587 76.3222 73.106 74.6232 77.1688 72.7765C86.565 69.408 89.9482 59.9971 90.4653 55.7127C91.7063 41.8844 80.1975 35.0293 74.2879 33.3303Z" fill="#817D27"/>
<path d="M74.2878 46.8484C65.6008 36.3885 60.9175 42.4901 59.6617 46.8484C58.2434 46.8484 57.1501 43.8936 56.7808 42.4162C54.4761 43.6572 51.6838 42.6378 50.5758 41.973C48.6256 38.0727 50.5019 35.9157 51.6838 35.3248C48.4927 34.0838 47.8426 32.0007 47.9165 31.1142C50.3985 32.5325 54.1215 30.5233 55.6728 29.3414C57.8002 21.8953 52.4225 17.67 49.4677 16.4881C43.6173 14.0061 38.1657 17.5223 36.1713 19.5906C29.2571 30.7597 37.7225 31.9268 42.8195 31.1142L38.8306 35.3248C43.44 45.2528 36.91 44.1891 33.0688 42.4162L31.2959 45.7403C26.3319 35.2804 14.8768 45.7403 15.3402 50.8373C16.4039 62.5382 25.3864 63.2473 29.7446 62.1393C36.127 62.1393 35.9497 55.4911 35.0632 52.167C36.8361 50.5714 39.9386 55.0479 41.2683 57.4855C44.2821 53.7625 47.9904 55.9343 49.4677 57.4855C51.0633 52.6988 55.0079 51.9453 56.7808 52.167C52.5259 61.2085 61.6562 62.5825 66.7532 62.1393C76.6812 60.0119 75.9129 51.0589 74.2878 46.8484Z" fill="#161621"/>
</svg>
