<svg width="57" height="70" viewBox="0 0 57 70" fill="none" xmlns="http://www.w3.org/2000/svg">
<g filter="url(#filter0_i)">
<path d="M0.012207 20.6955C0.012207 9.64984 8.96651 0.695557 20.0122 0.695557H36.3188C47.3644 0.695557 56.3188 9.64986 56.3188 20.6956V61.4011H0.012207V20.6955Z" fill="#8FFF00"/>
</g>
<path d="M12.7324 56.7551V70H17.9905V56.7551H23.2487V70H29.0327V56.7551H33.7651V34.1786H37.5306V11H8V56.7551H12.7324Z" fill="black"/>
<path d="M12.2065 31.4694V14.6123H34.028V31.4694H12.2065Z" fill="white"/>
<path d="M17.4648 24.2448V19.7295H22.1972V24.2448H17.4648Z" fill="#333333"/>
<path d="M26.9296 24.2448V19.7295H30.8732V24.2448H26.9296Z" fill="#333333"/>
<g filter="url(#filter1_d)">
<path d="M31.1452 45.5653C28.999 49.0368 31.7935 49.1223 33.459 48.7311C33.4887 54.8418 38.3609 55.8951 40.7933 55.658C45.9261 54.7136 46.7849 50.604 46.5726 48.6672C47.2231 48.9885 48.2407 48.7943 48.6681 48.657C50.3925 47.4048 49.3763 46.0173 48.6526 45.48C50.9737 44.6035 52.0007 43.571 52.224 43.1643C55.3956 39.2552 52.9755 35.5446 51.3691 34.1779C47.6781 31.3839 43.5242 33.4501 41.9086 34.8324L41.9056 34.2241C43.3607 33.1895 42.5033 32.0355 41.8928 31.5878C41.5491 27.6418 42.0041 26.6977 42.2746 26.7189L44.1673 26.7097L44.1604 25.2902L45.6475 25.2829L45.6544 26.7024L50.0482 26.681L50.0334 23.6392L48.1407 23.6484L48.136 22.7021L50.0287 22.6929L50.0136 19.5834L45.6198 19.6048L45.6264 20.9568L44.1393 20.964L44.1317 19.4093L42.9826 19.4149L42.977 18.2658L44.1261 18.2602L44.1196 16.9082L45.6067 16.901L45.6133 18.2529L50.007 18.2315L49.9925 15.2573L48.0998 15.2665L48.0936 13.9822L49.9863 13.973L49.9698 10.5932L45.576 10.6146L45.5839 12.2369L44.0968 12.2441L44.0889 10.6218L42.1962 10.631C42.2395 8.41362 40.7188 8.00193 39.953 8.07325C38.3843 7.97274 37.9107 9.75062 37.8701 10.6521L35.4366 10.664L35.4445 12.2863L34.1602 12.2925L34.1523 10.6702L29.6909 10.692L29.7074 14.0718L31.5325 14.0629L31.5388 15.3472L29.7137 15.3561L29.7282 18.3303L31.0125 18.3241C34.2051 18.7411 34.459 18.127 34.1869 17.7678C34.1819 16.7404 35.0384 16.7948 35.4672 16.9504C35.4741 18.3564 36.0603 18.4347 36.3526 18.298C37.0569 18.565 36.8751 19.1743 36.6962 19.4455L35.4804 19.6543L35.487 21.0062L34.2027 21.0124L34.1961 19.6605L31.0191 19.676C29.6671 19.6826 29.6018 20.1336 29.738 20.3582L29.7499 22.7917L31.575 22.7828L31.5796 23.7291C29.794 23.5215 29.6211 24.0992 29.7578 24.414L29.7693 26.7798L34.2307 26.7581L34.2267 25.947C34.9234 24.6457 35.3732 25.4006 35.5111 25.9407C35.4633 27.2388 36.0796 27.0195 36.3938 26.7476C37.5834 26.7418 37.927 26.9654 37.9501 27.078L37.9722 31.6069C36.519 33.02 37.3752 33.9532 37.985 34.2432C38.3124 34.8364 37.853 34.8972 37.5824 34.8535C34.6504 32.4343 31.4444 32.9681 30.2079 33.5375C27.3468 34.5789 26.3288 37.4545 26.1774 38.7621C25.8195 42.982 29.3401 45.0559 31.1452 45.5653Z" fill="url(#paint0_linear)"/>
</g>
<g filter="url(#filter2_i)">
<path d="M31.1247 41.4418C33.79 44.6195 35.2094 42.7514 35.586 41.4201C36.0186 41.418 36.3565 42.3177 36.4713 42.7677C37.1725 42.3858 38.0257 42.6926 38.3647 42.8937C38.9653 44.0805 38.3962 44.7412 38.0366 44.9232C39.0118 45.297 39.2132 45.9315 39.192 46.202C38.4328 45.773 37.3002 46.3915 36.8288 46.7543C36.1909 49.0287 37.8375 50.3095 38.7405 50.6656C40.5288 51.414 42.1864 50.3334 42.7917 49.6995C44.8841 46.2824 42.3002 45.939 40.7467 46.1944L41.9572 44.9041C40.5364 41.8827 42.5298 42.1974 43.7041 42.7325L44.24 41.7159C45.7697 44.8991 49.2482 41.6915 49.0993 40.1375C48.7574 36.57 46.0165 36.367 44.6888 36.7115C42.742 36.721 42.8059 38.7486 43.0813 39.7612C42.5429 40.2506 41.5899 38.8897 41.1807 38.1482C40.2669 39.2882 39.1326 38.6313 38.6796 38.1603C38.2 39.6228 36.9979 39.8585 36.4568 39.7935C37.7413 37.0293 34.9542 36.6237 33.4002 36.7665C30.375 37.4302 30.6227 40.1599 31.1247 41.4418Z" fill="url(#paint1_linear)"/>
</g>
<defs>
<filter id="filter0_i" x="0.012207" y="0.695557" width="56.3066" height="60.7055" filterUnits="userSpaceOnUse" color-interpolation-filters="sRGB">
<feFlood flood-opacity="0" result="BackgroundImageFix"/>
<feBlend mode="normal" in="SourceGraphic" in2="BackgroundImageFix" result="shape"/>
<feColorMatrix in="SourceAlpha" type="matrix" values="0 0 0 0 0 0 0 0 0 0 0 0 0 0 0 0 0 0 127 0" result="hardAlpha"/>
<feOffset/>
<feGaussianBlur stdDeviation="2"/>
<feComposite in2="hardAlpha" operator="arithmetic" k2="-1" k3="1"/>
<feColorMatrix type="matrix" values="0 0 0 0 1 0 0 0 0 0.9 0 0 0 0 0 0 0 0 0.2 0"/>
<feBlend mode="normal" in2="shape" result="effect1_innerShadow"/>
</filter>
<filter id="filter1_d" x="25" y="7.5" width="29.8547" height="49.7561" filterUnits="userSpaceOnUse" color-interpolation-filters="sRGB">
<feFlood flood-opacity="0" result="BackgroundImageFix"/>
<feColorMatrix in="SourceAlpha" type="matrix" values="0 0 0 0 0 0 0 0 0 0 0 0 0 0 0 0 0 0 127 0"/>
<feOffset dy="0.5"/>
<feGaussianBlur stdDeviation="0.5"/>
<feColorMatrix type="matrix" values="0 0 0 0 0 0 0 0 0 0 0 0 0 0 0 0 0 0 0.8 0"/>
<feBlend mode="normal" in2="BackgroundImageFix" result="effect1_dropShadow"/>
<feBlend mode="normal" in="SourceGraphic" in2="effect1_dropShadow" result="shape"/>
</filter>
<filter id="filter2_i" x="30.804" y="36.5762" width="18.3519" height="15.3882" filterUnits="userSpaceOnUse" color-interpolation-filters="sRGB">
<feFlood flood-opacity="0" result="BackgroundImageFix"/>
<feBlend mode="normal" in="SourceGraphic" in2="BackgroundImageFix" result="shape"/>
<feColorMatrix in="SourceAlpha" type="matrix" values="0 0 0 0 0 0 0 0 0 0 0 0 0 0 0 0 0 0 127 0" result="hardAlpha"/>
<feOffset dy="1"/>
<feGaussianBlur stdDeviation="0.5"/>
<feComposite in2="hardAlpha" operator="arithmetic" k2="-1" k3="1"/>
<feColorMatrix type="matrix" values="0 0 0 0 0 0 0 0 0 0 0 0 0 0 0 0 0 0 0.25 0"/>
<feBlend mode="normal" in2="shape" result="effect1_innerShadow"/>
</filter>
<linearGradient id="paint0_linear" x1="26.1159" y1="31.9453" x2="53.7385" y2="31.8108" gradientUnits="userSpaceOnUse">
<stop stop-color="#FEE501"/>
<stop offset="1" stop-color="#FEA801"/>
</linearGradient>
<linearGradient id="paint1_linear" x1="30.8387" y1="43.8148" x2="49.1209" y2="43.7257" gradientUnits="userSpaceOnUse">
<stop stop-color="#8FFF00"/>
<stop offset="1" stop-color="#BCFE01"/>
</linearGradient>
</defs>
</svg>
