<svg width="659" height="601" viewBox="0 0 659 601" fill="none" xmlns="http://www.w3.org/2000/svg">
<ellipse cx="329.5" cy="270.5" rx="229.5" ry="230.5" fill="#FCFDFD"/>
<g filter="url(#filter0_d)">
<ellipse cx="329.5" cy="270.5" rx="229.5" ry="230.5" fill="#FCFDFD"/>
</g>
<g filter="url(#filter1_d)">
<ellipse cx="329.5" cy="270.5" rx="229.5" ry="230.5" fill="#FCFDFD"/>
</g>
<ellipse cx="329.5" cy="270.5" rx="229.5" ry="230.5" fill="#FCFDFD"/>
<path d="M558.555 253C388.504 524.901 149.509 366.798 100.263 253C93.0271 433.458 236.779 493.071 308.303 500.321C496.745 512.965 571.62 346.061 558.555 253Z" fill="#F2F2F2"/>
<path d="M552 331C395 552.5 157.5 437 107 329C142.5 460 247.667 496.013 316 500.5C457 510 535.5 402 552 331Z" fill="#E8E8E8"/>
<ellipse cx="184.5" cy="189" rx="37.5" ry="37" fill="#FAFAFA"/>
<ellipse cx="183" cy="187.5" rx="36" ry="35.5" fill="#EFEFEF"/>
<path d="M158 213C149 206.5 145.5 188 148.363 179.483C150.215 172.801 153.922 166.223 159 161.5C164.078 156.778 170.201 153.863 177 152.5C199.873 150.268 206.102 160.5 210 164C205.5 159.96 195 152.337 177.742 155.798C171.51 157.048 166.154 160.671 161.5 165C156.846 169.329 153.698 173.875 152 180C150.302 186.125 150.5 205 158 213Z" fill="#DEDEDE"/>
<ellipse cx="486.5" cy="308" rx="46.5" ry="46" fill="#FAFAFA"/>
<ellipse cx="484.64" cy="306.135" rx="44.64" ry="44.1351" fill="#EFEFEF"/>
<path d="M453.64 337.838C442.48 329.757 438.14 306.757 441.69 296.168C443.987 287.86 448.583 279.682 454.88 273.811C461.177 267.94 468.769 264.317 477.2 262.622C505.563 259.847 513.286 272.568 518.12 276.919C512.54 271.896 499.52 262.419 478.12 266.722C470.392 268.276 463.751 272.781 457.98 278.162C452.209 283.544 448.305 289.196 446.2 296.811C444.095 304.426 444.34 327.892 453.64 337.838Z" fill="#DEDEDE"/>
<ellipse cx="367.5" cy="413" rx="46.5" ry="47" fill="#FAFAFA"/>
<ellipse cx="365.64" cy="411.095" rx="44.64" ry="45.0946" fill="#EFEFEF"/>
<path d="M334.64 443.486C323.48 435.23 319.14 411.73 322.69 400.911C324.987 392.422 329.583 384.066 335.88 378.068C342.177 372.069 349.769 368.367 358.2 366.635C386.563 363.8 394.286 376.797 399.12 381.243C393.54 376.111 380.52 366.428 359.12 370.825C351.392 372.412 344.751 377.015 338.98 382.513C333.209 388.012 329.305 393.787 327.2 401.568C325.095 409.348 325.34 433.324 334.64 443.486Z" fill="#DEDEDE"/>
<ellipse cx="258.27" cy="183" rx="20.2703" ry="20" fill="#FAFAFA"/>
<ellipse cx="257.459" cy="182.189" rx="19.4595" ry="19.1892" fill="#EFEFEF"/>
<path d="M243.946 195.973C239.081 192.459 237.189 182.459 238.737 177.856C239.738 174.244 241.742 170.688 244.486 168.135C247.231 165.582 250.541 164.007 254.216 163.27C266.58 162.064 269.947 167.595 272.054 169.487C269.622 167.303 263.946 163.182 254.617 165.053C251.248 165.729 248.354 167.687 245.838 170.027C243.322 172.367 241.62 174.824 240.703 178.135C239.785 181.446 239.892 191.649 243.946 195.973Z" fill="#DEDEDE"/>
<ellipse cx="424.27" cy="125" rx="20.2703" ry="20" fill="#FAFAFA"/>
<ellipse cx="423.459" cy="124.189" rx="19.4595" ry="19.1892" fill="#EFEFEF"/>
<path d="M409.946 137.973C405.081 134.459 403.189 124.459 404.737 119.856C405.738 116.244 407.742 112.688 410.486 110.135C413.231 107.582 416.541 106.007 420.216 105.27C432.58 104.064 435.947 109.595 438.054 111.487C435.622 109.303 429.946 105.182 420.617 107.053C417.248 107.729 414.354 109.687 411.838 112.027C409.322 114.367 407.62 116.824 406.703 120.135C405.785 123.446 405.892 133.649 409.946 137.973Z" fill="#DEDEDE"/>
<ellipse cx="529.27" cy="246" rx="20.2703" ry="20" fill="#FAFAFA"/>
<ellipse cx="528.459" cy="245.189" rx="19.4595" ry="19.1892" fill="#EFEFEF"/>
<path d="M514.946 258.973C510.081 255.459 508.189 245.459 509.737 240.856C510.738 237.244 512.742 233.688 515.486 231.135C518.231 228.582 521.541 227.007 525.216 226.27C537.58 225.064 540.947 230.595 543.054 232.487C540.622 230.303 534.946 226.182 525.617 228.053C522.248 228.729 519.354 230.687 516.838 233.027C514.322 235.367 512.62 237.824 511.703 241.135C510.785 244.446 510.892 254.649 514.946 258.973Z" fill="#DEDEDE"/>
<ellipse cx="277.27" cy="384" rx="25.65" ry="25.308" transform="rotate(-1.64519 277.27 384)" fill="#FAFAFA"/>
<ellipse cx="276.215" cy="383.004" rx="24.624" ry="24.282" transform="rotate(-1.64519 276.215 383.004)" fill="#EFEFEF"/>
<path d="M259.623 400.93C253.342 396.662 250.586 384.082 252.376 378.203C253.511 373.597 255.916 369.027 259.295 365.699C262.675 362.37 266.804 360.257 271.426 359.192C287.021 357.216 291.48 364.09 294.214 366.406C291.058 363.732 283.729 358.727 271.997 361.432C267.761 362.409 264.171 364.991 261.073 368.042C257.976 371.093 255.913 374.264 254.873 378.485C253.832 382.706 254.338 395.607 259.623 400.93Z" fill="#DEDEDE"/>
<ellipse cx="325.366" cy="350.034" rx="16.8603" ry="16.6355" transform="rotate(-1.64519 325.366 350.034)" fill="#FAFAFA"/>
<ellipse cx="324.672" cy="349.379" rx="16.1859" ry="15.9611" transform="rotate(-1.64519 324.672 349.379)" fill="#EFEFEF"/>
<path d="M313.766 361.162C309.637 358.357 307.826 350.088 309.002 346.223C309.748 343.196 311.33 340.192 313.551 338.004C315.772 335.816 318.486 334.427 321.524 333.727C331.775 332.429 334.706 336.947 336.504 338.469C334.429 336.712 329.612 333.421 321.9 335.2C319.115 335.842 316.755 337.539 314.719 339.545C312.684 341.55 311.328 343.634 310.644 346.409C309.96 349.183 310.292 357.664 313.766 361.162Z" fill="#DEDEDE"/>
<ellipse cx="223.306" cy="398.139" rx="12.9449" ry="12.7723" transform="rotate(-1.64519 223.306 398.139)" fill="#FAFAFA"/>
<ellipse cx="222.774" cy="397.636" rx="12.4271" ry="12.2545" transform="rotate(-1.64519 222.774 397.636)" fill="#EFEFEF"/>
<path d="M214.4 406.683C211.23 404.529 209.839 398.18 210.743 395.213C211.316 392.889 212.53 390.582 214.235 388.902C215.94 387.223 218.024 386.156 220.357 385.618C228.227 384.622 230.478 388.091 231.857 389.26C230.265 387.91 226.566 385.384 220.645 386.749C218.507 387.242 216.695 388.546 215.132 390.085C213.569 391.625 212.528 393.225 212.003 395.355C211.478 397.486 211.733 403.996 214.4 406.683Z" fill="#DEDEDE"/>
<circle cx="206.5" cy="266.5" r="23.5" fill="#FAFAFA"/>
<ellipse cx="205.56" cy="265.547" rx="22.56" ry="22.5473" fill="#EFEFEF"/>
<path d="M189.893 281.743C184.253 277.615 182.06 265.865 183.854 260.455C185.015 256.211 187.338 252.033 190.52 249.034C193.702 246.034 197.539 244.184 201.8 243.318C216.134 241.9 220.037 248.399 222.48 250.622C219.66 248.056 213.08 243.214 202.265 245.412C198.359 246.206 195.003 248.507 192.087 251.257C189.17 254.006 187.197 256.893 186.133 260.784C185.069 264.674 185.193 276.662 189.893 281.743Z" fill="#DEDEDE"/>
<defs>
<filter id="filter0_d" x="50" y="-10" width="559" height="561" filterUnits="userSpaceOnUse" color-interpolation-filters="sRGB">
<feFlood flood-opacity="0" result="BackgroundImageFix"/>
<feColorMatrix in="SourceAlpha" type="matrix" values="0 0 0 0 0 0 0 0 0 0 0 0 0 0 0 0 0 0 127 0"/>
<feOffset/>
<feGaussianBlur stdDeviation="25"/>
<feColorMatrix type="matrix" values="0 0 0 0 1 0 0 0 0 1 0 0 0 0 1 0 0 0 1 0"/>
<feBlend mode="normal" in2="BackgroundImageFix" result="effect1_dropShadow"/>
<feBlend mode="normal" in="SourceGraphic" in2="effect1_dropShadow" result="shape"/>
</filter>
<filter id="filter1_d" x="0" y="-60" width="659" height="661" filterUnits="userSpaceOnUse" color-interpolation-filters="sRGB">
<feFlood flood-opacity="0" result="BackgroundImageFix"/>
<feColorMatrix in="SourceAlpha" type="matrix" values="0 0 0 0 0 0 0 0 0 0 0 0 0 0 0 0 0 0 127 0"/>
<feOffset/>
<feGaussianBlur stdDeviation="50"/>
<feColorMatrix type="matrix" values="0 0 0 0 0.133333 0 0 0 0 0.294118 0 0 0 0 0.396078 0 0 0 1 0"/>
<feBlend mode="normal" in2="BackgroundImageFix" result="effect1_dropShadow"/>
<feBlend mode="normal" in="SourceGraphic" in2="effect1_dropShadow" result="shape"/>
</filter>
</defs>
</svg>
