<svg width="22" height="14" viewBox="0 0 22 14" fill="none" xmlns="http://www.w3.org/2000/svg">
<path d="M10.3477 9.90135C9.83832 10.4617 9.24495 10.9348 8.6042 11.2915C7.96346 11.6481 7.28895 11.8806 6.62235 11.9748C5.95575 12.0689 5.31123 12.0226 4.72861 11.8387C4.14599 11.6548 3.63764 11.3373 3.23498 10.9057C2.83232 10.4741 2.54391 9.93761 2.38755 9.32942C2.23119 8.72122 2.21022 8.05422 2.32593 7.36962C2.44164 6.68502 2.69157 5.99737 3.06028 5.34916C3.42898 4.70095 3.90864 4.10595 4.4696 3.60092L6.11523 5.68309C5.89775 5.87888 5.71179 6.10956 5.56885 6.36086C5.42591 6.61217 5.32901 6.87876 5.28415 7.14417C5.23929 7.40959 5.24742 7.66818 5.30804 7.90397C5.36866 8.13976 5.48048 8.34774 5.63658 8.51507C5.79269 8.68239 5.98977 8.8055 6.21565 8.87679C6.44152 8.94808 6.6914 8.96603 6.94983 8.92954C7.20826 8.89305 7.46976 8.80289 7.71818 8.66463C7.96659 8.52637 8.19663 8.34295 8.39409 8.1257L10.3477 9.90135Z" fill="#E90000"/>
<path d="M11.8385 9.90135C12.3478 10.4617 12.9412 10.9348 13.582 11.2915C14.2227 11.6481 14.8972 11.8806 15.5638 11.9748C16.2304 12.0689 16.8749 12.0226 17.4575 11.8387C18.0402 11.6548 18.5485 11.3373 18.9512 10.9057C19.3538 10.4741 19.6423 9.93761 19.7986 9.32942C19.955 8.72122 19.9759 8.05422 19.8602 7.36962C19.7445 6.68502 19.4946 5.99737 19.1259 5.34916C18.7572 4.70095 18.2775 4.10595 17.7166 3.60092L16.0709 5.68309C16.2884 5.87888 16.4744 6.10956 16.6173 6.36086C16.7603 6.61217 16.8571 6.87876 16.902 7.14417C16.9469 7.40959 16.9387 7.66818 16.8781 7.90397C16.8175 8.13976 16.7057 8.34774 16.5496 8.51507C16.3935 8.68239 16.1964 8.8055 15.9705 8.87679C15.7446 8.94808 15.4948 8.96603 15.2363 8.92954C14.9779 8.89305 14.7164 8.80289 14.468 8.66463C14.2196 8.52637 13.9895 8.34295 13.7921 8.1257L11.8385 9.90135Z" fill="#E90000"/>
</svg>
