<svg width="23" height="14" viewBox="0 0 23 14" fill="none" xmlns="http://www.w3.org/2000/svg">
<path d="M12.1523 9.90135C12.6616 10.4617 13.255 10.9348 13.8957 11.2915C14.5365 11.6481 15.211 11.8806 15.8776 11.9748C16.5442 12.0689 17.1887 12.0226 17.7713 11.8387C18.354 11.6548 18.8623 11.3373 19.265 10.9057C19.6676 10.4741 19.956 9.93761 20.1124 9.32942C20.2688 8.72122 20.2897 8.05422 20.174 7.36962C20.0583 6.68502 19.8084 5.99737 19.4397 5.34916C19.071 4.70095 18.5913 4.10595 18.0304 3.60092L16.3847 5.68309C16.6022 5.87888 16.7882 6.10956 16.9311 6.36086C17.074 6.61217 17.1709 6.87876 17.2158 7.14417C17.2607 7.40959 17.2525 7.66818 17.1919 7.90397C17.1313 8.13976 17.0195 8.34774 16.8634 8.51507C16.7073 8.68239 16.5102 8.8055 16.2843 8.87679C16.0584 8.94808 15.8086 8.96603 15.5501 8.92954C15.2917 8.89305 15.0302 8.80289 14.7818 8.66463C14.5334 8.52637 14.3033 8.34295 14.1059 8.1257L12.1523 9.90135Z" fill="#E90000"/>
<path d="M10.6615 9.90135C10.1521 10.4617 9.55875 10.9348 8.918 11.2915C8.27725 11.6481 7.60274 11.8806 6.93615 11.9748C6.26955 12.0689 5.62503 12.0226 5.04241 11.8387C4.45978 11.6548 3.95144 11.3373 3.54878 10.9057C3.14612 10.4741 2.8577 9.93761 2.70135 9.32942C2.54499 8.72122 2.52402 8.05422 2.63973 7.36962C2.75544 6.68502 3.00536 5.99737 3.37407 5.34916C3.74278 4.70095 4.22243 4.10595 4.7834 3.60092L6.42903 5.68309C6.21155 5.87888 6.02559 6.10956 5.88265 6.36086C5.7397 6.61217 5.64281 6.87876 5.59795 7.14417C5.55309 7.40959 5.56122 7.66818 5.62184 7.90397C5.68246 8.13976 5.79427 8.34774 5.95038 8.51507C6.10649 8.68239 6.30357 8.8055 6.52944 8.87679C6.75532 8.94808 7.00519 8.96603 7.26363 8.92954C7.52206 8.89305 7.78356 8.80289 8.03197 8.66463C8.28038 8.52637 8.51043 8.34295 8.70789 8.1257L10.6615 9.90135Z" fill="#E90000"/>
</svg>
