<svg width="1892" height="655" viewBox="0 0 1892 655" fill="none" xmlns="http://www.w3.org/2000/svg">
<path opacity="0.4" d="M-581.468 110.811C-612.608 -7.12124 -778.214 -12.1184 -832 10.8685L-829.877 655H1892V103.815C1581.31 6.87076 1197.02 37.853 1153.85 159.284C1063.26 166.08 1038.49 203.758 1025.76 228.244C1000.28 210.254 947.906 216.251 933.752 221.248C775.224 32.3562 447.551 115.309 385.272 208.755C362.059 214.352 336.44 226.412 326.532 231.742C277.275 207.356 199.85 204.758 168.711 213.253C60.5718 111.711 -100.929 155.286 -151.885 200.76C-172.267 187.168 -225.959 184.769 -250.257 184.769C-278.566 63.3385 -509.281 55.343 -581.468 110.811Z" fill="url(#paint0_linear)"/>
<defs>
<linearGradient id="paint0_linear" x1="530" y1="0" x2="530" y2="655" gradientUnits="userSpaceOnUse">
<stop stop-color="#00324E"/>
<stop offset="0.819675" stop-color="#161621"/>
</linearGradient>
</defs>
</svg>
