<svg width="1920" height="655" viewBox="0 0 1920 655" fill="none" xmlns="http://www.w3.org/2000/svg">
<path opacity="0.5" d="M-358.559 110.811C-390.681 -7.12124 -561.515 -12.1184 -617 10.8685L-614.81 655H2193V103.815C1872.5 6.87076 1476.08 37.853 1431.55 159.284C1338.1 166.08 1312.55 203.758 1299.41 228.244C1273.12 210.254 1219.1 216.251 1204.5 221.248C1040.97 32.3562 702.948 115.309 638.703 208.755C614.757 214.352 588.329 226.412 578.108 231.742C527.296 207.356 447.427 204.758 415.304 213.253C303.751 111.711 137.152 155.286 84.5874 200.76C63.5617 187.168 8.1745 184.769 -16.8909 184.769C-46.0933 63.3385 -284.093 55.343 -358.559 110.811Z" fill="url(#paint0_linear)"/>
<defs>
<linearGradient id="paint0_linear" x1="788" y1="0" x2="788" y2="655" gradientUnits="userSpaceOnUse">
<stop stop-color="#002032"/>
<stop offset="0.819675" stop-color="#161621"/>
</linearGradient>
</defs>
</svg>
