<svg width="231" height="43" viewBox="0 0 231 43" fill="none" xmlns="http://www.w3.org/2000/svg">
<path d="M12.2031 29.9922L12.3252 30.627H12.4473C12.5938 30.627 12.7646 30.4642 12.96 30.1387V29.8701C12.8786 29.8701 12.7484 29.8294 12.5693 29.748C12.3252 29.8294 12.2031 29.9108 12.2031 29.9922ZM15.499 32.5312V32.9219H15.7432C15.7432 32.6126 15.7839 32.401 15.8652 32.2871H15.7432C15.5804 32.3034 15.499 32.3848 15.499 32.5312ZM13.4727 40.9785V40.8809C13.4727 40.7669 13.5133 40.6367 13.5947 40.4902C13.5133 39.8229 13.3424 39.4893 13.082 39.4893H12.96L13.082 40.124C12.7402 40.2542 12.5693 40.3763 12.5693 40.4902C12.8298 40.4902 12.96 40.5798 12.96 40.7588L12.8623 40.9297L12.2031 40.9053V40.8809C12.3659 40.8809 12.4473 40.7913 12.4473 40.6123V40.2461H12.3252C12.1624 40.2461 12.0811 40.4577 12.0811 40.8809H11.8125C11.6497 40.8809 11.5684 40.7913 11.5684 40.6123C11.7311 40.6123 11.8125 40.5309 11.8125 40.3682V40.124H11.3242C11.1452 40.6123 10.9743 40.8971 10.8115 40.9785L10.4697 40.9053C10.4372 40.8727 10.4209 40.8239 10.4209 40.7588V40.3682C10.4697 40.2054 10.5592 40.124 10.6895 40.124C10.6081 39.945 10.5674 39.8148 10.5674 39.7334C10.3883 39.7334 10.1605 40.0915 9.88379 40.8076L8.90723 40.6611V40.6123H8.78516L8.54102 40.5879C8.6224 40.5716 8.66309 40.4984 8.66309 40.3682V39.7334L8.12598 40.5391L7.6377 40.4658C7.81673 40.124 7.90625 39.8799 7.90625 39.7334L7.6377 39.6113H7.51562V39.8555H7.27148V39.4893H7.14941C7.14941 39.8311 7.0599 40.002 6.88086 40.002H6.75879L6.63672 39.0986C6.7181 38.3662 6.75879 37.9512 6.75879 37.8535H6.88086C7.01107 37.8535 7.14128 37.9756 7.27148 38.2197V38.9766L7.14941 39.2207H7.27148C7.40169 39.2207 7.61328 38.8057 7.90625 37.9756L7.78418 37.707C7.94694 37.707 8.02832 37.6257 8.02832 37.4629V36.7061C8.02832 35.5505 8.19922 34.7936 8.54102 34.4355C8.6224 34.2891 8.66309 34.0775 8.66309 33.8008V33.2881H8.54102C8.03646 34.3298 7.78418 34.9645 7.78418 35.1924C7.68652 36.055 7.6377 36.5596 7.6377 36.7061H7.02734V36.0713H6.88086V35.9492L7.27148 35.3145C5.83919 35.3145 5.12305 34.932 5.12305 34.167L5.24512 33.5322C5.08236 33.5322 5.00098 33.3288 5.00098 32.9219H4.73242C4.73242 33.5892 4.61035 33.9229 4.36621 33.9229V34.5576C4.36621 34.7204 4.27669 34.8018 4.09766 34.8018H3.85352C3.85352 34.2158 4.02441 33.166 4.36621 31.6523C4.44759 31.3268 4.48828 30.863 4.48828 30.2607C4.29297 30.4235 4.12207 30.5049 3.97559 30.5049V30.8955L3.85352 31.5303H3.60938L3.73145 31.2617C3.53613 31.2617 3.40592 30.9281 3.34082 30.2607C3.40592 28.9098 3.53613 28.2344 3.73145 28.2344C3.89421 28.2344 3.97559 28.4053 3.97559 28.7471H4.09766C4.27669 28.7471 4.36621 28.6576 4.36621 28.4785V27.4775C4.43132 26.973 4.55339 26.7207 4.73242 26.7207C4.8138 26.8672 4.85449 26.9893 4.85449 27.0869C4.85449 28.1449 4.73242 29.0726 4.48828 29.8701C4.92773 29.8701 5.26139 28.8203 5.48926 26.7207H5.63574C5.71712 27.0788 5.92057 27.3311 6.24609 27.4775L6.12402 28.3564V28.9912H6.24609C6.24609 28.7633 6.3763 28.5924 6.63672 28.4785C6.63672 27.5508 6.76693 27.0869 7.02734 27.0869V27.209C7.1901 27.1276 7.31217 27.0869 7.39355 27.0869L7.6377 27.209C7.81673 27.1276 7.94694 27.0869 8.02832 27.0869C8.09342 27.5915 8.21549 27.8438 8.39453 27.8438V27.9902L8.15039 28.3564V28.8691C8.31315 28.8691 8.60612 29.0807 9.0293 29.5039C9.0293 29.748 9.07812 30.041 9.17578 30.3828C8.99674 30.3828 8.90723 30.4235 8.90723 30.5049C9.41178 31.2699 9.91634 31.6523 10.4209 31.6523V31.7744C10.6813 31.693 10.8115 31.6117 10.8115 31.5303L11.4463 31.6523H11.5684C11.7148 31.6523 11.8857 31.3105 12.0811 30.627L11.6904 30.3828C11.609 30.5293 11.5684 30.7002 11.5684 30.8955H11.1777V30.749C11.1777 30.5049 11.3079 30.3828 11.5684 30.3828V29.9922H11.3242V30.2607H11.0557V30.1387C11.2347 29.3086 11.3242 28.8447 11.3242 28.7471C11.1452 28.7471 11.0557 28.6169 11.0557 28.3564L11.4463 27.7217V27.4775C11.251 27.4775 11.0394 27.1846 10.8115 26.5986C10.2256 26.2406 9.93262 25.9395 9.93262 25.6953C10.014 24.9466 10.0547 24.4827 10.0547 24.3037C9.97331 24.3037 9.93262 24.263 9.93262 24.1816C9.65592 24.1816 9.44434 24.5234 9.29785 25.207H8.78516C8.6875 25.207 8.55729 25.0768 8.39453 24.8164V24.3037C8.39453 24.2223 8.44336 24.1816 8.54102 24.1816L8.39453 23.9375V22.668C8.39453 22.5866 8.44336 22.5459 8.54102 22.5459C8.36198 22.1878 8.27246 21.9355 8.27246 21.7891H8.15039C8.15039 23.6445 8.02832 24.5723 7.78418 24.5723C7.60514 24.1654 7.51562 23.7829 7.51562 23.4248H7.14941C7.14941 23.7666 7.0599 23.9375 6.88086 23.9375L6.24609 22.9121V21.667H6.12402C6.12402 22.0739 6.04264 22.2773 5.87988 22.2773H5.75781C5.54622 22.2773 5.41602 22.1146 5.36719 21.7891H5.24512C5.24512 21.8704 5.20443 21.9925 5.12305 22.1553L4.36621 21.9111L4.48828 21.2764V20.6416H4.36621C4.36621 20.9834 4.27669 21.1543 4.09766 21.1543C3.9349 21.1543 3.85352 21.0648 3.85352 20.8857V19.7627L3.73145 19.1279H3.46289V19.25C3.46289 20.1777 3.34082 20.6416 3.09668 20.6416C2.93392 20.6416 2.85254 20.5602 2.85254 20.3975V19.5186H2.58398V19.7627H2.33984C2.33984 19.6813 2.25846 19.3395 2.0957 18.7373H1.94922V19.1279H1.70508C1.54232 19.1279 1.46094 19.0465 1.46094 18.8838V18.249L1.58301 17.6143L1.31445 17.7363C1.2168 17.7363 1.01335 16.8493 0.704102 15.0752L0.435547 15.1973H0.313477L0.435547 14.3184V12.8047C0.435547 10.998 0.728516 9.77734 1.31445 9.14258C1.31445 9.07747 1.48535 8.52409 1.82715 7.48242H2.0957V7.75098H2.21777C2.44564 6.64421 2.81999 6.09082 3.34082 6.09082C3.34082 5.94434 3.64193 5.5293 4.24414 4.8457H4.48828V5.21191H4.61035L5.24512 4.21094C5.29395 4.3737 5.37533 4.45508 5.48926 4.45508H5.63574L6.12402 3.82031L6.24609 4.08887L7.27148 3.82031V3.94238C7.35286 3.94238 7.60514 3.77962 8.02832 3.4541C8.1097 3.4541 8.15039 3.49479 8.15039 3.57617L9.41992 3.06348L9.54199 3.33203V4.08887H9.93262C10.014 3.48665 10.0954 3.10417 10.1768 2.94141C10.6325 3.02279 10.9661 3.06348 11.1777 3.06348L11.8125 2.94141C11.9102 3.07161 11.959 3.32389 11.959 3.69824H12.4473C12.4473 3.4541 12.5368 3.33203 12.7158 3.33203H13.082C13.6029 3.52734 14.612 3.77962 16.1094 4.08887C16.2396 4.39811 16.8337 4.73177 17.8916 5.08984C19.3239 6.16406 20.04 7.22201 20.04 8.26367L20.4307 8.50781C20.4307 8.42643 20.4714 8.38574 20.5527 8.38574C20.8783 8.92285 21.0898 9.54948 21.1875 10.2656C21.0898 10.2656 21.041 10.3145 21.041 10.4121C21.2201 10.4121 21.3503 10.876 21.4316 11.8037C21.5944 11.8037 21.7165 12.0967 21.7979 12.6826C21.7979 13.7406 21.5049 14.7904 20.9189 15.832L20.2842 15.71C20.2842 15.9704 20.2028 16.1006 20.04 16.1006C19.9424 16.1006 19.8122 15.9704 19.6494 15.71L19.0391 16.2227C18.9251 15.7181 18.7949 15.4658 18.6484 15.4658H18.4043C18.4043 15.889 18.3148 16.1006 18.1357 16.1006C17.973 16.1006 17.8916 15.8483 17.8916 15.3438H17.6475L17.1348 16.1006C17.0534 15.9215 17.0127 15.7913 17.0127 15.71C16.7197 15.8727 16.3779 15.9541 15.9873 15.9541H15.8652C15.7025 15.9541 15.6211 15.7507 15.6211 15.3438C15.4258 15.3438 15.1735 15.6367 14.8643 16.2227C13.8714 15.7344 13.3587 15.3519 13.3262 15.0752C13.2448 15.0752 13.1634 14.9531 13.082 14.709L13.2041 14.4404C13.0576 13.6429 12.8949 13.2279 12.7158 13.1953L12.8379 12.292V11.5352H12.7158V11.8037H12.5693C12.2764 11.2829 12.0729 11.0225 11.959 11.0225C11.7962 11.1201 11.6253 11.1689 11.4463 11.1689C11.0231 10.8109 10.8115 10.5098 10.8115 10.2656H10.6895L10.1768 11.1689C10.014 11.1689 9.93262 10.998 9.93262 10.6562C9.42806 10.9004 9.17578 11.2829 9.17578 11.8037V14.3184C9.17578 14.7904 9.59082 15.1322 10.4209 15.3438C10.4209 15.4251 10.4697 15.4658 10.5674 15.4658L10.4209 15.71V16.2227H11.0557V15.9541H11.3242C11.3242 16.5726 11.4463 16.9144 11.6904 16.9795C11.7393 16.9795 11.8695 16.8981 12.0811 16.7354C12.3252 16.7354 12.4473 16.9876 12.4473 17.4922H12.5693C12.7484 17.4922 12.8379 17.4027 12.8379 17.2236C13.1146 17.2236 13.3669 17.6468 13.5947 18.4932H13.7168C13.7819 17.5654 13.9121 17.1016 14.1074 17.1016C14.7747 17.8177 15.1084 18.2409 15.1084 18.3711L15.3525 18.249C15.5967 18.249 15.9385 18.5827 16.3779 19.25C16.5081 19.25 16.679 19.4616 16.8906 19.8848L17.3789 20.2754H17.501V19.7627H17.6475C17.8265 19.7627 18.0299 20.2266 18.2578 21.1543L18.5264 21.2764C18.5264 20.9346 18.6077 20.7637 18.7705 20.7637C19.6657 21.3984 20.3005 22.668 20.6748 24.5723H20.7969V24.3037H21.041V25.9639H21.3096V25.5732H21.5537L21.6758 26.4521V29.626C21.6758 29.7725 21.5537 30.1061 21.3096 30.627C21.3096 31.8477 21.1794 32.987 20.9189 34.0449H20.6748V33.0439L20.7969 32.1406C20.6992 32.1406 20.5771 32.2708 20.4307 32.5312V32.9219H20.2842V33.8008C20.2842 33.9635 20.1621 34.0449 19.918 34.0449V34.4355C19.918 35.9492 19.7471 36.7061 19.4053 36.7061H19.2832V36.0713H19.0391V36.3154H18.7705C18.6077 36.3154 18.5264 36.1527 18.5264 35.8271H18.4043C18.4043 36.1527 18.3555 36.3154 18.2578 36.3154L18.8926 38.3418L18.6484 38.4639H18.1357C17.7777 37.7965 17.5254 37.4629 17.3789 37.4629L16.6221 39.3672C16.6383 39.3835 16.6465 39.3997 16.6465 39.416L16.3779 39.709C16.3454 39.5137 16.1338 39.3997 15.7432 39.3672C15.6618 39.4811 15.6211 39.7334 15.6211 40.124H15.499C15.32 40.124 15.2305 40.0345 15.2305 39.8555L14.9863 40.002C14.7585 40.002 14.6283 39.7904 14.5957 39.3672H14.4736C14.0505 40.0182 13.8389 40.5635 13.8389 41.0029L13.4727 40.9785ZM32.4912 40.0508C32.5563 39.7578 32.6133 39.4404 32.6621 39.0986L32.3936 38.9766H32.2715C32.0111 39.9694 31.596 40.4658 31.0264 40.4658H30.9043C30.7415 40.4658 30.6195 40.1322 30.5381 39.4648C30.7008 39.4648 30.7822 39.3835 30.7822 39.2207V39.0986C30.7822 38.9359 30.6195 38.8545 30.2939 38.8545V38.3418H30.6602C30.6602 38.6022 30.7415 38.7324 30.9043 38.7324H31.0264V38.2197L31.1729 37.6094C30.8799 37.6094 30.709 37.2757 30.6602 36.6084C30.5788 36.6084 30.5381 36.5677 30.5381 36.4863V36.3643C30.7497 35.7295 31.002 35.1924 31.2949 34.7529V33.1416C30.7904 32.7998 30.5381 31.9697 30.5381 30.6514H30.416L30.2939 31.5303L30.416 32.6289C30.3509 33.8008 30.2288 34.3867 30.0498 34.3867H29.9277V33.9961C29.9277 33.6055 29.9684 33.1904 30.0498 32.751L29.9277 32.0186L30.2939 29.4062V28.7959L30.416 28.5273L30.1719 28.4053C30.0091 28.4378 29.9277 28.5273 29.9277 28.6738V30.5293H29.6592V29.4062C29.6592 29.0482 29.708 28.7145 29.8057 28.4053C29.708 28.0798 29.6592 27.7542 29.6592 27.4287V26.3057C29.6592 26.1429 29.5778 26.0615 29.415 26.0615H29.293C29.0488 26.5498 28.9268 26.8753 28.9268 27.0381H28.6826V26.6719C28.6826 25.8418 29.0081 25.4268 29.6592 25.4268C29.5778 24.8571 29.4557 24.5723 29.293 24.5723L28.9268 25.0605V25.6709H28.4385V25.5488C28.6012 25.2559 28.6826 25.0117 28.6826 24.8164C28.2594 24.3932 28.0479 23.9375 28.0479 23.4492V23.083C28.2432 23.083 28.4141 23.0342 28.5605 22.9365L28.8047 23.083C28.9512 22.9854 29.1139 22.9365 29.293 22.9365V23.5713C29.293 23.6689 29.415 23.791 29.6592 23.9375H29.8057V22.9365L29.6592 22.2041C29.7568 22.0576 29.8057 21.8949 29.8057 21.7158C29.6266 21.7158 29.5371 21.6263 29.5371 21.4473V20.4707L29.6592 19.7139C29.5778 19.5674 29.5371 19.4046 29.5371 19.2256L29.6592 18.5908C29.5778 18.4281 29.5371 18.306 29.5371 18.2246L29.0488 18.5908C28.9512 18.5908 28.6582 18.2653 28.1699 17.6143C28.2025 17.4352 28.292 17.3457 28.4385 17.3457C28.764 17.7201 28.9268 17.9723 28.9268 18.1025H29.0488V17.9805C29.0488 17.2318 28.7559 16.8574 28.1699 16.8574C28.1699 17.0202 28.0885 17.1016 27.9258 17.1016C27.8444 16.8086 27.4701 16.6458 26.8027 16.6133V16.2471C27.2422 16.3285 27.4945 16.3691 27.5596 16.3691C27.9176 16.1738 28.292 15.9215 28.6826 15.6123C28.8291 15.6937 28.9512 15.7344 29.0488 15.7344V15.9785L28.292 16.2471V16.3691L28.4385 16.6133L28.6826 16.4912H28.9268C28.9268 16.5238 28.9674 16.6865 29.0488 16.9795H29.1709C29.3662 16.9795 29.529 16.6947 29.6592 16.125C29.6104 15.7832 29.529 15.6123 29.415 15.6123L29.6592 13C29.5778 12.8535 29.5371 12.6501 29.5371 12.3896L28.9268 12.5117V12.0234C28.943 11.8444 29.0244 11.7549 29.1709 11.7549L29.415 11.9014L29.5371 11.6328C29.3092 11.2259 29.1465 11.0225 29.0488 11.0225C29.0488 11.2666 28.9268 11.3887 28.6826 11.3887H28.292C28.292 11.5514 28.2106 11.6328 28.0479 11.6328C28.0479 11.5514 28.0072 11.5107 27.9258 11.5107V11.7549H27.8037C27.7223 11.7549 27.6816 11.7142 27.6816 11.6328L27.4375 11.7549L26.8027 11.3887C26.7051 11.8118 26.583 12.0234 26.4365 12.0234L25.9482 11.1445H25.7041C25.7041 11.3887 25.6146 11.5107 25.4355 11.5107H25.0693C24.3206 10.9411 23.9463 10.3226 23.9463 9.65527L23.5801 9.89941L23.458 9.65527C23.458 8.76009 23.4987 8.1416 23.5801 7.7998C23.4987 7.06738 23.458 6.44076 23.458 5.91992C23.458 5.35026 23.5394 4.56901 23.7021 3.57617H23.9463V4.18652H24.0684C24.2637 4.18652 24.3939 3.89355 24.459 3.30762H24.7031C24.8659 3.30762 24.9473 3.51921 24.9473 3.94238H25.3135C25.3135 3.64941 25.7692 3.35645 26.6807 3.06348C27.0225 3.19368 27.1934 3.31576 27.1934 3.42969V4.18652H27.4375L27.9258 3.30762C28.0072 3.30762 28.1292 3.47852 28.292 3.82031C28.585 3.82031 28.8779 3.60872 29.1709 3.18555H29.293C29.4557 3.18555 29.5371 3.31576 29.5371 3.57617C29.9766 3.57617 30.3509 3.44596 30.6602 3.18555H30.9043C31.3438 3.18555 31.7995 3.39714 32.2715 3.82031C32.2715 3.59245 32.5238 3.38086 33.0283 3.18555C33.1911 3.18555 33.2725 3.31576 33.2725 3.57617C34.249 3.47852 35.0791 3.22624 35.7627 2.81934C35.9255 2.81934 36.0068 3.07161 36.0068 3.57617H36.4951C36.4951 3.2832 36.5358 3.07161 36.6172 2.94141C36.9427 3.10417 37.3984 3.18555 37.9844 3.18555L38.6191 3.06348C38.6354 3.22624 38.7168 3.30762 38.8633 3.30762H39.6201L39.9863 3.06348C40.3932 3.14486 40.5967 3.31576 40.5967 3.57617H41.1094C41.1094 3.23438 41.1908 3.06348 41.3535 3.06348H41.4756C41.6383 3.07975 41.7197 3.16113 41.7197 3.30762L43.3311 3.06348V3.18555C43.6729 3.02279 43.9658 2.94141 44.21 2.94141C44.7959 3.83659 45.0889 4.41439 45.0889 4.6748V7.28711C45.0889 7.5638 45.04 7.77539 44.9424 7.92188L45.0889 8.6543V9.41113C45.0889 10.5179 44.8366 11.2992 44.332 11.7549L43.7217 11.6328C43.7217 11.8118 43.6322 11.9014 43.4531 11.9014H43.3311L42.9648 11.6328H42.8428C42.8428 11.8932 42.7614 12.0234 42.5986 12.0234L41.4756 11.7549C41.3128 11.8525 41.1908 11.9014 41.1094 11.9014C40.9954 11.4782 40.8652 11.2666 40.7188 11.2666H40.4746C40.4746 11.6898 40.3932 11.9014 40.2305 11.9014H40.1084C40.027 11.9014 39.9863 11.8525 39.9863 11.7549L39.7422 11.9014C39.4004 11.7223 39.2295 11.5921 39.2295 11.5107C39.0667 11.5921 38.9447 11.6328 38.8633 11.6328C38.7819 12.7559 38.7412 13.5859 38.7412 14.123V16.6133L38.6191 17.3457C38.7005 17.4922 38.7412 17.6631 38.7412 17.8584C38.6598 18.6885 38.6191 19.307 38.6191 19.7139C38.7819 19.7301 38.8633 19.8115 38.8633 19.958V20.2021L38.7412 20.959C38.7412 21.0404 38.7819 21.0811 38.8633 21.0811L38.7412 21.7158V22.5703C38.7412 22.8633 38.904 23.1562 39.2295 23.4492V24.0596C39.2295 24.2223 39.1481 24.3037 38.9854 24.3037L39.1074 24.5723V24.8164C38.8633 25.1094 38.7412 25.3942 38.7412 25.6709V26.3057L38.8633 26.916C38.7819 26.916 38.7412 26.9567 38.7412 27.0381L38.9854 27.1602C38.9854 26.7533 39.0667 26.5498 39.2295 26.5498H39.3516V26.6719C39.3516 26.7533 39.3109 26.7939 39.2295 26.7939C39.2783 27.152 39.8154 27.4857 40.8408 27.7949V28.0391L40.7188 28.2832H40.8408C41.0524 28.2832 41.4674 27.9089 42.0859 27.1602C42.2324 27.2578 42.3626 27.3066 42.4766 27.3066L42.7207 26.7939C43.2904 26.8753 43.5752 26.9974 43.5752 27.1602V27.3066H43.3311L43.0869 27.1602L42.9648 27.4287L43.209 27.7949V27.917C42.7207 28.2262 42.4766 28.4297 42.4766 28.5273C42.5579 28.6738 42.5986 28.804 42.5986 28.918L42.3545 29.04H42.208V28.7959H42.0859V28.918C42.1673 29.0645 42.208 29.2272 42.208 29.4062C41.8011 29.7969 41.4756 30.7897 41.2314 32.3848H40.9873C40.9873 32.0918 40.9385 31.8883 40.8408 31.7744L39.6201 31.8965H38.7412V31.6523H38.4971L38.7412 32.0186C38.5785 32.2627 38.4564 32.5557 38.375 32.8975C38.375 32.93 38.6191 33.4671 39.1074 34.5088V34.6309C38.8633 34.9401 38.7412 35.3145 38.7412 35.7539V36.2422L38.8633 36.4863C38.7005 36.5026 38.6191 36.584 38.6191 36.7305C38.6191 37.4792 38.7412 37.8535 38.9854 37.8535V38.2197C38.9854 38.3337 38.8633 38.4639 38.6191 38.6104C38.3262 38.0244 38.1146 37.7314 37.9844 37.7314H37.8623V38.0977L38.1309 38.4883L37.8623 38.8545L37.6182 38.7324H37.374C37.5368 38.9603 37.6914 39.1637 37.8379 39.3428L36.5684 39.8555C36.6009 39.7415 36.6172 39.6113 36.6172 39.4648C36.2754 38.8138 36.0312 38.4883 35.8848 38.4883C35.5918 38.4883 35.2581 38.6104 34.8838 38.8545C34.8838 38.7731 34.8431 38.7324 34.7617 38.7324L34.8838 38.4883V38.2197L34.6396 37.8535V37.6094C34.6559 37.4466 34.7373 37.3652 34.8838 37.3652C35.0465 37.3815 35.1279 37.4629 35.1279 37.6094L35.0059 37.8535L35.25 37.9756C35.429 37.9756 35.5592 37.7314 35.6406 37.2432L35.3965 37.3652C35.0547 37.235 34.8838 37.113 34.8838 36.999C34.9326 36.4945 35.0547 36.1201 35.25 35.876C35.25 35.7132 35.1686 35.6318 35.0059 35.6318H34.8838V35.7539C34.8838 36.3887 34.6803 37.1699 34.2734 38.0977H34.0293L33.6387 37.4873H33.5166C33.5166 38.5615 33.3132 39.0986 32.9062 39.0986C32.9876 39.2451 33.0283 39.3672 33.0283 39.4648H33.1504L32.4912 40.0508ZM38.8633 28.4053V28.7959C38.9935 28.7959 39.1562 28.625 39.3516 28.2832V28.1611H39.1074C38.9447 28.1774 38.8633 28.2588 38.8633 28.4053ZM38.8633 29.1621V29.2842C39.1074 29.2842 39.2295 29.4062 39.2295 29.6504H39.8643V29.4062C39.6038 29.1133 39.4736 28.9098 39.4736 28.7959H39.2295C39.1156 28.7959 38.9935 28.918 38.8633 29.1621ZM39.6201 31.1396L39.8643 31.2617H40.1084C40.2712 30.6432 40.3525 30.2363 40.3525 30.041C40.2712 30.041 40.2305 29.9922 40.2305 29.8945C39.8236 29.8945 39.6201 30.3096 39.6201 31.1396ZM38.7412 30.6514V31.1396H39.1074V31.0176L38.9854 30.4072C38.8226 30.4235 38.7412 30.5049 38.7412 30.6514ZM52.3887 36.8037C52.1445 36.5758 52.0225 36.0387 52.0225 35.1924V34.5332C52.1527 33.9147 52.3317 33.6055 52.5596 33.6055H52.6816L52.5596 34.9238L52.6816 36.5107C52.9583 36.5107 53.0967 35.9411 53.0967 34.8018L52.9502 33.874L53.0967 33.2148C53.0967 33.1497 53.0479 32.8893 52.9502 32.4336V31.6279H52.5596C52.4456 32.3441 52.2666 32.7021 52.0225 32.7021C51.8109 32.5231 51.6807 32.4336 51.6318 32.4336C51.6318 32.515 51.5911 32.5557 51.5098 32.5557L51.6318 33.2148C51.583 34.0938 51.4528 34.5332 51.2412 34.5332H51.1191C51.1191 34.224 51.0703 34.0042 50.9727 33.874C51.0703 33.5648 51.1191 33.3939 51.1191 33.3613C51.0215 32.043 50.9727 31.1641 50.9727 30.7246C51.1517 30.1549 51.2412 29.7562 51.2412 29.5283V28.7471H51.5098C51.5098 28.6494 51.4609 28.5192 51.3633 28.3564C51.4609 27.8682 51.5098 27.4694 51.5098 27.1602C51.347 27.2415 51.2168 27.2822 51.1191 27.2822V28.21L50.7041 28.7471V29.5283C50.7041 30.3421 50.6634 31.0908 50.582 31.7744C50.6634 32.2301 50.7041 32.6696 50.7041 33.0928L50.582 34.2646C50.6634 34.7367 50.7041 35.1354 50.7041 35.4609L50.582 36.1201L50.8506 36.6328C50.7367 37.7559 50.6471 38.3743 50.582 38.4883C50.6634 38.6348 50.7041 38.8057 50.7041 39.001C50.4762 39.18 50.0856 39.359 49.5322 39.5381L49.4102 39.2695C50.0124 37.9837 50.3135 37.0641 50.3135 36.5107H50.0449L50.1914 35.583C50.0938 34.8343 50.0449 34.224 50.0449 33.752H49.6543V34.2646H49.5322C49.3532 34.2646 49.2637 34.1833 49.2637 34.0205C49.5241 33.6462 49.6543 33.2881 49.6543 32.9463L49.4102 33.0928L48.751 32.8242C48.637 33.8333 48.458 34.4437 48.2139 34.6553V35.1924C48.2139 36.2666 48.0837 37.235 47.8232 38.0977H47.5547C47.7337 35.2819 47.9535 33.6543 48.2139 33.2148L48.0918 32.9463C48.1732 32.2464 48.3034 31.8965 48.4824 31.8965H48.751C48.751 32.0755 48.7917 32.165 48.873 32.165C49.0521 32.0837 49.1823 32.043 49.2637 32.043C49.2637 32.1243 49.3125 32.165 49.4102 32.165C49.4102 32.0837 49.4508 32.043 49.5322 32.043C49.6136 32.2057 49.6543 32.3359 49.6543 32.4336H49.8008C49.8008 31.9453 49.8415 31.457 49.9229 30.9688V30.8467H49.8008V31.1152H49.5322C49.1742 30.4316 48.9951 29.6423 48.9951 28.7471H48.751C48.751 30.5863 48.5719 31.5059 48.2139 31.5059L47.9453 30.9688C47.9453 30.7572 48.0348 30.1468 48.2139 29.1377L47.8232 29.4062H47.5547V29.2598L51.1191 12.0234C51.2819 12.0234 51.6318 10.5342 52.1689 7.55566C52.7386 4.75618 53.1292 3.25879 53.3408 3.06348H53.6094V3.20996L53.8779 3.06348C54.057 3.06348 54.1465 3.24251 54.1465 3.60059H54.3906C54.5697 3.60059 54.6592 3.47038 54.6592 3.20996H54.8057C54.9684 3.20996 55.0498 3.38086 55.0498 3.72266H55.5869C55.5869 3.2832 55.6764 3.06348 55.8555 3.06348H56.7832L57.1738 3.33203H57.5645C57.5645 2.89258 57.654 2.67285 57.833 2.67285C57.833 2.80306 57.9632 2.93327 58.2236 3.06348L58.8828 2.94141C58.9154 3.12044 59.0049 3.20996 59.1514 3.20996H59.9326V2.79492C60.9906 2.79492 61.5195 3.01465 61.5195 3.4541H61.9102C61.9102 3.1123 61.9997 2.94141 62.1787 2.94141H63.082C63.4401 3.39714 63.8389 3.70638 64.2783 3.86914C64.7178 4.58529 64.9375 5.32585 64.9375 6.09082H64.791C64.8236 6.66048 65.0921 7.6696 65.5967 9.11816L65.7188 9.77734C65.6374 10.7051 65.5072 11.4945 65.3281 12.1455V12.6826H65.7188L65.8652 11.3643H66.1094C66.1094 11.7223 66.1582 12.0723 66.2559 12.4141C66.2559 12.4629 66.207 12.6419 66.1094 12.9512C66.2721 13.9277 66.5407 14.8066 66.915 15.5879C66.915 15.6693 66.9557 15.7995 67.0371 15.9785L66.915 16.7598V16.8818C67.1755 17.598 67.4847 19.0465 67.8428 21.2275C67.8428 21.7646 67.6637 22.0332 67.3057 22.0332C67.2243 23.1237 67.1836 23.7829 67.1836 24.0107V24.2549H67.3057C67.6637 23.5225 67.8428 22.6924 67.8428 21.7646H67.9648C68.0951 21.7646 68.2253 21.8949 68.3555 22.1553V22.5459C68.3555 23.0505 68.3962 23.7585 68.4775 24.6699C68.4775 25.0117 68.266 25.1826 67.8428 25.1826V25.9883C68.1846 25.9883 68.3555 26.4684 68.3555 27.4287H68.4775L68.624 26.7695V25.0605H68.7461C68.86 25.0605 69.0798 25.8011 69.4053 27.2822C69.5192 27.2822 69.6087 27.4613 69.6738 27.8193L69.5518 28.6006C69.6331 29.1051 69.6738 29.5446 69.6738 29.9189C69.5436 29.9189 69.3646 30.098 69.1367 30.4561L69.7959 31.2373C69.7633 31.7744 69.5924 32.043 69.2832 32.043V32.4336C69.2832 32.515 69.3239 32.5557 69.4053 32.5557L69.1367 33.752L69.2832 34.5332C69.2832 34.6634 69.2344 35.2819 69.1367 36.3887H69.6738V36.9014C69.6738 37.4385 69.4948 37.707 69.1367 37.707V38.7568C69.1367 38.9196 69.0553 39.001 68.8926 39.001H68.7461L68.4775 38.8789L68.7461 37.707C68.6647 36.7956 68.624 36.0876 68.624 35.583C68.7054 35.2738 68.7461 35.1029 68.7461 35.0703C68.6484 34.4518 68.5182 34.1426 68.3555 34.1426C68.2904 35.1354 68.1195 35.7458 67.8428 35.9736C67.8428 37.5524 67.623 38.7812 67.1836 39.6602C67.1836 40.0182 67.0941 40.1973 66.915 40.1973H66.5244L66.3779 39.5381V37.9512C66.3779 37.7559 66.3372 37.585 66.2559 37.4385C66.2559 37.3408 66.2965 37.292 66.3779 37.292L66.2559 35.7295V34.5332C65.9466 34.5332 65.7269 35.2331 65.5967 36.6328H65.3281L65.2061 35.9736C65.2061 34.4925 65.377 33.752 65.7188 33.752V32.9463C65.7188 32.5719 65.7676 32.0918 65.8652 31.5059C65.8652 31.4245 65.8164 31.3838 65.7188 31.3838L65.8652 30.7246V29.6748C65.5723 29.6748 65.3525 29.626 65.2061 29.5283C64.9294 30.4072 64.791 30.8874 64.791 30.9688L65.0596 30.8467H65.3281C65.3281 31.6117 65.1084 33.1009 64.6689 35.3145C64.7503 35.4772 64.8398 35.9167 64.9375 36.6328C64.7585 37.821 64.6689 38.6104 64.6689 39.001C64.555 39.001 64.4248 38.7812 64.2783 38.3418L64.4004 37.4385V35.4609C64.2376 35.4609 64.1562 35.2819 64.1562 34.9238C63.3424 35.5423 62.8135 35.8516 62.5693 35.8516L61.6416 35.583V34.9238C61.6416 34.8424 61.6823 34.8018 61.7637 34.8018C61.6009 34.4437 61.5195 33.9635 61.5195 33.3613C61.2428 33.3613 60.9336 33.3125 60.5918 33.2148C60.5104 33.5729 60.3314 33.752 60.0547 33.752L59.542 33.4834C58.3701 33.9554 57.4912 34.6064 56.9053 35.4365L52.3887 36.8037ZM57.9551 19.0059C58.0365 19.0059 58.0771 19.4453 58.0771 20.3242H57.833C57.833 21.0566 57.7435 21.7565 57.5645 22.4238C57.6458 23.0098 57.6865 23.4899 57.6865 23.8643V25.4512C57.7354 25.6302 57.8249 25.7197 57.9551 25.7197H58.2236V23.8643L58.3457 23.2051H58.4922C58.4922 23.8887 58.7526 24.8571 59.2734 26.1104C59.6641 26.1104 59.8838 25.4105 59.9326 24.0107V21.4961C60.1117 21.2845 60.2012 21.1543 60.2012 21.1055V20.4463H59.9326L59.8105 21.7646H59.6641C59.4525 21.7646 59.2816 21.0648 59.1514 19.665L58.8828 19.5186C58.9642 19.3558 59.0049 19.2256 59.0049 19.1279C59.0049 18.7536 58.9154 18.3141 58.7363 17.8096C58.4434 17.8096 58.1829 18.2083 57.9551 19.0059ZM59.9326 28.8691V29.2598C60.0628 29.2598 60.193 29.1296 60.3232 28.8691V28.7471C60.1768 28.8285 60.0465 28.8691 59.9326 28.8691ZM67.1836 28.8691C67.1836 29.1296 67.0452 29.3493 66.7686 29.5283C66.7686 30.1631 66.5977 31.042 66.2559 32.165L66.3779 32.8242C66.2965 33.4427 66.2559 33.7926 66.2559 33.874V34.4111H66.3779C66.6058 32.1162 66.8743 30.9688 67.1836 30.9688H67.3057V31.1152C67.3057 32.694 67.1266 33.6136 66.7686 33.874C66.7686 34.6878 66.7279 35.4365 66.6465 36.1201L66.7686 37.0479C66.6872 37.6338 66.6465 38.1139 66.6465 38.4883V38.6104H66.7686C67.1266 38.0407 67.3057 37.4303 67.3057 36.7793C67.1917 36.1608 67.0615 35.8516 66.915 35.8516C67.2243 33.8333 67.444 32.8242 67.5742 32.8242C67.8346 32.0267 68.0055 31.6279 68.0869 31.6279C68.0869 31.7256 68.1357 31.7744 68.2334 31.7744C68.5752 30.1631 68.7461 29.2435 68.7461 29.0156H68.3555V29.6748C68.0137 29.8864 67.8428 30.1061 67.8428 30.334C67.5335 30.4154 67.3545 30.4561 67.3057 30.4561V28.8691H67.1836ZM57.1738 32.9463C57.1738 33.1742 57.0436 33.4834 56.7832 33.874C56.946 34.1019 57.0273 34.2809 57.0273 34.4111H57.1738C57.5156 34.0531 57.776 33.874 57.9551 33.874V33.6055L57.5645 33.874L57.418 33.6055C57.597 33.6055 57.6865 33.5241 57.6865 33.3613L57.1738 32.9463ZM58.3457 33.0928V33.3613H58.7363V33.0928H58.3457ZM83.126 39.2939C82.833 38.6917 82.6133 38.3743 82.4668 38.3418C82.2552 38.472 81.9215 38.6022 81.4658 38.7324V38.6104C81.889 38.1546 82.1006 37.8617 82.1006 37.7314C82.2633 37.7314 82.3447 37.5687 82.3447 37.2432C82.1494 37.2432 81.9785 36.8688 81.832 36.1201C82.0436 35.9574 82.2145 35.876 82.3447 35.876V35.6074H81.832V35.2412H81.9541L82.2227 35.3633L82.3447 35.1191V33.6299L82.4668 33.3857L82.2227 33.2637H81.5879L81.832 32.751C81.3438 32.751 81.0996 32.6696 81.0996 32.5068C81.5065 32.4092 81.71 32.2871 81.71 32.1406C81.4658 32.1406 81.3438 32.0511 81.3438 31.8721V31.75C81.36 31.5872 81.4414 31.5059 81.5879 31.5059L81.4658 30.8955L81.71 30.5049V30.3828L81.3438 29.8945V29.7725L81.4658 29.5283C81.3031 29.5283 81.2217 29.4388 81.2217 29.2598V29.1377L81.4658 28.7715V28.6494C81.3193 28.6494 81.1159 28.5273 80.8555 28.2832C79.7487 29.0319 79.1221 29.6097 78.9756 30.0166V30.2607C79.1383 30.2607 79.3906 30.391 79.7324 30.6514V30.2607H79.4883V29.8945C79.5046 29.7318 79.5859 29.6504 79.7324 29.6504C79.8952 30.1387 80.0579 30.3828 80.2207 30.3828V30.0166H80.4648C80.6276 30.0329 80.709 30.1143 80.709 30.2607V30.3828C80.2533 30.8385 79.9684 31.5059 79.8545 32.3848L80.2207 32.6289L80.4648 32.5068C80.6113 32.5882 80.7822 32.6289 80.9775 32.6289V32.751C80.6357 32.9463 80.4648 33.1986 80.4648 33.5078L79.6104 34.1182C79.4964 34.7367 79.0814 35.3633 78.3652 35.998V36.2422H78.4873C78.6501 36.1608 78.7721 36.1201 78.8535 36.1201L78.9756 36.3643C78.8454 36.3643 78.6419 36.7793 78.3652 37.6094L77.6084 37.585C77.3968 37.5199 77.2747 37.1943 77.2422 36.6084C77.1608 36.6084 77.1201 36.5677 77.1201 36.4863V36.3643C77.3154 35.7132 77.5596 35.1761 77.8525 34.7529V33.1172C77.3643 32.7917 77.1201 31.9697 77.1201 30.6514H76.998L76.8516 31.5059L76.998 32.6289C76.9329 33.7845 76.8027 34.3623 76.6074 34.3623H76.4854V33.9961L76.6074 32.5068L76.3633 32.3848C76.6888 30.7572 76.8516 29.7643 76.8516 29.4062V28.7715L76.998 28.5273L76.7295 28.4053C76.5667 28.4215 76.4854 28.5029 76.4854 28.6494V30.5049C76.1436 30.7979 75.9401 31.1722 75.875 31.6279C75.582 31.7093 75.4111 31.75 75.3623 31.75C75.1182 31.3431 74.9961 31.0583 74.9961 30.8955C75.1589 29.9515 75.4925 29.3249 75.9971 29.0156L76.1191 28.2832C75.9564 28.2832 75.875 28.1937 75.875 28.0146C75.9564 27.445 75.9971 26.9893 75.9971 26.6475V26.5254C75.8669 26.5254 75.7448 26.6556 75.6309 26.916V27.4043C75.6309 28.1042 75.2972 29.0156 74.6299 30.1387V30.2607H74.2393V29.0156H74.1172C74.1172 29.3574 73.9544 29.9027 73.6289 30.6514V31.1396C73.6289 31.7744 73.6696 32.3522 73.751 32.873L73.5068 34.6309H73.2627C73.2627 34.3379 73.3034 33.4671 73.3848 32.0186L73.2627 30.8955L73.751 28.4053V27.6484C73.458 27.7949 73.0837 28.8773 72.6279 30.8955H72.2617V30.3828C72.2617 28.9017 72.3838 28.1611 72.6279 28.1611C72.6279 28.2425 72.6686 28.2832 72.75 28.2832C72.8314 27.3717 72.9616 26.8265 73.1406 26.6475V26.1592C73.1406 25.9964 73.0511 25.915 72.8721 25.915C72.8721 26.5824 72.7093 26.916 72.3838 26.916V27.6484H72.1396C72.3187 25.7279 72.4814 24.735 72.6279 24.6699V23.4248C72.6279 23.262 72.5465 23.1807 72.3838 23.1807H72.2617C72.2617 23.2946 72.1803 23.4574 72.0176 23.6689V24.0352C72.0176 25.8092 71.8467 26.8509 71.5049 27.1602H71.2607C71.4235 25.679 71.5049 24.4746 71.5049 23.5469C71.3096 23.7096 71.1468 23.791 71.0166 23.791V23.9131H71.2607V24.1572C70.8213 24.499 70.5283 24.6699 70.3818 24.6699V24.792L70.5283 25.4023C70.2679 25.4512 70.1377 25.7848 70.1377 26.4033V27.4043H70.0156C69.8529 27.4043 69.7715 27.3229 69.7715 27.1602C69.9342 25.3372 70.0156 24.0107 70.0156 23.1807H69.8936V19.6895H70.1377V19.9336C70.3005 19.9336 70.3818 19.8522 70.3818 19.6895V19.2012H70.0156C70.0156 18.6966 70.1865 18.4443 70.5283 18.4443V18.3223C70.3493 18.3223 70.2598 18.2816 70.2598 18.2002L70.0156 18.3223H69.8936C69.8936 18.0293 69.8529 17.8177 69.7715 17.6875C69.8529 16.8411 69.8936 16.182 69.8936 15.71V14.709C70.2191 14.709 70.4307 14.0905 70.5283 12.8535V12.4629H70.3818C70.3818 12.8372 70.2598 13.5046 70.0156 14.4648H69.7715V13.3418C69.7715 12.821 69.8122 12.2025 69.8936 11.4863L69.7715 10.7295L69.8936 10.1191C69.8936 10.0052 69.8529 9.59017 69.7715 8.87402C69.7715 5.04915 69.9749 3.13672 70.3818 3.13672L70.5283 3.38086V4.01562H70.8945C70.9596 3.42969 71.0817 3.13672 71.2607 3.13672C71.4235 3.13672 71.5049 3.389 71.5049 3.89355H71.8955C71.8955 3.30762 72.2699 3.01465 73.0186 3.01465H73.5068C73.8161 3.43783 74.0195 3.64941 74.1172 3.64941C74.2474 3.30762 74.3776 3.13672 74.5078 3.13672C74.6706 3.13672 74.752 3.34831 74.752 3.77148H75.1182C75.1182 3.18555 75.4111 2.89258 75.9971 2.89258H76.1191V3.25879H76.4854L76.8516 3.01465H77.2422C77.3236 3.01465 77.3643 3.05534 77.3643 3.13672L77.6084 3.01465H77.7305C77.7793 3.01465 77.9014 3.09603 78.0967 3.25879H78.3652C78.3652 3.01465 78.4466 2.89258 78.6094 2.89258C78.7721 2.89258 78.8535 3.01465 78.8535 3.25879H79.3418C79.3418 3.01465 79.4313 2.89258 79.6104 2.89258C79.7731 2.89258 79.8545 3.05534 79.8545 3.38086H79.9766L80.4648 3.01465H80.5869C80.7822 3.01465 80.9531 3.05534 81.0996 3.13672C81.2624 3.05534 81.7181 2.97396 82.4668 2.89258C82.5482 3.02279 82.5889 3.27507 82.5889 3.64941H82.9551C83.0039 3.64941 83.1341 3.5599 83.3457 3.38086V3.50293L84.0781 3.25879C84.5827 3.29134 85.1605 3.54362 85.8115 4.01562V3.64941H86.0801C86.5521 3.92611 87.1299 4.17025 87.8135 4.38184C87.8135 4.72363 88.0658 5.0166 88.5703 5.26074V5.0166H88.6924C88.7249 5.66764 88.847 5.99316 89.0586 5.99316C89.0586 5.58626 89.14 5.38281 89.3027 5.38281H89.4248C89.5876 5.39909 89.6689 5.48047 89.6689 5.62695V5.87109C89.6689 5.95247 89.6283 5.99316 89.5469 5.99316C90.2142 6.72559 90.5479 7.18132 90.5479 7.36035C90.5479 7.49056 90.6292 7.82422 90.792 8.36133L91.0361 8.23926H91.1826V9.11816C91.4268 9.11816 91.5488 9.19954 91.5488 9.3623V10.4854C91.8743 11.2503 92.0371 11.7467 92.0371 11.9746V12.7314C92.0371 13.2035 91.9964 13.4883 91.915 13.5859C91.9964 14.0254 92.0371 14.3997 92.0371 14.709V15.3438C92.0371 16.776 91.6221 18.5583 90.792 20.6904C89.8643 21.8298 89.3678 22.6191 89.3027 23.0586C89.3841 23.2214 89.4655 23.5876 89.5469 24.1572L89.8154 24.0352H90.0596C90.0596 24.4583 90.141 24.6699 90.3037 24.6699C90.3037 24.3281 90.4665 24.0758 90.792 23.9131C90.9222 23.9131 91.0524 24.0433 91.1826 24.3037L90.6699 26.5254H90.5479C90.3037 26.1185 90.1816 25.8337 90.1816 25.6709C90.3281 25.6709 90.4909 25.4186 90.6699 24.9141L90.4258 24.792C90.1328 25.2965 89.9294 25.5488 89.8154 25.5488C89.8154 25.3698 89.7259 25.2803 89.5469 25.2803V25.5488C89.5469 25.7116 89.7992 26.2487 90.3037 27.1602C90.1084 27.7298 89.9863 28.0146 89.9375 28.0146C90.1003 28.2913 90.1816 28.5436 90.1816 28.7715V29.0156C90.1816 29.1784 90.0107 29.2598 89.6689 29.2598V30.1387C89.848 30.4805 89.9782 30.6514 90.0596 30.6514C89.8968 31.693 89.8154 32.3929 89.8154 32.751C90.141 32.751 90.3037 33.166 90.3037 33.9961L89.9375 34.2402C89.5957 34.0775 89.4248 33.9554 89.4248 33.874L89.1807 33.9961L88.9365 33.874V34.7529C88.5947 34.7529 88.4238 34.9157 88.4238 35.2412L88.5703 35.876C88.5703 37.113 88.3994 37.7314 88.0576 37.7314L87.9355 37.4873V37.3652L88.0576 36.7305C87.8949 36.7305 87.8135 36.6084 87.8135 36.3643C87.8135 35.7458 87.9762 35.3307 88.3018 35.1191C88.4808 33.9961 88.5703 33.2881 88.5703 32.9951V32.5068C88.7331 32.2952 88.8145 32.1732 88.8145 32.1406L88.5703 32.0186C88.4564 32.5882 88.3262 32.873 88.1797 32.873H87.9355V32.6289H87.8135L87.6914 33.2637V33.5078H87.9355V33.752L87.6914 34.1182V34.5088L87.4473 36.7305H87.2031L87.0566 36.1201V35.876L87.2031 34.9971C87.1055 34.9971 87.0566 34.9564 87.0566 34.875L86.8125 34.9971H86.6904C86.4463 34.9971 86.3242 34.7448 86.3242 34.2402C86.5684 34.2402 86.6904 33.9554 86.6904 33.3857V32.751H86.5684V33.1172L85.958 32.9951L85.8115 33.2637C85.8115 33.3451 85.8604 33.3857 85.958 33.3857L85.8115 33.9961C86.1533 34.9889 86.3242 36.0306 86.3242 37.1211C85.7383 38.1139 85.4046 38.6104 85.3232 38.6104L84.5664 37.7314H84.4443V38.0977L84.7129 38.4883L84.4443 38.8545L84.2002 38.7324H83.9561C84.0212 38.8138 84.0863 38.8952 84.1514 38.9766L83.126 39.2939ZM81.5879 10.3633C81.5065 10.8516 81.3844 11.0957 81.2217 11.0957C81.0589 10.8353 80.9775 10.6318 80.9775 10.4854H80.8555L80.3428 11.0957C79.887 11.0143 79.5127 10.9736 79.2197 10.9736C78.9919 11.5433 78.8291 12.0885 78.7314 12.6094C78.8128 13.4232 78.8942 13.8301 78.9756 13.8301L78.8535 14.4648V15.71L78.9756 16.4668L78.8535 16.7109L79.0977 17.834C79.0163 17.9642 78.9756 18.0863 78.9756 18.2002L79.2197 18.3223L79.7324 16.9551V16.833L79.6104 16.0762C79.6917 15.9134 79.7324 15.7913 79.7324 15.71L79.6104 15.4658C79.6917 15.3193 79.7324 15.1484 79.7324 14.9531H79.9766L80.2207 17.9561C80.5951 17.777 80.8066 17.6061 80.8555 17.4434V17.3213C80.5951 17.012 80.4648 16.7272 80.4648 16.4668H80.5869C81.0915 16.9551 81.4658 17.1992 81.71 17.1992C81.71 17.0202 82.0029 16.8574 82.5889 16.7109C82.7516 16.5807 82.8737 15.71 82.9551 14.0986L82.833 13.4639C82.9144 13.3174 82.9551 13.1139 82.9551 12.8535C82.2552 11.7956 81.8402 10.9655 81.71 10.3633H81.5879ZM89.5469 15.3438V16.7109H89.6689C89.6689 16.3366 89.7178 16.0843 89.8154 15.9541C89.7178 15.8076 89.6689 15.6042 89.6689 15.3438H89.5469ZM87.2031 16.1982V16.9551H87.5693V16.4668C87.5693 16.2878 87.488 16.1982 87.3252 16.1982H87.2031ZM80.4648 17.1992L80.5869 17.4434L80.3428 17.5654L80.2207 17.3213L80.4648 17.1992ZM89.5469 18.6885V20.6904H89.6689L89.8154 19.5674L89.6689 18.6885H89.5469ZM82.1006 19.6895V20.5684C82.2633 20.5684 82.3447 20.487 82.3447 20.3242V19.9336C82.3447 19.7708 82.2633 19.6895 82.1006 19.6895ZM79.9766 26.0371H79.8545L78.9756 25.4023C78.8942 25.5814 78.8128 26.0452 78.7314 26.7939C79.057 26.8265 79.2197 26.9486 79.2197 27.1602C79.057 27.1764 78.9756 27.2578 78.9756 27.4043L79.3418 27.8926C79.3418 27.9414 79.2604 28.0716 79.0977 28.2832V28.4053L79.7324 28.2832C79.8138 28.4297 79.8545 28.5518 79.8545 28.6494H80.0986C80.0986 28.4053 80.2207 28.2832 80.4648 28.2832V28.1611C80.4648 27.9821 80.2207 27.8112 79.7324 27.6484C79.7324 27.0788 80.0579 26.4603 80.709 25.793V25.6709C80.709 25.5407 80.5869 25.4105 80.3428 25.2803C80.0986 25.2803 79.9766 25.5326 79.9766 26.0371ZM82.9551 25.915H83.3457V25.6709H83.1992C83.0365 25.6872 82.9551 25.7686 82.9551 25.915ZM77.4863 26.5254V28.1611C77.5026 28.3239 77.584 28.4053 77.7305 28.4053H77.8525C77.8525 28.3239 77.7712 27.9902 77.6084 27.4043L77.7305 26.5254H77.4863ZM80.3428 26.7939C80.3428 26.9079 80.2614 27.0706 80.0986 27.2822C80.18 27.4287 80.2207 27.5508 80.2207 27.6484H80.5869V27.0381C80.5869 26.8753 80.5055 26.7939 80.3428 26.7939ZM76.6074 26.916V27.4043H76.7295V26.916H76.6074ZM90.792 26.916L90.9141 27.1602L90.6699 27.2822H90.4258V27.0381C90.5072 27.0381 90.6292 26.9974 90.792 26.916ZM84.2002 27.5264C84.2002 27.8519 84.1188 28.0146 83.9561 28.0146C84.0374 28.1611 84.0781 28.332 84.0781 28.5273C84.2409 28.446 84.363 28.4053 84.4443 28.4053L84.3223 27.5264H84.2002ZM77.6084 28.5273L77.4863 28.7715V29.2598H77.6084C77.6084 29.1296 77.6898 28.9668 77.8525 28.7715C77.8525 28.6087 77.7712 28.5273 77.6084 28.5273ZM78.9756 28.7715V29.4062H79.2197V29.0156C79.2197 28.8529 79.1383 28.7715 78.9756 28.7715ZM90.0596 29.6504H90.1816C90.3444 29.6667 90.4258 29.748 90.4258 29.8945H90.0596V29.6504ZM90.1816 30.3828H90.3037C90.4665 30.4154 90.5479 30.5049 90.5479 30.6514V30.7734H90.1816V30.3828ZM103.292 40.0508C103.357 39.7578 103.414 39.4404 103.463 39.0986L103.194 38.9766H103.072C102.812 39.9694 102.397 40.4658 101.827 40.4658H101.705C101.542 40.4658 101.42 40.1322 101.339 39.4648C101.502 39.4648 101.583 39.3835 101.583 39.2207V39.0986C101.583 38.9359 101.42 38.8545 101.095 38.8545V38.3418H101.461C101.461 38.6022 101.542 38.7324 101.705 38.7324H101.827V38.2197L101.974 37.6094C101.681 37.6094 101.51 37.2757 101.461 36.6084C101.38 36.6084 101.339 36.5677 101.339 36.4863V36.3643C101.55 35.7295 101.803 35.1924 102.096 34.7529V33.1416C101.591 32.7998 101.339 31.9697 101.339 30.6514H101.217L101.095 31.5303L101.217 32.6289C101.152 33.8008 101.03 34.3867 100.851 34.3867H100.729V33.9961C100.729 33.6055 100.769 33.1904 100.851 32.751L100.729 32.0186L101.095 29.4062V28.7959L101.217 28.5273L100.973 28.4053C100.81 28.4378 100.729 28.5273 100.729 28.6738V30.5293H100.46V29.4062C100.46 29.0482 100.509 28.7145 100.606 28.4053C100.509 28.0798 100.46 27.7542 100.46 27.4287V26.3057C100.46 26.1429 100.379 26.0615 100.216 26.0615H100.094C99.8496 26.5498 99.7275 26.8753 99.7275 27.0381H99.4834V26.6719C99.4834 25.8418 99.8089 25.4268 100.46 25.4268C100.379 24.8571 100.257 24.5723 100.094 24.5723L99.7275 25.0605V25.6709H99.2393V25.5488C99.402 25.2559 99.4834 25.0117 99.4834 24.8164C99.0602 24.3932 98.8486 23.9375 98.8486 23.4492V23.083C99.0439 23.083 99.2148 23.0342 99.3613 22.9365L99.6055 23.083C99.752 22.9854 99.9147 22.9365 100.094 22.9365V23.5713C100.094 23.6689 100.216 23.791 100.46 23.9375H100.606V22.9365L100.46 22.2041C100.558 22.0576 100.606 21.8949 100.606 21.7158C100.427 21.7158 100.338 21.6263 100.338 21.4473V20.4707L100.46 19.7139C100.379 19.5674 100.338 19.4046 100.338 19.2256L100.46 18.5908C100.379 18.4281 100.338 18.306 100.338 18.2246L99.8496 18.5908C99.752 18.5908 99.459 18.2653 98.9707 17.6143C99.0033 17.4352 99.0928 17.3457 99.2393 17.3457C99.5648 17.7201 99.7275 17.9723 99.7275 18.1025H99.8496V17.9805C99.8496 17.2318 99.5566 16.8574 98.9707 16.8574C98.9707 17.0202 98.8893 17.1016 98.7266 17.1016C98.6452 16.8086 98.2708 16.6458 97.6035 16.6133V16.2471C98.043 16.3285 98.2952 16.3691 98.3604 16.3691C98.7184 16.1738 99.0928 15.9215 99.4834 15.6123C99.6299 15.6937 99.752 15.7344 99.8496 15.7344V15.9785L99.0928 16.2471V16.3691L99.2393 16.6133L99.4834 16.4912H99.7275C99.7275 16.5238 99.7682 16.6865 99.8496 16.9795H99.9717C100.167 16.9795 100.33 16.6947 100.46 16.125C100.411 15.7832 100.33 15.6123 100.216 15.6123L100.46 13C100.379 12.8535 100.338 12.6501 100.338 12.3896L99.7275 12.5117V12.0234C99.7438 11.8444 99.8252 11.7549 99.9717 11.7549L100.216 11.9014L100.338 11.6328C100.11 11.2259 99.9473 11.0225 99.8496 11.0225C99.8496 11.2666 99.7275 11.3887 99.4834 11.3887H99.0928C99.0928 11.5514 99.0114 11.6328 98.8486 11.6328C98.8486 11.5514 98.8079 11.5107 98.7266 11.5107V11.7549H98.6045C98.5231 11.7549 98.4824 11.7142 98.4824 11.6328L98.2383 11.7549L97.6035 11.3887C97.5059 11.8118 97.3838 12.0234 97.2373 12.0234L96.749 11.1445H96.5049C96.5049 11.3887 96.4154 11.5107 96.2363 11.5107H95.8701C95.1214 10.9411 94.7471 10.3226 94.7471 9.65527L94.3809 9.89941L94.2588 9.65527C94.2588 8.76009 94.2995 8.1416 94.3809 7.7998C94.2995 7.06738 94.2588 6.44076 94.2588 5.91992C94.2588 5.35026 94.3402 4.56901 94.5029 3.57617H94.7471V4.18652H94.8691C95.0645 4.18652 95.1947 3.89355 95.2598 3.30762H95.5039C95.6667 3.30762 95.748 3.51921 95.748 3.94238H96.1143C96.1143 3.64941 96.57 3.35645 97.4814 3.06348C97.8232 3.19368 97.9941 3.31576 97.9941 3.42969V4.18652H98.2383L98.7266 3.30762C98.8079 3.30762 98.93 3.47852 99.0928 3.82031C99.3857 3.82031 99.6787 3.60872 99.9717 3.18555H100.094C100.257 3.18555 100.338 3.31576 100.338 3.57617C100.777 3.57617 101.152 3.44596 101.461 3.18555H101.705C102.145 3.18555 102.6 3.39714 103.072 3.82031C103.072 3.59245 103.325 3.38086 103.829 3.18555C103.992 3.18555 104.073 3.31576 104.073 3.57617C105.05 3.47852 105.88 3.22624 106.563 2.81934C106.726 2.81934 106.808 3.07161 106.808 3.57617H107.296C107.296 3.2832 107.337 3.07161 107.418 2.94141C107.743 3.10417 108.199 3.18555 108.785 3.18555L109.42 3.06348C109.436 3.22624 109.518 3.30762 109.664 3.30762H110.421L110.787 3.06348C111.194 3.14486 111.397 3.31576 111.397 3.57617H111.91C111.91 3.23438 111.992 3.06348 112.154 3.06348H112.276C112.439 3.07975 112.521 3.16113 112.521 3.30762L114.132 3.06348V3.18555C114.474 3.02279 114.767 2.94141 115.011 2.94141C115.597 3.83659 115.89 4.41439 115.89 4.6748V7.28711C115.89 7.5638 115.841 7.77539 115.743 7.92188L115.89 8.6543V9.41113C115.89 10.5179 115.637 11.2992 115.133 11.7549L114.522 11.6328C114.522 11.8118 114.433 11.9014 114.254 11.9014H114.132L113.766 11.6328H113.644C113.644 11.8932 113.562 12.0234 113.399 12.0234L112.276 11.7549C112.114 11.8525 111.992 11.9014 111.91 11.9014C111.796 11.4782 111.666 11.2666 111.52 11.2666H111.275C111.275 11.6898 111.194 11.9014 111.031 11.9014H110.909C110.828 11.9014 110.787 11.8525 110.787 11.7549L110.543 11.9014C110.201 11.7223 110.03 11.5921 110.03 11.5107C109.868 11.5921 109.745 11.6328 109.664 11.6328C109.583 12.7559 109.542 13.5859 109.542 14.123V16.6133L109.42 17.3457C109.501 17.4922 109.542 17.6631 109.542 17.8584C109.461 18.6885 109.42 19.307 109.42 19.7139C109.583 19.7301 109.664 19.8115 109.664 19.958V20.2021L109.542 20.959C109.542 21.0404 109.583 21.0811 109.664 21.0811L109.542 21.7158V22.5703C109.542 22.8633 109.705 23.1562 110.03 23.4492V24.0596C110.03 24.2223 109.949 24.3037 109.786 24.3037L109.908 24.5723V24.8164C109.664 25.1094 109.542 25.3942 109.542 25.6709V26.3057L109.664 26.916C109.583 26.916 109.542 26.9567 109.542 27.0381L109.786 27.1602C109.786 26.7533 109.868 26.5498 110.03 26.5498H110.152V26.6719C110.152 26.7533 110.112 26.7939 110.03 26.7939C110.079 27.152 110.616 27.4857 111.642 27.7949V28.0391L111.52 28.2832H111.642C111.853 28.2832 112.268 27.9089 112.887 27.1602C113.033 27.2578 113.163 27.3066 113.277 27.3066L113.521 26.7939C114.091 26.8753 114.376 26.9974 114.376 27.1602V27.3066H114.132L113.888 27.1602L113.766 27.4287L114.01 27.7949V27.917C113.521 28.2262 113.277 28.4297 113.277 28.5273C113.359 28.6738 113.399 28.804 113.399 28.918L113.155 29.04H113.009V28.7959H112.887V28.918C112.968 29.0645 113.009 29.2272 113.009 29.4062C112.602 29.7969 112.276 30.7897 112.032 32.3848H111.788C111.788 32.0918 111.739 31.8883 111.642 31.7744L110.421 31.8965H109.542V31.6523H109.298L109.542 32.0186C109.379 32.2627 109.257 32.5557 109.176 32.8975C109.176 32.93 109.42 33.4671 109.908 34.5088V34.6309C109.664 34.9401 109.542 35.3145 109.542 35.7539V36.2422L109.664 36.4863C109.501 36.5026 109.42 36.584 109.42 36.7305C109.42 37.4792 109.542 37.8535 109.786 37.8535V38.2197C109.786 38.3337 109.664 38.4639 109.42 38.6104C109.127 38.0244 108.915 37.7314 108.785 37.7314H108.663V38.0977L108.932 38.4883L108.663 38.8545L108.419 38.7324H108.175C108.338 38.9603 108.492 39.1637 108.639 39.3428L107.369 39.8555C107.402 39.7415 107.418 39.6113 107.418 39.4648C107.076 38.8138 106.832 38.4883 106.686 38.4883C106.393 38.4883 106.059 38.6104 105.685 38.8545C105.685 38.7731 105.644 38.7324 105.562 38.7324L105.685 38.4883V38.2197L105.44 37.8535V37.6094C105.457 37.4466 105.538 37.3652 105.685 37.3652C105.847 37.3815 105.929 37.4629 105.929 37.6094L105.807 37.8535L106.051 37.9756C106.23 37.9756 106.36 37.7314 106.441 37.2432L106.197 37.3652C105.855 37.235 105.685 37.113 105.685 36.999C105.733 36.4945 105.855 36.1201 106.051 35.876C106.051 35.7132 105.969 35.6318 105.807 35.6318H105.685V35.7539C105.685 36.3887 105.481 37.1699 105.074 38.0977H104.83L104.439 37.4873H104.317C104.317 38.5615 104.114 39.0986 103.707 39.0986C103.788 39.2451 103.829 39.3672 103.829 39.4648H103.951L103.292 40.0508ZM109.664 28.4053V28.7959C109.794 28.7959 109.957 28.625 110.152 28.2832V28.1611H109.908C109.745 28.1774 109.664 28.2588 109.664 28.4053ZM109.664 29.1621V29.2842C109.908 29.2842 110.03 29.4062 110.03 29.6504H110.665V29.4062C110.405 29.1133 110.274 28.9098 110.274 28.7959H110.03C109.916 28.7959 109.794 28.918 109.664 29.1621ZM110.421 31.1396L110.665 31.2617H110.909C111.072 30.6432 111.153 30.2363 111.153 30.041C111.072 30.041 111.031 29.9922 111.031 29.8945C110.624 29.8945 110.421 30.3096 110.421 31.1396ZM109.542 30.6514V31.1396H109.908V31.0176L109.786 30.4072C109.623 30.4235 109.542 30.5049 109.542 30.6514ZM137.374 13.7812H137.618V14.9043H137.374V13.7812ZM139.229 14.0498C140.06 14.18 140.475 14.3428 140.475 14.5381V14.6602H140.353C140.255 14.6602 139.881 14.5381 139.229 14.2939V14.0498ZM144.454 18.0049H144.723C144.82 18.0049 144.942 18.1351 145.089 18.3955V18.7617H144.845C144.666 18.7617 144.535 18.5094 144.454 18.0049ZM141.842 18.2734L142.11 18.6396L141.842 18.7617C141.679 18.7617 141.598 18.6803 141.598 18.5176C141.614 18.3548 141.695 18.2734 141.842 18.2734ZM135.519 20.251V20.7637H135.641V20.251H135.519ZM138.619 26.3545V26.4766H139.107V26.3545H138.619ZM137.13 26.9648C137.13 27.1276 137.089 27.209 137.008 27.209L137.13 27.8438V28.332C136.658 28.332 136.324 28.9587 136.129 30.2119V30.5781H136.373C136.373 30.3014 136.544 29.6748 136.886 28.6982H137.008L137.252 28.8447C137.252 28.5192 137.504 28.1449 138.009 27.7217V27.4775C137.976 27.3473 137.765 27.1764 137.374 26.9648H137.13ZM136.617 27.8438L136.886 27.9658V27.5996C136.707 27.6159 136.617 27.6973 136.617 27.8438ZM138.497 28.332L138.253 28.21H138.009C137.341 29.0238 137.008 29.7725 137.008 30.4561C137.577 30.4561 137.862 30.8711 137.862 31.7012H138.131V31.5791L138.009 31.3105C138.025 31.1641 138.229 30.8385 138.619 30.334L138.375 29.9434C138.375 29.862 138.79 29.6585 139.62 29.333V29.0889C139.62 28.9261 139.539 28.8447 139.376 28.8447H139.229V29.0889H138.985V28.9668C139.148 28.6901 139.229 28.4378 139.229 28.21L138.863 27.9658C138.749 27.9658 138.627 28.0879 138.497 28.332ZM140.865 29.333L141.109 29.4551V29.0889C140.947 29.1051 140.865 29.1865 140.865 29.333ZM139.498 29.9434V30.8223H139.742V29.9434H139.498ZM135.25 30.334V30.5781H135.396C135.559 30.5781 135.641 30.4967 135.641 30.334V30.0654H135.519C135.34 30.098 135.25 30.1875 135.25 30.334ZM140.597 30.334V30.4561H140.865V30.0654C140.686 30.098 140.597 30.1875 140.597 30.334ZM139.742 33.5566V33.9229H139.986V33.5566H139.742ZM139.278 42.1992C139.164 42.1178 139.107 42.012 139.107 41.8818C139.368 41.6377 139.661 41.5156 139.986 41.5156V41.3936C139.986 41.2308 139.905 41.1494 139.742 41.1494H139.62L138.741 41.6377H138.253V41.3936C138.774 41.3936 139.229 41.1006 139.62 40.5146V39.9043L139.229 39.3916V39.2695L139.376 38.6592H139.229C139.181 38.6592 138.855 38.9928 138.253 39.6602L138.131 39.3916V39.1475L138.497 38.5371L138.253 37.7803C138.334 37.6175 138.375 37.4954 138.375 37.4141L138.131 37.292C137.952 37.471 137.781 38.3011 137.618 39.7822H137.374V39.5381L137.496 38.0244C137.252 37.943 137.13 37.8617 137.13 37.7803C137.244 37.4548 137.366 37.292 137.496 37.292L137.374 37.0479V36.4131C137.276 36.4131 137.154 36.3724 137.008 36.291V36.4131C137.089 36.5758 137.13 36.6979 137.13 36.7793L136.617 37.1699H136.251L136.373 36.291V36.1689C136.048 36.4131 135.803 36.5352 135.641 36.5352C135.608 36.8281 135.592 37.0967 135.592 37.3408L135.006 36.5352C134.924 36.0469 134.802 35.8027 134.64 35.8027C134.558 35.9655 134.477 36.3398 134.396 36.9258C134.558 36.9421 134.64 37.0234 134.64 37.1699V37.292C134.64 37.3896 134.55 37.4954 134.371 37.6094L133.883 37.0479C134.062 36.82 134.192 36.4049 134.273 35.8027L134.029 35.6807C133.574 35.8434 133.321 36.0469 133.272 36.291C133.517 36.291 133.639 36.3724 133.639 36.5352V36.6572L133.028 36.5352V36.7061L131.783 36.1689C131.702 35.8109 131.661 35.3551 131.661 34.8018H131.905L132.149 34.9238V34.8018C132.149 34.6715 131.905 34.5495 131.417 34.4355C131.287 34.0124 131.157 33.8008 131.026 33.8008L130.904 34.0449V35.29C130.904 35.4202 130.782 35.5505 130.538 35.6807H130.416V35.5586C130.449 34.1426 130.53 33.4346 130.66 33.4346C130.595 33.2881 130.514 32.7917 130.416 31.9453H130.538C130.457 31.7826 130.416 31.6605 130.416 31.5791L130.172 31.7012H129.903V31.5791C129.903 30.863 129.952 30.1143 130.05 29.333V29.0889H129.903C129.903 29.5771 129.822 29.8213 129.659 29.8213H129.537C129.537 29.512 129.578 29.1377 129.659 28.6982C129.659 28.5843 129.618 28.0065 129.537 26.9648C129.586 25.9069 129.708 25.2884 129.903 25.1094V24.3525C129.724 24.3525 129.521 24.8083 129.293 25.7197H129.049V25.5977C129.13 24.3932 129.171 23.734 129.171 23.6201C128.959 23.7829 128.797 23.8643 128.683 23.8643V24.2305C128.683 24.7676 128.593 25.3454 128.414 25.9639H128.17V25.3535L127.926 24.9873H128.17L128.048 24.3525V22.375C128.048 21.724 128.007 21.138 127.926 20.6172C128.007 20.2103 128.048 19.6732 128.048 19.0059V17.7607C128.471 17.7607 128.683 17.1016 128.683 15.7832V15.5391H128.536C128.536 16.0273 128.414 16.2715 128.17 16.2715H128.048V15.5391C128.048 15.4577 128.089 15.417 128.17 15.417L128.048 15.1484V13.0488C128.048 12.8535 128.007 12.6826 127.926 12.5361C128.089 10.7783 128.878 8.62988 130.294 6.09082H130.538V6.45703H130.66C130.807 6.45703 131.018 6.08268 131.295 5.33398C131.848 5.33398 132.255 4.87826 132.516 3.9668H132.662C132.825 3.9668 132.906 4.12956 132.906 4.45508C133.248 4.04818 133.492 3.84473 133.639 3.84473L133.883 3.9668C134.013 3.9668 134.184 3.80404 134.396 3.47852C134.802 3.47852 135.006 3.5599 135.006 3.72266L136.007 3.47852V3.60059C136.674 3.43783 137.008 3.10417 137.008 2.59961H137.618C137.781 2.61589 137.862 2.69727 137.862 2.84375C137.862 3.00651 137.74 3.08789 137.496 3.08789V3.20996C137.496 3.34017 137.667 3.51107 138.009 3.72266H138.131L138.619 3.20996C138.701 3.20996 138.741 3.25879 138.741 3.35645C138.888 3.25879 139.01 3.20996 139.107 3.20996L139.742 3.35645C139.742 3.09603 139.824 2.96582 139.986 2.96582L140.475 3.60059H140.743C140.743 3.17741 140.825 2.96582 140.987 2.96582C140.987 3.09603 141.15 3.22624 141.476 3.35645C141.622 3.25879 141.785 3.20996 141.964 3.20996C141.964 3.34017 142.298 3.51107 142.965 3.72266L143.087 3.47852C143.364 3.57617 143.616 3.73893 143.844 3.9668C143.99 3.88542 144.112 3.84473 144.21 3.84473C145.138 4.23535 146.171 4.77246 147.311 5.45605C147.49 5.45605 147.864 6.08268 148.434 7.33594L148.678 7.18945C149.166 7.87305 149.5 8.58105 149.679 9.31348C149.679 9.3623 149.638 9.52507 149.557 9.80176C149.557 10.111 149.809 10.6562 150.313 11.4375C150.313 11.4701 150.273 12.0072 150.191 13.0488C150.191 13.2767 150.232 14.1068 150.313 15.5391C150.313 16.2552 150.061 16.7109 149.557 16.9062H149.435L148.824 16.3936C148.824 16.654 148.735 16.7842 148.556 16.7842H148.434C148.027 16.7842 147.408 16.8249 146.578 16.9062C146.578 17.1504 146.497 17.2725 146.334 17.2725L145.821 16.5156H145.577C145.577 16.776 145.496 16.9062 145.333 16.9062C145.17 16.9062 145.089 16.776 145.089 16.5156H144.845L144.454 16.7842L143.966 16.2715C143.884 16.6296 143.673 16.8818 143.331 17.0283V17.2725H143.087C142.713 16.9469 142.509 16.7842 142.477 16.7842C142.33 16.7842 142.037 16.9876 141.598 17.3945L141.354 17.0283C141.516 17.0283 141.598 16.9469 141.598 16.7842C141.598 16.6702 141.354 16.3773 140.865 15.9053C141.028 15.9053 141.109 15.8239 141.109 15.6611C140.947 15.6611 140.865 15.5798 140.865 15.417C140.882 15.238 140.963 15.1484 141.109 15.1484C141.109 15.0671 141.069 15.0264 140.987 15.0264L141.109 14.416V12.8047C141.109 12.6094 141.069 12.4385 140.987 12.292C141.069 12.1455 141.109 11.9827 141.109 11.8037V11.4375H140.987V11.6816H140.865C140.686 11.6816 140.556 11.348 140.475 10.6807H140.23C140.23 11.0062 140.149 11.1689 139.986 11.1689L139.229 10.5586C138.741 10.64 138.497 10.762 138.497 10.9248L137.862 10.8027H137.74C137.252 10.8027 136.967 13.4557 136.886 18.7617C136.756 18.7617 136.625 18.8838 136.495 19.1279V20.1289H137.008V21.1299H136.764V20.7637H136.495V23.2295C136.69 23.2295 136.821 22.7738 136.886 21.8623H137.13V21.9844C137.13 23.4818 136.918 24.2305 136.495 24.2305V25.2314C136.674 25.2314 136.764 25.2721 136.764 25.3535L137.008 25.2314H137.13V25.9639H137.496C137.659 25.9639 137.74 25.8825 137.74 25.7197H137.374V25.3535H137.618C137.781 25.3535 137.862 25.5163 137.862 25.8418H138.375C138.473 25.8418 138.595 25.7197 138.741 25.4756V23.6201H139.107C139.059 22.8714 138.896 22.4971 138.619 22.4971V20.0068L138.741 19.3965H138.985L139.229 19.5186C139.229 19.3883 139.36 19.2581 139.62 19.1279L139.498 18.2734V18.1514C139.498 17.5003 139.701 17.0853 140.108 16.9062C140.271 16.9225 140.353 17.0039 140.353 17.1504C140.206 17.1504 140.043 17.3132 139.864 17.6387V18.1514C139.864 18.2653 139.986 18.3874 140.23 18.5176L141.109 18.2734V18.3955C140.947 18.9652 140.865 19.2988 140.865 19.3965L141.109 19.5186C141.109 19.1768 141.191 19.0059 141.354 19.0059H141.476L142.11 19.1279C142.11 18.8838 142.192 18.7617 142.354 18.7617L143.087 18.8838C143.119 18.721 143.201 18.6396 143.331 18.6396H143.478V19.3965H143.6V18.8838H143.722L143.966 19.0059C143.966 18.7617 144.047 18.6396 144.21 18.6396L144.845 19.5186C145.317 19.5186 145.683 19.307 145.943 18.8838C146.122 18.8838 146.212 19.0059 146.212 19.25H146.456L147.311 18.7617C147.49 18.7617 147.579 18.9245 147.579 19.25H148.067C148.067 18.9245 148.149 18.7617 148.312 18.7617L148.824 19.5186V19.25H149.19C149.223 19.25 149.426 19.4616 149.801 19.8848H149.923C149.923 19.4616 150.012 19.25 150.191 19.25C150.354 19.6732 150.436 20.6335 150.436 22.1309V23.6201C150.436 24.2549 150.395 24.8327 150.313 25.3535C150.395 25.793 150.436 26.2894 150.436 26.8428C150.436 27.266 150.395 27.7624 150.313 28.332C150.395 28.9017 150.436 29.3574 150.436 29.6992C150.436 31.278 150.265 32.0674 149.923 32.0674H149.679V31.9453C149.679 31.5059 149.76 30.6758 149.923 29.4551H149.435V30.4561C149.435 30.7165 149.394 30.9199 149.312 31.0664L149.435 31.8232V33.3125C149.435 33.8008 149.272 34.0449 148.946 34.0449V34.1914C148.946 34.696 148.906 35.2331 148.824 35.8027L148.946 36.291C148.865 36.8281 148.824 37.3652 148.824 37.9023H148.678C148.515 37.9023 148.434 37.821 148.434 37.6582V37.5361C148.434 37.0641 148.474 36.7712 148.556 36.6572C148.474 36.234 148.434 35.9899 148.434 35.9248C148.515 34.8018 148.556 33.9717 148.556 33.4346C148.735 33.4346 148.824 33.3532 148.824 33.1904V32.4336L148.946 31.1885C148.816 31.1885 148.686 31.3187 148.556 31.5791V31.9453H148.434V32.5557L148.067 33.0684V33.3125C148.067 35.2168 147.864 36.1689 147.457 36.1689H147.311L147.457 35.5586V35.168C147.457 35.0052 147.368 34.9238 147.188 34.9238C147.188 35.168 147.148 35.29 147.066 35.29C146.741 35.2412 146.578 34.9157 146.578 34.3135V33.5566C146.578 33.3939 146.497 33.3125 146.334 33.3125H146.212C146.131 34.4681 146.09 35.4609 146.09 36.291H146.212V36.5352C146.212 37.6094 146.082 38.1465 145.821 38.1465C145.659 38.1465 145.577 38.0651 145.577 37.9023V37.5361C145.577 37.4548 145.618 37.4141 145.699 37.4141C145.699 37.3327 145.659 37.292 145.577 37.292L145.699 36.6572V36.4131C145.699 36.0387 145.618 35.7051 145.455 35.4121C145.536 34.4681 145.618 33.931 145.699 33.8008H145.577C145.414 33.8822 145.292 33.9229 145.211 33.9229L145.333 35.0459C145.252 35.8923 145.17 36.3887 145.089 36.5352C145.252 36.5677 145.333 36.6491 145.333 36.7793V37.0479C145.333 37.1618 145.211 37.2839 144.967 37.4141C144.885 37.2676 144.845 37.056 144.845 36.7793L144.576 36.9258V36.7793L144.845 36.291L144.576 36.1689C144.462 36.1689 144.34 36.3724 144.21 36.7793L144.332 37.0479C144.332 37.2106 144.251 37.292 144.088 37.292H143.966L143.844 36.6572C143.844 36.0876 143.884 35.1761 143.966 33.9229V33.6787H143.844C143.844 34.1833 143.722 34.4355 143.478 34.4355V35.0459C143.478 35.3877 143.518 35.8434 143.6 36.4131C143.29 37.471 143.079 38.0081 142.965 38.0244H142.843V37.1699L142.965 36.9258L142.477 36.7793C142.232 37.4466 142.062 37.7803 141.964 37.7803L142.11 38.5371C142.11 39.6927 141.98 40.2705 141.72 40.2705C141.638 40.1077 141.598 39.9857 141.598 39.9043C141.598 39.8229 141.638 39.4893 141.72 38.9033H141.598C141.484 38.9033 141.362 39.0254 141.231 39.2695V39.6602L141.354 40.2705C141.191 40.3519 141.069 40.3926 140.987 40.3926L141.109 40.6367V40.7588L140.987 41.0273L140.743 40.9053H140.597C140.401 41.068 140.279 41.1494 140.23 41.1494L140.353 41.3936C140.271 41.54 140.23 41.7028 140.23 41.8818L139.278 42.1992ZM157.174 36.8037C156.93 36.5758 156.808 36.0387 156.808 35.1924V34.5332C156.938 33.9147 157.117 33.6055 157.345 33.6055H157.467L157.345 34.9238L157.467 36.5107C157.743 36.5107 157.882 35.9411 157.882 34.8018L157.735 33.874L157.882 33.2148C157.882 33.1497 157.833 32.8893 157.735 32.4336V31.6279H157.345C157.231 32.3441 157.052 32.7021 156.808 32.7021C156.596 32.5231 156.466 32.4336 156.417 32.4336C156.417 32.515 156.376 32.5557 156.295 32.5557L156.417 33.2148C156.368 34.0938 156.238 34.5332 156.026 34.5332H155.904C155.904 34.224 155.855 34.0042 155.758 33.874C155.855 33.5648 155.904 33.3939 155.904 33.3613C155.807 32.043 155.758 31.1641 155.758 30.7246C155.937 30.1549 156.026 29.7562 156.026 29.5283V28.7471H156.295C156.295 28.6494 156.246 28.5192 156.148 28.3564C156.246 27.8682 156.295 27.4694 156.295 27.1602C156.132 27.2415 156.002 27.2822 155.904 27.2822V28.21L155.489 28.7471V29.5283C155.489 30.3421 155.449 31.0908 155.367 31.7744C155.449 32.2301 155.489 32.6696 155.489 33.0928L155.367 34.2646C155.449 34.7367 155.489 35.1354 155.489 35.4609L155.367 36.1201L155.636 36.6328C155.522 37.7559 155.432 38.3743 155.367 38.4883C155.449 38.6348 155.489 38.8057 155.489 39.001C155.261 39.18 154.871 39.359 154.317 39.5381L154.195 39.2695C154.798 37.9837 155.099 37.0641 155.099 36.5107H154.83L154.977 35.583C154.879 34.8343 154.83 34.224 154.83 33.752H154.439V34.2646H154.317C154.138 34.2646 154.049 34.1833 154.049 34.0205C154.309 33.6462 154.439 33.2881 154.439 32.9463L154.195 33.0928L153.536 32.8242C153.422 33.8333 153.243 34.4437 152.999 34.6553V35.1924C152.999 36.2666 152.869 37.235 152.608 38.0977H152.34C152.519 35.2819 152.739 33.6543 152.999 33.2148L152.877 32.9463C152.958 32.2464 153.089 31.8965 153.268 31.8965H153.536C153.536 32.0755 153.577 32.165 153.658 32.165C153.837 32.0837 153.967 32.043 154.049 32.043C154.049 32.1243 154.098 32.165 154.195 32.165C154.195 32.0837 154.236 32.043 154.317 32.043C154.399 32.2057 154.439 32.3359 154.439 32.4336H154.586C154.586 31.9453 154.627 31.457 154.708 30.9688V30.8467H154.586V31.1152H154.317C153.959 30.4316 153.78 29.6423 153.78 28.7471H153.536C153.536 30.5863 153.357 31.5059 152.999 31.5059L152.73 30.9688C152.73 30.7572 152.82 30.1468 152.999 29.1377L152.608 29.4062H152.34V29.2598L155.904 12.0234C156.067 12.0234 156.417 10.5342 156.954 7.55566C157.524 4.75618 157.914 3.25879 158.126 3.06348H158.395V3.20996L158.663 3.06348C158.842 3.06348 158.932 3.24251 158.932 3.60059H159.176C159.355 3.60059 159.444 3.47038 159.444 3.20996H159.591C159.754 3.20996 159.835 3.38086 159.835 3.72266H160.372C160.372 3.2832 160.462 3.06348 160.641 3.06348H161.568L161.959 3.33203H162.35C162.35 2.89258 162.439 2.67285 162.618 2.67285C162.618 2.80306 162.748 2.93327 163.009 3.06348L163.668 2.94141C163.701 3.12044 163.79 3.20996 163.937 3.20996H164.718V2.79492C165.776 2.79492 166.305 3.01465 166.305 3.4541H166.695C166.695 3.1123 166.785 2.94141 166.964 2.94141H167.867C168.225 3.39714 168.624 3.70638 169.063 3.86914C169.503 4.58529 169.723 5.32585 169.723 6.09082H169.576C169.609 6.66048 169.877 7.6696 170.382 9.11816L170.504 9.77734C170.423 10.7051 170.292 11.4945 170.113 12.1455V12.6826H170.504L170.65 11.3643H170.895C170.895 11.7223 170.943 12.0723 171.041 12.4141C171.041 12.4629 170.992 12.6419 170.895 12.9512C171.057 13.9277 171.326 14.8066 171.7 15.5879C171.7 15.6693 171.741 15.7995 171.822 15.9785L171.7 16.7598V16.8818C171.961 17.598 172.27 19.0465 172.628 21.2275C172.628 21.7646 172.449 22.0332 172.091 22.0332C172.009 23.1237 171.969 23.7829 171.969 24.0107V24.2549H172.091C172.449 23.5225 172.628 22.6924 172.628 21.7646H172.75C172.88 21.7646 173.01 21.8949 173.141 22.1553V22.5459C173.141 23.0505 173.181 23.7585 173.263 24.6699C173.263 25.0117 173.051 25.1826 172.628 25.1826V25.9883C172.97 25.9883 173.141 26.4684 173.141 27.4287H173.263L173.409 26.7695V25.0605H173.531C173.645 25.0605 173.865 25.8011 174.19 27.2822C174.304 27.2822 174.394 27.4613 174.459 27.8193L174.337 28.6006C174.418 29.1051 174.459 29.5446 174.459 29.9189C174.329 29.9189 174.15 30.098 173.922 30.4561L174.581 31.2373C174.549 31.7744 174.378 32.043 174.068 32.043V32.4336C174.068 32.515 174.109 32.5557 174.19 32.5557L173.922 33.752L174.068 34.5332C174.068 34.6634 174.02 35.2819 173.922 36.3887H174.459V36.9014C174.459 37.4385 174.28 37.707 173.922 37.707V38.7568C173.922 38.9196 173.84 39.001 173.678 39.001H173.531L173.263 38.8789L173.531 37.707C173.45 36.7956 173.409 36.0876 173.409 35.583C173.491 35.2738 173.531 35.1029 173.531 35.0703C173.434 34.4518 173.303 34.1426 173.141 34.1426C173.076 35.1354 172.905 35.7458 172.628 35.9736C172.628 37.5524 172.408 38.7812 171.969 39.6602C171.969 40.0182 171.879 40.1973 171.7 40.1973H171.31L171.163 39.5381V37.9512C171.163 37.7559 171.122 37.585 171.041 37.4385C171.041 37.3408 171.082 37.292 171.163 37.292L171.041 35.7295V34.5332C170.732 34.5332 170.512 35.2331 170.382 36.6328H170.113L169.991 35.9736C169.991 34.4925 170.162 33.752 170.504 33.752V32.9463C170.504 32.5719 170.553 32.0918 170.65 31.5059C170.65 31.4245 170.602 31.3838 170.504 31.3838L170.65 30.7246V29.6748C170.357 29.6748 170.138 29.626 169.991 29.5283C169.715 30.4072 169.576 30.8874 169.576 30.9688L169.845 30.8467H170.113C170.113 31.6117 169.894 33.1009 169.454 35.3145C169.535 35.4772 169.625 35.9167 169.723 36.6328C169.544 37.821 169.454 38.6104 169.454 39.001C169.34 39.001 169.21 38.7812 169.063 38.3418L169.186 37.4385V35.4609C169.023 35.4609 168.941 35.2819 168.941 34.9238C168.128 35.5423 167.599 35.8516 167.354 35.8516L166.427 35.583V34.9238C166.427 34.8424 166.467 34.8018 166.549 34.8018C166.386 34.4437 166.305 33.9635 166.305 33.3613C166.028 33.3613 165.719 33.3125 165.377 33.2148C165.296 33.5729 165.117 33.752 164.84 33.752L164.327 33.4834C163.155 33.9554 162.276 34.6064 161.69 35.4365L157.174 36.8037ZM162.74 19.0059C162.822 19.0059 162.862 19.4453 162.862 20.3242H162.618C162.618 21.0566 162.529 21.7565 162.35 22.4238C162.431 23.0098 162.472 23.4899 162.472 23.8643V25.4512C162.521 25.6302 162.61 25.7197 162.74 25.7197H163.009V23.8643L163.131 23.2051H163.277C163.277 23.8887 163.538 24.8571 164.059 26.1104C164.449 26.1104 164.669 25.4105 164.718 24.0107V21.4961C164.897 21.2845 164.986 21.1543 164.986 21.1055V20.4463H164.718L164.596 21.7646H164.449C164.238 21.7646 164.067 21.0648 163.937 19.665L163.668 19.5186C163.749 19.3558 163.79 19.2256 163.79 19.1279C163.79 18.7536 163.701 18.3141 163.521 17.8096C163.229 17.8096 162.968 18.2083 162.74 19.0059ZM164.718 28.8691V29.2598C164.848 29.2598 164.978 29.1296 165.108 28.8691V28.7471C164.962 28.8285 164.832 28.8691 164.718 28.8691ZM171.969 28.8691C171.969 29.1296 171.83 29.3493 171.554 29.5283C171.554 30.1631 171.383 31.042 171.041 32.165L171.163 32.8242C171.082 33.4427 171.041 33.7926 171.041 33.874V34.4111H171.163C171.391 32.1162 171.66 30.9688 171.969 30.9688H172.091V31.1152C172.091 32.694 171.912 33.6136 171.554 33.874C171.554 34.6878 171.513 35.4365 171.432 36.1201L171.554 37.0479C171.472 37.6338 171.432 38.1139 171.432 38.4883V38.6104H171.554C171.912 38.0407 172.091 37.4303 172.091 36.7793C171.977 36.1608 171.847 35.8516 171.7 35.8516C172.009 33.8333 172.229 32.8242 172.359 32.8242C172.62 32.0267 172.791 31.6279 172.872 31.6279C172.872 31.7256 172.921 31.7744 173.019 31.7744C173.36 30.1631 173.531 29.2435 173.531 29.0156H173.141V29.6748C172.799 29.8864 172.628 30.1061 172.628 30.334C172.319 30.4154 172.14 30.4561 172.091 30.4561V28.8691H171.969ZM161.959 32.9463C161.959 33.1742 161.829 33.4834 161.568 33.874C161.731 34.1019 161.812 34.2809 161.812 34.4111H161.959C162.301 34.0531 162.561 33.874 162.74 33.874V33.6055L162.35 33.874L162.203 33.6055C162.382 33.6055 162.472 33.5241 162.472 33.3613L161.959 32.9463ZM163.131 33.0928V33.3613H163.521V33.0928H163.131ZM187.813 34.4355C188.155 34.0612 188.326 33.7113 188.326 33.3857V31.9453C188.326 31.7826 188.229 31.7012 188.033 31.7012C188.033 33.2637 187.87 34.0449 187.545 34.0449H187.252C187.252 33.8496 187.211 33.6787 187.13 33.5322C187.293 33.0602 187.431 32.4092 187.545 31.5791C187.35 31.1722 187.171 30.9525 187.008 30.9199C187.008 31.0664 186.918 31.2861 186.739 31.5791L186.471 31.4326H186.349V31.7012L187.008 32.6045V32.7266C187.008 32.9056 186.918 32.9951 186.739 32.9951H186.617C186.178 32.2301 185.958 31.7093 185.958 31.4326L186.104 30.1387L185.836 30.2607C185.576 29.5283 185.445 28.7471 185.445 27.917L185.567 27.2578L185.299 27.3799L185.055 26.9893V26.0859C185.315 25.7441 185.445 25.4349 185.445 25.1582V23.7422L185.299 23.083H185.055V23.7422L184.908 25.3047H184.664C184.664 24.8652 184.575 24.6455 184.396 24.6455V22.668C184.396 22.5866 184.436 22.5459 184.518 22.5459L184.396 22.3018C184.477 22.1064 184.518 21.9681 184.518 21.8867L183.858 21.1055C183.858 21.0566 183.907 20.487 184.005 19.3965C183.907 19.2337 183.858 19.1117 183.858 19.0303H183.614C183.614 19.4372 183.476 20.6904 183.199 22.79C183.199 23.2783 183.297 24.1572 183.492 25.4268C183.362 25.9476 183.224 26.208 183.077 26.208H182.955V25.8174H182.833C182.654 25.8337 182.564 25.9232 182.564 26.0859V27.2578H182.711V26.9893H182.833C182.996 27.0218 183.077 27.1113 183.077 27.2578C183.077 27.4206 182.955 27.502 182.711 27.502V28.5518H182.955V28.8203H182.564V29.6016C182.564 29.6667 182.434 29.7969 182.174 29.9922C182.174 31.9941 182.035 32.9951 181.759 32.9951H181.515V32.873C181.515 32.1406 181.555 31.3512 181.637 30.5049V30.2607H181.515C181.515 30.7816 181.433 31.042 181.271 31.042H181.124C181.124 30.7327 181.173 30.334 181.271 29.8457C181.271 29.7318 181.222 29.1296 181.124 28.0391C181.189 26.9323 181.319 26.2812 181.515 26.0859V25.3047C181.319 25.3047 181.1 25.7767 180.855 26.7207H180.611V26.5986C180.693 25.3291 180.733 24.6374 180.733 24.5234C180.522 24.6862 180.343 24.7676 180.196 24.7676V25.1582C180.196 25.7279 180.115 26.3382 179.952 26.9893H179.684V26.208C179.456 26.3708 179.326 26.4521 179.293 26.4521C179.212 26.3382 179.171 26.0778 179.171 25.6709L178.902 25.8174H178.634V25.4268C179.073 24.0921 179.293 22.9528 179.293 22.0088C179.212 22.0088 179.171 22.0576 179.171 22.1553L178.902 22.0088H178.78V22.79C178.78 22.9854 178.601 23.083 178.243 23.083V23.4492H178.512V23.7422H178.243V23.9863C178.243 25.4349 177.983 26.6963 177.462 27.7705H177.218C177.218 27.445 177.429 26.265 177.853 24.2305V24.1084H177.73C177.389 24.5316 177.218 24.9303 177.218 25.3047L176.949 25.1582H176.803V25.3047H177.071V25.4268C176.827 25.7197 176.656 26.3301 176.559 27.2578C176.282 27.2578 176.144 27.6891 176.144 28.5518V28.8203H175.777C175.842 27.3392 175.924 26.5986 176.021 26.5986C176.103 26.5986 176.192 26.4684 176.29 26.208C176.192 25.6221 176.144 25.1419 176.144 24.7676V24.2305L175.899 24.3525C175.899 24.2712 175.859 24.2305 175.777 24.2305C175.777 24.6048 175.598 25.0443 175.24 25.5488C175.322 25.6953 175.362 25.915 175.362 26.208H175.655C175.655 25.9964 175.696 25.8174 175.777 25.6709H175.362V25.4268H175.484C175.68 25.5081 175.818 25.5488 175.899 25.5488V25.8174C175.899 26.1917 175.72 26.4521 175.362 26.5986L175.24 27.2578L175.362 27.917C175.248 28.2588 175.126 28.4297 174.996 28.4297C174.801 28.4297 174.703 28.3402 174.703 28.1611V26.9893H175.118V26.8672C174.955 26.8672 174.776 26.6882 174.581 26.3301C174.581 26.2487 174.622 26.1185 174.703 25.9395L174.581 25.1582V24.6455C174.695 24.6455 174.874 24.4258 175.118 23.9863C175.281 23.9863 175.362 23.5469 175.362 22.668V22.5459H175.24C174.996 23.0016 174.874 23.4004 174.874 23.7422H174.581V23.5713C174.581 23.083 174.622 22.7819 174.703 22.668C174.622 22.196 174.581 21.8053 174.581 21.4961C174.581 20.8939 174.622 19.7627 174.703 18.1025L174.581 17.2969C174.662 17.1341 174.703 17.012 174.703 16.9307L174.581 16.6865C174.662 16.1982 174.703 15.7995 174.703 15.4902V14.9531C174.703 14.709 174.662 14.5869 174.581 14.5869L174.703 13.9277V12.3408C174.703 12.1781 174.622 12.0967 174.459 12.0967C174.54 11.0713 174.581 10.3307 174.581 9.875V9.21582C174.581 8.85775 174.54 8.50781 174.459 8.16602C174.54 7.82422 174.581 7.52311 174.581 7.2627L174.459 5.7002C174.459 4.65853 174.76 3.99935 175.362 3.72266C175.411 3.36458 175.549 3.18555 175.777 3.18555C175.794 3.38086 175.875 3.47852 176.021 3.47852L176.681 3.35645C176.762 3.47038 176.803 3.73079 176.803 4.1377H177.218C177.511 3.861 177.812 3.72266 178.121 3.72266C178.561 3.95052 178.78 4.12956 178.78 4.25977H179.049L179.562 3.60059C179.643 3.74707 179.684 3.92611 179.684 4.1377C180.986 3.69824 181.946 3.47852 182.564 3.47852C183.964 3.54362 184.664 3.76335 184.664 4.1377H184.786C184.786 3.861 184.957 3.64128 185.299 3.47852C185.478 3.47852 185.567 3.60059 185.567 3.84473H185.689C185.738 3.84473 185.958 3.625 186.349 3.18555C186.869 3.83659 187.35 4.6748 187.789 5.7002C187.952 5.7002 188.09 6.22103 188.204 7.2627C188.53 7.2627 188.692 7.99512 188.692 9.45996L188.57 9.75293C188.701 10.5179 188.88 10.9004 189.107 10.9004L188.985 11.5596V11.8281C189.295 11.8281 189.506 12.3083 189.62 13.2686C189.522 13.7406 189.474 14.1312 189.474 14.4404V14.9531C189.474 15.3438 189.693 15.7425 190.133 16.1494V16.5156C190.133 16.9876 190.182 17.7363 190.279 18.7617C190.702 18.7617 190.914 19.2419 190.914 20.2021L190.792 20.8369H191.329C191.59 19.9906 192.062 17.8584 192.745 14.4404C193.884 8.58105 194.723 5.00846 195.26 3.72266L196.529 3.18555C196.594 3.54362 196.952 3.72266 197.604 3.72266C197.701 3.2832 197.823 3.06348 197.97 3.06348C198.067 3.20996 198.116 3.42969 198.116 3.72266H198.238C198.45 3.72266 198.629 3.68197 198.775 3.60059C198.938 3.68197 199.068 3.72266 199.166 3.72266C199.426 3.42969 199.557 3.16927 199.557 2.94141H199.947C200.077 2.94141 200.248 3.12044 200.46 3.47852L200.729 3.35645C201.07 3.35645 201.42 3.39714 201.778 3.47852C202.104 3.39714 202.446 3.35645 202.804 3.35645L203.463 3.47852C203.463 3.20182 203.552 3.06348 203.731 3.06348H204.122C204.382 3.06348 204.513 3.32389 204.513 3.84473H205.44C205.44 3.60059 205.522 3.47852 205.685 3.47852C206.336 3.64128 206.726 3.72266 206.856 3.72266V3.60059C207.133 3.68197 207.271 3.76335 207.271 3.84473L207.516 3.72266C207.597 3.72266 207.776 3.90169 208.053 4.25977C207.971 5.43164 207.931 6.30241 207.931 6.87207V7.11621C207.931 8.36947 207.971 9.28906 208.053 9.875C207.971 10.6237 207.931 11.584 207.931 12.7559V13.2686C207.931 14.6683 207.971 15.6693 208.053 16.2715C207.971 17.1504 207.931 18.2409 207.931 19.543V22.3018C207.931 23.1156 207.971 24.1165 208.053 25.3047C207.874 26.4115 207.735 28.0228 207.638 30.1387H207.931C207.833 31.4245 207.784 32.3766 207.784 32.9951V33.9229L207.394 34.4355H207.516C207.353 35.0378 207.011 35.4772 206.49 35.7539C206.49 36.0957 206.441 36.2666 206.344 36.2666L206.49 36.7793C206.393 37.8698 206.344 38.529 206.344 38.7568C206.441 38.9196 206.49 39.0498 206.49 39.1475C206.165 39.2451 205.986 39.2939 205.953 39.2939C205.872 39.0986 205.831 38.9603 205.831 38.8789H205.562C205.221 39.3997 205.001 39.6602 204.903 39.6602H204.781L204.903 39.001V37.9756C204.903 37.7803 204.822 37.6826 204.659 37.6826L204.903 35.998C204.822 35.4284 204.781 34.8669 204.781 34.3135V32.9951H204.513V36.6572C204.513 36.8688 204.472 37.0479 204.391 37.1943C204.472 37.3408 204.513 37.5036 204.513 37.6826V37.9756C204.513 38.1058 204.342 38.2848 204 38.5127H203.878C203.878 38.1383 203.699 37.7803 203.341 37.4385V37.3164L203.585 37.4385C203.78 37.4385 203.878 37.3571 203.878 37.1943C203.878 36.999 203.829 36.9014 203.731 36.9014C203.829 36.4456 203.878 36.1038 203.878 35.876L203.731 34.5576C203.829 34.2484 203.878 33.9066 203.878 33.5322H203.463V34.7041C203.382 36.2829 203.121 37.0723 202.682 37.0723C202.519 37.0723 202.438 37.235 202.438 37.5605H201.9L202.022 36.9014V35.998C202.332 35.3958 202.592 35.0947 202.804 35.0947L202.56 34.7041V34.167L203.097 33.6543C202.999 33.4753 202.95 33.3451 202.95 33.2637L202.682 33.3857H202.315V33.2637C202.315 32.8242 202.397 31.9453 202.56 30.627H202.022V31.7012C202.022 31.9779 201.982 32.1976 201.9 32.3604L202.022 33.1416V34.4355C202.022 35.1354 201.852 35.4854 201.51 35.4854V35.6074C201.51 36.1771 201.461 36.7467 201.363 37.3164L201.51 37.8535C201.412 38.4069 201.363 38.9684 201.363 39.5381H201.241C201.078 39.5381 200.997 39.4567 200.997 39.2939V38.6348C200.997 38.3581 201.038 38.2197 201.119 38.2197C201.038 37.9268 200.997 37.7477 200.997 37.6826C201.078 36.1852 201.119 35.2331 201.119 34.8262C201.282 34.8262 201.363 34.7367 201.363 34.5576V33.3857H200.997C200.997 33.874 200.859 34.224 200.582 34.4355V34.7041C200.582 36.3154 200.444 37.2757 200.167 37.585L199.947 37.5361V36.5352H199.679V36.7793H199.435V36.5352C199.223 36.6979 199.085 36.7793 199.02 36.7793H198.629V36.6572C198.889 36.2178 199.02 35.8678 199.02 35.6074V35.0947L198.775 34.7041V33.3857L198.116 33.5322H197.335C197.205 33.5322 197.075 33.402 196.944 33.1416V32.873C196.944 32.7266 197.506 32.1976 198.629 31.2861C198.775 31.2861 198.906 30.0247 199.02 27.502C198.889 27.502 198.759 27.3717 198.629 27.1113C198.759 27.1113 198.889 26.9811 199.02 26.7207V26.208L198.897 25.5488H199.02C198.857 25.1094 198.596 24.8896 198.238 24.8896C197.831 25.6058 197.481 27.1764 197.188 29.6016L196.822 29.8457L196.944 30.1387C196.782 31.7012 196.432 32.4824 195.895 32.4824V32.2139H195.748C195.748 32.6696 195.707 33.0602 195.626 33.3857L196.163 34.0449C196.082 34.9727 195.121 35.168 193.282 34.6309C191.866 35.4935 190.043 35.4284 187.813 34.4355ZM200.167 37.585C200.102 37.6501 200.029 37.6826 199.947 37.6826V37.5361L200.167 37.585ZM224.166 0.817383H224.435V1.35449H224.166V0.817383ZM218.307 24.8652V25.4023H218.453V24.8652H218.307ZM230.001 31.6279H230.27C230.27 31.9209 230.229 32.1488 230.147 32.3115L230.27 33.0928C230.188 33.6299 230.058 33.8984 229.879 33.8984H229.61V33.3613C229.61 32.2057 229.741 31.6279 230.001 31.6279ZM215.816 36.0469L215.914 35.9004H215.792C215.727 35.9329 215.67 35.9574 215.621 35.9736L215.401 35.876V35.0947H215.255C215.255 35.5342 215.214 35.7539 215.133 35.7539L214.864 35.6562V34.167C214.864 34.0693 214.905 34.0205 214.986 34.0205C214.905 33.8415 214.864 33.7113 214.864 33.6299L214.986 32.9707C214.645 32.9707 214.425 32.3929 214.327 31.2373L213.937 30.9688L213.79 32.3115L213.937 33.5078C213.871 34.6471 213.733 35.2168 213.521 35.2168H213.399V34.8262C213.399 34.3542 213.44 33.9554 213.521 33.6299C213.44 33.1416 213.399 32.7835 213.399 32.5557C213.448 31.6768 213.538 31.2373 213.668 31.2373L213.521 30.9688C213.701 30.6432 213.79 30.2933 213.79 29.9189V27.6484C213.79 27.4694 213.701 27.3799 213.521 27.3799C213.521 27.5589 213.481 27.6484 213.399 27.6484L213.521 27.917C213.44 29.5934 213.399 30.749 213.399 31.3838C213.269 31.3838 212.96 31.7337 212.472 32.4336H212.203C212.024 32.0755 211.935 31.7663 211.935 31.5059C212.032 30.7083 212.081 30.2201 212.081 30.041C212.521 30.041 212.83 29.6423 213.009 28.8447C212.911 28.2262 212.862 27.738 212.862 27.3799V26.7207C212.862 26.5417 212.773 26.4521 212.594 26.4521H212.472C212.097 28.8447 211.829 30.041 211.666 30.041C211.406 30.5781 211.235 30.8467 211.153 30.8467L211.007 30.5781V29.7725H211.275L211.153 29.1133C210.974 29.1133 210.836 29.5527 210.738 30.4316L210.348 30.7002V30.4316C210.348 29.748 210.567 28.5599 211.007 26.8672V26.1836L211.397 25.6709V25.5244L211.153 25.6709V25.1338C210.974 25.1338 210.885 25.0443 210.885 24.8652V21.3984C210.885 21.0729 210.925 20.6742 211.007 20.2021C210.925 20.1045 210.885 19.7952 210.885 19.2744C210.966 18.3467 211.007 17.8177 211.007 17.6875L210.738 17.5654H210.616C210.437 17.5817 210.348 17.6631 210.348 17.8096C210.429 17.9723 210.47 18.1514 210.47 18.3467H210.079C210.16 16.7516 210.291 15.9541 210.47 15.9541V15.5635C210.291 14.9287 210.201 14.5706 210.201 14.4893V14.3672C210.201 13.4232 210.25 12.6745 210.348 12.1211C210.25 11.4701 210.201 10.6725 210.201 9.72852V8.92285C210.201 8.72754 210.25 8.5485 210.348 8.38574L210.079 6.13965C210.079 4.36556 210.478 3.47852 211.275 3.47852C211.454 3.47852 211.544 3.73893 211.544 4.25977H212.081C212.081 3.73893 212.171 3.47852 212.35 3.47852H212.862C212.96 3.47852 213.009 3.51921 213.009 3.60059L213.277 3.47852L213.521 3.60059C213.521 3.16113 213.611 2.94141 213.79 2.94141C213.904 3.5599 214.083 3.86914 214.327 3.86914C214.327 3.65755 214.636 3.34831 215.255 2.94141L215.401 3.20996V3.86914H215.792C215.873 3.16927 216.004 2.81934 216.183 2.81934C216.362 3.03092 216.451 3.20182 216.451 3.33203C216.874 3.33203 217.493 3.16113 218.307 2.81934C218.404 2.94954 218.453 3.16927 218.453 3.47852H218.575L219.112 2.67285L219.649 3.47852H219.918V2.67285C219.934 2.49382 220.024 2.4043 220.187 2.4043H220.577L220.846 2.55078C220.862 2.37174 220.951 2.28223 221.114 2.28223H221.383C221.546 2.2985 221.627 2.38802 221.627 2.55078H221.114V2.67285C221.114 2.80306 221.244 2.94141 221.505 3.08789L221.896 2.81934H222.042L222.97 3.47852H223.092L223.629 2.67285L224.166 3.08789C224.166 2.8112 224.296 2.67285 224.557 2.67285C224.996 2.67285 225.216 2.76237 225.216 2.94141L225.484 2.81934C225.663 2.81934 225.753 2.99023 225.753 3.33203L226.144 3.08789C226.144 3.16927 226.192 3.20996 226.29 3.20996C226.29 2.94954 226.38 2.81934 226.559 2.81934C226.64 2.81934 226.681 2.86003 226.681 2.94141L226.949 2.81934C227.389 2.81934 227.608 3.07975 227.608 3.60059C228.276 3.16113 228.854 2.94141 229.342 2.94141H229.61C229.789 2.94141 229.968 3.20996 230.147 3.74707L230.416 3.60059H230.538V3.86914C230.538 3.9668 230.497 4.01562 230.416 4.01562C230.546 4.01562 230.676 5.91992 230.807 9.72852C230.807 10.8678 230.449 11.7467 229.732 12.3652H229.342C229.163 12.3652 229.073 12.1048 229.073 11.584L228.805 11.7061C228.723 11.7061 228.683 11.6654 228.683 11.584C228.487 11.584 228.219 11.8037 227.877 12.2432C227.698 12.2432 227.568 11.8851 227.486 11.1689H227.34C227.258 11.7061 227.128 11.9746 226.949 11.9746H226.681C226.599 11.9746 226.559 11.9339 226.559 11.8525C226.445 11.8525 226.225 12.0723 225.899 12.5117C225.72 12.5117 225.631 12.2432 225.631 11.7061C225.354 11.7061 225.216 11.9258 225.216 12.3652H224.947C224.785 12.3652 224.703 12.1455 224.703 11.7061C224.345 11.7061 224.166 11.8851 224.166 12.2432H224.02C223.84 12.2432 223.751 12.113 223.751 11.8525C223.539 12.0316 223.409 12.1211 223.36 12.1211L222.823 11.8525L222.311 12.1211C222.311 11.9421 222.221 11.8525 222.042 11.8525H221.896C221.684 12.0316 221.554 12.1211 221.505 12.1211C221.326 12.1211 221.236 11.9421 221.236 11.584H220.846C220.13 11.584 219.771 12.9512 219.771 15.6855C220.13 16.2227 220.439 16.4912 220.699 16.4912V16.3691C221.497 16.6947 221.896 16.9144 221.896 17.0283L222.555 16.8818H222.701V17.1504H223.092C223.271 17.1504 223.36 16.9795 223.36 16.6377L225.362 16.8818C225.362 16.54 225.623 16.3691 226.144 16.3691L226.29 16.6377L226.559 16.4912C227.079 16.7354 227.34 16.9144 227.34 17.0283V17.6875H227.608C227.608 16.9876 227.966 16.6377 228.683 16.6377C228.813 17.0446 229.073 17.4352 229.464 17.8096C229.643 17.8096 229.732 17.6794 229.732 17.4189H229.879C229.879 17.6143 230.099 18.013 230.538 18.6152C230.359 23.14 230.09 25.4023 229.732 25.4023C229.651 25.4023 229.61 25.443 229.61 25.5244C229.187 25.4105 228.74 25.1908 228.268 24.8652V23.9375H228.146C228.146 24.6374 228.056 24.9873 227.877 24.9873C227.698 24.9873 227.608 24.8978 227.608 24.7188V23.5225L227.486 22.8633H227.34C227.34 24.8164 227.169 25.793 226.827 25.793C226.729 25.6628 226.681 25.3942 226.681 24.9873L226.412 25.1338L226.144 24.9873C226.144 25.3454 226.062 25.5244 225.899 25.5244H225.753C225.574 25.5244 225.484 25.3047 225.484 24.8652H225.216C225.216 25.3047 225.126 25.5244 224.947 25.5244C224.817 25.5244 224.687 25.2559 224.557 24.7188L224.288 24.5967C224.288 24.6455 224.028 25.085 223.507 25.915C223.328 25.915 223.238 25.7848 223.238 25.5244C223.32 24.7269 223.36 24.2386 223.36 24.0596H222.823C222.758 24.8571 222.628 25.2559 222.433 25.2559H222.164V25.1338C222.164 24.3363 222.343 23.2702 222.701 21.9355C222.701 21.8704 222.652 21.61 222.555 21.1543C222.652 20.9915 222.701 20.8125 222.701 20.6172C222.571 20.2591 222.441 20.0801 222.311 20.0801V20.6172C222.311 23.2051 221.863 24.7513 220.968 25.2559C220.886 25.1094 220.846 24.8896 220.846 24.5967H220.699C220.699 25.3942 220.569 25.793 220.309 25.793C220.309 25.7116 220.268 25.6709 220.187 25.6709L220.309 24.9873V24.8652C220.13 24.9466 219.999 24.9873 219.918 24.9873V25.6709L219.771 26.5986H220.431C220.61 26.6149 220.699 26.7044 220.699 26.8672C220.553 26.9486 220.382 26.9893 220.187 26.9893C220.187 27.0706 220.585 27.2497 221.383 27.5264V27.7949L222.311 27.6484V27.3799L221.773 26.8672L222.042 26.7207C223.181 27.8112 223.751 28.9668 223.751 30.1875C223.8 30.334 224.337 30.863 225.362 31.7744V33.3613H225.631L225.753 32.043V31.6279L225.631 30.9688C225.973 30.5293 226.192 30.3096 226.29 30.3096H226.559C226.673 30.3096 226.892 30.5781 227.218 31.1152V31.2373C227.218 31.4001 226.998 31.5303 226.559 31.6279C226.559 31.4652 226.469 31.3838 226.29 31.3838V31.5059C226.55 32.2871 226.681 32.7266 226.681 32.8242H226.827C226.827 32.3848 226.909 32.165 227.071 32.165H227.218C227.446 32.6045 227.625 32.8242 227.755 32.8242C227.966 33.1823 228.137 33.3613 228.268 33.3613C228.007 34.9401 227.527 36.0062 226.827 36.5596C226.599 36.3805 226.461 36.291 226.412 36.291H226.29V36.877L224.557 37.9512C224.508 37.7884 224.288 37.6745 223.897 37.6094L223.751 37.8779L223.507 37.7559H223.36V38.0244L223.8 38.4395L223.604 38.5371H223.36V38.6836L222.311 39.3428C222.392 39.0335 222.433 38.8545 222.433 38.8057C222.351 38.6266 222.311 38.4964 222.311 38.415L222.042 38.5371C221.863 38.5371 221.773 38.2767 221.773 37.7559H221.505C221.326 37.7721 221.236 37.8617 221.236 38.0244V38.3174L217.916 36.9258V36.4131H217.794C217.794 36.4945 217.713 36.6165 217.55 36.7793L216.866 36.4863V36.4131C216.866 36.234 216.777 36.1445 216.598 36.1445H216.451L216.5 36.3398L215.816 36.0469Z" fill="white"/>
</svg>
