<svg width="983" height="158" viewBox="0 0 983 158" fill="none" xmlns="http://www.w3.org/2000/svg">
<path d="M32.8262 140.383C33.0605 139.328 33.2656 138.186 33.4414 136.955L32.4746 136.516H32.0352C31.0977 140.09 29.6035 141.877 27.5527 141.877H27.1133C26.5273 141.877 26.0879 140.676 25.7949 138.273C26.3809 138.273 26.6738 137.98 26.6738 137.395V136.955C26.6738 136.369 26.0879 136.076 24.916 136.076V134.23H26.2344C26.2344 135.168 26.5273 135.637 27.1133 135.637H27.5527V133.791L28.0801 131.594C27.0254 131.594 26.4102 130.393 26.2344 127.99C25.9414 127.99 25.7949 127.844 25.7949 127.551V127.111C26.5566 124.826 27.4648 122.893 28.5195 121.311V115.51C26.7031 114.279 25.7949 111.291 25.7949 106.545H25.3555L24.916 109.709L25.3555 113.664C25.1211 117.883 24.6816 119.992 24.0371 119.992H23.5977V118.586C23.5977 117.18 23.7441 115.686 24.0371 114.104L23.5977 111.467L24.916 102.062V99.8652L25.3555 98.8984L24.4766 98.459C23.8906 98.5762 23.5977 98.8984 23.5977 99.4258V106.105H22.6309V102.062C22.6309 100.773 22.8066 99.5723 23.1582 98.459C22.8066 97.2871 22.6309 96.1152 22.6309 94.9434V90.9004C22.6309 90.3145 22.3379 90.0215 21.752 90.0215H21.3125C20.4336 91.7793 19.9941 92.9512 19.9941 93.5371H19.1152V92.2188C19.1152 89.2305 20.2871 87.7363 22.6309 87.7363C22.3379 85.6855 21.8984 84.6602 21.3125 84.6602L19.9941 86.418V88.6152H18.2363V88.1758C18.8223 87.1211 19.1152 86.2422 19.1152 85.5391C17.5918 84.0156 16.8301 82.375 16.8301 80.6172V79.2988C17.5332 79.2988 18.1484 79.123 18.6758 78.7715L19.5547 79.2988C20.082 78.9473 20.668 78.7715 21.3125 78.7715V81.0566C21.3125 81.4082 21.752 81.8477 22.6309 82.375H23.1582V78.7715L22.6309 76.1348C22.9824 75.6074 23.1582 75.0215 23.1582 74.377C22.5137 74.377 22.1914 74.0547 22.1914 73.4102V69.8945L22.6309 67.1699C22.3379 66.6426 22.1914 66.0566 22.1914 65.4121L22.6309 63.127C22.3379 62.541 22.1914 62.1016 22.1914 61.8086L20.4336 63.127C20.082 63.127 19.0273 61.9551 17.2695 59.6113C17.3867 58.9668 17.709 58.6445 18.2363 58.6445C19.4082 59.9922 19.9941 60.9004 19.9941 61.3691H20.4336V60.9297C20.4336 58.2344 19.3789 56.8867 17.2695 56.8867C17.2695 57.4727 16.9766 57.7656 16.3906 57.7656C16.0977 56.7109 14.75 56.125 12.3477 56.0078V54.6895C13.9297 54.9824 14.8379 55.1289 15.0723 55.1289C16.3613 54.4258 17.709 53.5176 19.1152 52.4043C19.6426 52.6973 20.082 52.8438 20.4336 52.8438V53.7227L17.709 54.6895V55.1289L18.2363 56.0078L19.1152 55.5684H19.9941C19.9941 55.6855 20.1406 56.2715 20.4336 57.3262H20.873C21.5762 57.3262 22.1621 56.3008 22.6309 54.25C22.4551 53.0195 22.1621 52.4043 21.752 52.4043L22.6309 43C22.3379 42.4727 22.1914 41.7402 22.1914 40.8027L19.9941 41.2422V39.4844C20.0527 38.8398 20.3457 38.5176 20.873 38.5176L21.752 39.0449L22.1914 38.0781C21.3711 36.6133 20.7852 35.8809 20.4336 35.8809C20.4336 36.7598 19.9941 37.1992 19.1152 37.1992H17.709C17.709 37.7852 17.416 38.0781 16.8301 38.0781C16.8301 37.7852 16.6836 37.6387 16.3906 37.6387V38.5176H15.9512C15.6582 38.5176 15.5117 38.3711 15.5117 38.0781L14.6328 38.5176L12.3477 37.1992C11.9961 38.7227 11.5566 39.4844 11.0293 39.4844L9.27148 36.3203H8.39258C8.39258 37.1992 8.07031 37.6387 7.42578 37.6387H6.10742C3.41211 35.5879 2.06445 33.3613 2.06445 30.959L0.746094 31.8379L0.306641 30.959C0.306641 27.7363 0.453125 25.5098 0.746094 24.2793C0.453125 21.6426 0.306641 19.3867 0.306641 17.5117C0.306641 15.4609 0.599609 12.6484 1.18555 9.07422H2.06445V11.2715H2.50391C3.20703 11.2715 3.67578 10.2168 3.91016 8.10742H4.78906C5.375 8.10742 5.66797 8.86914 5.66797 10.3926H6.98633C6.98633 9.33789 8.62695 8.2832 11.9082 7.22852C13.1387 7.69727 13.7539 8.13672 13.7539 8.54688V11.2715H14.6328L16.3906 8.10742C16.6836 8.10742 17.123 8.72266 17.709 9.95312C18.7637 9.95312 19.8184 9.19141 20.873 7.66797H21.3125C21.8984 7.66797 22.1914 8.13672 22.1914 9.07422C23.7734 9.07422 25.1211 8.60547 26.2344 7.66797H27.1133C28.6953 7.66797 30.3359 8.42969 32.0352 9.95312C32.0352 9.13281 32.9434 8.37109 34.7598 7.66797C35.3457 7.66797 35.6387 8.13672 35.6387 9.07422C39.1543 8.72266 42.1426 7.81445 44.6035 6.34961C45.1895 6.34961 45.4824 7.25781 45.4824 9.07422H47.2402C47.2402 8.01953 47.3867 7.25781 47.6797 6.78906C48.8516 7.375 50.4922 7.66797 52.6016 7.66797L54.8867 7.22852C54.9453 7.81445 55.2383 8.10742 55.7656 8.10742H58.4902L59.8086 7.22852C61.2734 7.52148 62.0059 8.13672 62.0059 9.07422H63.8516C63.8516 7.84375 64.1445 7.22852 64.7305 7.22852H65.1699C65.7559 7.28711 66.0488 7.58008 66.0488 8.10742L71.8496 7.22852V7.66797C73.0801 7.08203 74.1348 6.78906 75.0137 6.78906C77.123 10.0117 78.1777 12.0918 78.1777 13.0293V22.4336C78.1777 23.4297 78.002 24.1914 77.6504 24.7188L78.1777 27.3555V30.0801C78.1777 34.0645 77.2695 36.877 75.4531 38.5176L73.2559 38.0781C73.2559 38.7227 72.9336 39.0449 72.2891 39.0449H71.8496L70.5312 38.0781H70.0918C70.0918 39.0156 69.7988 39.4844 69.2129 39.4844L65.1699 38.5176C64.584 38.8691 64.1445 39.0449 63.8516 39.0449C63.4414 37.5215 62.9727 36.7598 62.4453 36.7598H61.5664C61.5664 38.2832 61.2734 39.0449 60.6875 39.0449H60.248C59.9551 39.0449 59.8086 38.8691 59.8086 38.5176L58.9297 39.0449C57.6992 38.4004 57.084 37.9316 57.084 37.6387C56.498 37.9316 56.0586 38.0781 55.7656 38.0781C55.4727 42.1211 55.3262 45.1094 55.3262 47.043V56.0078L54.8867 58.6445C55.1797 59.1719 55.3262 59.7871 55.3262 60.4902C55.0332 63.4785 54.8867 65.7051 54.8867 67.1699C55.4727 67.2285 55.7656 67.5215 55.7656 68.0488V68.9277L55.3262 71.6523C55.3262 71.9453 55.4727 72.0918 55.7656 72.0918L55.3262 74.377V77.4531C55.3262 78.5078 55.9121 79.5625 57.084 80.6172V82.8145C57.084 83.4004 56.791 83.6934 56.2051 83.6934L56.6445 84.6602V85.5391C55.7656 86.5938 55.3262 87.6191 55.3262 88.6152V90.9004L55.7656 93.0977C55.4727 93.0977 55.3262 93.2441 55.3262 93.5371L56.2051 93.9766C56.2051 92.5117 56.498 91.7793 57.084 91.7793H57.5234V92.2188C57.5234 92.5117 57.377 92.6582 57.084 92.6582C57.2598 93.9473 59.1934 95.1484 62.8848 96.2617V97.1406L62.4453 98.0195H62.8848C63.6465 98.0195 65.1406 96.6719 67.3672 93.9766C67.8945 94.3281 68.3633 94.5039 68.7734 94.5039L69.6523 92.6582C71.7031 92.9512 72.7285 93.3906 72.7285 93.9766V94.5039H71.8496L70.9707 93.9766L70.5312 94.9434L71.4102 96.2617V96.7012C69.6523 97.8145 68.7734 98.5469 68.7734 98.8984C69.0664 99.4258 69.2129 99.8945 69.2129 100.305L68.334 100.744H67.8066V99.8652H67.3672V100.305C67.6602 100.832 67.8066 101.418 67.8066 102.062C66.3418 103.469 65.1699 107.043 64.291 112.785H63.4121C63.4121 111.73 63.2363 110.998 62.8848 110.588L58.4902 111.027H55.3262V110.148H54.4473L55.3262 111.467C54.7402 112.346 54.3008 113.4 54.0078 114.631C54.0078 114.748 54.8867 116.682 56.6445 120.432V120.871C55.7656 121.984 55.3262 123.332 55.3262 124.914V126.672L55.7656 127.551C55.1797 127.609 54.8867 127.902 54.8867 128.43C54.8867 131.125 55.3262 132.473 56.2051 132.473V133.791C56.2051 134.201 55.7656 134.67 54.8867 135.197C53.832 133.088 53.0703 132.033 52.6016 132.033H52.1621V133.352L53.1289 134.758L52.1621 136.076L51.2832 135.637H50.4043C50.9902 136.457 51.5469 137.189 52.0742 137.834L47.5039 139.68C47.6211 139.27 47.6797 138.801 47.6797 138.273C46.4492 135.93 45.5703 134.758 45.043 134.758C43.9883 134.758 42.7871 135.197 41.4395 136.076C41.4395 135.783 41.293 135.637 41 135.637L41.4395 134.758V133.791L40.5605 132.473V131.594C40.6191 131.008 40.9121 130.715 41.4395 130.715C42.0254 130.773 42.3184 131.066 42.3184 131.594L41.8789 132.473L42.7578 132.912C43.4023 132.912 43.8711 132.033 44.1641 130.275L43.2852 130.715C42.0547 130.246 41.4395 129.807 41.4395 129.396C41.6152 127.58 42.0547 126.232 42.7578 125.354C42.7578 124.768 42.4648 124.475 41.8789 124.475H41.4395V124.914C41.4395 127.199 40.707 130.012 39.2422 133.352H38.3633L36.957 131.154H36.5176C36.5176 135.021 35.7852 136.955 34.3203 136.955C34.6133 137.482 34.7598 137.922 34.7598 138.273H35.1992L32.8262 140.383ZM55.7656 98.459V99.8652C56.2344 99.8652 56.8203 99.25 57.5234 98.0195V97.5801H56.6445C56.0586 97.6387 55.7656 97.9316 55.7656 98.459ZM55.7656 101.184V101.623C56.6445 101.623 57.084 102.062 57.084 102.941H59.3691V102.062C58.4316 101.008 57.9629 100.275 57.9629 99.8652H57.084C56.6738 99.8652 56.2344 100.305 55.7656 101.184ZM58.4902 108.303L59.3691 108.742H60.248C60.834 106.516 61.127 105.051 61.127 104.348C60.834 104.348 60.6875 104.172 60.6875 103.82C59.2227 103.82 58.4902 105.314 58.4902 108.303ZM55.3262 106.545V108.303H56.6445V107.863L56.2051 105.666C55.6191 105.725 55.3262 106.018 55.3262 106.545ZM134.955 137.658C133.9 135.49 133.109 134.348 132.582 134.23C131.82 134.699 130.619 135.168 128.979 135.637V135.197C130.502 133.557 131.264 132.502 131.264 132.033C131.85 132.033 132.143 131.447 132.143 130.275C131.439 130.275 130.824 128.928 130.297 126.232C131.059 125.646 131.674 125.354 132.143 125.354V124.387H130.297V123.068H130.736L131.703 123.508L132.143 122.629V117.268L132.582 116.389L131.703 115.949H129.418L130.297 114.104C128.539 114.104 127.66 113.811 127.66 113.225C129.125 112.873 129.857 112.434 129.857 111.906C128.979 111.906 128.539 111.584 128.539 110.939V110.5C128.598 109.914 128.891 109.621 129.418 109.621L128.979 107.424L129.857 106.018V105.578L128.539 103.82V103.381L128.979 102.502C128.393 102.502 128.1 102.18 128.1 101.535V101.096L128.979 99.7773V99.3379C128.451 99.3379 127.719 98.8984 126.781 98.0195C122.797 100.715 120.541 102.795 120.014 104.26V105.139C120.6 105.139 121.508 105.607 122.738 106.545V105.139H121.859V103.82C121.918 103.234 122.211 102.941 122.738 102.941C123.324 104.699 123.91 105.578 124.496 105.578V104.26H125.375C125.961 104.318 126.254 104.611 126.254 105.139V105.578C124.613 107.219 123.588 109.621 123.178 112.785L124.496 113.664L125.375 113.225C125.902 113.518 126.518 113.664 127.221 113.664V114.104C125.99 114.807 125.375 115.715 125.375 116.828L122.299 119.025C121.889 121.252 120.395 123.508 117.816 125.793V126.672H118.256C118.842 126.379 119.281 126.232 119.574 126.232L120.014 127.111C119.545 127.111 118.812 128.605 117.816 131.594L115.092 131.506C114.33 131.271 113.891 130.1 113.773 127.99C113.48 127.99 113.334 127.844 113.334 127.551V127.111C114.037 124.768 114.916 122.834 115.971 121.311V115.422C114.213 114.25 113.334 111.291 113.334 106.545H112.895L112.367 109.621L112.895 113.664C112.66 117.824 112.191 119.904 111.488 119.904H111.049V118.586L111.488 113.225L110.609 112.785C111.781 106.926 112.367 103.352 112.367 102.062V99.7773L112.895 98.8984L111.928 98.459C111.342 98.5176 111.049 98.8105 111.049 99.3379V106.018C109.818 107.072 109.086 108.42 108.852 110.061C107.797 110.354 107.182 110.5 107.006 110.5C106.127 109.035 105.688 108.01 105.688 107.424C106.273 104.025 107.475 101.77 109.291 100.656L109.73 98.0195C109.145 98.0195 108.852 97.6973 108.852 97.0527C109.145 95.002 109.291 93.3613 109.291 92.1309V91.6914C108.822 91.6914 108.383 92.1602 107.973 93.0977V94.8555C107.973 97.375 106.771 100.656 104.369 104.699V105.139H102.963V100.656H102.523C102.523 101.887 101.938 103.85 100.766 106.545V108.303C100.766 110.588 100.912 112.668 101.205 114.543L100.326 120.871H99.4473C99.4473 119.816 99.5938 116.682 99.8867 111.467L99.4473 107.424L101.205 98.459V95.7344C100.15 96.2617 98.8027 100.158 97.1621 107.424H95.8438V105.578C95.8438 100.246 96.2832 97.5801 97.1621 97.5801C97.1621 97.873 97.3086 98.0195 97.6016 98.0195C97.8945 94.7383 98.3633 92.7754 99.0078 92.1309V90.373C99.0078 89.7871 98.6855 89.4941 98.041 89.4941C98.041 91.8965 97.4551 93.0977 96.2832 93.0977V95.7344H95.4043C96.0488 88.8203 96.6348 85.2461 97.1621 85.0117V80.5293C97.1621 79.9434 96.8691 79.6504 96.2832 79.6504H95.8438C95.8438 80.0605 95.5508 80.6465 94.9648 81.4082V82.7266C94.9648 89.1133 94.3496 92.8633 93.1191 93.9766H92.2402C92.8262 88.6445 93.1191 84.3086 93.1191 80.9688C92.416 81.5547 91.8301 81.8477 91.3613 81.8477V82.2871H92.2402V83.166C90.6582 84.3965 89.6035 85.0117 89.0762 85.0117V85.4512L89.6035 87.6484C88.666 87.8242 88.1973 89.0254 88.1973 91.252V94.8555H87.7578C87.1719 94.8555 86.8789 94.5625 86.8789 93.9766C87.4648 87.4141 87.7578 82.6387 87.7578 79.6504H87.3184V67.082H88.1973V67.9609C88.7832 67.9609 89.0762 67.668 89.0762 67.082V65.3242H87.7578C87.7578 63.5078 88.373 62.5996 89.6035 62.5996V62.1602C88.959 62.1602 88.6367 62.0137 88.6367 61.7207L87.7578 62.1602H87.3184C87.3184 61.1055 87.1719 60.3438 86.8789 59.875C87.1719 56.8281 87.3184 54.4551 87.3184 52.7559V49.1523C88.4902 49.1523 89.252 46.9258 89.6035 42.4727V41.0664H89.0762C89.0762 42.4141 88.6367 44.8164 87.7578 48.2734H86.8789V44.2305C86.8789 42.3555 87.0254 40.1289 87.3184 37.5508L86.8789 34.8262L87.3184 32.6289C87.3184 32.2187 87.1719 30.7246 86.8789 28.1465C86.8789 14.377 87.6113 7.49219 89.0762 7.49219L89.6035 8.37109V10.6562H90.9219C91.1562 8.54688 91.5957 7.49219 92.2402 7.49219C92.8262 7.49219 93.1191 8.40039 93.1191 10.2168H94.5254C94.5254 8.10742 95.873 7.05273 98.5684 7.05273H100.326C101.439 8.57617 102.172 9.33789 102.523 9.33789C102.992 8.10742 103.461 7.49219 103.93 7.49219C104.516 7.49219 104.809 8.25391 104.809 9.77734H106.127C106.127 7.66797 107.182 6.61328 109.291 6.61328H109.73V7.93164H111.049L112.367 7.05273H113.773C114.066 7.05273 114.213 7.19922 114.213 7.49219L115.092 7.05273H115.531C115.707 7.05273 116.146 7.3457 116.85 7.93164H117.816C117.816 7.05273 118.109 6.61328 118.695 6.61328C119.281 6.61328 119.574 7.05273 119.574 7.93164H121.332C121.332 7.05273 121.654 6.61328 122.299 6.61328C122.885 6.61328 123.178 7.19922 123.178 8.37109H123.617L125.375 7.05273H125.814C126.518 7.05273 127.133 7.19922 127.66 7.49219C128.246 7.19922 129.887 6.90625 132.582 6.61328C132.875 7.08203 133.021 7.99023 133.021 9.33789H134.34C134.516 9.33789 134.984 9.01562 135.746 8.37109V8.81055L138.383 7.93164C140.199 8.04883 142.279 8.95703 144.623 10.6562V9.33789H145.59C147.289 10.334 149.369 11.2129 151.83 11.9746C151.83 13.2051 152.738 14.2598 154.555 15.1387V14.2598H154.994C155.111 16.6035 155.551 17.7754 156.312 17.7754C156.312 16.3105 156.605 15.5781 157.191 15.5781H157.631C158.217 15.6367 158.51 15.9297 158.51 16.457V17.3359C158.51 17.6289 158.363 17.7754 158.07 17.7754C160.473 20.4121 161.674 22.0527 161.674 22.6973C161.674 23.166 161.967 24.3672 162.553 26.3008L163.432 25.8613H163.959V29.0254C164.838 29.0254 165.277 29.3184 165.277 29.9043V33.9473C166.449 36.7012 167.035 38.4883 167.035 39.3086V42.0332C167.035 43.7324 166.889 44.7578 166.596 45.1094C166.889 46.6914 167.035 48.0391 167.035 49.1523V51.4375C167.035 56.5938 165.541 63.0098 162.553 70.6855C159.213 74.7871 157.426 77.6289 157.191 79.2109C157.484 79.7969 157.777 81.1152 158.07 83.166L159.037 82.7266H159.916C159.916 84.25 160.209 85.0117 160.795 85.0117C160.795 83.7812 161.381 82.873 162.553 82.2871C163.021 82.2871 163.49 82.7559 163.959 83.6934L162.113 91.6914H161.674C160.795 90.2266 160.355 89.2012 160.355 88.6152C160.883 88.6152 161.469 87.707 162.113 85.8906L161.234 85.4512C160.18 87.2676 159.447 88.1758 159.037 88.1758C159.037 87.5312 158.715 87.209 158.07 87.209V88.1758C158.07 88.7617 158.979 90.6953 160.795 93.9766C160.092 96.0273 159.652 97.0527 159.477 97.0527C160.062 98.0488 160.355 98.957 160.355 99.7773V100.656C160.355 101.242 159.74 101.535 158.51 101.535V104.699C159.154 105.93 159.623 106.545 159.916 106.545C159.33 110.295 159.037 112.814 159.037 114.104C160.209 114.104 160.795 115.598 160.795 118.586L159.477 119.465C158.246 118.879 157.631 118.439 157.631 118.146L156.752 118.586L155.873 118.146V121.311C154.643 121.311 154.027 121.896 154.027 123.068L154.555 125.354C154.555 129.807 153.939 132.033 152.709 132.033L152.27 131.154V130.715L152.709 128.43C152.123 128.43 151.83 127.99 151.83 127.111C151.83 124.885 152.416 123.391 153.588 122.629C154.232 118.586 154.555 116.037 154.555 114.982V113.225C155.141 112.463 155.434 112.023 155.434 111.906L154.555 111.467C154.145 113.518 153.676 114.543 153.148 114.543H152.27V113.664H151.83L151.391 115.949V116.828H152.27V117.707L151.391 119.025V120.432L150.512 128.43H149.633L149.105 126.232V125.354L149.633 122.189C149.281 122.189 149.105 122.043 149.105 121.75L148.227 122.189H147.787C146.908 122.189 146.469 121.281 146.469 119.465C147.348 119.465 147.787 118.439 147.787 116.389V114.104H147.348V115.422L145.15 114.982L144.623 115.949C144.623 116.242 144.799 116.389 145.15 116.389L144.623 118.586C145.854 122.16 146.469 125.91 146.469 129.836C144.359 133.41 143.158 135.197 142.865 135.197L140.141 132.033H139.701V133.352L140.668 134.758L139.701 136.076L138.822 135.637H137.943C138.178 135.93 138.412 136.223 138.646 136.516L134.955 137.658ZM129.418 33.5078C129.125 35.2656 128.686 36.1445 128.1 36.1445C127.514 35.207 127.221 34.4746 127.221 33.9473H126.781L124.936 36.1445C123.295 35.8516 121.947 35.7051 120.893 35.7051C120.072 37.7559 119.486 39.7188 119.135 41.5938C119.428 44.5234 119.721 45.9883 120.014 45.9883L119.574 48.2734V52.7559L120.014 55.4805L119.574 56.3594L120.453 60.4023C120.16 60.8711 120.014 61.3105 120.014 61.7207L120.893 62.1602L122.738 57.2383V56.7988L122.299 54.0742C122.592 53.4883 122.738 53.0488 122.738 52.7559L122.299 51.877C122.592 51.3496 122.738 50.7344 122.738 50.0312H123.617L124.496 60.8418C125.844 60.1973 126.605 59.582 126.781 58.9961V58.5566C125.844 57.4434 125.375 56.418 125.375 55.4805H125.814C127.631 57.2383 128.979 58.1172 129.857 58.1172C129.857 57.4727 130.912 56.8867 133.021 56.3594C133.607 55.8906 134.047 52.7559 134.34 46.9551L133.9 44.6699C134.193 44.1426 134.34 43.4102 134.34 42.4727C131.82 38.6641 130.326 35.6758 129.857 33.5078H129.418ZM158.07 51.4375V56.3594H158.51C158.51 55.0117 158.686 54.1035 159.037 53.6348C158.686 53.1074 158.51 52.375 158.51 51.4375H158.07ZM149.633 54.5137V57.2383H150.951V55.4805C150.951 54.8359 150.658 54.5137 150.072 54.5137H149.633ZM125.375 58.1172L125.814 58.9961L124.936 59.4355L124.496 58.5566L125.375 58.1172ZM158.07 63.4785V70.6855H158.51L159.037 66.6426L158.51 63.4785H158.07ZM131.264 67.082V70.2461C131.85 70.2461 132.143 69.9531 132.143 69.3672V67.9609C132.143 67.375 131.85 67.082 131.264 67.082ZM123.617 89.9336H123.178L120.014 87.6484C119.721 88.293 119.428 89.9629 119.135 92.6582C120.307 92.7754 120.893 93.2148 120.893 93.9766C120.307 94.0352 120.014 94.3281 120.014 94.8555L121.332 96.6133C121.332 96.7891 121.039 97.2578 120.453 98.0195V98.459L122.738 98.0195C123.031 98.5469 123.178 98.9863 123.178 99.3379H124.057C124.057 98.459 124.496 98.0195 125.375 98.0195V97.5801C125.375 96.9355 124.496 96.3203 122.738 95.7344C122.738 93.6836 123.91 91.457 126.254 89.0547V88.6152C126.254 88.1465 125.814 87.6777 124.936 87.209C124.057 87.209 123.617 88.1172 123.617 89.9336ZM134.34 89.4941H135.746V88.6152H135.219C134.633 88.6738 134.34 88.9668 134.34 89.4941ZM114.652 91.6914V97.5801C114.711 98.166 115.004 98.459 115.531 98.459H115.971C115.971 98.166 115.678 96.9648 115.092 94.8555L115.531 91.6914H114.652ZM124.936 92.6582C124.936 93.0684 124.643 93.6543 124.057 94.416C124.35 94.9434 124.496 95.3828 124.496 95.7344H125.814V93.5371C125.814 92.9512 125.521 92.6582 124.936 92.6582ZM111.488 93.0977V94.8555H111.928V93.0977H111.488ZM162.553 93.0977L162.992 93.9766L162.113 94.416H161.234V93.5371C161.527 93.5371 161.967 93.3906 162.553 93.0977ZM138.822 95.2949C138.822 96.4668 138.529 97.0527 137.943 97.0527C138.236 97.5801 138.383 98.1953 138.383 98.8984C138.969 98.6055 139.408 98.459 139.701 98.459L139.262 95.2949H138.822ZM115.092 98.8984L114.652 99.7773V101.535H115.092C115.092 101.066 115.385 100.48 115.971 99.7773C115.971 99.1914 115.678 98.8984 115.092 98.8984ZM120.014 99.7773V102.062H120.893V100.656C120.893 100.07 120.6 99.7773 120.014 99.7773ZM159.916 102.941H160.355C160.941 103 161.234 103.293 161.234 103.82H159.916V102.941ZM160.355 105.578H160.795C161.381 105.695 161.674 106.018 161.674 106.545V106.984H160.355V105.578ZM191.82 128.693C190.941 127.873 190.502 125.939 190.502 122.893V120.52C190.971 118.293 191.615 117.18 192.436 117.18H192.875L192.436 121.926L192.875 127.639C193.871 127.639 194.369 125.588 194.369 121.486L193.842 118.146L194.369 115.773C194.369 115.539 194.193 114.602 193.842 112.961V110.061H192.436C192.025 112.639 191.381 113.928 190.502 113.928C189.74 113.283 189.271 112.961 189.096 112.961C189.096 113.254 188.949 113.4 188.656 113.4L189.096 115.773C188.92 118.938 188.451 120.52 187.689 120.52H187.25C187.25 119.406 187.074 118.615 186.723 118.146C187.074 117.033 187.25 116.418 187.25 116.301C186.898 111.555 186.723 108.391 186.723 106.809C187.367 104.758 187.689 103.322 187.689 102.502V99.6895H188.656C188.656 99.3379 188.48 98.8691 188.129 98.2832C188.48 96.5254 188.656 95.0898 188.656 93.9766C188.07 94.2695 187.602 94.416 187.25 94.416V97.7559L185.756 99.6895V102.502C185.756 105.432 185.609 108.127 185.316 110.588C185.609 112.229 185.756 113.811 185.756 115.334L185.316 119.553C185.609 121.252 185.756 122.688 185.756 123.859L185.316 126.232L186.283 128.078C185.873 132.121 185.551 134.348 185.316 134.758C185.609 135.285 185.756 135.9 185.756 136.604C184.936 137.248 183.529 137.893 181.537 138.537L181.098 137.57C183.266 132.941 184.35 129.631 184.35 127.639H183.383L183.91 124.299C183.559 121.604 183.383 119.406 183.383 117.707H181.977V119.553H181.537C180.893 119.553 180.57 119.26 180.57 118.674C181.508 117.326 181.977 116.037 181.977 114.807L181.098 115.334L178.725 114.367C178.314 118 177.67 120.197 176.791 120.959V122.893C176.791 126.76 176.322 130.246 175.385 133.352H174.418C175.062 123.215 175.854 117.355 176.791 115.773L176.352 114.807C176.645 112.287 177.113 111.027 177.758 111.027H178.725C178.725 111.672 178.871 111.994 179.164 111.994C179.809 111.701 180.277 111.555 180.57 111.555C180.57 111.848 180.746 111.994 181.098 111.994C181.098 111.701 181.244 111.555 181.537 111.555C181.83 112.141 181.977 112.609 181.977 112.961H182.504C182.504 111.203 182.65 109.445 182.943 107.688V107.248H182.504V108.215H181.537C180.248 105.754 179.604 102.912 179.604 99.6895H178.725C178.725 106.311 178.08 109.621 176.791 109.621L175.824 107.688C175.824 106.926 176.146 104.729 176.791 101.096L175.385 102.062H174.418V101.535L187.25 39.4844C187.836 39.4844 189.096 34.123 191.029 23.4004C193.08 13.3223 194.486 7.93164 195.248 7.22852H196.215V7.75586L197.182 7.22852C197.826 7.22852 198.148 7.87305 198.148 9.16211H199.027C199.672 9.16211 199.994 8.69336 199.994 7.75586H200.521C201.107 7.75586 201.4 8.37109 201.4 9.60156H203.334C203.334 8.01953 203.656 7.22852 204.301 7.22852H207.641L209.047 8.19531H210.453C210.453 6.61328 210.775 5.82227 211.42 5.82227C211.42 6.29102 211.889 6.75977 212.826 7.22852L215.199 6.78906C215.316 7.43359 215.639 7.75586 216.166 7.75586H218.979V6.26172C222.787 6.26172 224.691 7.05273 224.691 8.63477H226.098C226.098 7.4043 226.42 6.78906 227.064 6.78906H230.316C231.605 8.42969 233.041 9.54297 234.623 10.1289C236.205 12.707 236.996 15.373 236.996 18.127H236.469C236.586 20.1777 237.553 23.8105 239.369 29.0254L239.809 31.3984C239.516 34.7383 239.047 37.5801 238.402 39.9238V41.8574H239.809L240.336 37.1113H241.215C241.215 38.4004 241.391 39.6602 241.742 40.8906C241.742 41.0664 241.566 41.7109 241.215 42.8242C241.801 46.3398 242.768 49.5039 244.115 52.3164C244.115 52.6094 244.262 53.0781 244.555 53.7227L244.115 56.5352V56.9746C245.053 59.5527 246.166 64.7676 247.455 72.6191C247.455 74.5527 246.811 75.5195 245.521 75.5195C245.229 79.4453 245.082 81.8184 245.082 82.6387V83.5176H245.521C246.811 80.8809 247.455 77.8926 247.455 74.5527H247.895C248.363 74.5527 248.832 75.0215 249.301 75.959V77.3652C249.301 79.1816 249.447 81.7305 249.74 85.0117C249.74 86.2422 248.979 86.8574 247.455 86.8574V89.7578C248.686 89.7578 249.301 91.4863 249.301 94.9434H249.74L250.268 92.5703V86.418H250.707C251.117 86.418 251.908 89.084 253.08 94.416C253.49 94.416 253.812 95.0605 254.047 96.3496L253.607 99.1621C253.9 100.979 254.047 102.561 254.047 103.908C253.578 103.908 252.934 104.553 252.113 105.842L254.486 108.654C254.369 110.588 253.754 111.555 252.641 111.555V112.961C252.641 113.254 252.787 113.4 253.08 113.4L252.113 117.707L252.641 120.52C252.641 120.988 252.465 123.215 252.113 127.199H254.047V129.045C254.047 130.979 253.402 131.945 252.113 131.945V135.725C252.113 136.311 251.82 136.604 251.234 136.604H250.707L249.74 136.164L250.707 131.945C250.414 128.664 250.268 126.115 250.268 124.299C250.561 123.186 250.707 122.57 250.707 122.453C250.355 120.227 249.887 119.113 249.301 119.113C249.066 122.688 248.451 124.885 247.455 125.705C247.455 131.389 246.664 135.812 245.082 138.977C245.082 140.266 244.76 140.91 244.115 140.91H242.709L242.182 138.537V132.824C242.182 132.121 242.035 131.506 241.742 130.979C241.742 130.627 241.889 130.451 242.182 130.451L241.742 124.826V120.52C240.629 120.52 239.838 123.039 239.369 128.078H238.402L237.963 125.705C237.963 120.373 238.578 117.707 239.809 117.707V114.807C239.809 113.459 239.984 111.73 240.336 109.621C240.336 109.328 240.16 109.182 239.809 109.182L240.336 106.809V103.029C239.281 103.029 238.49 102.854 237.963 102.502C236.967 105.666 236.469 107.395 236.469 107.688L237.436 107.248H238.402C238.402 110.002 237.611 115.363 236.029 123.332C236.322 123.918 236.645 125.5 236.996 128.078C236.352 132.355 236.029 135.197 236.029 136.604C235.619 136.604 235.15 135.812 234.623 134.23L235.062 130.979V123.859C234.477 123.859 234.184 123.215 234.184 121.926C231.254 124.152 229.35 125.266 228.471 125.266L225.131 124.299V121.926C225.131 121.633 225.277 121.486 225.57 121.486C224.984 120.197 224.691 118.469 224.691 116.301C223.695 116.301 222.582 116.125 221.352 115.773C221.059 117.062 220.414 117.707 219.418 117.707L217.572 116.74C213.354 118.439 210.189 120.783 208.08 123.771L191.82 128.693ZM211.859 64.6211C212.152 64.6211 212.299 66.2031 212.299 69.3672H211.42C211.42 72.0039 211.098 74.5234 210.453 76.9258C210.746 79.0352 210.893 80.7637 210.893 82.1113V87.8242C211.068 88.4688 211.391 88.791 211.859 88.791H212.826V82.1113L213.266 79.7383H213.793C213.793 82.1992 214.73 85.6855 216.605 90.1973C218.012 90.1973 218.803 87.6777 218.979 82.6387V73.5859C219.623 72.8242 219.945 72.3555 219.945 72.1797V69.8066H218.979L218.539 74.5527H218.012C217.25 74.5527 216.635 72.0332 216.166 66.9941L215.199 66.4668C215.492 65.8809 215.639 65.4121 215.639 65.0605C215.639 63.7129 215.316 62.1309 214.672 60.3145C213.617 60.3145 212.68 61.75 211.859 64.6211ZM218.979 100.129V101.535C219.447 101.535 219.916 101.066 220.385 100.129V99.6895C219.857 99.9824 219.389 100.129 218.979 100.129ZM245.082 100.129C245.082 101.066 244.584 101.857 243.588 102.502C243.588 104.787 242.973 107.951 241.742 111.994L242.182 114.367C241.889 116.594 241.742 117.854 241.742 118.146V120.08H242.182C243.002 111.818 243.969 107.688 245.082 107.688H245.521V108.215C245.521 113.898 244.877 117.209 243.588 118.146C243.588 121.076 243.441 123.771 243.148 126.232L243.588 129.572C243.295 131.682 243.148 133.41 243.148 134.758V135.197H243.588C244.877 133.146 245.521 130.949 245.521 128.605C245.111 126.379 244.643 125.266 244.115 125.266C245.229 118 246.02 114.367 246.488 114.367C247.426 111.496 248.041 110.061 248.334 110.061C248.334 110.412 248.51 110.588 248.861 110.588C250.092 104.787 250.707 101.477 250.707 100.656H249.301V103.029C248.07 103.791 247.455 104.582 247.455 105.402C246.342 105.695 245.697 105.842 245.521 105.842V100.129H245.082ZM209.047 114.807C209.047 115.627 208.578 116.74 207.641 118.146C208.227 118.967 208.52 119.611 208.52 120.08H209.047C210.277 118.791 211.215 118.146 211.859 118.146V117.18L210.453 118.146L209.926 117.18C210.57 117.18 210.893 116.887 210.893 116.301L209.047 114.807ZM213.266 115.334V116.301H214.672V115.334H213.266ZM308.451 143.811C308.51 143.4 308.539 143.166 308.539 143.107L307.66 143.635L306.342 142.844C305.99 142.199 305.727 141.145 305.551 139.68C304.672 139.68 303.852 138.859 303.09 137.219V136.691H303.617L306.078 138.186H306.605V137.746C306.605 136.984 305.434 136.164 303.09 135.285C303.09 132.59 301.479 129.953 298.256 127.375C298.256 126.145 297.582 125.178 296.234 124.475V123.947L299.223 123.508V122.98C299.223 118.703 298.08 116.564 295.795 116.564C295.15 116.564 294.828 116.242 294.828 115.598V111.203L293.773 109.709C294.477 109.709 294.828 109.387 294.828 108.742V108.215C294.008 108.215 293.188 106.926 292.367 104.348C292.016 104.348 291.84 104.172 291.84 103.82V102.854H293.773C293.773 102.385 293.305 101.887 292.367 101.359H291.84V102.854L289.906 101.359C289.906 102.004 289.408 102.326 288.412 102.326V103.82L289.906 105.754C289.555 106.34 289.379 106.838 289.379 107.248H289.467L289.291 107.775H288.852V109.27L283.227 128.518C282.758 129.514 282.523 130.451 282.523 131.33L281.557 131.857C281.791 132.15 281.938 132.59 281.996 133.176L278.217 146.184C276.928 144.133 275.58 143.107 274.174 143.107L274.613 138.186V136.252C275.609 134.963 276.43 133 277.074 130.363L276.107 123.947C276.459 123.361 276.635 122.541 276.635 121.486H275.141C274.789 121.486 274.613 121.662 274.613 122.014L271.186 120.52L270.746 121.486V124.914L271.713 126.408C270.834 126.408 270.189 128.225 269.779 131.857H268.725V129.396C268.725 127.99 268.9 126.672 269.252 125.441L267.318 115.598H266.791C266.791 119.23 266.293 121.047 265.297 121.047V122.453L266.264 123.947C265.619 125.939 264.975 126.936 264.33 126.936C264.33 124.357 263.51 122.717 261.869 122.014L261.43 122.98V127.902H260.375C259.73 127.902 259.408 127.58 259.408 126.936C259.76 123.537 259.936 120.9 259.936 119.025C260.58 118.498 261.078 116.066 261.43 111.73H259.936V110.676C259.936 109.211 259.613 107.922 258.969 106.809C259.262 106.105 259.408 105.607 259.408 105.314H258.969L259.408 104.348V103.381L256.508 102.854L255.98 105.314V106.809H255.014V104.787C255.014 101.799 255.189 97.5508 255.541 92.043C255.189 91.457 255.014 90.8125 255.014 90.1094C255.482 90.1094 255.98 89.6113 256.508 88.6152V86.6816H255.98V88.0879H255.014V83.2539C255.014 80.3828 255.189 75.959 255.541 69.9824C256.01 69.9824 256.654 69.3086 257.475 67.9609H258.002V66.0273L255.541 67.9609H255.014V67.5215C255.189 58.0293 255.512 53.2832 255.98 53.2832C256.742 53.2832 257.416 50.8223 258.002 45.9004V44.4062H257.475C257.475 48.1562 256.83 50.1191 255.541 50.2949V49.3281C255.541 46.3984 255.365 43.1172 255.014 39.4844C255.014 38.2539 255.189 36.7891 255.541 35.0898C255.189 30.5195 255.014 26.0957 255.014 21.8184V16.457C255.775 10.2461 256.596 7.14062 257.475 7.14062L258.002 8.10742V11.0078H259.408C259.584 8.42969 260.082 7.14062 260.902 7.14062C261.547 7.14062 261.869 7.96094 261.869 9.60156H262.396C262.396 8.25391 263.217 7.58008 264.857 7.58008V8.10742C266.146 7.75586 267.289 7.25781 268.285 6.61328C269.926 7.43359 270.746 8.07813 270.746 8.54688V11.5352H272.24C272.533 8.89844 273.002 7.58008 273.646 7.58008C274.291 7.58008 274.613 8.40039 274.613 10.041H276.107C276.107 7.75586 277.25 6.61328 279.535 6.61328C279.887 7.19922 280.062 7.84375 280.062 8.54688H281.557C282.26 7.84375 284.047 7.375 286.918 7.14062C287.973 7.78516 288.793 8.10742 289.379 8.10742C289.379 8.40039 289.203 8.54688 288.852 8.54688C289.848 10.5977 290.346 12.0918 290.346 13.0293H290.873V10.041H291.312C291.84 10.041 292.66 11.6816 293.773 14.9629C294.301 14.9629 294.975 17.7461 295.795 23.3125C298.08 24.4258 299.223 25.8906 299.223 27.707C298.871 28.1172 298.695 28.9375 298.695 30.168C299.223 30.168 299.721 30.666 300.189 31.6621L298.695 33.5957C299.223 33.5957 300.219 34.9141 301.684 37.5508V40.0117C301.684 43.293 302.65 45.5781 304.584 46.8672C304.584 47.9219 305.082 48.918 306.078 49.8555V50.2949C306.078 50.9395 305.58 51.2617 304.584 51.2617L305.111 54.6895L306.078 54.25H306.605L306.078 56.7109L306.605 60.1387H307.572V59.1719H308.539L309.506 59.6113L310.033 58.6445C309.389 54.0156 309.066 50.9102 309.066 49.3281C309.359 46.457 309.506 44.8164 309.506 44.4062C308.861 43.1758 308.539 41.7109 308.539 40.0117L309.066 36.584C308.363 35.4121 308.012 34.416 308.012 33.5957V26.7402C308.012 25.5684 307.865 24.748 307.572 24.2793L308.012 21.3789V14.9629C308.012 9.74805 309.33 7.14062 311.967 7.14062C312.787 7.14062 314.105 6.96484 315.922 6.61328C315.98 7.25781 316.303 7.58008 316.889 7.58008H319.789L321.283 6.61328L321.811 7.58008L322.777 7.14062C323.422 7.19922 323.744 7.52148 323.744 8.10742C325.033 7.93164 325.678 7.43359 325.678 6.61328H326.732C327.377 6.67188 327.699 6.99414 327.699 7.58008C327.348 7.58008 327.172 7.75586 327.172 8.10742L337.982 6.61328L339.477 8.54688L340.443 8.10742C341.85 8.51758 342.846 11.3008 343.432 16.457L342.904 21.3789V45.373C342.904 46.1348 342.729 46.8086 342.377 47.3945C342.729 47.9219 342.904 48.5664 342.904 49.3281V52.7559C342.904 59.7285 342.729 66.291 342.377 72.4434C342.729 76.1934 342.904 79.7969 342.904 83.2539C342.26 90.168 341.938 94.7383 341.938 96.9648C341.938 97.4336 342.26 98.4004 342.904 99.8652L342.377 102.326C342.377 103.322 342.553 104.465 342.904 105.754L342.377 110.236C342.729 115.803 342.904 119.084 342.904 120.08C342.553 122.248 342.377 124.035 342.377 125.441H341.41V120.52C340.18 120.52 339.359 122.98 338.949 127.902H337.982V121.486H336.049V119.553L336.488 118.586C335.844 118.586 335.375 116.623 335.082 112.697C335.785 112.697 336.43 110.559 337.016 106.281C337.777 106.281 338.275 104.816 338.51 101.887V100.393H337.982C337.982 102.385 337.484 103.381 336.488 103.381C336.488 103.674 336.664 103.82 337.016 103.82C336.371 106.047 335.053 107.688 333.061 108.742C333.061 110.031 332.914 110.676 332.621 110.676C332.621 110.852 332.768 111.525 333.061 112.697C332.768 116.799 332.621 119.084 332.621 119.553L333.061 122.014H331.127C330.775 121.369 330.6 120.871 330.6 120.52H329.633C328.344 122.805 327.523 123.947 327.172 123.947H326.732L327.172 118.059V116.564H326.205L327.172 109.27C326.879 107.512 326.732 105.871 326.732 104.348H325.678V113.664C325.678 113.957 325.531 114.104 325.238 114.104L325.678 115.158V117.092C325.678 117.561 325.033 118.205 323.744 119.025C323.51 119.025 323.012 118.557 322.25 117.619L322.777 116.564V116.125H321.283C321.635 120.871 322.133 123.479 322.777 123.947H322.25L321.283 123.508V125.441H320.316V124.914C319.965 120.871 319.789 118.762 319.789 118.586C319.789 116.945 320.141 116.125 320.844 116.125C320.492 115.773 320.316 114.455 320.316 112.17H319.789C319.789 114.455 318.646 115.598 316.361 115.598H315.922C316.215 111.203 316.713 108.742 317.416 108.215V107.248C317.064 107.248 316.566 107.102 315.922 106.809C315.922 107.746 315.424 108.215 314.428 108.215V110.236C314.428 111.525 314.252 112.814 313.9 114.104L314.428 116.564C314.428 116.857 314.252 118.176 313.9 120.52L314.428 122.98C313.959 124.27 313.461 124.914 312.934 124.914H312.494V118.059C312.494 117.766 312.641 117.619 312.934 117.619L312.494 116.564V115.598C312.494 113.898 312.641 111.115 312.934 107.248H311V109.27C311 110.207 310.824 110.676 310.473 110.676C311.117 115.305 311.439 118.439 311.439 120.08C310.795 122.6 310.326 126.027 310.033 130.363L308.012 126.936L307.572 127.902V128.869C309.857 134.025 311 137.453 311 139.152C311 142.141 310.355 143.635 309.066 143.635L309.154 144.338L308.451 143.811ZM257.475 33.1562V35.6172H258.002V33.1562H257.475ZM258.002 39.4844V41.9453H258.441C259.086 41.9453 259.408 41.623 259.408 40.9785V39.0449C258.764 39.3379 258.295 39.4844 258.002 39.4844ZM272.24 40.4512V40.9785H274.174V40.4512H272.24ZM266.791 44.9336C266.791 46.6328 266.293 47.9219 265.297 48.8008V52.7559H265.824C266.527 52.7559 267.025 50.4707 267.318 45.9004V44.9336H266.791ZM259.408 50.2949V52.3164H259.936V50.2949H259.408ZM261.43 53.2832V55.2168H261.869V53.2832H261.43ZM265.297 55.2168V62.0723L264.857 65.5H266.264C266.264 64.3867 266.439 63.5664 266.791 63.0391L266.264 62.0723C266.264 61.8379 266.439 60.8711 266.791 59.1719C266.439 57.3555 266.264 56.0371 266.264 55.2168H265.297ZM257.475 55.7441V58.6445H258.002V55.7441H257.475ZM333.061 55.7441V59.1719L334.027 58.6445L333.588 55.7441H333.061ZM269.252 56.7109V58.2051L269.779 60.666C270.424 60.666 270.746 60.3145 270.746 59.6113V56.7109H269.252ZM255.98 61.1055C256.332 61.6914 256.508 62.3359 256.508 63.0391H256.947L257.475 60.666V59.1719C257.123 59.1719 256.625 59.8164 255.98 61.1055ZM274.613 61.6328V66.9941H275.668L276.107 64.5332V62.5996C276.107 61.9551 275.785 61.6328 275.141 61.6328H274.613ZM270.219 66.0273L270.746 68.4883V69.4551C270.746 69.8066 270.57 69.9824 270.219 69.9824C270.219 70.2754 270.395 70.4219 270.746 70.4219C270.746 70.7734 270.57 71.2715 270.219 71.916C270.57 73.6152 270.746 75.0801 270.746 76.3105C270.746 77.1309 270.248 78.2734 269.252 79.7383C269.604 79.7383 270.102 79.9141 270.746 80.2656C271.742 77.9805 272.387 76.8379 272.68 76.8379L272.24 73.4102C272.24 71.6523 272.387 69.1914 272.68 66.0273L271.713 65.5H271.186L270.219 66.0273ZM265.297 69.0156V82.7266L264.857 86.1543C265.795 86.1543 266.264 86.4766 266.264 87.1211V88.0879C266.264 88.791 265.795 89.1426 264.857 89.1426V90.5488H266.264L266.791 87.6484L266.264 84.6602L266.791 81.7598L266.264 78.7715L267.318 69.9824L265.824 69.0156H265.297ZM333.061 69.4551V73.8496C333.705 73.8496 334.027 73.5273 334.027 72.8828L333.588 69.4551H333.061ZM259.408 70.4219C259.408 72.707 258.939 73.8496 258.002 73.8496C257.65 79.5918 257.475 83.0488 257.475 84.2207V85.1875H258.002C259.291 82.375 259.936 79.9141 259.936 77.8047V70.4219H259.408ZM256.508 70.9492V74.9043H256.947L257.475 71.3887V70.9492H256.508ZM314.428 76.8379V77.2773L314.955 79.7383H315.395C315.395 78.625 315.57 77.8047 315.922 77.2773L314.955 76.8379H314.428ZM269.252 86.6816C269.721 86.6816 270.219 87.1504 270.746 88.0879V93.0098H271.186C271.186 91.9551 271.537 89.8457 272.24 86.6816V79.7383C271.244 79.7383 270.248 82.0527 269.252 86.6816ZM261.869 80.2656V82.1992C261.986 82.9023 262.309 83.2539 262.836 83.2539L263.363 80.793L262.396 80.2656H261.869ZM333.061 85.1875V91.5156L332.621 94.5039C332.914 94.9727 333.061 95.793 333.061 96.9648V98.8984H334.555C335.551 96.7891 336.049 94.8262 336.049 93.0098C335.229 93.6543 334.73 93.9766 334.555 93.9766H333.588L334.027 89.1426V87.6484L333.588 85.1875H333.061ZM391.859 104.172L392.299 106.457H392.738C393.266 106.457 393.881 105.871 394.584 104.699V103.732C394.291 103.732 393.822 103.586 393.178 103.293C392.299 103.586 391.859 103.879 391.859 104.172ZM403.725 113.312V114.719H404.604C404.604 113.605 404.75 112.844 405.043 112.434H404.604C404.018 112.492 403.725 112.785 403.725 113.312ZM396.43 143.723V143.371C396.43 142.961 396.576 142.492 396.869 141.965C396.576 139.562 395.961 138.361 395.023 138.361H394.584L395.023 140.646C393.793 141.115 393.178 141.555 393.178 141.965C394.115 141.965 394.584 142.287 394.584 142.932L394.232 143.547L391.859 143.459V143.371C392.445 143.371 392.738 143.049 392.738 142.404V141.086H392.299C391.713 141.086 391.42 141.848 391.42 143.371H390.453C389.867 143.371 389.574 143.049 389.574 142.404C390.16 142.404 390.453 142.111 390.453 141.525V140.646H388.695C388.051 142.404 387.436 143.43 386.85 143.723L385.619 143.459C385.502 143.342 385.443 143.166 385.443 142.932V141.525C385.619 140.939 385.941 140.646 386.41 140.646C386.117 140.002 385.971 139.533 385.971 139.24C385.326 139.24 384.506 140.529 383.51 143.107L379.994 142.58V142.404H379.555L378.676 142.316C378.969 142.258 379.115 141.994 379.115 141.525V139.24L377.182 142.141L375.424 141.877C376.068 140.646 376.391 139.768 376.391 139.24L375.424 138.801H374.984V139.68H374.105V138.361H373.666C373.666 139.592 373.344 140.207 372.699 140.207H372.26L371.82 136.955C372.113 134.318 372.26 132.824 372.26 132.473H372.699C373.168 132.473 373.637 132.912 374.105 133.791V136.516L373.666 137.395H374.105C374.574 137.395 375.336 135.9 376.391 132.912L375.951 131.945C376.537 131.945 376.83 131.652 376.83 131.066V128.342C376.83 124.182 377.445 121.457 378.676 120.168C378.969 119.641 379.115 118.879 379.115 117.883V116.037H378.676C376.859 119.787 375.951 122.072 375.951 122.893C375.6 125.998 375.424 127.814 375.424 128.342H373.227V126.057H372.699V125.617L374.105 123.332C368.949 123.332 366.371 121.955 366.371 119.201L366.811 116.916C366.225 116.916 365.932 116.184 365.932 114.719H364.965C364.965 117.121 364.525 118.322 363.646 118.322V120.607C363.646 121.193 363.324 121.486 362.68 121.486H361.801C361.801 119.377 362.416 115.598 363.646 110.148C363.939 108.977 364.086 107.307 364.086 105.139C363.383 105.725 362.768 106.018 362.24 106.018V107.424L361.801 109.709H360.922L361.361 108.742C360.658 108.742 360.189 107.541 359.955 105.139C360.189 100.275 360.658 97.8438 361.361 97.8438C361.947 97.8438 362.24 98.459 362.24 99.6895H362.68C363.324 99.6895 363.646 99.3672 363.646 98.7227V95.1191C363.881 93.3027 364.32 92.3945 364.965 92.3945C365.258 92.9219 365.404 93.3613 365.404 93.7129C365.404 97.5215 364.965 100.861 364.086 103.732C365.668 103.732 366.869 99.9531 367.689 92.3945H368.217C368.51 93.6836 369.242 94.5918 370.414 95.1191L369.975 98.2832V100.568H370.414C370.414 99.748 370.883 99.1328 371.82 98.7227C371.82 95.3828 372.289 93.7129 373.227 93.7129V94.1523C373.812 93.8594 374.252 93.7129 374.545 93.7129L375.424 94.1523C376.068 93.8594 376.537 93.7129 376.83 93.7129C377.064 95.5293 377.504 96.4375 378.148 96.4375V96.9648L377.27 98.2832V100.129C377.855 100.129 378.91 100.891 380.434 102.414C380.434 103.293 380.609 104.348 380.961 105.578C380.316 105.578 379.994 105.725 379.994 106.018C381.811 108.771 383.627 110.148 385.443 110.148V110.588C386.381 110.295 386.85 110.002 386.85 109.709L389.135 110.148H389.574C390.102 110.148 390.717 108.918 391.42 106.457L390.014 105.578C389.721 106.105 389.574 106.721 389.574 107.424H388.168V106.896C388.168 106.018 388.637 105.578 389.574 105.578V104.172H388.695V105.139H387.729V104.699C388.373 101.711 388.695 100.041 388.695 99.6895C388.051 99.6895 387.729 99.2207 387.729 98.2832L389.135 95.998V95.1191C388.432 95.1191 387.67 94.0645 386.85 91.9551C384.74 90.666 383.686 89.582 383.686 88.7031C383.979 86.0078 384.125 84.3379 384.125 83.6934C383.832 83.6934 383.686 83.5469 383.686 83.2539C382.689 83.2539 381.928 84.4844 381.4 86.9453H379.555C379.203 86.9453 378.734 86.4766 378.148 85.5391V83.6934C378.148 83.4004 378.324 83.2539 378.676 83.2539L378.148 82.375V77.8047C378.148 77.5117 378.324 77.3652 378.676 77.3652C378.031 76.0762 377.709 75.168 377.709 74.6406H377.27C377.27 81.3203 376.83 84.6602 375.951 84.6602C375.307 83.1953 374.984 81.8184 374.984 80.5293H373.666C373.666 81.7598 373.344 82.375 372.699 82.375L370.414 78.6836V74.2012H369.975C369.975 75.666 369.682 76.3984 369.096 76.3984H368.656C367.895 76.3984 367.426 75.8125 367.25 74.6406H366.811C366.811 74.9336 366.664 75.373 366.371 75.959L363.646 75.0801L364.086 72.7949V70.5098H363.646C363.646 71.7402 363.324 72.3555 362.68 72.3555C362.094 72.3555 361.801 72.0332 361.801 71.3887V67.3457L361.361 65.0605H360.395V65.5C360.395 68.8398 359.955 70.5098 359.076 70.5098C358.49 70.5098 358.197 70.2168 358.197 69.6309V66.4668H357.23V67.3457H356.352C356.352 67.0527 356.059 65.8223 355.473 63.6543H354.945V65.0605H354.066C353.48 65.0605 353.188 64.7676 353.188 64.1816V61.8965L353.627 59.6113L352.66 60.0508C352.309 60.0508 351.576 56.8574 350.463 50.4707L349.496 50.9102H349.057L349.496 47.7461V42.2969C349.496 35.793 350.551 31.3984 352.66 29.1133C352.66 28.8789 353.275 26.8867 354.506 23.1367H355.473V24.1035H355.912C356.732 20.1191 358.08 18.127 359.955 18.127C359.955 17.5996 361.039 16.1055 363.207 13.6445H364.086V14.9629H364.525L366.811 11.3594C366.986 11.9453 367.279 12.2383 367.689 12.2383H368.217L369.975 9.95312L370.414 10.9199L374.105 9.95312V10.3926C374.398 10.3926 375.307 9.80664 376.83 8.63477C377.123 8.63477 377.27 8.78125 377.27 9.07422L381.84 7.22852L382.279 8.19531V10.9199H383.686C383.979 8.75195 384.271 7.375 384.564 6.78906C386.205 7.08203 387.406 7.22852 388.168 7.22852L390.453 6.78906C390.805 7.25781 390.98 8.16602 390.98 9.51367H392.738C392.738 8.63477 393.061 8.19531 393.705 8.19531H395.023C396.898 8.89844 400.531 9.80664 405.922 10.9199C406.391 12.0332 408.529 13.2344 412.338 14.5234C417.494 18.3906 420.072 22.1992 420.072 25.9492L421.479 26.8281C421.479 26.5352 421.625 26.3887 421.918 26.3887C423.09 28.3223 423.852 30.5781 424.203 33.1562C423.852 33.1562 423.676 33.332 423.676 33.6836C424.32 33.6836 424.789 35.3535 425.082 38.6934C425.668 38.6934 426.107 39.748 426.4 41.8574C426.4 45.666 425.346 49.4453 423.236 53.1953L420.951 52.7559C420.951 53.6934 420.658 54.1621 420.072 54.1621C419.721 54.1621 419.252 53.6934 418.666 52.7559L416.469 54.6016C416.059 52.7852 415.59 51.877 415.062 51.877H414.184C414.184 53.4004 413.861 54.1621 413.217 54.1621C412.631 54.1621 412.338 53.2539 412.338 51.4375H411.459L409.613 54.1621C409.32 53.5176 409.174 53.0488 409.174 52.7559C408.119 53.3418 406.889 53.6348 405.482 53.6348H405.043C404.457 53.6348 404.164 52.9023 404.164 51.4375C403.461 51.4375 402.553 52.4922 401.439 54.6016C397.865 52.8438 396.02 51.4668 395.902 50.4707C395.609 50.4707 395.316 50.0312 395.023 49.1523L395.463 48.1855C394.936 45.3145 394.35 43.8203 393.705 43.7031L394.145 40.4512V37.7266H393.705V38.6934H393.178C392.123 36.8184 391.391 35.8809 390.98 35.8809C390.395 36.2324 389.779 36.4082 389.135 36.4082C387.611 35.1191 386.85 34.0352 386.85 33.1562H386.41L384.564 36.4082C383.979 36.4082 383.686 35.793 383.686 34.5625C381.869 35.4414 380.961 36.8184 380.961 38.6934V47.7461C380.961 49.4453 382.455 50.6758 385.443 51.4375C385.443 51.7305 385.619 51.877 385.971 51.877L385.443 52.7559V54.6016H387.729V53.6348H388.695C388.695 55.8613 389.135 57.0918 390.014 57.3262C390.189 57.3262 390.658 57.0332 391.42 56.4473C392.299 56.4473 392.738 57.3555 392.738 59.1719H393.178C393.822 59.1719 394.145 58.8496 394.145 58.2051C395.141 58.2051 396.049 59.7285 396.869 62.7754H397.309C397.543 59.4355 398.012 57.7656 398.715 57.7656C401.117 60.3438 402.318 61.8672 402.318 62.3359L403.197 61.8965C404.076 61.8965 405.307 63.0977 406.889 65.5C407.357 65.5 407.973 66.2617 408.734 67.7852L410.492 69.1914H410.932V67.3457H411.459C412.104 67.3457 412.836 69.0156 413.656 72.3555L414.623 72.7949C414.623 71.5645 414.916 70.9492 415.502 70.9492C418.725 73.2344 421.01 77.8047 422.357 84.6602H422.797V83.6934H423.676V89.6699H424.643V88.2637H425.521L425.961 91.4277V102.854C425.961 103.381 425.521 104.582 424.643 106.457C424.643 110.852 424.174 114.953 423.236 118.762H422.357V115.158L422.797 111.906C422.445 111.906 422.006 112.375 421.479 113.312V114.719H420.951V117.883C420.951 118.469 420.512 118.762 419.633 118.762V120.168C419.633 125.617 419.018 128.342 417.787 128.342H417.348V126.057H416.469V126.936H415.502C414.916 126.936 414.623 126.35 414.623 125.178H414.184C414.184 126.35 414.008 126.936 413.656 126.936L415.941 134.23L415.062 134.67H413.217C411.928 132.268 411.02 131.066 410.492 131.066L407.768 137.922C407.826 137.98 407.855 138.039 407.855 138.098L406.889 139.152C406.771 138.449 406.01 138.039 404.604 137.922C404.311 138.332 404.164 139.24 404.164 140.646H403.725C403.08 140.646 402.758 140.324 402.758 139.68L401.879 140.207C401.059 140.207 400.59 139.445 400.473 137.922H400.033C398.51 140.266 397.748 142.229 397.748 143.811L396.43 143.723ZM454.525 127.375C454.057 126.965 453.734 126.76 453.559 126.76C453.324 126.76 453.031 126.877 452.68 127.111L451.361 126.848C451.947 126.496 452.533 126.32 453.119 126.32C453.119 125.676 452.826 125.354 452.24 125.354H451.713C450.893 125.998 450.219 126.438 449.691 126.672L448.988 126.496V126.32C448.871 126.32 448.725 126.379 448.549 126.496L443.891 125.793C445.238 124.387 446.938 123.01 448.988 121.662C452.387 121.076 455.785 120.021 459.184 118.498C459.184 118.088 459.008 116.535 458.656 113.84C459.594 108.801 460.062 105.549 460.062 104.084V93.9766L460.502 91.6035C459.916 91.6035 459.623 90.9883 459.623 89.7578H459.184V94.416H458.656C458.07 94.416 457.777 94.0938 457.777 93.4492V93.0098C457.777 90.0801 458.07 85.5977 458.656 79.5625C458.07 78.5664 457.777 77.8047 457.777 77.2773C457.133 77.2773 456.811 77.7461 456.811 78.6836H455.932C455.287 78.6836 454.818 76.8379 454.525 73.1465C453.471 71.7402 452.387 70.9492 451.273 70.7734V68.9277C451.273 68.6348 451.596 67.4043 452.24 65.2363V64.3574C451.068 64.3574 449.838 61.5742 448.549 56.0078V55.041C447.611 55.041 447.143 54.748 447.143 54.1621L446.176 54.6016H445.736L444.77 50.4707V47.6582C444.77 46.4277 444.945 44.7285 445.297 42.5605V42.1211H444.77C444.77 44.2891 444.154 45.373 442.924 45.373V46.7793H442.045L441.605 43.5273C441.898 42.8828 442.045 42.4141 442.045 42.1211C440.521 38.8984 438.822 34.416 436.947 28.6738H435.98V29.6406H435.102L434.662 25.4219H435.102C433.461 24.1328 432.23 20.9102 431.41 15.7539H430.971V17.1602H430.004V9.68945C430.062 9.10352 430.385 8.81055 430.971 8.81055C431.088 9.63086 431.85 10.3926 433.256 11.0957C433.314 10.5098 433.607 10.2168 434.135 10.2168C434.135 10.5098 434.311 10.6562 434.662 10.6562C434.779 8.48828 435.219 7.4043 435.98 7.4043L436.508 8.37109V10.6562H437.826C437.943 9.13281 438.412 8.37109 439.232 8.37109H440.199V9.68945H441.605C441.605 8.92773 442.514 8.16602 444.33 7.4043L445.297 7.84375C445.297 6.96484 445.59 6.52539 446.176 6.52539C447.758 7.3457 448.549 8.72266 448.549 10.6562H450.395C450.395 8.78125 450.688 7.84375 451.273 7.84375C451.918 7.84375 452.24 8.3125 452.24 9.25H453.119C454.818 7.08203 455.902 5.99805 456.371 5.99805C457.367 7.63867 458.744 8.57617 460.502 8.81055V7.84375H461.029C462.084 7.84375 462.992 9.68945 463.754 13.3809C464.691 13.3809 465.16 13.8496 465.16 14.7871L464.721 17.5996V18.0391C464.779 18.6836 465.072 19.0059 465.6 19.0059C465.6 18.6543 465.775 18.4785 466.127 18.4785C468.588 23.6934 469.818 28.0293 469.818 31.4863C470.521 31.4863 471.283 33.4785 472.104 37.4629H472.543C472.543 37.1699 472.719 37.0234 473.07 37.0234L473.51 37.9902L472.543 39.3086C472.895 39.9531 473.07 40.4219 473.07 40.7148L474.916 39.3086L475.355 40.2754C475.355 40.8613 475.033 41.1543 474.389 41.1543C474.389 40.8613 474.242 40.7148 473.949 40.7148L473.51 41.6816V43C475.678 41.5352 476.762 39.2207 476.762 36.0566C478.285 36.0566 479.369 33.7422 480.014 29.1133C484.936 15.3437 487.865 7.96094 488.803 6.96484L491.088 6.52539C491.146 7.11133 491.439 7.4043 491.967 7.4043H494.779L496.186 6.52539L498.91 8.81055C499.379 8.81055 500.17 7.87305 501.283 5.99805C501.869 6.11523 502.162 6.4375 502.162 6.96484C501.869 6.96484 501.723 7.11133 501.723 7.4043H502.689C502.689 6.70117 503.305 6.08594 504.535 5.55859H504.975L509.105 7.4043C509.398 6.4668 510.336 5.99805 511.918 5.99805L513.324 7.84375C514.379 7.25781 515.609 6.96484 517.016 6.96484H517.455V8.37109H518.861V7.4043H519.301C520.531 8.04883 521.146 8.81055 521.146 9.68945C521.146 12.9707 519.916 17.1602 517.455 22.2578C514.584 27.2969 512.27 33.5957 510.512 41.1543C508.051 43.498 504.359 52.1406 499.438 67.082V68.4883C498.207 68.4883 497.592 68.957 497.592 69.8945C496.537 71.4766 495.453 74.5527 494.34 79.123C493.695 79.1816 493.373 79.5039 493.373 80.0898C493.666 83.8984 493.812 85.8906 493.812 86.0664C493.812 87.3555 493.051 89.5234 491.527 92.5703C491.527 92.8633 491.674 93.0098 491.967 93.0098L491.527 95.2949V98.9863H492.934V100.393C491.234 101.33 490.15 101.799 489.682 101.799C489.975 102.092 490.121 103.176 490.121 105.051H489.682V105.93C489.682 106.281 490.004 107.512 490.648 109.621V110.148L489.242 119.816C490.004 120.461 490.766 120.783 491.527 120.783V123.068L491.967 126.32L489.682 126.76V128.605C489.682 130.773 489.389 131.857 488.803 131.857L489.242 132.824V133.264C489.242 133.908 488.92 134.23 488.275 134.23H487.836L487.396 131.418C487.982 131.418 488.275 131.096 488.275 130.451V129.572H487.396C486.928 129.572 486.459 130.041 485.99 130.979V131.418L486.43 133.703C485.902 133.703 484.672 134.494 482.738 136.076V137.395C483.734 136.516 485.58 135.9 488.275 135.549C488.275 136.193 488.744 136.516 489.682 136.516C490.209 136.223 490.678 136.076 491.088 136.076V132.824H491.527C492.172 132.883 492.494 133.176 492.494 133.703V134.67C491.85 136.838 491.527 138.068 491.527 138.361V140.207C489.535 141.73 488.012 142.492 486.957 142.492L485.023 141.613V142.053C485.023 142.99 485.668 143.459 486.957 143.459V144.338H484.145V145.305C486.312 145.305 487.396 147.297 487.396 151.281C488.92 153.625 489.682 155.471 489.682 156.818C489.682 157.463 489.389 157.785 488.803 157.785C487.924 156.32 487.133 154.328 486.43 151.809L485.551 151.281C484.789 151.926 484.32 152.248 484.145 152.248L484.584 154.533C484.584 155.178 484.291 155.5 483.705 155.5C483.236 155.5 482.445 153.332 481.332 148.996C482.562 145.188 483.178 142.727 483.178 141.613H481.859C481.859 142.551 481.537 143.02 480.893 143.02H480.014C478.373 140.5 477.436 139.24 477.201 139.24C475.033 140.588 473.949 141.525 473.949 142.053L474.389 144.338C474.623 144.338 475.414 143.254 476.762 141.086C477.348 141.203 477.641 141.525 477.641 142.053C477.641 143.518 475.502 145.686 471.225 148.557C470.756 149.787 470.287 150.402 469.818 150.402H468.412V149.963L469.291 146.711C468.705 146.359 468.266 146.184 467.973 146.184V145.305H470.258C470.668 145.305 471.605 144.367 473.07 142.492C473.07 141.906 472.748 141.613 472.104 141.613C471.107 142.199 470.346 142.492 469.818 142.492C467.006 142.023 465.6 141.408 465.6 140.646L462.436 141.086L454.262 130.979H454.965C456.547 130.979 457.953 130.188 459.184 128.605C457.602 128.02 456.811 127.58 456.811 127.287L456.107 127.639L454.525 127.375ZM553.578 142.141C553.754 141.379 553.9 140.559 554.018 139.68V139.24H552.611C552.318 140.354 551.967 141.291 551.557 142.053C550.678 143.811 549.535 144.689 548.129 144.689H547.602C547.016 144.689 546.576 143.488 546.283 141.086C546.869 141.086 547.162 140.764 547.162 140.119V139.68C547.162 139.094 546.576 138.801 545.404 138.801V136.955H545.844C546.43 136.955 546.723 137.424 546.723 138.361H548.129V136.516L548.568 134.23C548.1 134.23 547.631 133.791 547.162 132.912H547.602C547.602 132.502 547.016 131.447 545.844 129.748C545.844 129.279 546.283 128.811 547.162 128.342L546.723 127.463C546.723 126.936 547.484 125.881 549.008 124.299L549.887 120.168C549.887 119.582 549.447 119.289 548.568 119.289V118.41C548.568 118.059 548.715 117.883 549.008 117.883C549.008 117.473 547.807 116.564 545.404 115.158C545.404 115.803 545.082 116.125 544.438 116.125C543.852 116.125 543.559 115.803 543.559 115.158V99.3379H542.68C541.742 105.666 540.658 108.83 539.428 108.83H538.988V106.984L539.955 105.666C539.604 105.666 539.428 105.52 539.428 105.227C540.072 105.227 540.395 104.934 540.395 104.348V97.0527C540.102 97.0527 539.633 96.9062 538.988 96.6133V98.3711C538.988 99.0742 539.135 99.6895 539.428 100.217C537.67 104.436 536.791 107.453 536.791 109.27L537.23 111.994L536.264 118.41H535.385V117.883C535.385 116.418 535.531 114.602 535.824 112.434C535.531 110.852 535.385 109.357 535.385 107.951C535.971 107.951 536.264 107.629 536.264 106.984C535.971 105.402 535.824 104.055 535.824 102.941H535.385C535.385 103.996 534.77 105.197 533.539 106.545C533.539 107.482 532.953 108.244 531.781 108.83C530.844 108.713 530.375 107.658 530.375 105.666C530.375 102.443 531.43 100.334 533.539 99.3379V98.3711C532.953 97.1992 532.221 96.6133 531.342 96.6133V93.8887H530.814C530.814 97.3457 530.082 100.07 528.617 102.062C528.617 102.941 528.295 103.381 527.65 103.381L527.211 102.502V101.096C528.148 99.8066 528.617 98.3125 528.617 96.6133H527.211V97.9316H526.332V97.4922C526.918 92.3359 527.211 89.4648 527.211 88.8789V87.5605L528.617 85.7148V83.4297L527.65 83.8691C527.064 83.8691 526.771 83.4297 526.771 82.5508C526.771 78.7422 526.625 74.0547 526.332 68.4883C526.625 66.4961 526.771 64.5332 526.771 62.5996L525.893 63.0391L525.365 62.1602C526.01 59.875 526.332 58.6445 526.332 58.4688L525.365 58.0293C524.779 58.3223 524.34 58.4688 524.047 58.4688C524.047 57.707 524.662 57.2676 525.893 57.1504C526.186 53.5176 526.332 50.793 526.332 48.9766C526.039 48.3906 525.893 47.9219 525.893 47.5703H526.332L525.893 46.6914V26.3008C525.893 24.4258 526.039 22.1406 526.332 19.4453C526.039 18.3906 525.893 16.75 525.893 14.5234C526.127 11.1836 526.713 9.51367 527.65 9.51367H528.09C529.262 11.3301 530.17 12.2383 530.814 12.2383C530.814 10.4219 531.283 9.51367 532.221 9.51367C534.389 9.80664 535.59 9.95312 535.824 9.95312C535.824 8.42969 536.146 7.66797 536.791 7.66797L537.23 8.54688V10.832C537.523 10.832 537.963 10.9785 538.549 11.2715C538.725 10.1582 539.779 8.95703 541.713 7.66797L542.152 8.54688V11.2715H543.559C543.793 8.86914 544.232 7.66797 544.877 7.66797C546.107 8.25391 546.723 8.72266 546.723 9.07422C549.359 8.72266 551.029 8.25391 551.732 7.66797C552.318 7.66797 552.611 8.42969 552.611 9.95312C553.021 9.95312 553.783 9.04492 554.896 7.22852C555.365 7.22852 555.805 8.13672 556.215 9.95312L557.182 10.3926C557.768 10.0996 558.207 9.95312 558.5 9.95312L559.467 11.2715V22.1699L559.906 24.8945C559.613 25.4219 559.467 26.1836 559.467 27.1797V29.4648C560.053 30.6953 560.492 31.3105 560.785 31.3105C560.492 32.1895 560.053 34.5918 559.467 38.5176C559.467 38.8105 559.613 39.2793 559.906 39.9238L558.939 52.1406C559.291 54.6602 559.76 57.0918 560.346 59.4355C559.76 59.4941 559.467 59.7871 559.467 60.3145V66.6426C559.467 67.6973 559.613 68.459 559.906 68.9277L559.467 71.6523V75.2559C559.467 78.0684 560.053 80.0312 561.225 81.1445V81.584H560.346L559.467 81.1445C559.467 83.6641 559.145 85.4805 558.5 86.5938L559.906 87.5605V85.2754H560.346C560.932 85.2754 561.225 85.7148 561.225 86.5938C561.225 87.9414 560.785 89.3184 559.906 90.7246V92.043H560.785C561.371 88.9375 562.279 86.3594 563.51 84.3086L563.07 81.1445C563.363 81.1445 563.51 80.998 563.51 80.7051C564.447 81.291 565.502 81.584 566.674 81.584L566.234 83.8691C566.82 83.9863 567.113 84.3086 567.113 84.8359H566.674L565.795 84.3086C565.795 86.125 565.18 87.0332 563.949 87.0332V88C563.949 88.8789 565.004 89.3184 567.113 89.3184V90.7246H563.07C563.949 92.1895 564.389 93.2441 564.389 93.8887L563.07 94.7676H562.191L561.225 94.3281L560.785 96.6133V97.9316L563.949 97.0527V97.4922C560.609 99.3086 558.939 101.125 558.939 102.941C559.994 103.996 560.756 105.197 561.225 106.545C561.693 106.545 562.455 107.6 563.51 109.709H563.949V109.27C563.949 108.742 563.656 107.834 563.07 106.545L563.949 106.105C563.949 106.398 564.096 106.545 564.389 106.545C564.506 104.143 565.121 102.941 566.234 102.941L568.08 103.381C568.666 103.088 569.105 102.941 569.398 102.941V100.656C569.691 100.656 569.838 100.51 569.838 100.217C569.838 98.6348 568.637 96.9648 566.234 95.207L565.795 94.3281C566.264 92.8047 567.318 92.043 568.959 92.043H569.838C571.537 94.7969 573.969 96.1738 577.133 96.1738C577.133 94.6504 577.426 93.8887 578.012 93.8887H578.451V94.3281C578.451 94.6211 578.305 94.7676 578.012 94.7676C578.188 96.0566 580.15 97.2578 583.9 98.3711V99.3379L583.461 100.217H583.9C584.662 100.217 586.186 98.8691 588.471 96.1738C589.057 96.4668 589.496 96.6133 589.789 96.6133L590.756 94.7676C592.865 95.0605 593.92 95.5293 593.92 96.1738V96.6133H593.041L592.074 96.1738L591.635 97.0527L592.514 98.3711V98.8984C590.697 100.07 589.789 100.803 589.789 101.096C590.141 101.74 590.316 102.209 590.316 102.502C589.438 102.502 588.822 103.41 588.471 105.227H589.789C589.789 104.289 590.404 103.527 591.635 102.941C592.572 105.812 593.041 107.482 593.041 107.951V111.115C593.041 112.639 592.719 114.455 592.074 116.564H593.041V115.686H593.48L594.359 116.125L593.48 122.014H592.514V121.047C592.514 118.879 592.074 117.678 591.195 117.443C591.195 122.6 590.727 125.178 589.789 125.178L588.91 124.738C588.91 126.555 588.471 127.463 587.592 127.463L586.625 127.023C587.562 125.383 588.031 122.658 588.031 118.85C587.738 115.979 587.416 114.309 587.064 113.84L587.592 111.115V110.676C586.83 110.676 585.922 113.4 584.867 118.85C584.516 118.85 584.34 118.996 584.34 119.289C585.277 119.289 585.746 119.729 585.746 120.607C585.453 122.834 585.307 124.064 585.307 124.299C584.662 124.299 584.34 123.83 584.34 122.893L584.867 121.047C584.516 120.461 584.34 120.021 584.34 119.729H583.461V120.168L583.9 121.047C583.314 121.047 583.021 121.955 583.021 123.771H582.143V122.893L582.582 122.014H581.176L581.615 117.443L580.736 117.004C580.736 119.289 580.15 120.637 578.979 121.047C579.271 125.441 579.711 129.396 580.297 132.912C579.301 133.264 577.953 134.904 576.254 137.834C575.551 137.834 574.467 136.34 573.002 133.352H572.562V135.637L573.969 137.395L573.002 138.801L572.123 138.361H571.244C572.885 140.588 574.027 142.199 574.672 143.195L553.578 142.141ZM615.277 0.900391H616.244V2.74609H615.277V0.900391ZM616.596 133.791C616.83 132.912 617.006 131.828 617.123 130.539L616.244 130.012C614.545 130.598 613.373 131.33 612.729 132.209L610.619 131.418V128.166L610.18 125.881C611.41 126.174 612.025 126.789 612.025 127.727H612.465C612.465 126.73 612.934 125.471 613.871 123.947V123.508C613.109 124.152 612.641 124.475 612.465 124.475V123.947L610.619 124.914C610.619 124.504 610.15 124.035 609.213 123.508C609.213 124.035 608.598 124.65 607.367 125.354C606.137 123.947 605.521 122.863 605.521 122.102C605.814 121.574 605.961 121.105 605.961 120.695C605.258 120.695 604.789 118.996 604.555 115.598C606.664 115.598 608.217 113.43 609.213 109.094C607.045 108.391 605.961 107.746 605.961 107.16C607.191 105.695 608.129 102.912 608.773 98.8105H609.213C609.857 98.8105 610.18 99.4258 610.18 100.656H610.619C611.264 100.656 611.586 100.363 611.586 99.7773C611.586 97.7266 611.732 94.5918 612.025 90.373C610.795 90.8418 610.18 91.6328 610.18 92.7461H609.213V90.9004C609.213 90.5488 609.359 90.373 609.652 90.373C609.652 90.0801 609.506 89.9336 609.213 89.9336L610.18 81.584V81.0566H609.652C609.652 82.6387 609.184 83.4297 608.246 83.4297C608.246 88.4102 607.631 90.9004 606.4 90.9004C606.049 88.1465 605.434 86.2715 604.555 85.2754C604.848 83.166 604.994 81.4668 604.994 80.1777V79.2109C604.408 79.2109 604.115 79.0645 604.115 78.7715V76.3984H602.709V76.9258H601.742L602.27 73.6738L601.742 68.9277C602.387 68.9277 602.709 68.6348 602.709 68.0488V66.6426C601.947 67.2871 601.479 67.6094 601.303 67.6094L599.457 62.9512H598.93V61.5449C598.93 59.9043 598.637 56.1543 598.051 50.2949H597.523C597.523 51.2324 597.23 51.7012 596.645 51.7012L596.205 50.8223V44.2305C594.623 44.2305 593.832 43 593.832 40.5391C594.125 38.8984 594.271 37.4922 594.271 36.3203C593.334 34.6211 592.865 32.5996 592.865 30.2559L591.986 30.6953H591.547V27.0039C590.258 23.3711 589.613 20.5879 589.613 18.6543C589.32 18.6543 589.174 18.1855 589.174 17.248V12.0625C589.35 11.4766 589.672 11.1836 590.141 11.1836H591.02V12.0625H591.986L593.832 9.25C594.125 9.71875 594.271 10.6562 594.271 12.0625H595.678C596.029 9.30859 596.498 7.93164 597.084 7.93164H599.896V9.77734L604.555 9.25H607.367L609.652 6.96484C610.297 8.60547 611.234 9.83594 612.465 10.6562H612.992C613.285 8.83984 613.725 7.93164 614.311 7.93164C614.955 7.93164 615.277 8.54688 615.277 9.77734H617.123C617.123 8.19531 617.445 7.4043 618.09 7.4043C620.551 9.98242 622.25 12.9414 623.188 16.2812C623.832 17.9219 624.301 20.0898 624.594 22.7852C624.887 22.7852 625.033 22.9609 625.033 23.3125V24.1914C625.033 24.543 624.887 24.7188 624.594 24.7188C625.238 25.5977 625.707 27.4434 626 30.2559L625.561 34.9141C626.732 36.7305 628.139 39.6309 629.779 43.6152H630.219L629.779 45.9883C629.779 46.5156 630.072 47.7461 630.658 49.6797L629.779 50.207C630.072 51.1445 630.365 51.6133 630.658 51.6133C630.658 51.9648 630.512 52.4043 630.219 52.9316C631.742 63.0098 632.504 68.459 632.504 69.2793L633.91 71.125C633.91 72.0625 633.764 72.5312 633.471 72.5312C634.115 75.9883 634.438 78.4785 634.438 80.002H634.877C635.463 80.002 635.756 79.709 635.756 79.123V77.7168C635.756 77.0137 635.609 76.3691 635.316 75.7832C636.078 75.7832 636.869 71.3008 637.689 62.3359C637.045 60.2852 636.723 58.8789 636.723 58.1172C636.723 56.9453 637.807 55.2168 639.975 52.9316C639.389 52.1699 639.096 51.7305 639.096 51.6133C640.033 51.2617 640.502 50.3242 640.502 48.8008V45.9883C639.857 45.9883 638.275 45.5195 635.756 44.582V43.6152C638.217 44.0254 639.945 44.6699 640.941 45.5488C644.047 32.8926 646.068 22.375 647.006 13.9961C648.764 10.7734 649.994 8.89844 650.697 8.37109H653.949C654.594 8.37109 654.916 8.98633 654.916 10.2168H655.883C656.469 10.2168 656.762 9.89453 656.762 9.25L657.729 9.77734L659.574 7.4043C659.867 7.87305 660.014 8.81055 660.014 10.2168H664.672C665.258 10.2168 665.727 9.2793 666.078 7.4043L668.451 7.93164H668.891L671.703 7.4043L673.549 8.37109C674.193 8.07813 674.662 7.93164 674.955 7.93164C675.834 7.93164 677.24 8.54688 679.174 9.77734V8.81055H680.58C681.342 8.81055 681.811 9.89453 681.986 12.0625C681.986 15.8711 675.922 44.1719 663.793 96.9648C660.805 112.492 658.783 120.256 657.729 120.256C657.729 120.9 657.406 121.223 656.762 121.223L657.201 122.102V125.354C655.209 133.791 653.979 138.01 653.51 138.01C653.51 137.072 652.895 136.604 651.664 136.604C651.371 138.303 651.225 139.68 651.225 140.734H650.258C649.613 140.734 649.291 140.441 649.291 139.855V135.637L649.818 134.67L647.885 134.23C647.064 136.398 646.449 137.482 646.039 137.482L646.479 139.855C646.361 144.836 645.922 147.326 645.16 147.326C644.809 146.74 644.633 146.271 644.633 145.92C644.633 145.686 644.809 144.426 645.16 142.141H644.633C644.164 142.141 643.549 143.078 642.787 144.953C643.432 145.949 643.754 146.74 643.754 147.326C643.168 147.619 642.699 147.766 642.348 147.766L642.787 148.732L638.129 150.666C638.07 150.607 637.924 150.578 637.689 150.578H637.162L633.91 152.424H632.064V151.457C634.115 151.457 635.814 150.373 637.162 148.205V146.799C637.162 145.275 636.693 144.514 635.756 144.514V144.074C635.756 143.84 636.078 142.58 636.723 140.295L632.064 144.514L631.625 143.547V143.107C632.855 141.877 633.471 140.617 633.471 139.328V137.482H633.031V138.449H632.064V138.01C632.357 137.424 632.504 136.955 632.504 136.604L631.625 136.076C630.688 137.6 629.984 138.508 629.516 138.801L628.461 138.449L627.846 138.01C628.314 136.721 628.783 136.076 629.252 136.076L628.812 135.197V132.824C628.52 132.824 628.051 132.678 627.406 132.385V132.824C627.699 133.469 627.846 133.938 627.846 134.23L626 135.637H625.561L624.594 135.197L625.033 132.824V131.945C623.217 133 622.309 133.615 622.309 133.791C622.309 134.553 622.25 135.285 622.133 135.988L619.672 135.021L617.65 134.23L616.596 133.791ZM603.148 28.4102V30.6953H604.994L604.555 28.4102H603.148ZM638.129 57.1504V59.5234C638.773 59.5234 639.096 59.2012 639.096 58.5566V56.2715C638.451 56.3887 638.129 56.6816 638.129 57.1504ZM661.947 89.0547V92.7461L661.42 95.1191H662.826L663.793 89.4941L661.947 89.0547ZM658.168 109.094V111.379H658.607V109.094H658.168ZM653.07 112.785L652.543 115.158V116.564H653.07L653.51 114.191V112.785H653.07ZM656.322 113.225C655.092 115.979 654.477 118.938 654.477 122.102V122.629H654.916C654.916 121.691 655.385 121.223 656.322 121.223C656.322 119.406 656.469 116.916 656.762 113.752V113.225H656.322ZM703.695 128.693C702.816 127.873 702.377 125.939 702.377 122.893V120.52C702.846 118.293 703.49 117.18 704.311 117.18H704.75L704.311 121.926L704.75 127.639C705.746 127.639 706.244 125.588 706.244 121.486L705.717 118.146L706.244 115.773C706.244 115.539 706.068 114.602 705.717 112.961V110.061H704.311C703.9 112.639 703.256 113.928 702.377 113.928C701.615 113.283 701.146 112.961 700.971 112.961C700.971 113.254 700.824 113.4 700.531 113.4L700.971 115.773C700.795 118.938 700.326 120.52 699.564 120.52H699.125C699.125 119.406 698.949 118.615 698.598 118.146C698.949 117.033 699.125 116.418 699.125 116.301C698.773 111.555 698.598 108.391 698.598 106.809C699.242 104.758 699.564 103.322 699.564 102.502V99.6895H700.531C700.531 99.3379 700.355 98.8691 700.004 98.2832C700.355 96.5254 700.531 95.0898 700.531 93.9766C699.945 94.2695 699.477 94.416 699.125 94.416V97.7559L697.631 99.6895V102.502C697.631 105.432 697.484 108.127 697.191 110.588C697.484 112.229 697.631 113.811 697.631 115.334L697.191 119.553C697.484 121.252 697.631 122.688 697.631 123.859L697.191 126.232L698.158 128.078C697.748 132.121 697.426 134.348 697.191 134.758C697.484 135.285 697.631 135.9 697.631 136.604C696.811 137.248 695.404 137.893 693.412 138.537L692.973 137.57C695.141 132.941 696.225 129.631 696.225 127.639H695.258L695.785 124.299C695.434 121.604 695.258 119.406 695.258 117.707H693.852V119.553H693.412C692.768 119.553 692.445 119.26 692.445 118.674C693.383 117.326 693.852 116.037 693.852 114.807L692.973 115.334L690.6 114.367C690.189 118 689.545 120.197 688.666 120.959V122.893C688.666 126.76 688.197 130.246 687.26 133.352H686.293C686.938 123.215 687.729 117.355 688.666 115.773L688.227 114.807C688.52 112.287 688.988 111.027 689.633 111.027H690.6C690.6 111.672 690.746 111.994 691.039 111.994C691.684 111.701 692.152 111.555 692.445 111.555C692.445 111.848 692.621 111.994 692.973 111.994C692.973 111.701 693.119 111.555 693.412 111.555C693.705 112.141 693.852 112.609 693.852 112.961H694.379C694.379 111.203 694.525 109.445 694.818 107.688V107.248H694.379V108.215H693.412C692.123 105.754 691.479 102.912 691.479 99.6895H690.6C690.6 106.311 689.955 109.621 688.666 109.621L687.699 107.688C687.699 106.926 688.021 104.729 688.666 101.096L687.26 102.062H686.293V101.535L699.125 39.4844C699.711 39.4844 700.971 34.123 702.904 23.4004C704.955 13.3223 706.361 7.93164 707.123 7.22852H708.09V7.75586L709.057 7.22852C709.701 7.22852 710.023 7.87305 710.023 9.16211H710.902C711.547 9.16211 711.869 8.69336 711.869 7.75586H712.396C712.982 7.75586 713.275 8.37109 713.275 9.60156H715.209C715.209 8.01953 715.531 7.22852 716.176 7.22852H719.516L720.922 8.19531H722.328C722.328 6.61328 722.65 5.82227 723.295 5.82227C723.295 6.29102 723.764 6.75977 724.701 7.22852L727.074 6.78906C727.191 7.43359 727.514 7.75586 728.041 7.75586H730.854V6.26172C734.662 6.26172 736.566 7.05273 736.566 8.63477H737.973C737.973 7.4043 738.295 6.78906 738.939 6.78906H742.191C743.48 8.42969 744.916 9.54297 746.498 10.1289C748.08 12.707 748.871 15.373 748.871 18.127H748.344C748.461 20.1777 749.428 23.8105 751.244 29.0254L751.684 31.3984C751.391 34.7383 750.922 37.5801 750.277 39.9238V41.8574H751.684L752.211 37.1113H753.09C753.09 38.4004 753.266 39.6602 753.617 40.8906C753.617 41.0664 753.441 41.7109 753.09 42.8242C753.676 46.3398 754.643 49.5039 755.99 52.3164C755.99 52.6094 756.137 53.0781 756.43 53.7227L755.99 56.5352V56.9746C756.928 59.5527 758.041 64.7676 759.33 72.6191C759.33 74.5527 758.686 75.5195 757.396 75.5195C757.104 79.4453 756.957 81.8184 756.957 82.6387V83.5176H757.396C758.686 80.8809 759.33 77.8926 759.33 74.5527H759.77C760.238 74.5527 760.707 75.0215 761.176 75.959V77.3652C761.176 79.1816 761.322 81.7305 761.615 85.0117C761.615 86.2422 760.854 86.8574 759.33 86.8574V89.7578C760.561 89.7578 761.176 91.4863 761.176 94.9434H761.615L762.143 92.5703V86.418H762.582C762.992 86.418 763.783 89.084 764.955 94.416C765.365 94.416 765.688 95.0605 765.922 96.3496L765.482 99.1621C765.775 100.979 765.922 102.561 765.922 103.908C765.453 103.908 764.809 104.553 763.988 105.842L766.361 108.654C766.244 110.588 765.629 111.555 764.516 111.555V112.961C764.516 113.254 764.662 113.4 764.955 113.4L763.988 117.707L764.516 120.52C764.516 120.988 764.34 123.215 763.988 127.199H765.922V129.045C765.922 130.979 765.277 131.945 763.988 131.945V135.725C763.988 136.311 763.695 136.604 763.109 136.604H762.582L761.615 136.164L762.582 131.945C762.289 128.664 762.143 126.115 762.143 124.299C762.436 123.186 762.582 122.57 762.582 122.453C762.23 120.227 761.762 119.113 761.176 119.113C760.941 122.688 760.326 124.885 759.33 125.705C759.33 131.389 758.539 135.812 756.957 138.977C756.957 140.266 756.635 140.91 755.99 140.91H754.584L754.057 138.537V132.824C754.057 132.121 753.91 131.506 753.617 130.979C753.617 130.627 753.764 130.451 754.057 130.451L753.617 124.826V120.52C752.504 120.52 751.713 123.039 751.244 128.078H750.277L749.838 125.705C749.838 120.373 750.453 117.707 751.684 117.707V114.807C751.684 113.459 751.859 111.73 752.211 109.621C752.211 109.328 752.035 109.182 751.684 109.182L752.211 106.809V103.029C751.156 103.029 750.365 102.854 749.838 102.502C748.842 105.666 748.344 107.395 748.344 107.688L749.311 107.248H750.277C750.277 110.002 749.486 115.363 747.904 123.332C748.197 123.918 748.52 125.5 748.871 128.078C748.227 132.355 747.904 135.197 747.904 136.604C747.494 136.604 747.025 135.812 746.498 134.23L746.938 130.979V123.859C746.352 123.859 746.059 123.215 746.059 121.926C743.129 124.152 741.225 125.266 740.346 125.266L737.006 124.299V121.926C737.006 121.633 737.152 121.486 737.445 121.486C736.859 120.197 736.566 118.469 736.566 116.301C735.57 116.301 734.457 116.125 733.227 115.773C732.934 117.062 732.289 117.707 731.293 117.707L729.447 116.74C725.229 118.439 722.064 120.783 719.955 123.771L703.695 128.693ZM723.734 64.6211C724.027 64.6211 724.174 66.2031 724.174 69.3672H723.295C723.295 72.0039 722.973 74.5234 722.328 76.9258C722.621 79.0352 722.768 80.7637 722.768 82.1113V87.8242C722.943 88.4688 723.266 88.791 723.734 88.791H724.701V82.1113L725.141 79.7383H725.668C725.668 82.1992 726.605 85.6855 728.48 90.1973C729.887 90.1973 730.678 87.6777 730.854 82.6387V73.5859C731.498 72.8242 731.82 72.3555 731.82 72.1797V69.8066H730.854L730.414 74.5527H729.887C729.125 74.5527 728.51 72.0332 728.041 66.9941L727.074 66.4668C727.367 65.8809 727.514 65.4121 727.514 65.0605C727.514 63.7129 727.191 62.1309 726.547 60.3145C725.492 60.3145 724.555 61.75 723.734 64.6211ZM730.854 100.129V101.535C731.322 101.535 731.791 101.066 732.26 100.129V99.6895C731.732 99.9824 731.264 100.129 730.854 100.129ZM756.957 100.129C756.957 101.066 756.459 101.857 755.463 102.502C755.463 104.787 754.848 107.951 753.617 111.994L754.057 114.367C753.764 116.594 753.617 117.854 753.617 118.146V120.08H754.057C754.877 111.818 755.844 107.688 756.957 107.688H757.396V108.215C757.396 113.898 756.752 117.209 755.463 118.146C755.463 121.076 755.316 123.771 755.023 126.232L755.463 129.572C755.17 131.682 755.023 133.41 755.023 134.758V135.197H755.463C756.752 133.146 757.396 130.949 757.396 128.605C756.986 126.379 756.518 125.266 755.99 125.266C757.104 118 757.895 114.367 758.363 114.367C759.301 111.496 759.916 110.061 760.209 110.061C760.209 110.412 760.385 110.588 760.736 110.588C761.967 104.787 762.582 101.477 762.582 100.656H761.176V103.029C759.945 103.791 759.33 104.582 759.33 105.402C758.217 105.695 757.572 105.842 757.396 105.842V100.129H756.957ZM720.922 114.807C720.922 115.627 720.453 116.74 719.516 118.146C720.102 118.967 720.395 119.611 720.395 120.08H720.922C722.152 118.791 723.09 118.146 723.734 118.146V117.18L722.328 118.146L721.801 117.18C722.445 117.18 722.768 116.887 722.768 116.301L720.922 114.807ZM725.141 115.334V116.301H726.547V115.334H725.141ZM820.326 143.811C820.385 143.4 820.414 143.166 820.414 143.107L819.535 143.635L818.217 142.844C817.865 142.199 817.602 141.145 817.426 139.68C816.547 139.68 815.727 138.859 814.965 137.219V136.691H815.492L817.953 138.186H818.48V137.746C818.48 136.984 817.309 136.164 814.965 135.285C814.965 132.59 813.354 129.953 810.131 127.375C810.131 126.145 809.457 125.178 808.109 124.475V123.947L811.098 123.508V122.98C811.098 118.703 809.955 116.564 807.67 116.564C807.025 116.564 806.703 116.242 806.703 115.598V111.203L805.648 109.709C806.352 109.709 806.703 109.387 806.703 108.742V108.215C805.883 108.215 805.062 106.926 804.242 104.348C803.891 104.348 803.715 104.172 803.715 103.82V102.854H805.648C805.648 102.385 805.18 101.887 804.242 101.359H803.715V102.854L801.781 101.359C801.781 102.004 801.283 102.326 800.287 102.326V103.82L801.781 105.754C801.43 106.34 801.254 106.838 801.254 107.248H801.342L801.166 107.775H800.727V109.27L795.102 128.518C794.633 129.514 794.398 130.451 794.398 131.33L793.432 131.857C793.666 132.15 793.812 132.59 793.871 133.176L790.092 146.184C788.803 144.133 787.455 143.107 786.049 143.107L786.488 138.186V136.252C787.484 134.963 788.305 133 788.949 130.363L787.982 123.947C788.334 123.361 788.51 122.541 788.51 121.486H787.016C786.664 121.486 786.488 121.662 786.488 122.014L783.061 120.52L782.621 121.486V124.914L783.588 126.408C782.709 126.408 782.064 128.225 781.654 131.857H780.6V129.396C780.6 127.99 780.775 126.672 781.127 125.441L779.193 115.598H778.666C778.666 119.23 778.168 121.047 777.172 121.047V122.453L778.139 123.947C777.494 125.939 776.85 126.936 776.205 126.936C776.205 124.357 775.385 122.717 773.744 122.014L773.305 122.98V127.902H772.25C771.605 127.902 771.283 127.58 771.283 126.936C771.635 123.537 771.811 120.9 771.811 119.025C772.455 118.498 772.953 116.066 773.305 111.73H771.811V110.676C771.811 109.211 771.488 107.922 770.844 106.809C771.137 106.105 771.283 105.607 771.283 105.314H770.844L771.283 104.348V103.381L768.383 102.854L767.855 105.314V106.809H766.889V104.787C766.889 101.799 767.064 97.5508 767.416 92.043C767.064 91.457 766.889 90.8125 766.889 90.1094C767.357 90.1094 767.855 89.6113 768.383 88.6152V86.6816H767.855V88.0879H766.889V83.2539C766.889 80.3828 767.064 75.959 767.416 69.9824C767.885 69.9824 768.529 69.3086 769.35 67.9609H769.877V66.0273L767.416 67.9609H766.889V67.5215C767.064 58.0293 767.387 53.2832 767.855 53.2832C768.617 53.2832 769.291 50.8223 769.877 45.9004V44.4062H769.35C769.35 48.1562 768.705 50.1191 767.416 50.2949V49.3281C767.416 46.3984 767.24 43.1172 766.889 39.4844C766.889 38.2539 767.064 36.7891 767.416 35.0898C767.064 30.5195 766.889 26.0957 766.889 21.8184V16.457C767.65 10.2461 768.471 7.14062 769.35 7.14062L769.877 8.10742V11.0078H771.283C771.459 8.42969 771.957 7.14062 772.777 7.14062C773.422 7.14062 773.744 7.96094 773.744 9.60156H774.271C774.271 8.25391 775.092 7.58008 776.732 7.58008V8.10742C778.021 7.75586 779.164 7.25781 780.16 6.61328C781.801 7.43359 782.621 8.07813 782.621 8.54688V11.5352H784.115C784.408 8.89844 784.877 7.58008 785.521 7.58008C786.166 7.58008 786.488 8.40039 786.488 10.041H787.982C787.982 7.75586 789.125 6.61328 791.41 6.61328C791.762 7.19922 791.938 7.84375 791.938 8.54688H793.432C794.135 7.84375 795.922 7.375 798.793 7.14062C799.848 7.78516 800.668 8.10742 801.254 8.10742C801.254 8.40039 801.078 8.54688 800.727 8.54688C801.723 10.5977 802.221 12.0918 802.221 13.0293H802.748V10.041H803.188C803.715 10.041 804.535 11.6816 805.648 14.9629C806.176 14.9629 806.85 17.7461 807.67 23.3125C809.955 24.4258 811.098 25.8906 811.098 27.707C810.746 28.1172 810.57 28.9375 810.57 30.168C811.098 30.168 811.596 30.666 812.064 31.6621L810.57 33.5957C811.098 33.5957 812.094 34.9141 813.559 37.5508V40.0117C813.559 43.293 814.525 45.5781 816.459 46.8672C816.459 47.9219 816.957 48.918 817.953 49.8555V50.2949C817.953 50.9395 817.455 51.2617 816.459 51.2617L816.986 54.6895L817.953 54.25H818.48L817.953 56.7109L818.48 60.1387H819.447V59.1719H820.414L821.381 59.6113L821.908 58.6445C821.264 54.0156 820.941 50.9102 820.941 49.3281C821.234 46.457 821.381 44.8164 821.381 44.4062C820.736 43.1758 820.414 41.7109 820.414 40.0117L820.941 36.584C820.238 35.4121 819.887 34.416 819.887 33.5957V26.7402C819.887 25.5684 819.74 24.748 819.447 24.2793L819.887 21.3789V14.9629C819.887 9.74805 821.205 7.14062 823.842 7.14062C824.662 7.14062 825.98 6.96484 827.797 6.61328C827.855 7.25781 828.178 7.58008 828.764 7.58008H831.664L833.158 6.61328L833.686 7.58008L834.652 7.14062C835.297 7.19922 835.619 7.52148 835.619 8.10742C836.908 7.93164 837.553 7.43359 837.553 6.61328H838.607C839.252 6.67188 839.574 6.99414 839.574 7.58008C839.223 7.58008 839.047 7.75586 839.047 8.10742L849.857 6.61328L851.352 8.54688L852.318 8.10742C853.725 8.51758 854.721 11.3008 855.307 16.457L854.779 21.3789V45.373C854.779 46.1348 854.604 46.8086 854.252 47.3945C854.604 47.9219 854.779 48.5664 854.779 49.3281V52.7559C854.779 59.7285 854.604 66.291 854.252 72.4434C854.604 76.1934 854.779 79.7969 854.779 83.2539C854.135 90.168 853.812 94.7383 853.812 96.9648C853.812 97.4336 854.135 98.4004 854.779 99.8652L854.252 102.326C854.252 103.322 854.428 104.465 854.779 105.754L854.252 110.236C854.604 115.803 854.779 119.084 854.779 120.08C854.428 122.248 854.252 124.035 854.252 125.441H853.285V120.52C852.055 120.52 851.234 122.98 850.824 127.902H849.857V121.486H847.924V119.553L848.363 118.586C847.719 118.586 847.25 116.623 846.957 112.697C847.66 112.697 848.305 110.559 848.891 106.281C849.652 106.281 850.15 104.816 850.385 101.887V100.393H849.857C849.857 102.385 849.359 103.381 848.363 103.381C848.363 103.674 848.539 103.82 848.891 103.82C848.246 106.047 846.928 107.688 844.936 108.742C844.936 110.031 844.789 110.676 844.496 110.676C844.496 110.852 844.643 111.525 844.936 112.697C844.643 116.799 844.496 119.084 844.496 119.553L844.936 122.014H843.002C842.65 121.369 842.475 120.871 842.475 120.52H841.508C840.219 122.805 839.398 123.947 839.047 123.947H838.607L839.047 118.059V116.564H838.08L839.047 109.27C838.754 107.512 838.607 105.871 838.607 104.348H837.553V113.664C837.553 113.957 837.406 114.104 837.113 114.104L837.553 115.158V117.092C837.553 117.561 836.908 118.205 835.619 119.025C835.385 119.025 834.887 118.557 834.125 117.619L834.652 116.564V116.125H833.158C833.51 120.871 834.008 123.479 834.652 123.947H834.125L833.158 123.508V125.441H832.191V124.914C831.84 120.871 831.664 118.762 831.664 118.586C831.664 116.945 832.016 116.125 832.719 116.125C832.367 115.773 832.191 114.455 832.191 112.17H831.664C831.664 114.455 830.521 115.598 828.236 115.598H827.797C828.09 111.203 828.588 108.742 829.291 108.215V107.248C828.939 107.248 828.441 107.102 827.797 106.809C827.797 107.746 827.299 108.215 826.303 108.215V110.236C826.303 111.525 826.127 112.814 825.775 114.104L826.303 116.564C826.303 116.857 826.127 118.176 825.775 120.52L826.303 122.98C825.834 124.27 825.336 124.914 824.809 124.914H824.369V118.059C824.369 117.766 824.516 117.619 824.809 117.619L824.369 116.564V115.598C824.369 113.898 824.516 111.115 824.809 107.248H822.875V109.27C822.875 110.207 822.699 110.676 822.348 110.676C822.992 115.305 823.314 118.439 823.314 120.08C822.67 122.6 822.201 126.027 821.908 130.363L819.887 126.936L819.447 127.902V128.869C821.732 134.025 822.875 137.453 822.875 139.152C822.875 142.141 822.23 143.635 820.941 143.635L821.029 144.338L820.326 143.811ZM769.35 33.1562V35.6172H769.877V33.1562H769.35ZM769.877 39.4844V41.9453H770.316C770.961 41.9453 771.283 41.623 771.283 40.9785V39.0449C770.639 39.3379 770.17 39.4844 769.877 39.4844ZM784.115 40.4512V40.9785H786.049V40.4512H784.115ZM778.666 44.9336C778.666 46.6328 778.168 47.9219 777.172 48.8008V52.7559H777.699C778.402 52.7559 778.9 50.4707 779.193 45.9004V44.9336H778.666ZM771.283 50.2949V52.3164H771.811V50.2949H771.283ZM773.305 53.2832V55.2168H773.744V53.2832H773.305ZM777.172 55.2168V62.0723L776.732 65.5H778.139C778.139 64.3867 778.314 63.5664 778.666 63.0391L778.139 62.0723C778.139 61.8379 778.314 60.8711 778.666 59.1719C778.314 57.3555 778.139 56.0371 778.139 55.2168H777.172ZM769.35 55.7441V58.6445H769.877V55.7441H769.35ZM844.936 55.7441V59.1719L845.902 58.6445L845.463 55.7441H844.936ZM781.127 56.7109V58.2051L781.654 60.666C782.299 60.666 782.621 60.3145 782.621 59.6113V56.7109H781.127ZM767.855 61.1055C768.207 61.6914 768.383 62.3359 768.383 63.0391H768.822L769.35 60.666V59.1719C768.998 59.1719 768.5 59.8164 767.855 61.1055ZM786.488 61.6328V66.9941H787.543L787.982 64.5332V62.5996C787.982 61.9551 787.66 61.6328 787.016 61.6328H786.488ZM782.094 66.0273L782.621 68.4883V69.4551C782.621 69.8066 782.445 69.9824 782.094 69.9824C782.094 70.2754 782.27 70.4219 782.621 70.4219C782.621 70.7734 782.445 71.2715 782.094 71.916C782.445 73.6152 782.621 75.0801 782.621 76.3105C782.621 77.1309 782.123 78.2734 781.127 79.7383C781.479 79.7383 781.977 79.9141 782.621 80.2656C783.617 77.9805 784.262 76.8379 784.555 76.8379L784.115 73.4102C784.115 71.6523 784.262 69.1914 784.555 66.0273L783.588 65.5H783.061L782.094 66.0273ZM777.172 69.0156V82.7266L776.732 86.1543C777.67 86.1543 778.139 86.4766 778.139 87.1211V88.0879C778.139 88.791 777.67 89.1426 776.732 89.1426V90.5488H778.139L778.666 87.6484L778.139 84.6602L778.666 81.7598L778.139 78.7715L779.193 69.9824L777.699 69.0156H777.172ZM844.936 69.4551V73.8496C845.58 73.8496 845.902 73.5273 845.902 72.8828L845.463 69.4551H844.936ZM771.283 70.4219C771.283 72.707 770.814 73.8496 769.877 73.8496C769.525 79.5918 769.35 83.0488 769.35 84.2207V85.1875H769.877C771.166 82.375 771.811 79.9141 771.811 77.8047V70.4219H771.283ZM768.383 70.9492V74.9043H768.822L769.35 71.3887V70.9492H768.383ZM826.303 76.8379V77.2773L826.83 79.7383H827.27C827.27 78.625 827.445 77.8047 827.797 77.2773L826.83 76.8379H826.303ZM781.127 86.6816C781.596 86.6816 782.094 87.1504 782.621 88.0879V93.0098H783.061C783.061 91.9551 783.412 89.8457 784.115 86.6816V79.7383C783.119 79.7383 782.123 82.0527 781.127 86.6816ZM773.744 80.2656V82.1992C773.861 82.9023 774.184 83.2539 774.711 83.2539L775.238 80.793L774.271 80.2656H773.744ZM844.936 85.1875V91.5156L844.496 94.5039C844.789 94.9727 844.936 95.793 844.936 96.9648V98.8984H846.43C847.426 96.7891 847.924 94.8262 847.924 93.0098C847.104 93.6543 846.605 93.9766 846.43 93.9766H845.463L845.902 89.1426V87.6484L845.463 85.1875H844.936ZM888.705 133.176C889.525 132.473 889.936 131.887 889.936 131.418C889.643 130.832 889.496 130.393 889.496 130.1H889.057L887.387 131.418H885.629L881.41 130.979C881.41 131.74 880.004 132.297 877.191 132.648C876.254 132.121 875.521 131.857 874.994 131.857L874.643 132.648C874.643 133 875.492 133.85 877.191 135.197H879.301V136.076C878.422 136.076 877.982 136.369 877.982 136.955C878.568 138.068 878.861 139.064 878.861 139.943H877.543C876.371 138.361 874.115 136.369 870.775 133.967C870.482 133.439 870.336 132.883 870.336 132.297V131.418H871.215L873.324 134.406L873.764 132.297C873.764 131.828 872.621 130.832 870.336 129.309L869.545 129.748L869.896 130.539C869.193 132.238 868.637 133.088 868.227 133.088H867.348L865.238 130.979V131.857C865.238 133.322 865.824 135.432 866.996 138.186C866 142.463 865.268 144.602 864.799 144.602C864.271 144.602 864.008 144.309 864.008 143.723L864.447 141.613C863.686 141.027 863.246 140.734 863.129 140.734H862.25C861.43 144.719 860.58 146.711 859.701 146.711L859.35 145.832C861.459 139.094 862.719 135.549 863.129 135.197H864.447V134.406H861.898V133.527C863.012 133.527 863.568 132.971 863.568 131.857C862.689 132.15 862.25 132.414 862.25 132.648C860.844 132.648 859.291 131.945 857.592 130.539V128.869C857.064 126.818 856.801 125.676 856.801 125.441V124.211H857.592C857.592 126.203 858.178 127.199 859.35 127.199C859.525 127.199 860.639 127.053 862.689 126.76C863.041 126.76 864.037 127.316 865.678 128.43H866.557V127.99C865.736 127.17 864.594 125.324 863.129 122.453V122.102L865.238 120.344V118.234C862.836 117.414 861.283 117.004 860.58 117.004C859.467 117.238 858.471 117.355 857.592 117.355V117.004C858.236 114.074 859.379 111.643 861.02 109.709L859.35 106.721V104.172L858.91 101.271C859.203 101.271 859.35 101.125 859.35 100.832L860.141 101.271H860.58C860.58 99.5723 860.873 98.7227 861.459 98.7227H861.898L862.25 101.271H863.129L863.568 98.2832C862.982 98.2832 862.689 97.8438 862.689 96.9648C862.982 94.5039 863.129 93.0977 863.129 92.7461C858.031 87.3555 855.482 83.2539 855.482 80.4414C855.775 77.8633 855.922 76.2812 855.922 75.6953H856.801L857.152 77.8926V79.5625C857.797 79.5625 858.529 80.002 859.35 80.8809H860.141C860.141 80.002 860.434 79.5625 861.02 79.5625C861.605 79.5625 861.898 80.002 861.898 80.8809H862.689C863.275 77.1895 863.568 74.7578 863.568 73.5859L863.129 69.3672C863.422 68.7812 863.568 68.3418 863.568 68.0488C862.982 67.1699 862.689 66.4668 862.689 65.9395C863.275 65.9395 863.568 65.6758 863.568 65.1484V62.9512C863.568 62.3652 863.422 61.8086 863.129 61.2812L863.568 60.4023C863.275 57.5312 863.129 55.2754 863.129 53.6348V51.0859C863.129 50.793 863.275 50.6465 863.568 50.6465L863.129 49.8555V45.5488C863.129 44.377 863.275 42.8242 863.568 40.8906C862.982 39.4258 862.689 38.2832 862.689 37.4629L864.008 21.7305H863.129V19.1816C863.129 12.1504 863.832 8.63477 865.238 8.63477L865.678 9.42578C866.674 8.89844 867.816 8.63477 869.105 8.63477H870.336C870.336 7.75586 870.629 7.31641 871.215 7.31641C871.801 7.31641 872.094 8.16602 872.094 9.86523H872.445L874.203 7.31641C874.73 7.31641 874.994 8.01953 874.994 9.42578H876.752C876.752 8.60547 877.016 8.19531 877.543 8.19531H878.861C879.857 8.19531 881.117 8.3418 882.641 8.63477C883.168 8.3418 883.607 8.19531 883.959 8.19531C885.365 8.3125 886.068 9.01562 886.068 10.3047H886.947L888.617 7.75586C889.203 7.81445 889.496 8.10742 889.496 8.63477L891.605 8.19531C892.895 8.19531 893.891 9.74805 894.594 12.8535C894.594 15.7246 894.447 17.9805 894.154 19.6211C894.447 22.3164 894.594 25.0117 894.594 27.707C894.594 29.9922 894.447 32.6875 894.154 35.793C894.564 42.5898 895.121 45.9883 895.824 45.9883C895.004 46.9258 894.594 47.6289 894.594 48.0977C894.594 49.3867 895.004 50.6758 895.824 51.9648C894.711 53.4883 894.154 55.5977 894.154 58.293V59.1719C894.154 62.1602 894.301 64.5625 894.594 66.3789C894.301 68.3711 894.154 70.9199 894.154 74.0254V76.1348C894.154 77.0723 894.008 77.8047 893.715 78.332L894.154 80.8809V90.6367C894.154 97.4336 893.598 100.832 892.484 100.832C892.016 100.832 891.576 100.246 891.166 99.0742C891.459 99.0742 891.605 98.957 891.605 98.7227C891.254 98.7227 890.844 98.5762 890.375 98.2832V98.7227C890.727 103.82 891.43 106.369 892.484 106.369V107.16C891.312 107.16 890.727 106.311 890.727 104.611H890.375V106.369H889.496V103.381L888.617 102.062C889.203 99.6602 889.789 97.9609 890.375 96.9648L891.166 97.4043C891.752 97.4043 892.045 97.1113 892.045 96.5254C892.045 96.1738 891.898 95.7637 891.605 95.2949L892.045 92.7461V91.8672C892.045 91.5742 891.898 91.4277 891.605 91.4277C891.605 91.1934 891.752 91.0762 892.045 91.0762L891.605 88.0879C891.605 87.7949 891.752 86.6523 892.045 84.6602H890.727V87.209C890.727 92.8926 889.73 96.4375 887.738 97.8438C887.738 97.5508 887.621 97.4043 887.387 97.4043V98.2832H885.629V93.9766C885.102 93.2734 884.838 92.4238 884.838 91.4277H884.398V96.1738L884.838 98.7227L883.959 100.832L884.398 103.381V104.611C884.398 104.963 883.959 105.402 883.08 105.93C882.787 105.93 882.641 104.377 882.641 101.271C881.938 101.271 881.381 102.824 880.971 105.93V106.369C882.201 108.596 883.607 109.709 885.189 109.709H885.629V108.479C885.629 107.072 886.068 106.369 886.947 106.369L886.508 104.172L887.387 103.82H887.738C887.738 107.219 887.182 108.918 886.068 108.918C886.361 109.738 887.797 110.588 890.375 111.467C890.492 108.596 890.902 107.16 891.605 107.16H892.045V110.588H892.484C892.543 109.182 892.953 108.479 893.715 108.479H894.154C894.154 109.123 894.008 109.68 893.715 110.148C894.066 112.727 895.209 114.016 897.143 114.016C900.541 115.715 903.09 118.674 904.789 122.893V126.32H903.91C903.91 123.332 902.914 121.076 900.922 119.553C900.395 119.787 899.984 119.904 899.691 119.904C899.691 119.553 898.842 118.85 897.143 117.795L896.264 118.234L894.594 117.355V117.795C896.586 120.314 897.582 121.75 897.582 122.102H898.021L899.252 121.223C899.252 121.516 899.398 121.662 899.691 121.662L899.252 122.453C899.252 122.805 899.691 123.244 900.57 123.771C901.039 123.479 901.596 123.332 902.24 123.332V123.771C900.541 125.412 899.691 126.818 899.691 127.99C899.457 127.99 898.9 128.84 898.021 130.539L898.373 132.648L897.582 133.088C896.996 131.389 896.41 130.539 895.824 130.539C895.59 131.066 895.473 131.506 895.473 131.857C895.707 132.326 895.824 132.736 895.824 133.088C895.414 133.088 895.004 133.527 894.594 134.406V136.428L888.705 133.176ZM919.73 128.693C918.852 127.873 918.412 125.939 918.412 122.893V120.52C918.881 118.293 919.525 117.18 920.346 117.18H920.785L920.346 121.926L920.785 127.639C921.781 127.639 922.279 125.588 922.279 121.486L921.752 118.146L922.279 115.773C922.279 115.539 922.104 114.602 921.752 112.961V110.061H920.346C919.936 112.639 919.291 113.928 918.412 113.928C917.65 113.283 917.182 112.961 917.006 112.961C917.006 113.254 916.859 113.4 916.566 113.4L917.006 115.773C916.83 118.938 916.361 120.52 915.6 120.52H915.16C915.16 119.406 914.984 118.615 914.633 118.146C914.984 117.033 915.16 116.418 915.16 116.301C914.809 111.555 914.633 108.391 914.633 106.809C915.277 104.758 915.6 103.322 915.6 102.502V99.6895H916.566C916.566 99.3379 916.391 98.8691 916.039 98.2832C916.391 96.5254 916.566 95.0898 916.566 93.9766C915.98 94.2695 915.512 94.416 915.16 94.416V97.7559L913.666 99.6895V102.502C913.666 105.432 913.52 108.127 913.227 110.588C913.52 112.229 913.666 113.811 913.666 115.334L913.227 119.553C913.52 121.252 913.666 122.688 913.666 123.859L913.227 126.232L914.193 128.078C913.783 132.121 913.461 134.348 913.227 134.758C913.52 135.285 913.666 135.9 913.666 136.604C912.846 137.248 911.439 137.893 909.447 138.537L909.008 137.57C911.176 132.941 912.26 129.631 912.26 127.639H911.293L911.82 124.299C911.469 121.604 911.293 119.406 911.293 117.707H909.887V119.553H909.447C908.803 119.553 908.48 119.26 908.48 118.674C909.418 117.326 909.887 116.037 909.887 114.807L909.008 115.334L906.635 114.367C906.225 118 905.58 120.197 904.701 120.959V122.893C904.701 126.76 904.232 130.246 903.295 133.352H902.328C902.973 123.215 903.764 117.355 904.701 115.773L904.262 114.807C904.555 112.287 905.023 111.027 905.668 111.027H906.635C906.635 111.672 906.781 111.994 907.074 111.994C907.719 111.701 908.188 111.555 908.48 111.555C908.48 111.848 908.656 111.994 909.008 111.994C909.008 111.701 909.154 111.555 909.447 111.555C909.74 112.141 909.887 112.609 909.887 112.961H910.414C910.414 111.203 910.561 109.445 910.854 107.688V107.248H910.414V108.215H909.447C908.158 105.754 907.514 102.912 907.514 99.6895H906.635C906.635 106.311 905.99 109.621 904.701 109.621L903.734 107.688C903.734 106.926 904.057 104.729 904.701 101.096L903.295 102.062H902.328V101.535L915.16 39.4844C915.746 39.4844 917.006 34.123 918.939 23.4004C920.99 13.3223 922.396 7.93164 923.158 7.22852H924.125V7.75586L925.092 7.22852C925.736 7.22852 926.059 7.87305 926.059 9.16211H926.938C927.582 9.16211 927.904 8.69336 927.904 7.75586H928.432C929.018 7.75586 929.311 8.37109 929.311 9.60156H931.244C931.244 8.01953 931.566 7.22852 932.211 7.22852H935.551L936.957 8.19531H938.363C938.363 6.61328 938.686 5.82227 939.33 5.82227C939.33 6.29102 939.799 6.75977 940.736 7.22852L943.109 6.78906C943.227 7.43359 943.549 7.75586 944.076 7.75586H946.889V6.26172C950.697 6.26172 952.602 7.05273 952.602 8.63477H954.008C954.008 7.4043 954.33 6.78906 954.975 6.78906H958.227C959.516 8.42969 960.951 9.54297 962.533 10.1289C964.115 12.707 964.906 15.373 964.906 18.127H964.379C964.496 20.1777 965.463 23.8105 967.279 29.0254L967.719 31.3984C967.426 34.7383 966.957 37.5801 966.312 39.9238V41.8574H967.719L968.246 37.1113H969.125C969.125 38.4004 969.301 39.6602 969.652 40.8906C969.652 41.0664 969.477 41.7109 969.125 42.8242C969.711 46.3398 970.678 49.5039 972.025 52.3164C972.025 52.6094 972.172 53.0781 972.465 53.7227L972.025 56.5352V56.9746C972.963 59.5527 974.076 64.7676 975.365 72.6191C975.365 74.5527 974.721 75.5195 973.432 75.5195C973.139 79.4453 972.992 81.8184 972.992 82.6387V83.5176H973.432C974.721 80.8809 975.365 77.8926 975.365 74.5527H975.805C976.273 74.5527 976.742 75.0215 977.211 75.959V77.3652C977.211 79.1816 977.357 81.7305 977.65 85.0117C977.65 86.2422 976.889 86.8574 975.365 86.8574V89.7578C976.596 89.7578 977.211 91.4863 977.211 94.9434H977.65L978.178 92.5703V86.418H978.617C979.027 86.418 979.818 89.084 980.99 94.416C981.4 94.416 981.723 95.0605 981.957 96.3496L981.518 99.1621C981.811 100.979 981.957 102.561 981.957 103.908C981.488 103.908 980.844 104.553 980.023 105.842L982.396 108.654C982.279 110.588 981.664 111.555 980.551 111.555V112.961C980.551 113.254 980.697 113.4 980.99 113.4L980.023 117.707L980.551 120.52C980.551 120.988 980.375 123.215 980.023 127.199H981.957V129.045C981.957 130.979 981.312 131.945 980.023 131.945V135.725C980.023 136.311 979.73 136.604 979.145 136.604H978.617L977.65 136.164L978.617 131.945C978.324 128.664 978.178 126.115 978.178 124.299C978.471 123.186 978.617 122.57 978.617 122.453C978.266 120.227 977.797 119.113 977.211 119.113C976.977 122.688 976.361 124.885 975.365 125.705C975.365 131.389 974.574 135.812 972.992 138.977C972.992 140.266 972.67 140.91 972.025 140.91H970.619L970.092 138.537V132.824C970.092 132.121 969.945 131.506 969.652 130.979C969.652 130.627 969.799 130.451 970.092 130.451L969.652 124.826V120.52C968.539 120.52 967.748 123.039 967.279 128.078H966.312L965.873 125.705C965.873 120.373 966.488 117.707 967.719 117.707V114.807C967.719 113.459 967.895 111.73 968.246 109.621C968.246 109.328 968.07 109.182 967.719 109.182L968.246 106.809V103.029C967.191 103.029 966.4 102.854 965.873 102.502C964.877 105.666 964.379 107.395 964.379 107.688L965.346 107.248H966.312C966.312 110.002 965.521 115.363 963.939 123.332C964.232 123.918 964.555 125.5 964.906 128.078C964.262 132.355 963.939 135.197 963.939 136.604C963.529 136.604 963.061 135.812 962.533 134.23L962.973 130.979V123.859C962.387 123.859 962.094 123.215 962.094 121.926C959.164 124.152 957.26 125.266 956.381 125.266L953.041 124.299V121.926C953.041 121.633 953.188 121.486 953.48 121.486C952.895 120.197 952.602 118.469 952.602 116.301C951.605 116.301 950.492 116.125 949.262 115.773C948.969 117.062 948.324 117.707 947.328 117.707L945.482 116.74C941.264 118.439 938.1 120.783 935.99 123.771L919.73 128.693ZM939.77 64.6211C940.062 64.6211 940.209 66.2031 940.209 69.3672H939.33C939.33 72.0039 939.008 74.5234 938.363 76.9258C938.656 79.0352 938.803 80.7637 938.803 82.1113V87.8242C938.979 88.4688 939.301 88.791 939.77 88.791H940.736V82.1113L941.176 79.7383H941.703C941.703 82.1992 942.641 85.6855 944.516 90.1973C945.922 90.1973 946.713 87.6777 946.889 82.6387V73.5859C947.533 72.8242 947.855 72.3555 947.855 72.1797V69.8066H946.889L946.449 74.5527H945.922C945.16 74.5527 944.545 72.0332 944.076 66.9941L943.109 66.4668C943.402 65.8809 943.549 65.4121 943.549 65.0605C943.549 63.7129 943.227 62.1309 942.582 60.3145C941.527 60.3145 940.59 61.75 939.77 64.6211ZM946.889 100.129V101.535C947.357 101.535 947.826 101.066 948.295 100.129V99.6895C947.768 99.9824 947.299 100.129 946.889 100.129ZM972.992 100.129C972.992 101.066 972.494 101.857 971.498 102.502C971.498 104.787 970.883 107.951 969.652 111.994L970.092 114.367C969.799 116.594 969.652 117.854 969.652 118.146V120.08H970.092C970.912 111.818 971.879 107.688 972.992 107.688H973.432V108.215C973.432 113.898 972.787 117.209 971.498 118.146C971.498 121.076 971.352 123.771 971.059 126.232L971.498 129.572C971.205 131.682 971.059 133.41 971.059 134.758V135.197H971.498C972.787 133.146 973.432 130.949 973.432 128.605C973.021 126.379 972.553 125.266 972.025 125.266C973.139 118 973.93 114.367 974.398 114.367C975.336 111.496 975.951 110.061 976.244 110.061C976.244 110.412 976.42 110.588 976.771 110.588C978.002 104.787 978.617 101.477 978.617 100.656H977.211V103.029C975.98 103.791 975.365 104.582 975.365 105.402C974.252 105.695 973.607 105.842 973.432 105.842V100.129H972.992ZM936.957 114.807C936.957 115.627 936.488 116.74 935.551 118.146C936.137 118.967 936.43 119.611 936.43 120.08H936.957C938.188 118.791 939.125 118.146 939.77 118.146V117.18L938.363 118.146L937.836 117.18C938.48 117.18 938.803 116.887 938.803 116.301L936.957 114.807ZM941.176 115.334V116.301H942.582V115.334H941.176Z" fill="white"/>
</svg>
