<svg width="366" height="450" viewBox="0 0 366 450" fill="none" xmlns="http://www.w3.org/2000/svg">
<path d="M0.0433642 67.0326C0.0288771 67.0217 0.0144223 67.0108 0 67C0 66.6943 0 66.7136 0.0433642 67.0326C8.06485 73.0699 26.0036 92.4137 28 100C28 77 47.7 41.1 52.5 43.5C58.5 46.5 50.5 55 44.5 67C38.5 79 36.5 88 44.5 119C52.5 150 46.5 160 94 192.5C141.5 225 170.5 246 198 267C211.75 277.5 239.2 298.3 276 299.5C294.833 304.167 325.2 298.5 308 272.5C303.667 254.5 290.6 216.5 273 208.5C264.5 200.833 247.8 181.2 249 164C235 156.167 206.2 137.3 203 124.5C201 118.667 186.7 102 145.5 82C128.333 57.8333 94 7.7 94 0.5C107.833 11.6667 140.5 43.6 160.5 82C163 85.3333 167.7 89 166.5 77C174.667 84.1667 193.4 97.7 203 94.5C208.333 97.8333 220.3 107.4 225.5 119C226 111 228.8 93.2 236 86C236.333 71.8333 238.2 41.6 243 34C241 25.8333 238.2 10.1 243 12.5C249 15.5 249.5 24.5 254 34C258.5 43.5 249 102.5 249 124.5C252.956 131.5 260.694 150.2 260 169C266.667 171.167 285.6 187.8 308 237C314.833 248.833 330.3 272.5 337.5 272.5L366 229V272.5C360.667 276.833 353.2 290.5 366 310.5V449.5C353.667 440.833 333.4 417.8 351 395C352.667 384.167 350.8 360.1 330 350.5V324C310.333 326.5 282.5 320 264.5 320C218.5 300.5 215 290 178.5 267C141.667 239.833 54.9 183.6 48.5 166C41.5101 151.687 37.2283 133.905 28 115.5C3.23953 89.4131 0.374805 69.4706 0.0433642 67.0326Z" fill="black"/>
</svg>
