<svg width="1920" height="720" viewBox="0 0 1920 720" fill="none" xmlns="http://www.w3.org/2000/svg">
<path d="M32.1177 649.368C23.4042 672.015 33.0913 705.172 38.7023 720H0L0.496183 488.108C11.9821 486.722 11.4892 512.254 8.84877 524.579C46.079 494.999 52.4161 459.873 50.9308 446.007L0.496183 477.838L0 430.811L8.84877 431.564C15.978 433.413 39.874 412.692 50.9308 402.1C70.3381 390.083 50.4357 357.422 38.0587 342.594C32.1177 329.19 40.5341 332.772 45.4849 336.239C56.1787 339.474 64.133 371.865 66.7735 387.657C79.4476 381.186 104.4 329.884 115.292 305.041C129.916 286.245 141.6 264.404 150.088 245.327C139.178 249.429 130.428 253.664 127.174 256.512C122.421 260.672 94.4981 263.252 81.1309 264.022C72.8135 265.409 64.0076 283.784 50.9308 294.064C39.1985 306.487 20.3435 307.027 13.8931 317.297C17.4588 345.405 5.61205 387.521 0.496183 413.134V355.135L0 127V31.5C10.6938 42.1302 9.43024 61.2563 4.97449 70.5C32.4087 72.5506 33.1381 66.5716 49.2474 56L55.2168 28.5L87.0719 0L81.1309 39.2856L66.7735 50.8402C66.7735 66.6315 65.8823 98.2141 62.3177 98.2141C58.7531 98.2141 49.6106 149.054 45.4849 174.474C28.454 169.39 21.5559 213.567 20.2357 236.291C10.7301 243.686 11.6543 252.853 13.3045 256.512C13.3045 266.68 17.9253 265.756 20.2357 264.022C16.275 286.207 39.0488 280.584 50.9308 274.999C65.9814 265.756 77.3353 258.823 81.1309 256.512C96.1814 256.512 122.058 248.039 133.115 243.802C140.088 239.274 147.669 235.897 155.139 233.406C159.769 221.911 163.013 212.129 164.8 205.672C183.415 189.958 172.556 122.864 164.8 91.2813C148.957 76.329 137.075 63.4826 133.115 58.9284C137.867 51.9957 161.499 77.6084 172.721 91.2813C172.721 65.8612 187.574 59.121 195 58.9284C178.167 118.435 181.798 162.342 184.603 195.273C180.056 203.105 175.499 216.36 171.79 229.126C181.523 227.308 189.936 226.863 195 227.048L179.652 236.291C176.136 237.112 172.571 238.048 169.036 239.062C167.231 245.886 165.767 252.057 164.8 256.512C144.601 299.957 116.777 351.645 105.39 372.058C78.8535 395.629 65.6183 431.179 62.3177 446.007C62.3177 486.68 26.6718 528.815 8.84877 544.799C-0.260756 553.581 12.6444 566.56 20.2357 571.952C28.157 592.289 23.5362 620.867 20.2357 632.614L62.3177 591.595C67.0705 562.839 93.0129 541.098 105.39 533.822C120.44 525.965 126.183 518.994 127.174 516.49C138.66 502.625 162.325 486.834 172.721 480.671C166.384 496.385 153.908 508.787 148.462 513.024C136.976 516.259 126.514 528.238 122.718 533.822C94.2011 551.847 83.1112 570.604 81.1309 577.73C62.5158 622.562 53.2412 632.999 50.9308 632.614C44.5938 640.933 44.6598 647.25 45.4849 649.368H32.1177Z" fill="black"/>
<path d="M31.5 83C24.7 89.8 8.16667 97.8333 8 103.5C7.30098 109.5 18.2087 123 16.5 133.5L4 186C12.4 188.4 16.5 177.5 16.5 170.5C16.1 158.1 24.3333 147.5 29.5 145C43.5 135.8 50.6667 108.167 52.5 95.5C57.7 84.7 60.3333 61.6667 61 51.5C50.5 72 38.3 76.2 31.5 83Z" fill="#161621"/>
<path d="M1554.04 83.0326C1554.03 83.0217 1554.01 83.0108 1554 83C1554 82.6943 1554 82.7136 1554.04 83.0326C1562.06 89.0699 1580 108.414 1582 116C1582 93 1601.7 57.1 1606.5 59.5C1612.5 62.5 1604.5 71 1598.5 83C1592.5 95 1590.5 104 1598.5 135C1606.5 166 1600.5 176 1648 208.5C1695.5 241 1724.5 262 1752 283C1765.75 293.5 1793.2 314.3 1830 315.5C1848.83 320.167 1879.2 314.5 1862 288.5C1857.67 270.5 1844.6 232.5 1827 224.5C1818.5 216.833 1801.8 197.2 1803 180C1789 172.167 1760.2 153.3 1757 140.5C1755 134.667 1740.7 118 1699.5 98C1682.33 73.8333 1648 23.7 1648 16.5C1661.83 27.6667 1694.5 59.6 1714.5 98C1717 101.333 1721.7 105 1720.5 93C1728.67 100.167 1747.4 113.7 1757 110.5C1762.33 113.833 1774.3 123.4 1779.5 135C1780 127 1782.8 109.2 1790 102C1790.33 87.8333 1792.2 57.6 1797 50C1795 41.8333 1792.2 26.1 1797 28.5C1803 31.5 1803.5 40.5 1808 50C1812.5 59.5 1803 118.5 1803 140.5C1806.96 147.5 1814.69 166.2 1814 185C1820.67 187.167 1839.6 203.8 1862 253C1868.83 264.833 1884.3 288.5 1891.5 288.5L1920 245V288.5C1914.67 292.833 1907.2 306.5 1920 326.5V465.5C1907.67 456.833 1887.4 433.8 1905 411C1906.67 400.167 1904.8 376.1 1884 366.5V340C1864.33 342.5 1836.5 336 1818.5 336C1772.5 316.5 1769 306 1732.5 283C1695.67 255.833 1608.9 199.6 1602.5 182C1595.51 167.687 1591.23 149.905 1582 131.5C1557.24 105.413 1554.37 85.4706 1554.04 83.0326Z" fill="black"/>
<path d="M43 202C40.2 203.6 38.1667 201.333 37.5 200C35.5205 193.666 42.5208 190.401 46.3812 189.526C46.4204 189.515 46.46 189.507 46.5 189.5C46.4607 189.509 46.4211 189.517 46.3812 189.526C44.0691 190.169 43.1639 198.067 43 202Z" fill="black"/>
<path d="M57 189.5V194.5C58.5 194.5 64 196.5 70.5 194.5C77 192.5 72 189.5 67 184.5C63 180.5 58.6667 186.167 57 189.5Z" fill="black"/>
<path d="M101 191C94.2 192.2 98.1667 193.833 101 194.5C106.5 196.333 117.5 198.5 117.5 192.5C117.5 185 113 187 112 189.5C111 192 104.5 191 101 191Z" fill="black"/>
<path d="M64.5 248L59.5 245L83 229.5L64.5 248Z" fill="black"/>
<path d="M64.5 293V299L73 297L67 287.5L64.5 293Z" fill="black"/>
<path d="M164 297C160 298.2 162.333 301.5 164 303C166 305.717 173 301 173 293C173 285 168 289 168.5 293C169 297 169 295.5 164 297Z" fill="black"/>
<path d="M216 165.5L213 172L224.5 178.5H229.5L216 165.5Z" fill="black"/>
<path d="M34.5 331C32 331.667 26.7 333.1 25.5 333.5L41.5 318.5L34.5 331Z" fill="black"/>
<path d="M78.5 349C74.1 353.4 73 349.5 73 347L78.5 341.5C80.3333 342.167 82.9 344.6 78.5 349Z" fill="black"/>
<path d="M85 448L73 435L78.5 431L86.5 441.5L85 448Z" fill="black"/>
<path d="M96 452C98.8 454 97.1667 457.167 96 458.5C97.6667 457.667 100.4 454.4 98 448C95 440 102.5 445 108.5 441.5C114.5 438 103 431 104.5 435C106 439 98 441.5 96 445C94 448.5 92.5 449.5 96 452Z" fill="black"/>
<path d="M128 462C127.2 464.8 122 460.833 119.5 458.5L123 448L128 454.5C128.333 455.833 128.8 459.2 128 462Z" fill="black"/>
<path d="M83 512.5L76 510C83.5 511.5 92.5 483.5 94 494C95.2 502.4 87.1667 509.833 83 512.5Z" fill="black"/>
<path d="M144.5 592L139 595V600L144.5 595V592Z" fill="black"/>
<path d="M111 610.5V615.5L123 610.5C123 609.833 121.6 608.2 116 607C110.4 605.8 110.333 608.833 111 610.5Z" fill="black"/>
<path d="M141 584C138.2 587.6 136.5 582.5 136 579.5L141 577.5C142.167 578.167 143.8 580.4 141 584Z" fill="black"/>
<path d="M262 577.5V584C264.833 584 270.5 583.1 270.5 579.5C270.5 575.9 264.833 576.667 262 577.5Z" fill="black"/>
<path d="M281.557 657.633C281.358 657.611 281.169 657.563 281 657.5C281.178 657.55 281.365 657.594 281.557 657.633C282.936 657.785 284.849 656.74 284.5 651.5C284 644 283 638 286.5 649C289.133 657.277 284.602 658.241 281.557 657.633Z" fill="black"/>
<path d="M1568.5 218.5V205H1571.5L1579 203L1568.5 218.5Z" fill="black"/>
<path d="M1566 122C1563.17 121 1557.7 117.9 1558.5 113.5C1559.5 108 1566 116.5 1566 122Z" fill="black"/>
<path d="M1561.5 69C1566 73.5 1574.5 69 1571.5 62C1569 59.5 1561.5 62 1561.5 69Z" fill="black"/>
<path d="M1748 164.5C1748.4 158.9 1742.5 155.833 1739.5 155C1741.5 155 1748.67 156.667 1752 157.5V164.5H1748Z" fill="black"/>
<path d="M1769.5 78C1757.1 76.8 1760.67 88.1667 1764 94V86.5C1764 80.5 1767.67 78.3334 1769.5 78Z" fill="black"/>
<path d="M1826 159.5L1808 143.5L1828 155L1826 159.5Z" fill="black"/>
<path d="M1823.5 113.5C1828 107.333 1835.9 93.8 1831.5 89C1827.1 84.2 1824.33 103.333 1823.5 113.5Z" fill="black"/>
<path d="M1796.5 271.5C1802.5 274.833 1815.4 280.7 1819 277.5C1816 282.333 1807.3 287.9 1796.5 271.5Z" fill="black"/>
<path d="M1724.5 234L1726.5 243H1731V236L1724.5 234Z" fill="black"/>
<path d="M1799.5 426.5V415L1805 412.5V430L1799.5 426.5Z" fill="black"/>
<path d="M1738.5 653L1742.5 647L1747 649.5L1744.5 655L1738.5 653Z" fill="black"/>
<path d="M1751 624V619H1755.5V624H1751Z" fill="black"/>
<path d="M1642 418.5L1635 412.5L1629 403V375L1632 371.5C1639.83 367.167 1655.9 357.9 1657.5 355.5L1677.5 353H1683.5L1686.5 347.5C1682.17 344.167 1673.9 334 1675.5 320C1675.33 317.167 1675.9 309.8 1679.5 303V293.5L1675.5 287.5H1686.5L1684 281L1690 286H1700L1705 281V287.5H1714.5L1711.5 291.5C1711.83 294.667 1711.9 301.4 1709.5 303C1715 311.44 1721.8 332.156 1705 347.5L1708.5 353H1711.5L1725.5 357.5L1732.5 368.5C1737 369.833 1745.9 375.1 1745.5 385.5L1770 412.5C1775.33 408.333 1909.1 384.3 1913.5 385.5V415.5L1852.5 412.5L1781 431.5C1777.83 436 1768.7 444.6 1757.5 443L1754.5 447C1753.5 443.833 1752.7 436.9 1757.5 434.5C1752.83 425.833 1742.4 407.8 1738 405C1738.83 400.833 1738.6 392.2 1731 391C1726.17 386.167 1715.1 374.9 1709.5 368.5C1705 365.833 1692.7 362.1 1679.5 368.5C1676.67 371 1671.5 378.7 1673.5 389.5C1670.67 386.167 1666.7 377.3 1673.5 368.5C1667.67 369 1655.6 371 1654 375C1651.33 379.667 1646.6 390 1649 394L1655.5 403C1652.67 401.5 1646.5 397.6 1644.5 394C1644.17 390.333 1644.2 381.4 1647 375L1657.5 364.5C1653.5 365.667 1643.7 369.4 1636.5 375C1634.83 379.167 1632.2 390.3 1635 401.5C1635.33 402.829 1635.6 403.923 1635.82 404.811L1642 418.5Z" fill="black"/>
<path d="M313.5 233.5L320.5 227.5L326.5 218V190L323.5 186.5C315.667 182.167 299.6 172.9 298 170.5L278 168H272L269 162.5C273.333 159.167 281.6 149 280 135C280.167 132.167 279.6 124.8 276 118V108.5L280 102.5H269L271.5 96L265.5 101H255.5L250.5 96V102.5H241L244 106.5C243.667 109.667 243.6 116.4 246 118C240.5 126.44 233.7 147.156 250.5 162.5L247 168H244L230 172.5L223 183.5C218.5 184.833 209.6 190.1 210 200.5L185.5 227.5C180.167 223.333 168.4 215.3 164 216.5V246.5H174.5C177.667 251 186.8 259.6 198 258L201 262C202 258.833 202.8 251.9 198 249.5C202.667 240.833 213.1 222.8 217.5 220C216.667 215.833 216.9 207.2 224.5 206C229.333 201.167 240.4 189.9 246 183.5C250.5 180.833 262.8 177.1 276 183.5C278.833 186 284 193.7 282 204.5C284.833 201.167 288.8 192.3 282 183.5C287.833 184 299.9 186 301.5 190C304.167 194.667 308.9 205 306.5 209L300 218C302.833 216.5 309 212.6 311 209C311.333 205.333 311.3 196.4 308.5 190L298 179.5C302 180.667 311.8 184.4 319 190C320.667 194.167 323.3 205.3 320.5 216.5C320.168 217.829 319.898 218.923 319.682 219.811L313.5 233.5Z" fill="black"/>
</svg>
