<svg width="19" height="29" viewBox="0 0 19 29" fill="none" xmlns="http://www.w3.org/2000/svg">
<path d="M17.643 29C17.2831 28.9996 16.9379 28.8909 16.6823 28.6976L6.22296 20.7157H1.35695C0.997062 20.7157 0.651917 20.6066 0.397441 20.4124C0.142964 20.2182 0 19.9548 0 19.6801V9.32471C0 9.05006 0.142964 8.78667 0.397441 8.59247C0.651917 8.39827 0.997062 8.28916 1.35695 8.28916H6.22296L16.6823 0.307208C16.8716 0.160984 17.1137 0.0611476 17.3777 0.0204568C17.6416 -0.020234 17.9155 6.92147e-05 18.1643 0.0787721C18.4131 0.157475 18.6255 0.291003 18.7744 0.46229C18.9232 0.633578 19.0018 0.834846 19 1.04037V27.9645C19 28.2391 18.857 28.5025 18.6025 28.6967C18.3481 28.8909 18.0029 29 17.643 29Z" fill="#E90000"/>
</svg>
