<svg width="1336" height="813" viewBox="0 0 1336 813" fill="none" xmlns="http://www.w3.org/2000/svg">
<path d="M543.781 630.416V812.904H614.648V630.416H685.515V812.904H763.469V630.416H827.25V319.355H878V0H480V630.416H543.781Z" fill="black"/>
<path d="M536.694 282.028V49.7693H830.793V282.028H536.694Z" fill="white"/>
<path d="M607.562 182.489V120.277H671.343V182.489H607.562Z" fill="#333333"/>
<path d="M735.123 182.489V120.277H788.274V182.489H735.123Z" fill="#333333"/>
<path d="M266.633 497.188C265.982 496.618 265.534 496.333 265.29 496.333C264.965 496.333 264.558 496.496 264.069 496.821L262.238 496.455C263.052 495.967 263.866 495.723 264.68 495.723C264.68 494.827 264.273 494.38 263.459 494.38H262.727C261.587 495.275 260.651 495.885 259.919 496.211L258.942 495.967V495.723C258.78 495.723 258.576 495.804 258.332 495.967L251.862 494.99C253.734 493.037 256.094 491.125 258.942 489.253C263.662 488.439 268.382 486.974 273.103 484.858C273.103 484.289 272.858 482.132 272.37 478.389C273.672 471.39 274.323 466.873 274.323 464.839V450.801L274.934 447.505C274.12 447.505 273.713 446.65 273.713 444.941H273.103V451.411H272.37C271.556 451.411 271.149 450.964 271.149 450.068V449.458C271.149 445.389 271.556 439.163 272.37 430.781C271.556 429.398 271.149 428.34 271.149 427.607C270.254 427.607 269.807 428.258 269.807 429.561H268.586C267.691 429.561 267.04 426.997 266.633 421.87C265.168 419.917 263.662 418.818 262.116 418.574V416.011C262.116 415.604 262.564 413.895 263.459 410.884V409.663C261.831 409.663 260.122 405.798 258.332 398.066V396.724C257.03 396.724 256.379 396.317 256.379 395.503L255.036 396.113H254.426L253.083 390.376V386.47C253.083 384.761 253.327 382.401 253.815 379.39V378.779H253.083C253.083 381.79 252.229 383.296 250.52 383.296V385.249H249.299L248.688 380.732C249.095 379.837 249.299 379.186 249.299 378.779C247.183 374.303 244.823 368.078 242.219 360.103H240.876V361.445H239.655L239.045 355.586H239.655C237.377 353.796 235.668 349.32 234.528 342.158H233.918V344.111H232.575V333.735C232.657 332.922 233.104 332.515 233.918 332.515C234.081 333.654 235.139 334.712 237.092 335.688C237.173 334.875 237.58 334.468 238.312 334.468C238.312 334.875 238.557 335.078 239.045 335.078C239.208 332.067 239.818 330.562 240.876 330.562L241.608 331.904V335.078H243.439C243.602 332.962 244.253 331.904 245.393 331.904H246.735V333.735H248.688C248.688 332.677 249.95 331.619 252.473 330.562L253.815 331.172C253.815 329.951 254.222 329.341 255.036 329.341C257.233 330.48 258.332 332.393 258.332 335.078H260.896C260.896 332.474 261.302 331.172 262.116 331.172C263.011 331.172 263.459 331.823 263.459 333.125H264.68C267.04 330.114 268.545 328.608 269.196 328.608C270.58 330.887 272.492 332.189 274.934 332.515V331.172H275.666C277.131 331.172 278.392 333.735 279.45 338.862C280.752 338.862 281.403 339.513 281.403 340.815L280.793 344.722V345.332C280.874 346.227 281.281 346.675 282.014 346.675C282.014 346.187 282.258 345.942 282.746 345.942C286.164 353.185 287.873 359.207 287.873 364.009C288.85 364.009 289.908 366.776 291.047 372.31H291.657C291.657 371.903 291.901 371.699 292.39 371.699L293 373.042L291.657 374.873C292.146 375.768 292.39 376.419 292.39 376.826L294.953 374.873L295.563 376.216C295.563 377.03 295.116 377.437 294.221 377.437C294.221 377.03 294.017 376.826 293.61 376.826L293 378.169V380C296.011 377.965 297.517 374.751 297.517 370.356C299.632 370.356 301.138 367.142 302.033 360.713C308.869 341.589 312.938 331.335 314.24 329.951L317.414 329.341C317.495 330.155 317.902 330.562 318.635 330.562H322.541L324.494 329.341L328.278 332.515C328.929 332.515 330.028 331.213 331.574 328.608C332.388 328.771 332.795 329.219 332.795 329.951C332.388 329.951 332.185 330.155 332.185 330.562H333.527C333.527 329.585 334.382 328.73 336.091 327.998H336.701L342.438 330.562C342.845 329.259 344.147 328.608 346.345 328.608L348.298 331.172C349.763 330.358 351.472 329.951 353.425 329.951H354.035V331.904H355.988V330.562H356.599C358.308 331.457 359.162 332.515 359.162 333.735C359.162 338.293 357.453 344.111 354.035 351.191C350.048 358.19 346.833 366.938 344.392 377.437C340.974 380.692 335.847 392.695 329.011 413.447V415.4C327.302 415.4 326.447 416.051 326.447 417.354C324.982 419.551 323.477 423.823 321.931 430.171C321.035 430.252 320.588 430.7 320.588 431.514C320.995 436.803 321.198 439.57 321.198 439.814C321.198 441.605 320.14 444.616 318.024 448.848C318.024 449.255 318.228 449.458 318.635 449.458L318.024 452.632V457.759H319.978V459.712C317.618 461.014 316.112 461.665 315.461 461.665C315.868 462.072 316.071 463.577 316.071 466.182H315.461V467.402C315.461 467.891 315.909 469.6 316.804 472.529V473.262L314.851 486.689C315.909 487.585 316.966 488.032 318.024 488.032V491.206L318.635 495.723L315.461 496.333V498.896C315.461 501.908 315.054 503.413 314.24 503.413L314.851 504.756V505.366C314.851 506.261 314.403 506.709 313.508 506.709H312.897L312.287 502.803C313.101 502.803 313.508 502.355 313.508 501.46V500.239H312.287C311.636 500.239 310.985 500.89 310.334 502.192V502.803L310.944 505.977C310.212 505.977 308.503 507.075 305.817 509.272V511.104C307.201 509.883 309.764 509.028 313.508 508.54C313.508 509.435 314.159 509.883 315.461 509.883C316.193 509.476 316.844 509.272 317.414 509.272V504.756H318.024C318.92 504.837 319.367 505.244 319.367 505.977V507.319C318.472 510.33 318.024 512.039 318.024 512.446V515.01C315.257 517.126 313.142 518.184 311.677 518.184L308.991 516.963V517.573C308.991 518.875 309.886 519.526 311.677 519.526V520.747H307.771V522.09C310.782 522.09 312.287 524.857 312.287 530.391C314.403 533.646 315.461 536.209 315.461 538.081C315.461 538.976 315.054 539.424 314.24 539.424C313.02 537.389 311.921 534.622 310.944 531.123L309.724 530.391C308.666 531.286 308.015 531.733 307.771 531.733L308.381 534.907C308.381 535.802 307.974 536.25 307.16 536.25C306.509 536.25 305.41 533.239 303.864 527.217C305.573 521.927 306.428 518.509 306.428 516.963H304.597C304.597 518.265 304.149 518.916 303.254 518.916H302.033C299.755 515.417 298.452 513.667 298.127 513.667C295.116 515.539 293.61 516.841 293.61 517.573L294.221 520.747C294.546 520.747 295.645 519.242 297.517 516.23C298.33 516.393 298.737 516.841 298.737 517.573C298.737 519.608 295.767 522.619 289.826 526.606C289.175 528.315 288.524 529.17 287.873 529.17H285.92V528.56L287.141 524.043C286.327 523.555 285.716 523.311 285.31 523.311V522.09H288.483C289.053 522.09 290.355 520.788 292.39 518.184C292.39 517.37 291.942 516.963 291.047 516.963C289.663 517.777 288.605 518.184 287.873 518.184C283.967 517.533 282.014 516.678 282.014 515.62L277.619 516.23L266.267 502.192H267.243C269.44 502.192 271.394 501.094 273.103 498.896C270.905 498.083 269.807 497.472 269.807 497.065L268.83 497.554L266.633 497.188ZM424.47 372.798C423.575 371.414 423.127 370.316 423.127 369.502H422.517C420.645 371.699 419.546 372.798 419.221 372.798C418.814 371.903 418.61 371.252 418.61 370.845H417.878C413.565 376.623 411.408 382.93 411.408 389.766V391.719C411.408 395.706 412.263 398.555 413.972 400.264V400.874C412.832 404.048 411.774 406.042 410.798 406.855C411.205 408.158 411.612 408.809 412.019 408.809L411.408 411.372C411.408 412.349 411.612 413.203 412.019 413.936C411.205 420.69 410.798 429.642 410.798 440.791V446.65L411.408 450.557C411.001 451.208 410.798 452.306 410.798 453.853V455.806H409.455V458.491C409.536 459.305 409.984 459.712 410.798 459.712C410.31 460.607 410.065 461.258 410.065 461.665L410.798 464.961C409.903 465.042 409.455 465.49 409.455 466.304V473.506C409.455 474.157 411.612 475.459 415.925 477.412L417.268 476.68C418 477.168 418.854 477.412 419.831 477.412H420.563C421.215 477.412 422.069 475.662 423.127 472.163L421.174 470.82C420.767 471.634 420.563 472.529 420.563 473.506H418.61V472.773C418.61 471.471 419.261 470.82 420.563 470.82V468.867H419.221V470.21H417.878V469.6C418.773 465.286 419.221 462.886 419.221 462.397C418.326 462.397 417.878 461.746 417.878 460.444C420.563 456.375 421.906 453.73 421.906 452.51H419.831V453.853H418.61V451.289C420.238 451.289 422.191 448.644 424.47 443.354C423.575 443.354 422.72 441.849 421.906 438.838H421.174C421.174 440.221 420.97 441.32 420.563 442.134L421.906 444.697C421.011 446.65 420.116 447.749 419.221 447.993H418.61L419.221 444.087C418.814 440.262 418.61 436.966 418.61 434.199V432.979C419.994 430.374 420.848 429.072 421.174 429.072C419.872 424.678 419.221 422.033 419.221 421.138C420.116 419.998 420.563 418.493 420.563 416.621C419.668 416.133 419.017 415.889 418.61 415.889C417.959 418.086 417.308 419.185 416.657 419.185H415.925V416.621C416.576 414.831 418.122 413.936 420.563 413.936C421.459 414.098 421.906 414.546 421.906 415.278C422.883 415.278 425.487 414.627 429.719 413.325C430.207 413.732 431.306 413.936 433.015 413.936C433.422 413.203 433.625 412.349 433.625 411.372V406.123C433.625 400.996 433.828 392.939 434.235 381.953C433.584 381.953 432.73 379.552 431.672 374.751C429.068 373.205 427.766 371.048 427.766 368.281H427.033L424.47 372.798ZM416.657 404.17C416.657 404.821 419.058 407.669 423.859 412.715L422.517 413.325C419.912 412.267 417.064 409.867 413.972 406.123V404.78C414.948 404.78 415.843 404.577 416.657 404.17ZM428.376 417.964V418.574L431.672 417.964C431.672 420.975 432.323 422.48 433.625 422.48H434.235L433.015 415.889H430.329C429.678 415.889 429.027 416.58 428.376 417.964ZM423.127 416.621V419.917H424.47V417.964C424.47 417.069 424.022 416.621 423.127 416.621ZM425.812 419.185V419.917C425.894 420.731 426.301 421.138 427.033 421.138V419.185H425.812ZM428.376 425.044C430.573 428.462 431.875 430.659 432.282 431.636H433.015L434.235 431.025C434.235 430.537 434.032 430.293 433.625 430.293L434.235 427.119V423.823H432.282C431.062 423.823 429.759 424.23 428.376 425.044ZM425.08 425.776C425.975 429.683 427.074 431.636 428.376 431.636C429.271 431.636 429.719 431.188 429.719 430.293C427.521 428.258 426.423 426.305 426.423 424.434C425.528 424.515 425.08 424.963 425.08 425.776ZM414.704 433.589H415.314L415.925 436.885C415.925 439.082 415.721 442.337 415.314 446.65C415.721 446.65 415.925 446.854 415.925 447.261H415.314C414.257 447.261 413.605 446.406 413.361 444.697C414.257 438.838 414.704 435.135 414.704 433.589ZM407.502 436.152V442.134C408.316 442.134 408.723 441.686 408.723 440.791V436.152H407.502ZM429.719 440.791V442.134L431.062 446.65C432.364 446.243 433.015 444.941 433.015 442.744C433.015 442.093 432.364 441.442 431.062 440.791H429.719ZM426.423 455.195V455.806C426.83 456.701 427.033 457.352 427.033 457.759C425.975 458.654 424.917 459.102 423.859 459.102V459.712C423.941 460.607 424.348 461.055 425.08 461.055C426.87 460.404 428.173 459.305 428.986 457.759C428.173 457.759 427.766 456.904 427.766 455.195H426.423ZM427.033 468.257L425.812 467.524C424.51 468.013 423.859 468.46 423.859 468.867L424.47 472.163H425.08C429.068 469.559 431.062 468.013 431.062 467.524V466.914C431.062 466.019 430.614 465.571 429.719 465.571L427.033 468.257ZM425.812 476.069H426.423C427.155 475.662 428.01 475.459 428.986 475.459L431.062 476.68H432.282C431.875 475.866 431.672 475.215 431.672 474.727C431.672 474.32 431.875 472.611 432.282 469.6C430.329 469.6 428.173 471.756 425.812 476.069ZM411.408 470.21H412.751V472.773H411.408V470.21ZM423.859 497.31V495.723C423.859 495.153 422.11 493.607 418.61 491.084V495.967L415.925 495.234V494.38C415.111 493.322 414.704 492.671 414.704 492.427V491.084H416.657V489.863C416.657 488.968 416.21 488.521 415.314 488.521H414.704C414.216 492.427 413.565 494.38 412.751 494.38H411.408V484.614H409.455V487.178H408.723C407.909 487.178 407.502 486.73 407.502 485.835C406.2 485.835 405.549 486.486 405.549 487.788C404.654 487.788 404.206 487.381 404.206 486.567L404.816 485.225C403.758 482.214 402.904 480.708 402.253 480.708L401.643 481.929L402.253 489.863C401.927 495.479 401.032 498.286 399.567 498.286C397.614 493.973 396.109 491.816 395.051 491.816C395.62 489.131 396.271 487.788 397.004 487.788C398.306 490.962 398.957 493.159 398.957 494.38H399.567L400.3 488.521C399.73 488.521 398.632 487.218 397.004 484.614L397.614 481.929V481.318H397.004C397.004 483.027 396.353 483.882 395.051 483.882C395.051 486.323 394.603 489.619 393.708 493.77C394.603 493.851 395.051 494.258 395.051 494.99V495.723C393.505 496.13 392.65 496.333 392.487 496.333C388.988 493.729 387.238 491.776 387.238 490.474L387.849 486.567C386.953 486.567 386.506 486.12 386.506 485.225V478.755C386.506 477.86 386.099 477.412 385.285 477.412H384.553L385.285 481.929L384.553 485.225L385.285 488.521L383.942 499.629H382.6C382.6 497.676 382.844 492.874 383.332 485.225L382.6 479.365C382.6 478.958 383.495 473.953 385.285 464.351C386.994 464.351 387.849 461.299 387.849 455.195V451.899C389.151 451.899 389.802 451.452 389.802 450.557V447.261L388.459 447.993C387.645 447.993 387.238 447.546 387.238 446.65V430.293C387.238 428.258 387.442 426.102 387.849 423.823C387.442 422.033 387.238 420.283 387.238 418.574C387.645 414.668 387.849 412.267 387.849 411.372L386.506 410.762H385.896L384.553 411.372L385.285 412.715V415.889C385.285 416.377 385.041 416.621 384.553 416.621C384.553 417.028 384.797 417.231 385.285 417.231C385.285 417.72 385.041 418.371 384.553 419.185L385.285 423.823C385.285 425.776 384.634 427.729 383.332 429.683V435.542L382.6 440.181C384.39 440.343 385.285 440.994 385.285 442.134C385.285 443.192 385.041 444.901 384.553 447.261C385.041 451.737 385.285 454.382 385.285 455.195C385.285 458.369 383.739 464.676 380.646 474.116C380.321 477.616 379.67 479.365 378.693 479.365H377.351V476.68C377.351 468.867 378.042 464.961 379.426 464.961C379.426 465.368 379.629 465.571 380.036 465.571C380.036 460.363 381.135 457.759 383.332 457.759V456.416C383.332 454.463 382.884 452.754 381.989 451.289C382.884 447.79 383.332 445.145 383.332 443.354V440.791H382.6C382.6 443.477 381.949 445.43 380.646 446.65V449.336C380.646 449.743 380.891 449.946 381.379 449.946C380.484 454.178 379.385 458.084 378.083 461.665V462.397H376.74L380.036 437.495V434.199C380.036 432.165 379.833 430.008 379.426 427.729L380.646 416.621L378.693 415.278H378.083V430.293C378.083 436.315 377.432 440.018 376.13 441.401V443.354C376.13 452.632 375.235 458.084 373.444 459.712H372.224C373.037 451.981 373.444 445.674 373.444 440.791C372.386 441.686 371.532 442.134 370.881 442.134L371.491 443.354C370.677 445.552 369.375 446.65 367.585 446.65V447.261L368.195 450.557C366.893 450.801 366.242 452.55 366.242 455.806V460.444C366.242 461.258 365.835 461.665 365.021 461.665L364.289 460.444V453.242L366.242 440.181V438.838H365.632V440.791H364.289C364.289 438.919 364.086 436.519 363.679 433.589C364.086 426.183 364.289 418.981 364.289 411.982C364.289 411.576 364.533 411.372 365.021 411.372C364.533 410.477 364.289 409.826 364.289 409.419C364.777 407.873 365.021 407.018 365.021 406.855C364.533 405.96 364.289 405.269 364.289 404.78C364.289 404.373 364.533 404.17 365.021 404.17L364.289 399.653V378.657C364.289 371.821 366.934 363.317 372.224 353.145C378.734 346.227 381.989 342.524 381.989 342.036H383.332V344.111H385.285C385.285 342.891 386.343 341.792 388.459 340.815H389.191C390.087 340.815 390.534 341.466 390.534 342.769H391.145C391.145 341.466 393.098 338.171 397.004 332.881C397.411 334.264 397.858 334.956 398.347 334.956C400.3 333.735 404.003 332.637 409.455 331.66C409.455 330.358 409.903 329.707 410.798 329.707L413.361 332.271H414.704C414.704 330.968 415.111 330.317 415.925 330.317C416.82 330.317 417.268 331.172 417.268 332.881H417.878C420.726 331.172 422.272 329.666 422.517 328.364H425.08C425.975 328.364 426.423 329.219 426.423 330.928L431.062 330.317C431.062 331.619 432.119 332.271 434.235 332.271C434.235 331.294 434.479 330.439 434.968 329.707L442.78 332.881C443.513 332.474 444.367 332.271 445.344 332.271C445.344 333.817 447.744 334.915 452.546 335.566C454.743 338.171 457.347 339.473 460.358 339.473V343.379C461.335 343.379 462.23 343.623 463.044 344.111V342.036H463.654C466.258 343.745 468.008 346.39 468.903 349.971C472.81 351.761 474.763 355.016 474.763 359.736L476.105 359.126C477.814 360.835 479.117 363.887 480.012 368.281C479.605 369.99 479.401 371.496 479.401 372.798L480.622 372.188H481.354L481.965 378.047C481.965 381.383 481.761 384.435 481.354 387.202C481.761 391.759 481.965 396.764 481.965 402.217V408.076C481.965 408.564 481.761 408.809 481.354 408.809L481.965 410.029V411.372C481.965 411.779 481.761 411.982 481.354 411.982C481.354 412.471 481.558 412.715 481.965 412.715L481.354 420.527V428.34C481.354 429.316 481.558 430.212 481.965 431.025C481.558 431.758 481.354 432.612 481.354 433.589C481.354 435.623 481.558 437.821 481.965 440.181C481.558 447.912 480.907 452.266 480.012 453.242C480.907 453.242 481.354 453.893 481.354 455.195C481.354 456.497 481.11 458.003 480.622 459.712C481.11 461.991 481.354 464.188 481.354 466.304V467.524C481.354 468.013 481.11 468.257 480.622 468.257C480.622 468.664 480.866 468.867 481.354 468.867C480.378 479.365 479.076 484.614 477.448 484.614C477.123 489.416 476.472 491.816 475.495 491.816H474.763V485.225H472.199V482.661L472.81 481.318C471.914 481.318 471.263 478.714 470.856 473.506C471.833 473.506 472.728 470.658 473.542 464.961C474.356 464.961 475.007 463.008 475.495 459.102V457.148H474.763C474.763 459.753 474.112 461.055 472.81 461.055C472.81 461.462 473.054 461.665 473.542 461.665C472.647 464.595 470.897 466.792 468.293 468.257C468.293 469.966 468.049 470.82 467.561 470.82C467.561 471.064 467.805 471.96 468.293 473.506C467.805 478.958 467.561 482.01 467.561 482.661L468.293 485.835C466.503 485.998 465.607 487.747 465.607 491.084C466.503 491.084 466.95 492.386 466.95 494.99H464.997V498.286C463.288 500.158 462.434 501.46 462.434 502.192L463.044 505.488C463.044 508.581 461.742 511.632 459.138 514.644C455.231 513.748 453.278 512.65 453.278 511.348V506.831C453.278 502.925 451.936 500.28 449.25 498.896C450.227 495.885 451.122 494.38 451.936 494.38C451.936 494.787 452.139 494.99 452.546 494.99C453.034 494.176 453.278 493.525 453.278 493.037V488.521H452.546V492.427H451.203C451.203 490.718 450.552 489.863 449.25 489.863H448.64L447.297 496.943C447.297 498.164 448.396 499.914 450.593 502.192L449.25 502.925L448.029 502.192C448.029 502.762 447.826 503.169 447.419 503.413L446.442 503.169C446.198 502.437 446.076 501.012 446.076 498.896H445.344C445.344 500.28 444.693 500.972 443.391 500.972V502.314L423.859 497.31ZM565.583 319.575H566.804V322.139H565.583V319.575ZM546.54 385.859H547.883V391.719H546.54V385.859ZM559.602 450.068V451.411C559.764 452.306 560.212 452.754 560.944 452.754V450.068H559.602ZM566.804 451.411L567.536 452.754V453.364H566.193V457.271C566.193 458.166 565.542 458.613 564.24 458.613V459.956C564.24 465.164 565.095 467.769 566.804 467.769V465.815L565.583 463.862C567.292 460.851 568.391 456.253 568.879 450.068L566.804 451.411ZM537.995 450.801V453.364H538.605L541.901 452.754V450.801H537.995ZM544.587 458.003V459.346C546.621 461.136 548.575 463.944 550.446 467.769C553.05 473.791 554.353 477.738 554.353 479.609C555.004 479.609 555.899 478.755 557.038 477.046C556.631 476.232 556.428 475.337 556.428 474.36C557.73 474.36 558.381 473.709 558.381 472.407C556.184 469.315 555.085 467.362 555.085 466.548H555.695L558.381 468.501V465.205C558.055 463.659 555.858 461.462 551.789 458.613C551.789 458.125 550.69 457.026 548.493 455.317H547.883C545.686 456.538 544.587 457.433 544.587 458.003ZM553.742 458.003V458.613C553.824 459.508 554.271 459.956 555.085 459.956L555.695 458.613L554.353 458.003H553.742ZM537.995 463.252C538.402 463.903 538.605 465.002 538.605 466.548H537.995C537.995 469.152 539.541 470.454 542.634 470.454V471.064L541.291 473.018V473.75C543.488 473.75 544.587 475.052 544.587 477.656L547.883 477.046L549.104 477.656V475.703H547.15V474.36C549.348 474.36 550.446 473.913 550.446 473.018C550.446 470.739 548.493 467.036 544.587 461.909H543.244L541.901 462.52C541.901 462.031 541.25 461.38 539.948 460.566C538.89 460.566 538.239 461.462 537.995 463.252ZM553.742 485.591C554.068 486.893 554.963 487.747 556.428 488.154V486.812C556.428 485.998 555.98 485.591 555.085 485.591H553.742ZM558.991 488.154C558.991 491.41 559.642 493.159 560.944 493.403L560.334 490.107V488.154H558.991ZM534.699 489.497V493.403H536.042L536.652 490.107L535.432 489.497H534.699ZM529.816 520.259H530.183C530.834 520.259 531.485 519.404 532.136 517.695C531.241 516.393 530.793 514.644 530.793 512.446H530.183L528.84 517.085L529.45 519.893L523.103 515.254C522.696 512.65 522.207 511.063 521.638 510.493L522.248 509.15L518.952 507.197C518.22 507.604 517.365 507.808 516.389 507.808L515.046 505.854V504.512C515.046 502.152 517.447 498.245 522.248 492.793V490.107C522.248 489.782 521.8 488.032 520.905 484.858V482.905C519.766 482.905 518.464 481.359 516.999 478.267C517.406 475.988 517.609 474.035 517.609 472.407C516.796 472.407 516.389 471.756 516.389 470.454C515.493 470.454 514.842 471.756 514.436 474.36H513.703C512.808 474.36 512.36 473.709 512.36 472.407C510.651 472.814 509.797 474.116 509.797 476.313V478.267C509.797 481.685 510 484.777 510.407 487.544L509.187 496.699H507.844C507.844 495.153 508.047 490.555 508.454 482.905L507.844 477.046C507.844 474.36 509.593 466.914 513.093 454.707V451.411C512.198 450.353 511.75 449.702 511.75 449.458C512.157 447.017 512.36 445.267 512.36 444.209H511.14C510.244 444.453 509.797 444.901 509.797 445.552L510.407 451.411C510.407 457.026 509.105 462.926 506.501 469.111H505.891V471.797C505.891 475.052 505.24 476.802 503.938 477.046H502.595V474.36C502.595 467.606 503.693 462.804 505.891 459.956C505.891 456.864 506.745 455.317 508.454 455.317V454.097C507.559 451.004 507.111 449.255 507.111 448.848H505.891V449.458C505.891 452.388 504.995 455.684 503.205 459.346V460.566H501.252V456.66C502.147 456.009 503.042 452.062 503.938 444.819C504.344 444.819 504.548 444.616 504.548 444.209V442.866C504.548 441.89 504.344 441.035 503.938 440.303C504.751 438.838 505.158 437.536 505.158 436.396V433.711C505.158 430.781 504.955 428.177 504.548 425.898C504.955 423.701 505.158 421.056 505.158 417.964C505.158 417.638 504.955 415.889 504.548 412.715H503.205V433.101C503.205 435.379 502.554 437.332 501.252 438.96C501.252 439.855 501.455 440.303 501.862 440.303C501.13 450.964 499.828 457.311 497.956 459.346C497.956 459.997 497.305 460.648 496.003 461.299H495.393V460.566C497.59 458.206 498.688 450.801 498.688 438.35C497.549 439.163 496.654 439.57 496.003 439.57L496.613 440.913C495.881 443.11 494.579 444.209 492.707 444.209V444.819L493.439 448.115C491.975 448.115 491.079 453.161 490.754 463.252H489.411C489.411 461.462 489.208 459.061 488.801 456.05L491.364 436.396C490.062 436.396 489.411 435.949 489.411 435.054C489.411 433.426 489.655 427.933 490.144 418.574C490.144 417.272 489.899 415.767 489.411 414.058C489.899 411.209 490.144 408.361 490.144 405.513V403.56C490.144 398.433 489.899 393.184 489.411 387.812C489.411 386.836 489.655 385.941 490.144 385.127C489.655 379.023 489.411 373.774 489.411 369.38V337.886C491.201 333.573 492.3 331.416 492.707 331.416L493.439 332.637V335.933H494.05L497.346 330.684C498.241 330.684 498.688 332.026 498.688 334.712H500.642C500.642 333.328 502.391 332.23 505.891 331.416C505.972 330.521 506.379 330.073 507.111 330.073C509.309 331.294 510.407 333.247 510.407 335.933H513.093V332.637C513.174 331.823 513.622 331.416 514.436 331.416C515.249 331.416 515.656 332.271 515.656 333.979H516.999C517.325 333.979 518.627 332.677 520.905 330.073H521.638C522.451 330.073 522.858 330.928 522.858 332.637H524.201C526.968 330.928 529.816 330.073 532.746 330.073C534.211 331.619 535.31 335.119 536.042 340.571C536.937 340.815 537.385 341.263 537.385 341.914V359.614C537.385 362.463 537.141 365.311 536.652 368.159L537.995 378.657C537.1 378.82 536.652 379.227 536.652 379.878V380.61C536.815 385.005 537.263 387.202 537.995 387.202C537.1 393.306 536.652 397.456 536.652 399.653L537.385 402.827L536.652 404.17C536.652 404.414 536.896 405.309 537.385 406.855C536.896 411.982 536.652 415.685 536.652 417.964C537.548 423.254 537.995 426.305 537.995 427.119C537.995 429.479 537.344 435.623 536.042 445.552C536.042 448.156 539.094 449.458 545.197 449.458V448.848C545.197 447.546 545.645 446.895 546.54 446.895H547.883V448.848H545.93C545.93 449.336 547.883 450.19 551.789 451.411V452.754L556.428 452.144V450.801L553.742 448.115L555.085 447.505C556.387 447.505 557.038 448.359 557.038 450.068H557.648C558.544 450.068 558.991 449.661 558.991 448.848V435.054H560.944V432.368C560.944 431.88 560.497 428.381 559.602 421.87V416.011C559.602 415.116 559.195 414.668 558.381 414.668L558.991 408.076V394.404C558.991 390.579 559.195 387.935 559.602 386.47C559.195 382.645 558.991 379.39 558.991 376.704V358.271C558.991 354.121 558.788 349.076 558.381 343.135C558.869 334.427 560.375 330.073 562.897 330.073L566.193 330.684L566.804 329.463L568.146 330.073C568.96 329.666 569.855 329.463 570.832 329.463C570.832 330.195 572.582 330.846 576.081 331.416L577.302 330.684C579.987 330.684 581.33 331.579 581.33 333.369H583.894C583.894 331.172 584.341 330.073 585.236 330.073C585.643 330.968 585.847 331.619 585.847 332.026L592.438 331.416L598.298 332.026C598.298 330.317 598.745 329.463 599.641 329.463C601.431 331.416 602.326 332.474 602.326 332.637L603.547 332.026C605.337 332.84 606.232 334.386 606.232 336.665V339.229C606.232 342.402 606.68 347.204 607.575 353.633C607.087 366.491 606.436 377.233 605.622 385.859C606.436 387.568 606.843 389.969 606.843 393.062V408.809C606.843 409.215 606.639 409.419 606.232 409.419L606.843 410.762C606.436 423.132 606.029 430.578 605.622 433.101C606.436 434.81 606.843 436.315 606.843 437.617C606.843 440.628 606.436 445.023 605.622 450.801C606.436 452.51 606.843 454.015 606.843 455.317C606.843 455.806 606.639 456.05 606.232 456.05C606.232 456.538 606.436 457.189 606.843 458.003C606.517 472 605.866 478.999 604.89 478.999L605.622 480.342V480.952C603.425 480.952 602.082 484.004 601.594 490.107H600.373V482.905H597.688V480.342L598.298 478.999C597.484 478.999 596.833 476.354 596.345 471.064C597.321 471.064 598.216 468.216 599.03 462.52C600.007 462.52 600.658 460.566 600.983 456.66V454.707H600.373C600.373 457.311 599.681 458.613 598.298 458.613C598.298 459.102 598.542 459.346 599.03 459.346C598.135 462.357 596.385 464.513 593.781 465.815C593.781 467.606 593.537 468.501 593.049 468.501C593.049 468.745 593.293 469.6 593.781 471.064C593.293 476.598 593.049 479.691 593.049 480.342L593.781 483.516H591.096C590.689 482.783 590.485 482.132 590.485 481.562H589.143L586.579 485.591H585.236L585.847 478.999V476.313L584.626 477.046V475.703C584.626 473.18 585.033 470.535 585.847 467.769C585.44 464.106 585.236 461.055 585.236 458.613V452.144H583.894V470.454C583.894 471.431 583.69 472.285 583.283 473.018C584.178 475.052 584.626 477.9 584.626 481.562V482.905H583.283L583.894 489.497C582.591 489.497 581.94 489.945 581.94 490.84C582.836 491.247 583.487 491.45 583.894 491.45V496.089C583.812 498.774 583.609 501.012 583.283 502.803L580.598 504.268V498.042H578.645C577.993 501.541 577.22 504.43 576.325 506.709L570.954 510.005C571.28 509.11 571.442 508.174 571.442 507.197C570.547 504.593 569.693 503.291 568.879 503.291C568.879 504.593 568.635 506.099 568.146 507.808L568.879 509.15C568.391 510.127 568.065 511.022 567.902 511.836L566.56 512.568C565.909 511.673 564.484 510.981 562.287 510.493V511.104C563.182 512.243 563.63 513.138 563.63 513.789H564.606L560.944 515.864C560.537 515.457 560.09 514.969 559.602 514.399H558.991C558.991 516.19 558.544 517.085 557.648 517.085C556.835 517.085 556.428 516.637 556.428 515.742H557.648L557.038 512.446V510.493L557.648 507.197C555.288 507.197 553.783 505.448 553.132 501.948H551.179V506.587L548.493 509.761L549.104 511.104V512.446C549.104 513.341 548.697 513.789 547.883 513.789H546.54C546.54 512.487 545.441 511.144 543.244 509.761L541.291 514.399C541.291 515.783 542.146 517.533 543.854 519.648V520.259C543.854 521.154 543.448 521.602 542.634 521.602C538.239 516.393 535.839 513.789 535.432 513.789V514.399C537.141 517.899 537.995 520.299 537.995 521.602C536.693 521.602 536.042 522.7 536.042 524.897L532.136 521.968V521.602H531.647L529.816 520.259ZM728.303 515.498C729.198 514.359 730.297 513.016 731.599 511.47V510.249C731.11 510.249 729.646 511.47 727.204 513.911H726.594V513.301C727.245 512.568 728.303 510.29 729.768 506.465V505.122H729.157C727.041 508.052 725.78 509.517 725.373 509.517C724.722 509.517 723.664 507.645 722.199 503.901L720.979 504.512H720.368L719.147 503.901L719.758 497.676V495.112C720.979 493.485 721.996 490.962 722.81 487.544L721.589 479.365C721.996 478.633 722.199 477.616 722.199 476.313H720.368C719.961 476.313 719.758 476.517 719.758 476.924L715.363 474.971L714.753 476.313V480.708L715.974 482.539C714.834 482.539 713.98 484.858 713.41 489.497H712.189V486.323C712.189 484.533 712.393 482.865 712.8 481.318L710.358 468.745H709.626C709.626 473.384 709.016 475.703 707.795 475.703V477.534L709.016 479.365C708.202 481.888 707.388 483.149 706.574 483.149C706.574 479.894 705.516 477.819 703.4 476.924L702.79 478.145V484.492H701.569C700.674 484.492 700.227 484.045 700.227 483.149C700.633 478.918 700.837 475.581 700.837 473.14C701.732 472.407 702.383 469.274 702.79 463.74H700.837V462.52C700.837 460.729 700.43 459.02 699.616 457.393C700.023 456.579 700.227 455.968 700.227 455.562H699.616L700.227 454.341V452.998L696.442 452.388C696.035 456.213 695.425 458.125 694.611 458.125L693.391 456.172V451.777L694.001 447.993L693.391 446.772C693.635 443.11 694.245 440.791 695.222 439.814V439.204L693.391 436.763V436.152C695.425 436.152 696.442 435.298 696.442 433.589V431.758H695.832C695.832 433.792 695.425 434.81 694.611 434.81C694.204 434.81 693.35 433.996 692.048 432.368C692.699 430.741 693.35 426.346 694.001 419.185V418.452H693.391C691.763 420.161 690.705 424.596 690.217 431.758C689.81 431.758 689.606 432.165 689.606 432.979C690.827 433.385 691.438 434.647 691.438 436.763V442.988C691.438 445.592 690.624 449.987 688.996 456.172C688.996 456.986 688.549 457.393 687.653 457.393H686.433C686.433 456.09 687.491 449.214 689.606 436.763V434.81C688.549 435.705 687.694 436.152 687.043 436.152V437.983L686.433 441.157H685.212L685.822 439.814C684.764 439.814 684.113 438.146 683.869 434.81C684.195 428.136 684.846 424.8 685.822 424.8C686.636 424.8 687.043 425.654 687.043 427.363H687.653C688.549 427.363 688.996 426.916 688.996 426.021C688.996 423.335 689.2 419.144 689.606 413.447C687.897 414.017 687.043 415.075 687.043 416.621H685.822V416.011C685.822 415.034 686.026 414.18 686.433 413.447C686.433 413.04 686.229 412.837 685.822 412.837L687.043 401.606V400.874H686.433C686.433 402.99 685.822 404.048 684.602 404.048C684.602 410.721 683.747 414.058 682.038 414.058H681.428V412.227H680.817C679.922 412.308 679.475 412.715 679.475 413.447V419.185H680.207V417.842H680.817C681.631 418.005 682.038 418.452 682.038 419.185C682.038 419.998 681.428 420.405 680.207 420.405V425.41H681.428V426.631H678.864V426.021C674.063 397.537 671.133 383.296 670.075 383.296V376.46L668.854 374.507V363.887C668.122 362.503 667.064 358.516 665.681 351.924C665.274 351.924 665.07 351.72 665.07 351.313V345.698C665.07 344.722 664.867 343.867 664.46 343.135C664.46 342.728 664.663 342.524 665.07 342.524L664.46 339.351V333.735H665.681V334.956H667.634C667.634 333.735 668.651 332.922 670.686 332.515C670.848 331.619 671.296 331.172 672.028 331.172C672.842 331.172 673.249 332.23 673.249 334.346H674.47C674.877 331.416 675.528 329.951 676.423 329.951C677.237 329.951 677.644 330.602 677.644 331.904C677.644 332.881 677.44 334.549 677.033 336.909V338.13H677.644V334.956H678.254L681.428 335.566C681.428 333.125 682.038 331.904 683.259 331.904L684.602 332.515L683.869 333.735V336.299H684.602C684.602 334.59 685.008 333.735 685.822 333.735H687.043V334.956H688.996C688.996 333.328 689.403 332.515 690.217 332.515C692.089 335.037 693.35 336.299 694.001 336.299C694.001 335.648 695.262 333.735 697.785 330.562L698.396 331.904V334.956C698.802 334.956 699.413 335.16 700.227 335.566C700.227 334.346 700.674 332.881 701.569 331.172C702.79 331.172 703.4 332.23 703.4 334.346C704.214 334.346 704.621 333.735 704.621 332.515H705.964V333.125L705.231 337.52C708.161 339.066 709.626 343.053 709.626 349.482V350.093C709.626 351.558 709.423 353.429 709.016 355.708L711.579 367.671C711.172 370.519 710.969 372.798 710.969 374.507V375.85C710.969 378.047 711.579 379.919 712.8 381.465V399.043L714.021 400.874V407.222C714.021 410.558 714.265 414.546 714.753 419.185L712.8 422.847C713.207 422.847 713.858 423.091 714.753 423.579C716.218 421.87 717.886 416.214 719.758 406.611C720.979 406.611 721.589 405.96 721.589 404.658C721.182 399.45 720.979 396.317 720.979 395.259C723.501 370.438 725.17 355.993 725.983 351.924H723.542V350.703C726.309 350.703 728.181 345.251 729.157 334.346C729.564 334.346 730.622 333.084 732.331 330.562H732.941C734.976 330.562 736.848 331.823 738.557 334.346C741.975 331.823 743.846 330.562 744.172 330.562C745.067 330.562 745.515 331.213 745.515 332.515H746.125L747.956 331.172L752.351 331.904C752.432 331.009 752.839 330.562 753.571 330.562H757.966C758.861 330.562 759.309 331.416 759.309 333.125H760.529L764.313 329.341C770.173 330.073 773.103 332.596 773.103 336.909C774.812 342.443 777.131 355.627 780.061 376.46C780.467 380.122 780.671 382.401 780.671 383.296C780.264 385.656 780.061 387.568 780.061 389.033C780.956 389.033 781.77 391.759 782.502 397.212H783.112C783.845 396.724 784.699 396.479 785.676 396.479V398.433C783.56 398.433 782.502 398.84 782.502 399.653C782.909 403.315 783.112 405.635 783.112 406.611C782.705 407.425 782.502 408.035 782.502 408.442C783.316 408.524 783.723 408.931 783.723 409.663V414.058L785.065 418.452H785.676L792.512 353.145L794.465 340.693L793.854 339.351C793.854 333.898 795.319 331.172 798.249 331.172L800.08 329.341C800.487 329.341 801.341 330.195 802.644 331.904C805.166 331.009 806.835 330.562 807.648 330.562C807.73 331.457 808.137 331.904 808.869 331.904H810.09C810.09 330.195 810.537 329.341 811.433 329.341C812.246 329.341 812.653 329.951 812.653 331.172H815.217C815.217 329.951 815.624 329.341 816.438 329.341L818.269 330.562H825.837C828.767 329.748 830.435 329.341 830.842 329.341C831.086 331.05 832.144 332.108 834.016 332.515V331.172H834.626C835.684 332.067 836.742 332.515 837.8 332.515V336.299C837.8 346.634 834.87 366.287 829.011 395.259C827.709 406.978 826.244 412.837 824.616 412.837C824.616 423.742 821.239 446.772 814.484 481.929L813.264 482.539L811.433 472.529H810.09V473.75H809.479V469.355H808.869C808.218 477.738 807.404 481.929 806.428 481.929H805.085V474.971C803.539 474.971 802.521 478.145 802.033 484.492H800.69V476.313H798.249V473.75L798.859 472.529C798.046 472.529 797.395 470.007 796.906 464.961C797.883 464.961 798.737 462.235 799.47 456.782C800.446 456.782 801.057 454.91 801.301 451.167V449.336H800.69C800.69 451.777 800.08 452.998 798.859 452.998C798.859 453.486 799.063 453.73 799.47 453.73C798.656 456.497 796.988 458.573 794.465 459.956C794.465 461.665 794.261 462.52 793.854 462.52C793.854 462.682 794.058 463.496 794.465 464.961C794.058 470.169 793.854 473.099 793.854 473.75L794.465 476.924H791.901C791.494 476.11 791.291 475.459 791.291 474.971H790.07C788.361 477.9 787.303 479.365 786.896 479.365H786.286L786.896 471.919V469.966H785.676L786.896 460.566C786.49 458.369 786.286 456.294 786.286 454.341H785.065V466.182C785.065 466.67 784.862 466.914 784.455 466.914L785.065 468.135V470.576C785.065 471.227 784.211 472.082 782.502 473.14C782.176 473.14 781.566 472.529 780.671 471.309L781.281 469.966V469.355H779.328C779.816 475.459 780.467 478.796 781.281 479.365H780.671L779.328 478.755V481.318H778.107V480.708C777.701 475.418 777.497 472.692 777.497 472.529C777.497 470.413 777.904 469.355 778.718 469.355C778.311 468.949 778.107 467.28 778.107 464.351H777.497C777.497 467.28 776.032 468.745 773.103 468.745H772.492C772.899 463.211 773.509 460.078 774.323 459.346V458.125C773.916 458.125 773.306 457.881 772.492 457.393C772.492 458.695 771.841 459.346 770.539 459.346V461.787C770.539 463.496 770.336 465.205 769.929 466.914L770.539 469.966C770.539 470.291 770.336 471.96 769.929 474.971L770.539 478.145C769.969 479.854 769.359 480.708 768.708 480.708H768.098V471.919C768.098 471.512 768.301 471.309 768.708 471.309L768.098 469.966V468.745C768.098 466.548 768.301 463.008 768.708 458.125H766.145V460.566C766.145 461.868 765.941 462.52 765.534 462.52C766.429 468.379 766.877 472.326 766.877 474.36C765.982 477.616 765.331 482.01 764.924 487.544L762.482 483.149L761.75 484.492V485.713C764.68 492.305 766.145 496.699 766.145 498.896C765.738 502.64 765.127 504.512 764.313 504.512H763.703C763.296 504.512 763.093 504.308 763.093 503.901L761.75 504.512H761.14C760.651 504.512 759.838 502.64 758.698 498.896C757.803 498.896 757.355 498.49 757.355 497.676L758.698 497.065C759.512 497.472 760.122 497.676 760.529 497.676V497.065C756.867 493.403 754.792 490.026 754.304 486.934L749.909 483.76C749.909 482.214 749.055 480.993 747.346 480.098V479.365C748.322 479.365 749.177 479.162 749.909 478.755C750.723 479.162 751.333 479.365 751.74 479.365C752.554 478.389 752.961 477.575 752.961 476.924C751.903 473.424 750.438 470.495 748.566 468.135V467.524C748.729 466.629 749.177 466.182 749.909 466.182H751.13V468.135C751.862 468.135 752.92 466.466 754.304 463.13V461.787C753.571 461.787 751.455 460.322 747.956 457.393H746.735C746.328 464.961 745.677 470.413 744.782 473.75C745.271 474.564 745.515 475.215 745.515 475.703V478.145C746.328 478.226 746.735 478.633 746.735 479.365C745.026 479.365 743.765 481.888 742.951 486.934V488.276C742.951 488.521 744.009 489.538 746.125 491.328V491.938H744.782L742.951 490.718C742.951 493.647 742.748 495.316 742.341 495.723L742.951 497.065C742.707 499.67 741.853 501.745 740.388 503.291C741.446 506.221 742.707 507.686 744.172 507.686L744.782 510.249C742.422 509.598 740.754 508.947 739.777 508.296C739.045 508.377 737.784 510.249 735.993 513.911C735.993 516.027 737.214 517.614 739.655 518.672L728.303 515.498ZM904.45 372.798C903.555 371.414 903.107 370.316 903.107 369.502H902.497C900.625 371.699 899.527 372.798 899.201 372.798C898.794 371.903 898.591 371.252 898.591 370.845H897.858C893.545 376.623 891.389 382.93 891.389 389.766V391.719C891.389 395.706 892.243 398.555 893.952 400.264V400.874C892.813 404.048 891.755 406.042 890.778 406.855C891.185 408.158 891.592 408.809 891.999 408.809L891.389 411.372C891.389 412.349 891.592 413.203 891.999 413.936C891.185 420.69 890.778 429.642 890.778 440.791V446.65L891.389 450.557C890.982 451.208 890.778 452.306 890.778 453.853V455.806H889.436V458.491C889.517 459.305 889.965 459.712 890.778 459.712C890.29 460.607 890.046 461.258 890.046 461.665L890.778 464.961C889.883 465.042 889.436 465.49 889.436 466.304V473.506C889.436 474.157 891.592 475.459 895.905 477.412L897.248 476.68C897.98 477.168 898.835 477.412 899.812 477.412H900.544C901.195 477.412 902.049 475.662 903.107 472.163L901.154 470.82C900.747 471.634 900.544 472.529 900.544 473.506H898.591V472.773C898.591 471.471 899.242 470.82 900.544 470.82V468.867H899.201V470.21H897.858V469.6C898.754 465.286 899.201 462.886 899.201 462.397C898.306 462.397 897.858 461.746 897.858 460.444C900.544 456.375 901.887 453.73 901.887 452.51H899.812V453.853H898.591V451.289C900.218 451.289 902.172 448.644 904.45 443.354C903.555 443.354 902.701 441.849 901.887 438.838H901.154C901.154 440.221 900.951 441.32 900.544 442.134L901.887 444.697C900.992 446.65 900.096 447.749 899.201 447.993H898.591L899.201 444.087C898.794 440.262 898.591 436.966 898.591 434.199V432.979C899.974 430.374 900.829 429.072 901.154 429.072C899.852 424.678 899.201 422.033 899.201 421.138C900.096 419.998 900.544 418.493 900.544 416.621C899.649 416.133 898.998 415.889 898.591 415.889C897.94 418.086 897.289 419.185 896.638 419.185H895.905V416.621C896.556 414.831 898.103 413.936 900.544 413.936C901.439 414.098 901.887 414.546 901.887 415.278C902.863 415.278 905.467 414.627 909.699 413.325C910.188 413.732 911.286 413.936 912.995 413.936C913.402 413.203 913.605 412.349 913.605 411.372V406.123C913.605 400.996 913.809 392.939 914.216 381.953C913.565 381.953 912.71 379.552 911.652 374.751C909.048 373.205 907.746 371.048 907.746 368.281H907.014L904.45 372.798ZM896.638 404.17C896.638 404.821 899.038 407.669 903.84 412.715L902.497 413.325C899.893 412.267 897.045 409.867 893.952 406.123V404.78C894.929 404.78 895.824 404.577 896.638 404.17ZM908.356 417.964V418.574L911.652 417.964C911.652 420.975 912.303 422.48 913.605 422.48H914.216L912.995 415.889H910.31C909.659 415.889 909.007 416.58 908.356 417.964ZM903.107 416.621V419.917H904.45V417.964C904.45 417.069 904.003 416.621 903.107 416.621ZM905.793 419.185V419.917C905.874 420.731 906.281 421.138 907.014 421.138V419.185H905.793ZM908.356 425.044C910.554 428.462 911.856 430.659 912.263 431.636H912.995L914.216 431.025C914.216 430.537 914.012 430.293 913.605 430.293L914.216 427.119V423.823H912.263C911.042 423.823 909.74 424.23 908.356 425.044ZM905.061 425.776C905.956 429.683 907.054 431.636 908.356 431.636C909.252 431.636 909.699 431.188 909.699 430.293C907.502 428.258 906.403 426.305 906.403 424.434C905.508 424.515 905.061 424.963 905.061 425.776ZM894.685 433.589H895.295L895.905 436.885C895.905 439.082 895.702 442.337 895.295 446.65C895.702 446.65 895.905 446.854 895.905 447.261H895.295C894.237 447.261 893.586 446.406 893.342 444.697C894.237 438.838 894.685 435.135 894.685 433.589ZM887.482 436.152V442.134C888.296 442.134 888.703 441.686 888.703 440.791V436.152H887.482ZM909.699 440.791V442.134L911.042 446.65C912.344 446.243 912.995 444.941 912.995 442.744C912.995 442.093 912.344 441.442 911.042 440.791H909.699ZM906.403 455.195V455.806C906.81 456.701 907.014 457.352 907.014 457.759C905.956 458.654 904.898 459.102 903.84 459.102V459.712C903.921 460.607 904.328 461.055 905.061 461.055C906.851 460.404 908.153 459.305 908.967 457.759C908.153 457.759 907.746 456.904 907.746 455.195H906.403ZM907.014 468.257L905.793 467.524C904.491 468.013 903.84 468.46 903.84 468.867L904.45 472.163H905.061C909.048 469.559 911.042 468.013 911.042 467.524V466.914C911.042 466.019 910.594 465.571 909.699 465.571L907.014 468.257ZM905.793 476.069H906.403C907.136 475.662 907.99 475.459 908.967 475.459L911.042 476.68H912.263C911.856 475.866 911.652 475.215 911.652 474.727C911.652 474.32 911.856 472.611 912.263 469.6C910.31 469.6 908.153 471.756 905.793 476.069ZM891.389 470.21H892.731V472.773H891.389V470.21ZM903.84 497.31V495.723C903.84 495.153 902.09 493.607 898.591 491.084V495.967L895.905 495.234V494.38C895.091 493.322 894.685 492.671 894.685 492.427V491.084H896.638V489.863C896.638 488.968 896.19 488.521 895.295 488.521H894.685C894.196 492.427 893.545 494.38 892.731 494.38H891.389V484.614H889.436V487.178H888.703C887.889 487.178 887.482 486.73 887.482 485.835C886.18 485.835 885.529 486.486 885.529 487.788C884.634 487.788 884.187 487.381 884.187 486.567L884.797 485.225C883.739 482.214 882.884 480.708 882.233 480.708L881.623 481.929L882.233 489.863C881.908 495.479 881.013 498.286 879.548 498.286C877.595 493.973 876.089 491.816 875.031 491.816C875.601 489.131 876.252 487.788 876.984 487.788C878.286 490.962 878.938 493.159 878.938 494.38H879.548L880.28 488.521C879.711 488.521 878.612 487.218 876.984 484.614L877.595 481.929V481.318H876.984C876.984 483.027 876.333 483.882 875.031 483.882C875.031 486.323 874.584 489.619 873.688 493.77C874.584 493.851 875.031 494.258 875.031 494.99V495.723C873.485 496.13 872.631 496.333 872.468 496.333C868.968 493.729 867.219 491.776 867.219 490.474L867.829 486.567C866.934 486.567 866.486 486.12 866.486 485.225V478.755C866.486 477.86 866.079 477.412 865.266 477.412H864.533L865.266 481.929L864.533 485.225L865.266 488.521L863.923 499.629H862.58C862.58 497.676 862.824 492.874 863.312 485.225L862.58 479.365C862.58 478.958 863.475 473.953 865.266 464.351C866.975 464.351 867.829 461.299 867.829 455.195V451.899C869.131 451.899 869.782 451.452 869.782 450.557V447.261L868.439 447.993C867.626 447.993 867.219 447.546 867.219 446.65V430.293C867.219 428.258 867.422 426.102 867.829 423.823C867.422 422.033 867.219 420.283 867.219 418.574C867.626 414.668 867.829 412.267 867.829 411.372L866.486 410.762H865.876L864.533 411.372L865.266 412.715V415.889C865.266 416.377 865.021 416.621 864.533 416.621C864.533 417.028 864.777 417.231 865.266 417.231C865.266 417.72 865.021 418.371 864.533 419.185L865.266 423.823C865.266 425.776 864.615 427.729 863.312 429.683V435.542L862.58 440.181C864.37 440.343 865.266 440.994 865.266 442.134C865.266 443.192 865.021 444.901 864.533 447.261C865.021 451.737 865.266 454.382 865.266 455.195C865.266 458.369 863.719 464.676 860.627 474.116C860.301 477.616 859.65 479.365 858.674 479.365H857.331V476.68C857.331 468.867 858.023 464.961 859.406 464.961C859.406 465.368 859.61 465.571 860.017 465.571C860.017 460.363 861.115 457.759 863.312 457.759V456.416C863.312 454.463 862.865 452.754 861.97 451.289C862.865 447.79 863.312 445.145 863.312 443.354V440.791H862.58C862.58 443.477 861.929 445.43 860.627 446.65V449.336C860.627 449.743 860.871 449.946 861.359 449.946C860.464 454.178 859.366 458.084 858.063 461.665V462.397H856.721L860.017 437.495V434.199C860.017 432.165 859.813 430.008 859.406 427.729L860.627 416.621L858.674 415.278H858.063V430.293C858.063 436.315 857.412 440.018 856.11 441.401V443.354C856.11 452.632 855.215 458.084 853.425 459.712H852.204C853.018 451.981 853.425 445.674 853.425 440.791C852.367 441.686 851.512 442.134 850.861 442.134L851.472 443.354C850.658 445.552 849.356 446.65 847.565 446.65V447.261L848.176 450.557C846.874 450.801 846.223 452.55 846.223 455.806V460.444C846.223 461.258 845.816 461.665 845.002 461.665L844.27 460.444V453.242L846.223 440.181V438.838H845.612V440.791H844.27C844.27 438.919 844.066 436.519 843.659 433.589C844.066 426.183 844.27 418.981 844.27 411.982C844.27 411.576 844.514 411.372 845.002 411.372C844.514 410.477 844.27 409.826 844.27 409.419C844.758 407.873 845.002 407.018 845.002 406.855C844.514 405.96 844.27 405.269 844.27 404.78C844.27 404.373 844.514 404.17 845.002 404.17L844.27 399.653V378.657C844.27 371.821 846.914 363.317 852.204 353.145C858.715 346.227 861.97 342.524 861.97 342.036H863.312V344.111H865.266C865.266 342.891 866.324 341.792 868.439 340.815H869.172C870.067 340.815 870.515 341.466 870.515 342.769H871.125C871.125 341.466 873.078 338.171 876.984 332.881C877.391 334.264 877.839 334.956 878.327 334.956C880.28 333.735 883.983 332.637 889.436 331.66C889.436 330.358 889.883 329.707 890.778 329.707L893.342 332.271H894.685C894.685 330.968 895.091 330.317 895.905 330.317C896.8 330.317 897.248 331.172 897.248 332.881H897.858C900.707 331.172 902.253 329.666 902.497 328.364H905.061C905.956 328.364 906.403 329.219 906.403 330.928L911.042 330.317C911.042 331.619 912.1 332.271 914.216 332.271C914.216 331.294 914.46 330.439 914.948 329.707L922.761 332.881C923.493 332.474 924.348 332.271 925.324 332.271C925.324 333.817 927.725 334.915 932.526 335.566C934.724 338.171 937.328 339.473 940.339 339.473V343.379C941.315 343.379 942.211 343.623 943.024 344.111V342.036H943.635C946.239 343.745 947.989 346.39 948.884 349.971C952.79 351.761 954.743 355.016 954.743 359.736L956.086 359.126C957.795 360.835 959.097 363.887 959.992 368.281C959.585 369.99 959.382 371.496 959.382 372.798L960.603 372.188H961.335L961.945 378.047C961.945 381.383 961.742 384.435 961.335 387.202C961.742 391.759 961.945 396.764 961.945 402.217V408.076C961.945 408.564 961.742 408.809 961.335 408.809L961.945 410.029V411.372C961.945 411.779 961.742 411.982 961.335 411.982C961.335 412.471 961.538 412.715 961.945 412.715L961.335 420.527V428.34C961.335 429.316 961.538 430.212 961.945 431.025C961.538 431.758 961.335 432.612 961.335 433.589C961.335 435.623 961.538 437.821 961.945 440.181C961.538 447.912 960.887 452.266 959.992 453.242C960.887 453.242 961.335 453.893 961.335 455.195C961.335 456.497 961.091 458.003 960.603 459.712C961.091 461.991 961.335 464.188 961.335 466.304V467.524C961.335 468.013 961.091 468.257 960.603 468.257C960.603 468.664 960.847 468.867 961.335 468.867C960.358 479.365 959.056 484.614 957.429 484.614C957.103 489.416 956.452 491.816 955.476 491.816H954.743V485.225H952.18V482.661L952.79 481.318C951.895 481.318 951.244 478.714 950.837 473.506C951.813 473.506 952.709 470.658 953.522 464.961C954.336 464.961 954.987 463.008 955.476 459.102V457.148H954.743C954.743 459.753 954.092 461.055 952.79 461.055C952.79 461.462 953.034 461.665 953.522 461.665C952.627 464.595 950.878 466.792 948.273 468.257C948.273 469.966 948.029 470.82 947.541 470.82C947.541 471.064 947.785 471.96 948.273 473.506C947.785 478.958 947.541 482.01 947.541 482.661L948.273 485.835C946.483 485.998 945.588 487.747 945.588 491.084C946.483 491.084 946.931 492.386 946.931 494.99H944.978V498.286C943.269 500.158 942.414 501.46 942.414 502.192L943.024 505.488C943.024 508.581 941.722 511.632 939.118 514.644C935.212 513.748 933.259 512.65 933.259 511.348V506.831C933.259 502.925 931.916 500.28 929.23 498.896C930.207 495.885 931.102 494.38 931.916 494.38C931.916 494.787 932.119 494.99 932.526 494.99C933.015 494.176 933.259 493.525 933.259 493.037V488.521H932.526V492.427H931.184C931.184 490.718 930.533 489.863 929.23 489.863H928.62L927.277 496.943C927.277 498.164 928.376 499.914 930.573 502.192L929.23 502.925L928.01 502.192C928.01 502.762 927.806 503.169 927.399 503.413L926.423 503.169C926.179 502.437 926.057 501.012 926.057 498.896H925.324C925.324 500.28 924.673 500.972 923.371 500.972V502.314L903.84 497.31ZM1043.98 520.015C1044.06 519.445 1044.1 519.119 1044.1 519.038L1042.88 519.771L1041.05 518.672C1040.56 517.777 1040.19 516.312 1039.95 514.277C1038.73 514.277 1037.59 513.138 1036.53 510.859V510.127H1037.26L1040.68 512.202H1041.41V511.592C1041.41 510.534 1039.79 509.395 1036.53 508.174C1036.53 504.43 1034.29 500.768 1029.82 497.188C1029.82 495.479 1028.88 494.136 1027.01 493.159V492.427L1031.16 491.816V491.084C1031.16 485.143 1029.57 482.173 1026.4 482.173C1025.5 482.173 1025.06 481.725 1025.06 480.83V474.727L1023.59 472.651C1024.57 472.651 1025.06 472.204 1025.06 471.309V470.576C1023.92 470.576 1022.78 468.786 1021.64 465.205C1021.15 465.205 1020.91 464.961 1020.91 464.473V463.13H1023.59C1023.59 462.479 1022.94 461.787 1021.64 461.055H1020.91V463.13L1018.22 461.055C1018.22 461.95 1017.53 462.397 1016.14 462.397V464.473L1018.22 467.158C1017.73 467.972 1017.49 468.664 1017.49 469.233H1017.61L1017.37 469.966H1016.75V472.041L1008.94 498.774C1008.29 500.158 1007.97 501.46 1007.97 502.681L1006.62 503.413C1006.95 503.82 1007.15 504.43 1007.23 505.244L1001.98 523.311C1000.19 520.462 998.322 519.038 996.369 519.038L996.979 512.202V509.517C998.363 507.726 999.502 505 1000.4 501.338L999.055 492.427C999.543 491.613 999.787 490.474 999.787 489.009H997.712C997.224 489.009 996.979 489.253 996.979 489.741L992.219 487.666L991.608 489.009V493.77L992.951 495.845C991.73 495.845 990.835 498.368 990.266 503.413H988.801V499.995C988.801 498.042 989.045 496.211 989.533 494.502L986.848 480.83H986.115C986.115 485.876 985.424 488.398 984.04 488.398V490.352L985.383 492.427C984.488 495.194 983.592 496.577 982.697 496.577C982.697 492.996 981.558 490.718 979.279 489.741L978.669 491.084V497.92H977.204C976.309 497.92 975.861 497.472 975.861 496.577C976.35 491.857 976.594 488.195 976.594 485.591C977.489 484.858 978.181 481.481 978.669 475.459H976.594V473.994C976.594 471.96 976.146 470.169 975.251 468.623C975.658 467.646 975.861 466.955 975.861 466.548H975.251L975.861 465.205V463.862L971.833 463.13L971.101 466.548V468.623H969.758V465.815C969.758 461.665 970.002 455.765 970.49 448.115C970.002 447.301 969.758 446.406 969.758 445.43C970.409 445.43 971.101 444.738 971.833 443.354V440.669H971.101V442.622H969.758V435.908C969.758 431.921 970.002 425.776 970.49 417.476C971.141 417.476 972.036 416.54 973.176 414.668H973.908V411.982L970.49 414.668H969.758V414.058C970.002 400.874 970.45 394.282 971.101 394.282C972.159 394.282 973.094 390.864 973.908 384.028V381.953H973.176C973.176 387.161 972.281 389.888 970.49 390.132V388.789C970.49 384.72 970.246 380.163 969.758 375.117C969.758 373.408 970.002 371.374 970.49 369.014C970.002 362.666 969.758 356.522 969.758 350.581V343.135C970.816 334.508 971.955 330.195 973.176 330.195L973.908 331.538V335.566H975.861C976.105 331.986 976.797 330.195 977.937 330.195C978.832 330.195 979.279 331.335 979.279 333.613H980.012C980.012 331.742 981.151 330.806 983.43 330.806V331.538C985.22 331.05 986.807 330.358 988.19 329.463C990.469 330.602 991.608 331.497 991.608 332.148V336.299H993.684C994.09 332.637 994.742 330.806 995.637 330.806C996.532 330.806 996.979 331.945 996.979 334.224H999.055C999.055 331.05 1000.64 329.463 1003.82 329.463C1004.3 330.277 1004.55 331.172 1004.55 332.148H1006.62C1007.6 331.172 1010.08 330.521 1014.07 330.195C1015.53 331.09 1016.67 331.538 1017.49 331.538C1017.49 331.945 1017.24 332.148 1016.75 332.148C1018.14 334.997 1018.83 337.072 1018.83 338.374H1019.56V334.224H1020.17C1020.91 334.224 1022.04 336.502 1023.59 341.06C1024.32 341.06 1025.26 344.925 1026.4 352.656C1029.57 354.202 1031.16 356.237 1031.16 358.76C1030.67 359.329 1030.43 360.469 1030.43 362.178C1031.16 362.178 1031.85 362.869 1032.5 364.253L1030.43 366.938C1031.16 366.938 1032.54 368.77 1034.58 372.432V375.85C1034.58 380.407 1035.92 383.581 1038.61 385.371C1038.61 386.836 1039.3 388.219 1040.68 389.521V390.132C1040.68 391.027 1039.99 391.475 1038.61 391.475L1039.34 396.235L1040.68 395.625H1041.41L1040.68 399.043L1041.41 403.804H1042.76V402.461H1044.1L1045.44 403.071L1046.17 401.729C1045.28 395.299 1044.83 390.986 1044.83 388.789C1045.24 384.801 1045.44 382.523 1045.44 381.953C1044.55 380.244 1044.1 378.21 1044.1 375.85L1044.83 371.089C1043.85 369.461 1043.37 368.078 1043.37 366.938V357.417C1043.37 355.789 1043.16 354.65 1042.76 353.999L1043.37 349.971V341.06C1043.37 333.817 1045.2 330.195 1048.86 330.195C1050 330.195 1051.83 329.951 1054.35 329.463C1054.43 330.358 1054.88 330.806 1055.7 330.806H1059.72L1061.8 329.463L1062.53 330.806L1063.87 330.195C1064.77 330.277 1065.22 330.724 1065.22 331.538C1067.01 331.294 1067.9 330.602 1067.9 329.463H1069.37C1070.26 329.544 1070.71 329.992 1070.71 330.806C1070.22 330.806 1069.98 331.05 1069.98 331.538L1084.99 329.463L1087.07 332.148L1088.41 331.538C1090.36 332.108 1091.75 335.973 1092.56 343.135L1091.83 349.971V383.296C1091.83 384.354 1091.58 385.29 1091.1 386.104C1091.58 386.836 1091.83 387.731 1091.83 388.789V393.55C1091.83 403.234 1091.58 412.349 1091.1 420.894C1091.58 426.102 1091.83 431.107 1091.83 435.908C1090.93 445.511 1090.49 451.859 1090.49 454.951C1090.49 455.602 1090.93 456.945 1091.83 458.979L1091.1 462.397C1091.1 463.781 1091.34 465.368 1091.83 467.158L1091.1 473.384C1091.58 481.115 1091.83 485.672 1091.83 487.056C1091.34 490.067 1091.1 492.549 1091.1 494.502H1089.75V487.666C1088.04 487.666 1086.9 491.084 1086.33 497.92H1084.99V489.009H1082.31V486.323L1082.92 484.98C1082.02 484.98 1081.37 482.254 1080.96 476.802C1081.94 476.802 1082.84 473.831 1083.65 467.891C1084.71 467.891 1085.4 465.856 1085.72 461.787V459.712H1084.99C1084.99 462.479 1084.3 463.862 1082.92 463.862C1082.92 464.269 1083.16 464.473 1083.65 464.473C1082.75 467.565 1080.92 469.844 1078.16 471.309C1078.16 473.099 1077.95 473.994 1077.55 473.994C1077.55 474.238 1077.75 475.174 1078.16 476.802C1077.75 482.498 1077.55 485.672 1077.55 486.323L1078.16 489.741H1075.47C1074.98 488.846 1074.74 488.154 1074.74 487.666H1073.4C1071.61 490.84 1070.47 492.427 1069.98 492.427H1069.37L1069.98 484.248V482.173H1068.63L1069.98 472.041C1069.57 469.6 1069.37 467.321 1069.37 465.205H1067.9V478.145C1067.9 478.551 1067.7 478.755 1067.29 478.755L1067.9 480.22V482.905C1067.9 483.556 1067.01 484.451 1065.22 485.591C1064.89 485.591 1064.2 484.94 1063.14 483.638L1063.87 482.173V481.562H1061.8C1062.29 488.154 1062.98 491.776 1063.87 492.427H1063.14L1061.8 491.816V494.502H1060.46V493.77C1059.97 488.154 1059.72 485.225 1059.72 484.98C1059.72 482.702 1060.21 481.562 1061.19 481.562C1060.7 481.074 1060.46 479.243 1060.46 476.069H1059.72C1059.72 479.243 1058.14 480.83 1054.96 480.83H1054.35C1054.76 474.727 1055.45 471.309 1056.43 470.576V469.233C1055.94 469.233 1055.25 469.03 1054.35 468.623C1054.35 469.925 1053.66 470.576 1052.28 470.576V473.384C1052.28 475.174 1052.03 476.965 1051.54 478.755L1052.28 482.173C1052.28 482.58 1052.03 484.411 1051.54 487.666L1052.28 491.084C1051.63 492.874 1050.93 493.77 1050.2 493.77H1049.59V484.248C1049.59 483.841 1049.8 483.638 1050.2 483.638L1049.59 482.173V480.83C1049.59 478.47 1049.8 474.604 1050.2 469.233H1047.52V472.041C1047.52 473.343 1047.27 473.994 1046.78 473.994C1047.68 480.423 1048.13 484.777 1048.13 487.056C1047.23 490.555 1046.58 495.316 1046.17 501.338L1043.37 496.577L1042.76 497.92V499.263C1045.93 506.424 1047.52 511.185 1047.52 513.545C1047.52 517.695 1046.62 519.771 1044.83 519.771L1044.95 520.747L1043.98 520.015ZM973.176 366.328V369.746H973.908V366.328H973.176ZM973.908 375.117V378.535H974.519C975.414 378.535 975.861 378.088 975.861 377.192V374.507C974.966 374.914 974.315 375.117 973.908 375.117ZM993.684 376.46V377.192H996.369V376.46H993.684ZM986.115 382.686C986.115 385.046 985.424 386.836 984.04 388.057V393.55H984.772C985.749 393.55 986.441 390.376 986.848 384.028V382.686H986.115ZM975.861 390.132V392.939H976.594V390.132H975.861ZM978.669 394.282V396.968H979.279V394.282H978.669ZM984.04 396.968V406.489L983.43 411.25H985.383C985.383 409.704 985.627 408.564 986.115 407.832L985.383 406.489C985.383 406.164 985.627 404.821 986.115 402.461C985.627 399.938 985.383 398.107 985.383 396.968H984.04ZM973.176 397.7V401.729H973.908V397.7H973.176ZM1078.16 397.7V402.461L1079.5 401.729L1078.89 397.7H1078.16ZM989.533 399.043V401.118L990.266 404.536C991.161 404.536 991.608 404.048 991.608 403.071V399.043H989.533ZM971.101 405.146C971.589 405.96 971.833 406.855 971.833 407.832H972.443L973.176 404.536V402.461C972.688 402.461 971.996 403.356 971.101 405.146ZM996.979 405.879V413.325H998.444L999.055 409.907V407.222C999.055 406.326 998.607 405.879 997.712 405.879H996.979ZM990.876 411.982L991.608 415.4V416.743C991.608 417.231 991.364 417.476 990.876 417.476C990.876 417.882 991.12 418.086 991.608 418.086C991.608 418.574 991.364 419.266 990.876 420.161C991.364 422.521 991.608 424.556 991.608 426.265C991.608 427.404 990.917 428.991 989.533 431.025C990.021 431.025 990.713 431.27 991.608 431.758C992.992 428.584 993.887 426.997 994.294 426.997L993.684 422.236C993.684 419.795 993.887 416.377 994.294 411.982L992.951 411.25H992.219L990.876 411.982ZM984.04 416.133V435.176L983.43 439.937C984.732 439.937 985.383 440.384 985.383 441.279V442.622C985.383 443.599 984.732 444.087 983.43 444.087V446.04H985.383L986.115 442.012L985.383 437.861L986.115 433.833L985.383 429.683L986.848 417.476L984.772 416.133H984.04ZM1078.16 416.743V422.847C1079.05 422.847 1079.5 422.399 1079.5 421.504L1078.89 416.743H1078.16ZM975.861 418.086C975.861 421.26 975.21 422.847 973.908 422.847C973.42 430.822 973.176 435.623 973.176 437.251V438.594H973.908C975.699 434.688 976.594 431.27 976.594 428.34V418.086H975.861ZM971.833 418.818V424.312H972.443L973.176 419.429V418.818H971.833ZM1052.28 426.997V427.607L1053.01 431.025H1053.62C1053.62 429.479 1053.86 428.34 1054.35 427.607L1053.01 426.997H1052.28ZM989.533 440.669C990.184 440.669 990.876 441.32 991.608 442.622V449.458H992.219C992.219 447.993 992.707 445.063 993.684 440.669V431.025C992.3 431.025 990.917 434.24 989.533 440.669ZM979.279 431.758V434.443C979.442 435.42 979.89 435.908 980.622 435.908L981.354 432.49L980.012 431.758H979.279ZM1078.16 438.594V447.383L1077.55 451.533C1077.95 452.184 1078.16 453.324 1078.16 454.951V457.637H1080.23C1081.61 454.707 1082.31 451.981 1082.31 449.458C1081.17 450.353 1080.48 450.801 1080.23 450.801H1078.89L1079.5 444.087V442.012L1078.89 438.594H1078.16Z" fill="white"/>
</svg>
